G04*
G04 #@! TF.GenerationSoftware,Altium Limited,Altium Designer,21.4.1 (30)*
G04*
G04 Layer_Physical_Order=3*
G04 Layer_Color=16440176*
%FSLAX25Y25*%
%MOIN*%
G70*
G04*
G04 #@! TF.SameCoordinates,04E9EE4E-D336-421F-817C-04C26E83230A*
G04*
G04*
G04 #@! TF.FilePolarity,Positive*
G04*
G01*
G75*
%ADD122C,0.02000*%
%ADD124C,0.05941*%
%ADD132C,0.05512*%
%ADD133C,0.06200*%
%ADD136O,0.04400X0.12700*%
G04:AMPARAMS|DCode=139|XSize=60mil|YSize=60mil|CornerRadius=15mil|HoleSize=0mil|Usage=FLASHONLY|Rotation=270.000|XOffset=0mil|YOffset=0mil|HoleType=Round|Shape=RoundedRectangle|*
%AMROUNDEDRECTD139*
21,1,0.06000,0.03000,0,0,270.0*
21,1,0.03000,0.06000,0,0,270.0*
1,1,0.03000,-0.01500,-0.01500*
1,1,0.03000,-0.01500,0.01500*
1,1,0.03000,0.01500,0.01500*
1,1,0.03000,0.01500,-0.01500*
%
%ADD139ROUNDEDRECTD139*%
%ADD140C,0.01800*%
G36*
X440639Y277784D02*
Y40391D01*
X415708Y15460D01*
X414364Y16358D01*
X412026Y17511D01*
X409558Y18349D01*
X407001Y18857D01*
X404400Y19028D01*
X401799Y18857D01*
X399242Y18349D01*
X396774Y17511D01*
X394436Y16358D01*
X392269Y14910D01*
X390309Y13191D01*
X388590Y11231D01*
X387142Y9064D01*
X386365Y7487D01*
X366956D01*
X358247Y-1221D01*
Y-17427D01*
X358247Y-30453D01*
X355067Y-33633D01*
X341070Y-33633D01*
X338579Y-31142D01*
X338579Y-10271D01*
X338579Y-1311D01*
X331884Y5385D01*
X305872Y5385D01*
X296646Y-3841D01*
X296646Y-24480D01*
X291267Y-29859D01*
X290361Y-29375D01*
X289145Y-29006D01*
X287881Y-28881D01*
X286616Y-29006D01*
X285401Y-29375D01*
X284280Y-29974D01*
X283298Y-30779D01*
X282492Y-31762D01*
X281893Y-32882D01*
X281524Y-34098D01*
X281400Y-35362D01*
X281524Y-36627D01*
X281702Y-37213D01*
X281404Y-37615D01*
X241995D01*
X241698Y-37213D01*
X241875Y-36627D01*
X242000Y-35362D01*
X241875Y-34098D01*
X241507Y-32882D01*
X240908Y-31762D01*
X240102Y-30779D01*
X239120Y-29974D01*
X237999Y-29375D01*
X236783Y-29006D01*
X235519Y-28881D01*
X234254Y-29006D01*
X233038Y-29375D01*
X231918Y-29974D01*
X230936Y-30779D01*
X230130Y-31762D01*
X229531Y-32882D01*
X229162Y-34098D01*
X229037Y-35362D01*
X229162Y-36627D01*
X229340Y-37213D01*
X229042Y-37615D01*
X34923D01*
X26975Y-29667D01*
Y110135D01*
X31136Y114296D01*
X78957Y114296D01*
X80949Y112304D01*
X80949Y67420D01*
X66185Y52656D01*
X66149Y52679D01*
X65525Y52803D01*
X64901Y52679D01*
X64371Y52326D01*
X64018Y51796D01*
X63894Y51172D01*
X64018Y50548D01*
X64041Y50512D01*
X58001Y44472D01*
Y3097D01*
X68691Y-7593D01*
X68607Y-8234D01*
X68768Y-9461D01*
X69242Y-10604D01*
X69995Y-11586D01*
X70977Y-12339D01*
X72120Y-12813D01*
X73347Y-12975D01*
X74574Y-12813D01*
X75718Y-12339D01*
X76699Y-11586D01*
X77453Y-10604D01*
X77926Y-9461D01*
X77992Y-8961D01*
X88702D01*
X88768Y-9461D01*
X89242Y-10604D01*
X89995Y-11586D01*
X90977Y-12339D01*
X92120Y-12813D01*
X93347Y-12975D01*
X94574Y-12813D01*
X95718Y-12339D01*
X96699Y-11586D01*
X97453Y-10604D01*
X97926Y-9461D01*
X97992Y-8961D01*
X108703D01*
X108768Y-9461D01*
X109242Y-10604D01*
X109995Y-11586D01*
X110977Y-12339D01*
X112120Y-12813D01*
X113347Y-12975D01*
X114574Y-12813D01*
X115718Y-12339D01*
X116699Y-11586D01*
X117453Y-10604D01*
X117926Y-9461D01*
X117992Y-8961D01*
X128702D01*
X128768Y-9461D01*
X129242Y-10604D01*
X129995Y-11586D01*
X130977Y-12339D01*
X132120Y-12813D01*
X133347Y-12975D01*
X134574Y-12813D01*
X135718Y-12339D01*
X136699Y-11586D01*
X137453Y-10604D01*
X137926Y-9461D01*
X137992Y-8961D01*
X148703D01*
X148768Y-9461D01*
X149242Y-10604D01*
X149995Y-11586D01*
X150977Y-12339D01*
X152120Y-12813D01*
X153347Y-12975D01*
X154574Y-12813D01*
X155718Y-12339D01*
X156699Y-11586D01*
X157453Y-10604D01*
X157926Y-9461D01*
X157992Y-8961D01*
X225760Y-8961D01*
X274273Y39553D01*
X323915Y89195D01*
X324149Y89352D01*
X324305Y89585D01*
X347068Y112348D01*
X347182Y112272D01*
X347806Y112148D01*
X348430Y112272D01*
X348959Y112625D01*
X349313Y113155D01*
X349437Y113779D01*
X349313Y114403D01*
X349237Y114517D01*
X352358Y117638D01*
X352358Y129459D01*
X352858Y129508D01*
X352884Y129378D01*
X353238Y128849D01*
X353767Y128496D01*
X354391Y128372D01*
X355015Y128496D01*
X355545Y128849D01*
X355898Y129378D01*
X356023Y130003D01*
X355898Y130627D01*
X355545Y131156D01*
X355015Y131510D01*
X354391Y131634D01*
X353767Y131510D01*
X353238Y131156D01*
X352884Y130627D01*
X352858Y130497D01*
X352358Y130546D01*
Y135106D01*
X352858Y135156D01*
X352923Y134829D01*
X353277Y134300D01*
X353806Y133946D01*
X354430Y133822D01*
X355055Y133946D01*
X355584Y134300D01*
X355938Y134829D01*
X356062Y135453D01*
X355938Y136078D01*
X355584Y136607D01*
X355055Y136961D01*
X354430Y137085D01*
X353806Y136961D01*
X353277Y136607D01*
X352923Y136078D01*
X352858Y135751D01*
X352358Y135801D01*
X352358Y141909D01*
Y244266D01*
X346750Y249874D01*
X184907D01*
X173497Y261284D01*
Y284094D01*
X182342Y292939D01*
X303532D01*
X303746Y292439D01*
X303636Y291890D01*
X303760Y291265D01*
X304114Y290736D01*
X304643Y290382D01*
X305268Y290258D01*
X305892Y290382D01*
X306421Y290736D01*
X306775Y291265D01*
X306899Y291890D01*
X306789Y292439D01*
X307003Y292939D01*
X425484D01*
X440639Y277784D01*
D02*
G37*
G36*
X167185Y275406D02*
X167185Y246218D01*
X171672Y241731D01*
X171603Y241383D01*
X171727Y240758D01*
X172081Y240229D01*
X172610Y239875D01*
X173235Y239751D01*
X173583Y239820D01*
X174407Y238996D01*
X330195D01*
X335352Y233839D01*
X335352Y212202D01*
X335265Y211764D01*
X335352Y211326D01*
X335352Y152767D01*
X326565Y143980D01*
X326104Y144226D01*
X326117Y144288D01*
X325993Y144912D01*
X325639Y145441D01*
X325110Y145795D01*
X324485Y145919D01*
X323861Y145795D01*
X323332Y145441D01*
X322978Y144912D01*
X322854Y144288D01*
X322978Y143664D01*
X323332Y143134D01*
X323861Y142781D01*
X324485Y142657D01*
X324547Y142669D01*
X324793Y142208D01*
X317144Y134558D01*
X276657D01*
X267671Y125571D01*
Y57385D01*
X246378Y36093D01*
X245961Y36372D01*
X245336Y36496D01*
X244712Y36372D01*
X244183Y36018D01*
X243829Y35489D01*
X243705Y34865D01*
X243829Y34240D01*
X244108Y33823D01*
X229407Y19121D01*
X209840Y19121D01*
X208288Y20673D01*
Y47143D01*
X208574Y47280D01*
X208788Y47332D01*
X209273Y47008D01*
X209897Y46884D01*
X210521Y47008D01*
X211050Y47362D01*
X211404Y47891D01*
X211528Y48515D01*
X211404Y49139D01*
X211050Y49669D01*
X210521Y50022D01*
X209897Y50147D01*
X209273Y50022D01*
X208743Y49669D01*
X208708Y49616D01*
X208102Y49609D01*
X205432Y52278D01*
X205481Y52776D01*
X205549Y52821D01*
X205903Y53351D01*
X206027Y53975D01*
X205903Y54599D01*
X205549Y55128D01*
X205020Y55482D01*
X204395Y55606D01*
X203771Y55482D01*
X203242Y55128D01*
X203197Y55060D01*
X202699Y55011D01*
X200026Y57685D01*
X200075Y58182D01*
X200197Y58264D01*
X200551Y58793D01*
X200675Y59418D01*
X200551Y60042D01*
X200197Y60571D01*
X199668Y60925D01*
X199044Y61049D01*
X198419Y60925D01*
X197890Y60571D01*
X197808Y60449D01*
X197311Y60400D01*
X191593Y66118D01*
X191700Y66656D01*
X191576Y67281D01*
X191222Y67810D01*
X190693Y68163D01*
X190068Y68288D01*
X189530Y68181D01*
X174307Y83403D01*
X173301D01*
X173265Y83458D01*
X172735Y83811D01*
X172111Y83935D01*
X171487Y83811D01*
X170958Y83458D01*
X170921Y83403D01*
X157881D01*
X155366Y80888D01*
Y44999D01*
X158484Y41881D01*
X158484Y12436D01*
X157984Y12387D01*
X157980Y12406D01*
X157626Y12935D01*
X157097Y13289D01*
X156473Y13413D01*
X155849Y13289D01*
X155319Y12935D01*
X154966Y12406D01*
X154842Y11782D01*
X154966Y11158D01*
X155319Y10628D01*
X155849Y10275D01*
X156473Y10150D01*
X157097Y10275D01*
X157626Y10628D01*
X157980Y11158D01*
X157984Y11177D01*
X158484Y11128D01*
Y5485D01*
X155400Y2401D01*
X115773Y2401D01*
X70966Y2401D01*
X66148Y7218D01*
X66148Y20682D01*
X66648Y20950D01*
X66919Y20768D01*
X67544Y20644D01*
X68168Y20768D01*
X68697Y21122D01*
X69051Y21651D01*
X69175Y22276D01*
X69051Y22900D01*
X68697Y23429D01*
X68168Y23783D01*
X67544Y23907D01*
X66919Y23783D01*
X66648Y23602D01*
X66148Y23869D01*
X66148Y40814D01*
X88994Y63660D01*
Y116653D01*
X85853Y119794D01*
X73727D01*
X73576Y120294D01*
X73654Y120346D01*
X74007Y120876D01*
X74131Y121500D01*
X74007Y122124D01*
X73654Y122653D01*
X73124Y123007D01*
X72500Y123131D01*
X71876Y123007D01*
X71346Y122653D01*
X70993Y122124D01*
X70869Y121500D01*
X70993Y120876D01*
X71346Y120346D01*
X71424Y120294D01*
X71273Y119794D01*
X68727D01*
X68576Y120294D01*
X68654Y120346D01*
X69007Y120876D01*
X69131Y121500D01*
X69007Y122124D01*
X68654Y122653D01*
X68124Y123007D01*
X67500Y123131D01*
X66876Y123007D01*
X66347Y122653D01*
X65993Y122124D01*
X65869Y121500D01*
X65993Y120876D01*
X66115Y120693D01*
X65895Y120123D01*
X65846Y120110D01*
X61523Y124434D01*
Y164742D01*
X59197Y167067D01*
X59623Y167622D01*
X59970Y168461D01*
X60089Y169362D01*
X59970Y170263D01*
X59623Y171102D01*
X59070Y171823D01*
X58349Y172376D01*
X57510Y172723D01*
X56609Y172842D01*
X55709Y172723D01*
X54869Y172376D01*
X54315Y171950D01*
X25867Y200398D01*
X25867Y273159D01*
X29360Y276652D01*
X45309Y276652D01*
X56802D01*
X59444Y274010D01*
Y218244D01*
X63487Y214202D01*
X103201D01*
X103496Y213843D01*
X103620Y213218D01*
X103974Y212689D01*
X104503Y212335D01*
X105127Y212211D01*
X105752Y212335D01*
X106281Y212689D01*
X106634Y213218D01*
X106759Y213843D01*
X107053Y214202D01*
X133019D01*
X145445Y226627D01*
Y231120D01*
X145670Y231305D01*
X146294Y231429D01*
X146824Y231783D01*
X147177Y232312D01*
X147301Y232936D01*
X147177Y233561D01*
X146824Y234090D01*
X146294Y234444D01*
X145670Y234568D01*
X145445Y234753D01*
Y275971D01*
X147904Y278430D01*
X164161Y278430D01*
X167185Y275406D01*
D02*
G37*
G36*
X167260Y78543D02*
Y70328D01*
X179063Y58524D01*
X179343Y58105D01*
X179763Y57824D01*
X191782Y45805D01*
X191618Y45263D01*
X191426Y45225D01*
X190897Y44871D01*
X190543Y44342D01*
X190419Y43717D01*
X190543Y43093D01*
X190897Y42564D01*
X191426Y42210D01*
X192050Y42086D01*
X192675Y42210D01*
X193204Y42564D01*
X193557Y43093D01*
X193596Y43285D01*
X194138Y43449D01*
X205666Y31921D01*
Y23410D01*
X203976Y21720D01*
X183475Y21720D01*
X157955Y47240D01*
X157955Y79021D01*
X158537Y79603D01*
X166200D01*
X167260Y78543D01*
D02*
G37*
G36*
X144131Y-211830D02*
X142163D01*
X138212Y-205419D01*
Y-211830D01*
X136398D01*
Y-202101D01*
X138296D01*
X142317Y-208652D01*
Y-202101D01*
X144131D01*
Y-211830D01*
D02*
G37*
G36*
X83167D02*
X81044D01*
X79132Y-204561D01*
X77191Y-211830D01*
X75054D01*
X72749Y-202101D01*
X74759D01*
X76221Y-208793D01*
X77993Y-202101D01*
X80355D01*
X82042Y-208906D01*
X83533Y-202101D01*
X85515D01*
X83167Y-211830D01*
D02*
G37*
G36*
X52966Y-209229D02*
X49296D01*
Y-207359D01*
X52966D01*
Y-209229D01*
D02*
G37*
G36*
X44839Y-202058D02*
X44966Y-202072D01*
X45092Y-202086D01*
X45247Y-202115D01*
X45402Y-202157D01*
X45753Y-202255D01*
X45936Y-202326D01*
X46133Y-202424D01*
X46316Y-202522D01*
X46484Y-202635D01*
X46667Y-202775D01*
X46822Y-202930D01*
X46836Y-202944D01*
X46850Y-202958D01*
X46892Y-203000D01*
X46934Y-203057D01*
X47047Y-203197D01*
X47173Y-203394D01*
X47300Y-203633D01*
X47398Y-203914D01*
X47483Y-204224D01*
X47497Y-204378D01*
X47511Y-204547D01*
Y-204561D01*
Y-204603D01*
X47497Y-204674D01*
X47483Y-204758D01*
X47469Y-204870D01*
X47440Y-204997D01*
X47398Y-205137D01*
X47342Y-205292D01*
X47258Y-205447D01*
X47173Y-205616D01*
X47061Y-205784D01*
X46920Y-205953D01*
X46751Y-206122D01*
X46569Y-206290D01*
X46358Y-206445D01*
X46105Y-206600D01*
X46119D01*
X46147Y-206614D01*
X46189D01*
X46245Y-206642D01*
X46400Y-206684D01*
X46583Y-206768D01*
X46794Y-206881D01*
X47019Y-207022D01*
X47244Y-207204D01*
X47440Y-207415D01*
X47469Y-207443D01*
X47525Y-207528D01*
X47595Y-207654D01*
X47693Y-207837D01*
X47792Y-208048D01*
X47862Y-208315D01*
X47918Y-208596D01*
X47947Y-208920D01*
Y-208934D01*
Y-208976D01*
Y-209046D01*
X47932Y-209131D01*
X47918Y-209243D01*
X47890Y-209370D01*
X47862Y-209524D01*
X47834Y-209679D01*
X47722Y-210016D01*
X47637Y-210199D01*
X47553Y-210396D01*
X47440Y-210579D01*
X47314Y-210761D01*
X47173Y-210944D01*
X47005Y-211113D01*
X46990Y-211127D01*
X46962Y-211155D01*
X46906Y-211197D01*
X46836Y-211254D01*
X46738Y-211324D01*
X46639Y-211394D01*
X46498Y-211479D01*
X46358Y-211563D01*
X46203Y-211647D01*
X46020Y-211732D01*
X45824Y-211802D01*
X45627Y-211872D01*
X45402Y-211929D01*
X45177Y-211971D01*
X44924Y-211999D01*
X44671Y-212013D01*
X44544D01*
X44446Y-211999D01*
X44333Y-211985D01*
X44207Y-211971D01*
X44066Y-211943D01*
X43897Y-211914D01*
X43560Y-211830D01*
X43194Y-211689D01*
X42998Y-211605D01*
X42829Y-211507D01*
X42646Y-211380D01*
X42477Y-211254D01*
X42463Y-211240D01*
X42435Y-211211D01*
X42393Y-211169D01*
X42337Y-211113D01*
X42266Y-211043D01*
X42196Y-210944D01*
X42112Y-210846D01*
X42027Y-210719D01*
X41943Y-210579D01*
X41845Y-210438D01*
X41690Y-210101D01*
X41563Y-209707D01*
X41507Y-209496D01*
X41479Y-209271D01*
X43279Y-209046D01*
Y-209060D01*
Y-209074D01*
X43293Y-209159D01*
X43321Y-209285D01*
X43363Y-209440D01*
X43433Y-209609D01*
X43504Y-209791D01*
X43616Y-209960D01*
X43743Y-210115D01*
X43757Y-210129D01*
X43813Y-210171D01*
X43897Y-210227D01*
X43996Y-210283D01*
X44136Y-210354D01*
X44291Y-210410D01*
X44460Y-210452D01*
X44657Y-210466D01*
X44685D01*
X44755Y-210452D01*
X44853Y-210438D01*
X44994Y-210410D01*
X45149Y-210354D01*
X45303Y-210283D01*
X45472Y-210171D01*
X45627Y-210030D01*
X45641Y-210016D01*
X45697Y-209946D01*
X45753Y-209848D01*
X45838Y-209721D01*
X45908Y-209552D01*
X45978Y-209342D01*
X46020Y-209102D01*
X46034Y-208835D01*
Y-208821D01*
Y-208807D01*
Y-208723D01*
X46020Y-208596D01*
X45992Y-208428D01*
X45936Y-208245D01*
X45866Y-208062D01*
X45767Y-207879D01*
X45641Y-207711D01*
X45627Y-207696D01*
X45570Y-207640D01*
X45486Y-207570D01*
X45388Y-207500D01*
X45247Y-207415D01*
X45092Y-207359D01*
X44924Y-207303D01*
X44727Y-207289D01*
X44586D01*
X44488Y-207303D01*
X44361Y-207317D01*
X44207Y-207345D01*
X44052Y-207387D01*
X43869Y-207429D01*
X44066Y-205925D01*
X44193D01*
X44333Y-205911D01*
X44502Y-205897D01*
X44685Y-205855D01*
X44881Y-205798D01*
X45064Y-205714D01*
X45233Y-205602D01*
X45247Y-205587D01*
X45303Y-205531D01*
X45360Y-205461D01*
X45444Y-205348D01*
X45514Y-205222D01*
X45584Y-205067D01*
X45627Y-204884D01*
X45641Y-204674D01*
Y-204645D01*
Y-204589D01*
X45627Y-204505D01*
X45599Y-204392D01*
X45570Y-204266D01*
X45514Y-204139D01*
X45444Y-203999D01*
X45346Y-203886D01*
X45331Y-203872D01*
X45289Y-203844D01*
X45233Y-203788D01*
X45135Y-203731D01*
X45022Y-203689D01*
X44896Y-203633D01*
X44727Y-203605D01*
X44558Y-203591D01*
X44474D01*
X44389Y-203605D01*
X44277Y-203633D01*
X44150Y-203675D01*
X44010Y-203731D01*
X43869Y-203816D01*
X43743Y-203928D01*
X43729Y-203942D01*
X43686Y-203985D01*
X43630Y-204069D01*
X43560Y-204181D01*
X43490Y-204308D01*
X43433Y-204477D01*
X43377Y-204674D01*
X43335Y-204899D01*
X41620Y-204617D01*
Y-204603D01*
X41634Y-204575D01*
Y-204533D01*
X41648Y-204463D01*
X41690Y-204308D01*
X41746Y-204097D01*
X41831Y-203872D01*
X41915Y-203633D01*
X42027Y-203408D01*
X42154Y-203197D01*
X42168Y-203169D01*
X42224Y-203113D01*
X42309Y-203014D01*
X42421Y-202888D01*
X42562Y-202761D01*
X42730Y-202621D01*
X42941Y-202480D01*
X43166Y-202354D01*
X43180D01*
X43194Y-202340D01*
X43279Y-202311D01*
X43419Y-202255D01*
X43588Y-202199D01*
X43799Y-202143D01*
X44052Y-202086D01*
X44319Y-202058D01*
X44614Y-202044D01*
X44741D01*
X44839Y-202058D01*
D02*
G37*
G36*
X153425Y-203746D02*
X148180D01*
Y-205897D01*
X153059D01*
Y-207542D01*
X148180D01*
Y-210185D01*
X153607D01*
Y-211830D01*
X146212D01*
Y-202101D01*
X153425D01*
Y-203746D01*
D02*
G37*
G36*
X135344Y-211830D02*
X133221D01*
X132377Y-209623D01*
X128468D01*
X127667Y-211830D01*
X125586D01*
X129354Y-202101D01*
X131435D01*
X135344Y-211830D01*
D02*
G37*
G36*
X120285Y-210185D02*
X125178D01*
Y-211830D01*
X118317D01*
Y-202171D01*
X120285D01*
Y-210185D01*
D02*
G37*
G36*
X112946Y-202115D02*
X113312D01*
X113705Y-202143D01*
X114099Y-202171D01*
X114268Y-202185D01*
X114436Y-202199D01*
X114577Y-202227D01*
X114689Y-202255D01*
X114704D01*
X114732Y-202269D01*
X114774Y-202283D01*
X114830Y-202297D01*
X114985Y-202368D01*
X115182Y-202452D01*
X115392Y-202579D01*
X115631Y-202747D01*
X115856Y-202958D01*
X116081Y-203211D01*
Y-203225D01*
X116110Y-203239D01*
X116138Y-203282D01*
X116166Y-203338D01*
X116222Y-203422D01*
X116264Y-203507D01*
X116320Y-203605D01*
X116377Y-203717D01*
X116475Y-203999D01*
X116574Y-204308D01*
X116630Y-204688D01*
X116658Y-205095D01*
Y-205109D01*
Y-205137D01*
Y-205180D01*
Y-205250D01*
X116644Y-205320D01*
Y-205419D01*
X116616Y-205616D01*
X116574Y-205855D01*
X116517Y-206122D01*
X116433Y-206375D01*
X116320Y-206614D01*
X116306Y-206642D01*
X116264Y-206712D01*
X116194Y-206825D01*
X116095Y-206965D01*
X115983Y-207106D01*
X115828Y-207275D01*
X115674Y-207429D01*
X115491Y-207570D01*
X115463Y-207584D01*
X115407Y-207626D01*
X115308Y-207682D01*
X115182Y-207753D01*
X115027Y-207837D01*
X114858Y-207907D01*
X114675Y-207978D01*
X114479Y-208034D01*
X114450D01*
X114408Y-208048D01*
X114352D01*
X114282Y-208062D01*
X114183Y-208076D01*
X114085Y-208090D01*
X113958D01*
X113832Y-208104D01*
X113677Y-208118D01*
X113508Y-208132D01*
X113326Y-208146D01*
X113129D01*
X112918Y-208160D01*
X111174D01*
Y-211830D01*
X109206D01*
Y-202101D01*
X112791D01*
X112946Y-202115D01*
D02*
G37*
G36*
X100123D02*
X100278D01*
X100433Y-202129D01*
X100615D01*
X100981Y-202171D01*
X101361Y-202213D01*
X101712Y-202283D01*
X101867Y-202326D01*
X102007Y-202368D01*
X102021D01*
X102035Y-202382D01*
X102120Y-202424D01*
X102246Y-202494D01*
X102415Y-202579D01*
X102598Y-202719D01*
X102781Y-202874D01*
X102963Y-203071D01*
X103132Y-203310D01*
Y-203324D01*
X103146Y-203338D01*
X103174Y-203380D01*
X103202Y-203422D01*
X103273Y-203563D01*
X103357Y-203746D01*
X103427Y-203971D01*
X103498Y-204224D01*
X103554Y-204519D01*
X103568Y-204828D01*
Y-204842D01*
Y-204870D01*
Y-204941D01*
X103554Y-205011D01*
Y-205109D01*
X103540Y-205208D01*
X103484Y-205461D01*
X103413Y-205756D01*
X103301Y-206051D01*
X103132Y-206361D01*
X103034Y-206501D01*
X102921Y-206642D01*
X102907Y-206656D01*
X102893Y-206670D01*
X102851Y-206712D01*
X102795Y-206754D01*
X102738Y-206811D01*
X102654Y-206881D01*
X102556Y-206951D01*
X102443Y-207022D01*
X102317Y-207106D01*
X102162Y-207176D01*
X102007Y-207246D01*
X101839Y-207317D01*
X101642Y-207387D01*
X101445Y-207443D01*
X101234Y-207500D01*
X100995Y-207542D01*
X101009D01*
X101023Y-207556D01*
X101108Y-207612D01*
X101220Y-207682D01*
X101361Y-207781D01*
X101529Y-207907D01*
X101698Y-208034D01*
X101881Y-208189D01*
X102035Y-208357D01*
X102050Y-208371D01*
X102120Y-208442D01*
X102204Y-208554D01*
X102331Y-208723D01*
X102499Y-208934D01*
X102584Y-209074D01*
X102682Y-209215D01*
X102795Y-209370D01*
X102907Y-209538D01*
X103034Y-209735D01*
X103160Y-209932D01*
X104355Y-211830D01*
X101993D01*
X100587Y-209721D01*
X100573Y-209707D01*
X100559Y-209665D01*
X100517Y-209609D01*
X100461Y-209538D01*
X100405Y-209454D01*
X100334Y-209342D01*
X100180Y-209117D01*
X99997Y-208863D01*
X99828Y-208639D01*
X99673Y-208428D01*
X99603Y-208357D01*
X99547Y-208287D01*
X99533Y-208273D01*
X99505Y-208245D01*
X99448Y-208189D01*
X99378Y-208118D01*
X99280Y-208062D01*
X99181Y-207992D01*
X99069Y-207936D01*
X98956Y-207879D01*
X98942D01*
X98900Y-207865D01*
X98830Y-207837D01*
X98717Y-207823D01*
X98577Y-207795D01*
X98408Y-207781D01*
X98211Y-207767D01*
X97578D01*
Y-211830D01*
X95610D01*
Y-202101D01*
X99997D01*
X100123Y-202115D01*
D02*
G37*
G36*
X93754Y-203746D02*
X88510D01*
Y-205897D01*
X93388D01*
Y-207542D01*
X88510D01*
Y-210185D01*
X93937D01*
Y-211830D01*
X86541D01*
Y-202101D01*
X93754D01*
Y-203746D01*
D02*
G37*
G36*
X57803Y-202115D02*
X58168D01*
X58562Y-202143D01*
X58956Y-202171D01*
X59124Y-202185D01*
X59293Y-202199D01*
X59434Y-202227D01*
X59546Y-202255D01*
X59560D01*
X59588Y-202269D01*
X59631Y-202283D01*
X59687Y-202297D01*
X59841Y-202368D01*
X60038Y-202452D01*
X60249Y-202579D01*
X60488Y-202747D01*
X60713Y-202958D01*
X60938Y-203211D01*
Y-203225D01*
X60966Y-203239D01*
X60994Y-203282D01*
X61022Y-203338D01*
X61079Y-203422D01*
X61121Y-203507D01*
X61177Y-203605D01*
X61233Y-203717D01*
X61332Y-203999D01*
X61430Y-204308D01*
X61486Y-204688D01*
X61515Y-205095D01*
Y-205109D01*
Y-205137D01*
Y-205180D01*
Y-205250D01*
X61501Y-205320D01*
Y-205419D01*
X61472Y-205616D01*
X61430Y-205855D01*
X61374Y-206122D01*
X61290Y-206375D01*
X61177Y-206614D01*
X61163Y-206642D01*
X61121Y-206712D01*
X61050Y-206825D01*
X60952Y-206965D01*
X60840Y-207106D01*
X60685Y-207275D01*
X60530Y-207429D01*
X60347Y-207570D01*
X60319Y-207584D01*
X60263Y-207626D01*
X60165Y-207682D01*
X60038Y-207753D01*
X59884Y-207837D01*
X59715Y-207907D01*
X59532Y-207978D01*
X59335Y-208034D01*
X59307D01*
X59265Y-208048D01*
X59209D01*
X59138Y-208062D01*
X59040Y-208076D01*
X58942Y-208090D01*
X58815D01*
X58688Y-208104D01*
X58534Y-208118D01*
X58365Y-208132D01*
X58182Y-208146D01*
X57986D01*
X57775Y-208160D01*
X56031D01*
Y-211830D01*
X54063D01*
Y-202101D01*
X57648D01*
X57803Y-202115D01*
D02*
G37*
G36*
X35672Y-210185D02*
X40565D01*
Y-211830D01*
X33704D01*
Y-202171D01*
X35672D01*
Y-210185D01*
D02*
G37*
G36*
X67631Y-201932D02*
X67771D01*
X67954Y-201960D01*
X68165Y-201988D01*
X68404Y-202030D01*
X68657Y-202086D01*
X68924Y-202157D01*
X69205Y-202241D01*
X69486Y-202354D01*
X69782Y-202480D01*
X70063Y-202635D01*
X70344Y-202818D01*
X70611Y-203028D01*
X70864Y-203268D01*
X70878Y-203282D01*
X70921Y-203324D01*
X70991Y-203408D01*
X71061Y-203507D01*
X71160Y-203647D01*
X71272Y-203816D01*
X71385Y-204013D01*
X71511Y-204238D01*
X71638Y-204477D01*
X71750Y-204758D01*
X71863Y-205067D01*
X71961Y-205391D01*
X72045Y-205756D01*
X72102Y-206136D01*
X72144Y-206543D01*
X72158Y-206979D01*
Y-207008D01*
Y-207078D01*
X72144Y-207204D01*
Y-207373D01*
X72116Y-207570D01*
X72088Y-207795D01*
X72045Y-208062D01*
X72003Y-208329D01*
X71933Y-208624D01*
X71849Y-208934D01*
X71736Y-209243D01*
X71610Y-209552D01*
X71469Y-209848D01*
X71286Y-210143D01*
X71089Y-210424D01*
X70864Y-210691D01*
X70850Y-210705D01*
X70808Y-210748D01*
X70738Y-210818D01*
X70625Y-210902D01*
X70499Y-211000D01*
X70344Y-211113D01*
X70161Y-211226D01*
X69965Y-211352D01*
X69726Y-211479D01*
X69472Y-211591D01*
X69191Y-211703D01*
X68882Y-211802D01*
X68559Y-211886D01*
X68207Y-211957D01*
X67842Y-211999D01*
X67448Y-212013D01*
X67349D01*
X67237Y-211999D01*
X67096Y-211985D01*
X66913Y-211971D01*
X66703Y-211943D01*
X66464Y-211900D01*
X66211Y-211844D01*
X65929Y-211774D01*
X65662Y-211689D01*
X65367Y-211577D01*
X65086Y-211451D01*
X64790Y-211310D01*
X64523Y-211127D01*
X64256Y-210930D01*
X64003Y-210691D01*
X63989Y-210677D01*
X63947Y-210635D01*
X63891Y-210551D01*
X63806Y-210452D01*
X63708Y-210312D01*
X63595Y-210143D01*
X63483Y-209960D01*
X63370Y-209735D01*
X63244Y-209496D01*
X63131Y-209215D01*
X63019Y-208920D01*
X62920Y-208596D01*
X62836Y-208245D01*
X62780Y-207865D01*
X62738Y-207457D01*
X62724Y-207036D01*
Y-207022D01*
Y-206965D01*
Y-206895D01*
X62738Y-206783D01*
Y-206656D01*
X62752Y-206515D01*
X62766Y-206347D01*
X62780Y-206164D01*
X62836Y-205770D01*
X62906Y-205348D01*
X63019Y-204927D01*
X63160Y-204533D01*
Y-204519D01*
X63174Y-204505D01*
X63202Y-204463D01*
X63216Y-204406D01*
X63300Y-204266D01*
X63399Y-204083D01*
X63525Y-203872D01*
X63680Y-203661D01*
X63863Y-203422D01*
X64059Y-203197D01*
X64073Y-203183D01*
X64087Y-203169D01*
X64158Y-203099D01*
X64284Y-202986D01*
X64439Y-202860D01*
X64622Y-202719D01*
X64833Y-202565D01*
X65072Y-202424D01*
X65325Y-202311D01*
X65339D01*
X65367Y-202297D01*
X65423Y-202269D01*
X65494Y-202255D01*
X65578Y-202213D01*
X65676Y-202185D01*
X65803Y-202157D01*
X65929Y-202115D01*
X66239Y-202044D01*
X66590Y-201974D01*
X66998Y-201932D01*
X67420Y-201918D01*
X67518D01*
X67631Y-201932D01*
D02*
G37*
%LPC*%
G36*
X178762Y287495D02*
X178138Y287371D01*
X177609Y287017D01*
X177255Y286488D01*
X177131Y285864D01*
X177255Y285239D01*
X177609Y284710D01*
X178138Y284356D01*
X178762Y284232D01*
X179386Y284356D01*
X179916Y284710D01*
X180269Y285239D01*
X180394Y285864D01*
X180269Y286488D01*
X179916Y287017D01*
X179386Y287371D01*
X178762Y287495D01*
D02*
G37*
G36*
X303459Y286052D02*
X302835Y285928D01*
X302305Y285574D01*
X301952Y285045D01*
X301828Y284421D01*
X301952Y283797D01*
X302305Y283267D01*
X302835Y282914D01*
X303459Y282789D01*
X304083Y282914D01*
X304612Y283267D01*
X304966Y283797D01*
X305090Y284421D01*
X304966Y285045D01*
X304612Y285574D01*
X304083Y285928D01*
X303459Y286052D01*
D02*
G37*
G36*
X176223Y282759D02*
X175599Y282634D01*
X175070Y282281D01*
X174716Y281752D01*
X174592Y281127D01*
X174716Y280503D01*
X175070Y279974D01*
X175599Y279620D01*
X176223Y279496D01*
X176848Y279620D01*
X177377Y279974D01*
X177730Y280503D01*
X177855Y281127D01*
X177730Y281752D01*
X177377Y282281D01*
X176848Y282634D01*
X176223Y282759D01*
D02*
G37*
G36*
X338656Y285258D02*
X337146Y285109D01*
X335694Y284669D01*
X334355Y283954D01*
X333182Y282991D01*
X332220Y281818D01*
X331504Y280480D01*
X331064Y279028D01*
X330915Y277517D01*
X331064Y276007D01*
X331504Y274555D01*
X332220Y273217D01*
X333182Y272044D01*
X334355Y271081D01*
X335694Y270366D01*
X337146Y269925D01*
X338656Y269777D01*
X340166Y269925D01*
X341618Y270366D01*
X342956Y271081D01*
X344129Y272044D01*
X345092Y273217D01*
X345808Y274555D01*
X346248Y276007D01*
X346397Y277517D01*
X346248Y279028D01*
X345808Y280480D01*
X345092Y281818D01*
X344129Y282991D01*
X342956Y283954D01*
X341618Y284669D01*
X340166Y285109D01*
X338656Y285258D01*
D02*
G37*
G36*
X253656D02*
X252146Y285109D01*
X250694Y284669D01*
X249355Y283954D01*
X248182Y282991D01*
X247220Y281818D01*
X246504Y280480D01*
X246064Y279028D01*
X245915Y277517D01*
X246064Y276007D01*
X246504Y274555D01*
X247220Y273217D01*
X248182Y272044D01*
X249355Y271081D01*
X250694Y270366D01*
X252146Y269925D01*
X253656Y269777D01*
X255166Y269925D01*
X256618Y270366D01*
X257957Y271081D01*
X259130Y272044D01*
X260092Y273217D01*
X260807Y274555D01*
X261248Y276007D01*
X261397Y277517D01*
X261248Y279028D01*
X260807Y280480D01*
X260092Y281818D01*
X259130Y282991D01*
X257957Y283954D01*
X256618Y284669D01*
X255166Y285109D01*
X253656Y285258D01*
D02*
G37*
G36*
X417903Y275646D02*
X416678Y275525D01*
X415499Y275168D01*
X414414Y274587D01*
X413462Y273806D01*
X412681Y272855D01*
X412101Y271769D01*
X411743Y270591D01*
X411623Y269366D01*
X411743Y268140D01*
X412101Y266962D01*
X412681Y265876D01*
X413462Y264925D01*
X414414Y264144D01*
X415499Y263563D01*
X416678Y263206D01*
X417903Y263085D01*
X419128Y263206D01*
X420306Y263563D01*
X421392Y264144D01*
X422344Y264925D01*
X423125Y265876D01*
X423705Y266962D01*
X424062Y268140D01*
X424183Y269366D01*
X424062Y270591D01*
X423705Y271769D01*
X423125Y272855D01*
X422344Y273806D01*
X421392Y274587D01*
X420306Y275168D01*
X419128Y275525D01*
X417903Y275646D01*
D02*
G37*
G36*
X366171D02*
X364945Y275525D01*
X363767Y275168D01*
X362681Y274587D01*
X361730Y273806D01*
X360949Y272855D01*
X360368Y271769D01*
X360011Y270591D01*
X359890Y269366D01*
X360011Y268140D01*
X360368Y266962D01*
X360949Y265876D01*
X361730Y264925D01*
X362681Y264144D01*
X363767Y263563D01*
X364945Y263206D01*
X366171Y263085D01*
X367396Y263206D01*
X368574Y263563D01*
X369660Y264144D01*
X370611Y264925D01*
X371392Y265876D01*
X371973Y266962D01*
X372330Y268140D01*
X372451Y269366D01*
X372330Y270591D01*
X371973Y271769D01*
X371392Y272855D01*
X370611Y273806D01*
X369660Y274587D01*
X368574Y275168D01*
X367396Y275525D01*
X366171Y275646D01*
D02*
G37*
G36*
X329955Y268995D02*
X329053Y268876D01*
X328212Y268528D01*
X327490Y267974D01*
X326936Y267252D01*
X326588Y266412D01*
X326469Y265510D01*
X326588Y264607D01*
X326936Y263767D01*
X327490Y263045D01*
X328212Y262491D01*
X329053Y262142D01*
X329955Y262024D01*
X330857Y262142D01*
X331698Y262491D01*
X332420Y263045D01*
X332974Y263767D01*
X333322Y264607D01*
X333441Y265510D01*
X333322Y266412D01*
X332974Y267252D01*
X332420Y267974D01*
X331698Y268528D01*
X330857Y268876D01*
X329955Y268995D01*
D02*
G37*
G36*
X321924D02*
X321021Y268876D01*
X320181Y268528D01*
X319459Y267974D01*
X318905Y267252D01*
X318557Y266412D01*
X318438Y265510D01*
X318557Y264607D01*
X318905Y263767D01*
X319459Y263045D01*
X320181Y262491D01*
X321021Y262142D01*
X321924Y262024D01*
X322826Y262142D01*
X323667Y262491D01*
X324388Y263045D01*
X324942Y263767D01*
X325290Y264607D01*
X325409Y265510D01*
X325290Y266412D01*
X324942Y267252D01*
X324388Y267974D01*
X323667Y268528D01*
X322826Y268876D01*
X321924Y268995D01*
D02*
G37*
G36*
X313892D02*
X312990Y268876D01*
X312149Y268528D01*
X311427Y267974D01*
X310873Y267252D01*
X310525Y266412D01*
X310406Y265510D01*
X310525Y264607D01*
X310873Y263767D01*
X311427Y263045D01*
X312149Y262491D01*
X312990Y262142D01*
X313892Y262024D01*
X314794Y262142D01*
X315635Y262491D01*
X316357Y263045D01*
X316911Y263767D01*
X317259Y264607D01*
X317378Y265510D01*
X317259Y266412D01*
X316911Y267252D01*
X316357Y267974D01*
X315635Y268528D01*
X314794Y268876D01*
X313892Y268995D01*
D02*
G37*
G36*
X282435D02*
X281533Y268876D01*
X280693Y268528D01*
X279971Y267974D01*
X279417Y267252D01*
X279068Y266412D01*
X278950Y265510D01*
X279068Y264607D01*
X279417Y263767D01*
X279971Y263045D01*
X280693Y262491D01*
X281533Y262142D01*
X282435Y262024D01*
X283338Y262142D01*
X284178Y262491D01*
X284900Y263045D01*
X285454Y263767D01*
X285802Y264607D01*
X285921Y265510D01*
X285802Y266412D01*
X285454Y267252D01*
X284900Y267974D01*
X284178Y268528D01*
X283338Y268876D01*
X282435Y268995D01*
D02*
G37*
G36*
X274404D02*
X273502Y268876D01*
X272661Y268528D01*
X271939Y267974D01*
X271385Y267252D01*
X271037Y266412D01*
X270918Y265510D01*
X271037Y264607D01*
X271385Y263767D01*
X271939Y263045D01*
X272661Y262491D01*
X273502Y262142D01*
X274404Y262024D01*
X275306Y262142D01*
X276147Y262491D01*
X276869Y263045D01*
X277423Y263767D01*
X277771Y264607D01*
X277890Y265510D01*
X277771Y266412D01*
X277423Y267252D01*
X276869Y267974D01*
X276147Y268528D01*
X275306Y268876D01*
X274404Y268995D01*
D02*
G37*
G36*
X266372D02*
X265470Y268876D01*
X264630Y268528D01*
X263908Y267974D01*
X263354Y267252D01*
X263005Y266412D01*
X262887Y265510D01*
X263005Y264607D01*
X263354Y263767D01*
X263908Y263045D01*
X264630Y262491D01*
X265470Y262142D01*
X266372Y262024D01*
X267275Y262142D01*
X268115Y262491D01*
X268837Y263045D01*
X269391Y263767D01*
X269739Y264607D01*
X269858Y265510D01*
X269739Y266412D01*
X269391Y267252D01*
X268837Y267974D01*
X268115Y268528D01*
X267275Y268876D01*
X266372Y268995D01*
D02*
G37*
G36*
X395974Y262277D02*
X395047Y262155D01*
X394183Y261797D01*
X393442Y261228D01*
X392873Y260487D01*
X392515Y259623D01*
X392393Y258696D01*
X392515Y257769D01*
X392873Y256906D01*
X393442Y256164D01*
X394183Y255595D01*
X395047Y255238D01*
X395974Y255116D01*
X396900Y255238D01*
X397764Y255595D01*
X398506Y256164D01*
X399075Y256906D01*
X399432Y257769D01*
X399554Y258696D01*
X399432Y259623D01*
X399075Y260487D01*
X398506Y261228D01*
X397764Y261797D01*
X396900Y262155D01*
X395974Y262277D01*
D02*
G37*
G36*
X388100D02*
X387173Y262155D01*
X386309Y261797D01*
X385568Y261228D01*
X384999Y260487D01*
X384641Y259623D01*
X384519Y258696D01*
X384641Y257769D01*
X384999Y256906D01*
X385568Y256164D01*
X386309Y255595D01*
X387173Y255238D01*
X388100Y255116D01*
X389026Y255238D01*
X389890Y255595D01*
X390632Y256164D01*
X391201Y256906D01*
X391558Y257769D01*
X391680Y258696D01*
X391558Y259623D01*
X391201Y260487D01*
X390632Y261228D01*
X389890Y261797D01*
X389026Y262155D01*
X388100Y262277D01*
D02*
G37*
G36*
X378257D02*
X377330Y262155D01*
X376467Y261797D01*
X375725Y261228D01*
X375156Y260487D01*
X374798Y259623D01*
X374676Y258696D01*
X374798Y257769D01*
X375156Y256906D01*
X375725Y256164D01*
X376467Y255595D01*
X377330Y255238D01*
X378257Y255116D01*
X379184Y255238D01*
X380047Y255595D01*
X380789Y256164D01*
X381358Y256906D01*
X381716Y257769D01*
X381838Y258696D01*
X381716Y259623D01*
X381358Y260487D01*
X380789Y261228D01*
X380047Y261797D01*
X379184Y262155D01*
X378257Y262277D01*
D02*
G37*
G36*
X407241Y262288D02*
X404391D01*
X403562Y262123D01*
X402859Y261653D01*
X402389Y260950D01*
X402225Y260121D01*
Y257271D01*
X402389Y256442D01*
X402859Y255739D01*
X403562Y255270D01*
X404391Y255105D01*
X407241D01*
X408070Y255270D01*
X408773Y255739D01*
X409243Y256442D01*
X409408Y257271D01*
Y260121D01*
X409243Y260950D01*
X408773Y261653D01*
X408070Y262123D01*
X407241Y262288D01*
D02*
G37*
G36*
X325939Y261003D02*
X325037Y260884D01*
X324197Y260536D01*
X323475Y259982D01*
X322921Y259260D01*
X322572Y258419D01*
X322454Y257517D01*
X322572Y256615D01*
X322921Y255774D01*
X323475Y255052D01*
X324197Y254499D01*
X325037Y254150D01*
X325939Y254032D01*
X326841Y254150D01*
X327682Y254499D01*
X328404Y255052D01*
X328958Y255774D01*
X329306Y256615D01*
X329425Y257517D01*
X329306Y258419D01*
X328958Y259260D01*
X328404Y259982D01*
X327682Y260536D01*
X326841Y260884D01*
X325939Y261003D01*
D02*
G37*
G36*
X309876D02*
X308974Y260884D01*
X308134Y260536D01*
X307412Y259982D01*
X306858Y259260D01*
X306509Y258419D01*
X306391Y257517D01*
X306509Y256615D01*
X306858Y255774D01*
X307412Y255052D01*
X308134Y254499D01*
X308974Y254150D01*
X309876Y254032D01*
X310778Y254150D01*
X311619Y254499D01*
X312341Y255052D01*
X312895Y255774D01*
X313243Y256615D01*
X313362Y257517D01*
X313243Y258419D01*
X312895Y259260D01*
X312341Y259982D01*
X311619Y260536D01*
X310778Y260884D01*
X309876Y261003D01*
D02*
G37*
G36*
X278420D02*
X277518Y260884D01*
X276677Y260536D01*
X275955Y259982D01*
X275401Y259260D01*
X275053Y258419D01*
X274934Y257517D01*
X275053Y256615D01*
X275401Y255774D01*
X275955Y255052D01*
X276677Y254499D01*
X277518Y254150D01*
X278420Y254032D01*
X279322Y254150D01*
X280163Y254499D01*
X280885Y255052D01*
X281438Y255774D01*
X281787Y256615D01*
X281905Y257517D01*
X281787Y258419D01*
X281438Y259260D01*
X280885Y259982D01*
X280163Y260536D01*
X279322Y260884D01*
X278420Y261003D01*
D02*
G37*
G36*
X270388D02*
X269486Y260884D01*
X268645Y260536D01*
X267923Y259982D01*
X267370Y259260D01*
X267021Y258419D01*
X266902Y257517D01*
X267021Y256615D01*
X267370Y255774D01*
X267923Y255052D01*
X268645Y254499D01*
X269486Y254150D01*
X270388Y254032D01*
X271290Y254150D01*
X272131Y254499D01*
X272853Y255052D01*
X273407Y255774D01*
X273755Y256615D01*
X273874Y257517D01*
X273755Y258419D01*
X273407Y259260D01*
X272853Y259982D01*
X272131Y260536D01*
X271290Y260884D01*
X270388Y261003D01*
D02*
G37*
G36*
X262357D02*
X261455Y260884D01*
X260614Y260536D01*
X259892Y259982D01*
X259338Y259260D01*
X258990Y258419D01*
X258871Y257517D01*
X258990Y256615D01*
X259338Y255774D01*
X259892Y255052D01*
X260614Y254499D01*
X261455Y254150D01*
X262357Y254032D01*
X263259Y254150D01*
X264100Y254499D01*
X264822Y255052D01*
X265375Y255774D01*
X265724Y256615D01*
X265842Y257517D01*
X265724Y258419D01*
X265375Y259260D01*
X264822Y259982D01*
X264100Y260536D01*
X263259Y260884D01*
X262357Y261003D01*
D02*
G37*
G36*
X365734Y252160D02*
X365110Y252036D01*
X364580Y251682D01*
X364227Y251153D01*
X364103Y250528D01*
X364227Y249904D01*
X364580Y249375D01*
X365110Y249021D01*
X365734Y248897D01*
X366358Y249021D01*
X366887Y249375D01*
X367241Y249904D01*
X367365Y250528D01*
X367241Y251153D01*
X366887Y251682D01*
X366358Y252036D01*
X365734Y252160D01*
D02*
G37*
G36*
X365552Y247100D02*
X364928Y246976D01*
X364398Y246622D01*
X364045Y246093D01*
X363921Y245469D01*
X364045Y244845D01*
X364398Y244315D01*
X364928Y243962D01*
X365552Y243838D01*
X366176Y243962D01*
X366705Y244315D01*
X367059Y244845D01*
X367183Y245469D01*
X367059Y246093D01*
X366705Y246622D01*
X366176Y246976D01*
X365552Y247100D01*
D02*
G37*
G36*
X403561Y246345D02*
X402936Y246221D01*
X402407Y245867D01*
X402053Y245338D01*
X401929Y244714D01*
X402053Y244090D01*
X402407Y243560D01*
X402936Y243207D01*
X403561Y243082D01*
X404185Y243207D01*
X404714Y243560D01*
X405068Y244090D01*
X405192Y244714D01*
X405068Y245338D01*
X404714Y245867D01*
X404185Y246221D01*
X403561Y246345D01*
D02*
G37*
G36*
X394677Y246068D02*
X394053Y245943D01*
X393523Y245590D01*
X393170Y245061D01*
X393045Y244436D01*
X393170Y243812D01*
X393523Y243283D01*
X394053Y242929D01*
X394677Y242805D01*
X395301Y242929D01*
X395830Y243283D01*
X396184Y243812D01*
X396308Y244436D01*
X396184Y245061D01*
X395830Y245590D01*
X395301Y245943D01*
X394677Y246068D01*
D02*
G37*
G36*
X408941Y242927D02*
X408316Y242803D01*
X407787Y242449D01*
X407433Y241920D01*
X407309Y241296D01*
X407433Y240671D01*
X407787Y240142D01*
X408316Y239788D01*
X408941Y239664D01*
X409565Y239788D01*
X410094Y240142D01*
X410448Y240671D01*
X410572Y241296D01*
X410448Y241920D01*
X410094Y242449D01*
X409565Y242803D01*
X408941Y242927D01*
D02*
G37*
G36*
X365766Y241880D02*
X365142Y241756D01*
X364613Y241402D01*
X364259Y240873D01*
X364135Y240249D01*
X364259Y239624D01*
X364613Y239095D01*
X365142Y238741D01*
X365766Y238617D01*
X366390Y238741D01*
X366920Y239095D01*
X367273Y239624D01*
X367398Y240249D01*
X367273Y240873D01*
X366920Y241402D01*
X366390Y241756D01*
X365766Y241880D01*
D02*
G37*
G36*
X399197Y241749D02*
X398573Y241625D01*
X398044Y241271D01*
X397690Y240742D01*
X397566Y240118D01*
X397690Y239493D01*
X398044Y238964D01*
X398573Y238611D01*
X399197Y238487D01*
X399822Y238611D01*
X400351Y238964D01*
X400704Y239493D01*
X400829Y240118D01*
X400704Y240742D01*
X400351Y241271D01*
X399822Y241625D01*
X399197Y241749D01*
D02*
G37*
G36*
X389742Y241588D02*
X389117Y241464D01*
X388588Y241110D01*
X388234Y240581D01*
X388110Y239957D01*
X388234Y239332D01*
X388588Y238803D01*
X389117Y238450D01*
X389742Y238325D01*
X390366Y238450D01*
X390895Y238803D01*
X391249Y239332D01*
X391373Y239957D01*
X391249Y240581D01*
X390895Y241110D01*
X390366Y241464D01*
X389742Y241588D01*
D02*
G37*
G36*
X404799Y238426D02*
X404174Y238302D01*
X403645Y237948D01*
X403292Y237419D01*
X403167Y236795D01*
X403292Y236171D01*
X403645Y235642D01*
X404174Y235288D01*
X404799Y235164D01*
X405423Y235288D01*
X405952Y235642D01*
X406306Y236171D01*
X406430Y236795D01*
X406306Y237419D01*
X405952Y237948D01*
X405423Y238302D01*
X404799Y238426D01*
D02*
G37*
G36*
X394577Y237424D02*
X393952Y237300D01*
X393423Y236946D01*
X393069Y236417D01*
X392945Y235792D01*
X393069Y235168D01*
X393423Y234639D01*
X393952Y234285D01*
X394577Y234161D01*
X395201Y234285D01*
X395730Y234639D01*
X396084Y235168D01*
X396208Y235792D01*
X396084Y236417D01*
X395730Y236946D01*
X395201Y237300D01*
X394577Y237424D01*
D02*
G37*
G36*
X367688Y233538D02*
X367064Y233414D01*
X366534Y233060D01*
X366181Y232531D01*
X366057Y231907D01*
X366181Y231282D01*
X366534Y230753D01*
X367064Y230399D01*
X367688Y230275D01*
X368312Y230399D01*
X368842Y230753D01*
X369195Y231282D01*
X369319Y231907D01*
X369195Y232531D01*
X368842Y233060D01*
X368312Y233414D01*
X367688Y233538D01*
D02*
G37*
G36*
X360642D02*
X360018Y233414D01*
X359489Y233060D01*
X359135Y232531D01*
X359011Y231907D01*
X359135Y231282D01*
X359489Y230753D01*
X360018Y230399D01*
X360642Y230275D01*
X361266Y230399D01*
X361795Y230753D01*
X362149Y231282D01*
X362273Y231907D01*
X362149Y232531D01*
X361795Y233060D01*
X361266Y233414D01*
X360642Y233538D01*
D02*
G37*
G36*
X389742Y233100D02*
X389117Y232975D01*
X388588Y232622D01*
X388234Y232092D01*
X388110Y231468D01*
X388234Y230844D01*
X388588Y230315D01*
X389117Y229961D01*
X389742Y229837D01*
X390366Y229961D01*
X390895Y230315D01*
X391249Y230844D01*
X391373Y231468D01*
X391249Y232092D01*
X390895Y232622D01*
X390366Y232975D01*
X389742Y233100D01*
D02*
G37*
G36*
X398609Y232607D02*
X397985Y232483D01*
X397456Y232129D01*
X397102Y231600D01*
X396978Y230976D01*
X397102Y230351D01*
X397456Y229822D01*
X397985Y229468D01*
X398609Y229344D01*
X399233Y229468D01*
X399763Y229822D01*
X400116Y230351D01*
X400240Y230976D01*
X400116Y231600D01*
X399763Y232129D01*
X399233Y232483D01*
X398609Y232607D01*
D02*
G37*
G36*
X404455Y232316D02*
X403830Y232192D01*
X403301Y231838D01*
X402948Y231309D01*
X402823Y230685D01*
X402948Y230061D01*
X403301Y229531D01*
X403830Y229178D01*
X404455Y229053D01*
X405079Y229178D01*
X405608Y229531D01*
X405962Y230061D01*
X406086Y230685D01*
X405962Y231309D01*
X405608Y231838D01*
X405079Y232192D01*
X404455Y232316D01*
D02*
G37*
G36*
X364232Y228594D02*
X363607Y228470D01*
X363078Y228116D01*
X362724Y227587D01*
X362600Y226962D01*
X362724Y226338D01*
X363078Y225809D01*
X363607Y225455D01*
X364232Y225331D01*
X364856Y225455D01*
X365385Y225809D01*
X365739Y226338D01*
X365863Y226962D01*
X365739Y227587D01*
X365385Y228116D01*
X364856Y228470D01*
X364232Y228594D01*
D02*
G37*
G36*
X360482Y223738D02*
X359858Y223614D01*
X359328Y223260D01*
X358975Y222731D01*
X358851Y222106D01*
X358975Y221482D01*
X359328Y220953D01*
X359858Y220599D01*
X360482Y220475D01*
X361106Y220599D01*
X361635Y220953D01*
X361989Y221482D01*
X362113Y222106D01*
X361989Y222731D01*
X361635Y223260D01*
X361106Y223614D01*
X360482Y223738D01*
D02*
G37*
G36*
X367784Y223706D02*
X367160Y223582D01*
X366631Y223228D01*
X366277Y222699D01*
X366153Y222074D01*
X366277Y221450D01*
X366631Y220921D01*
X367160Y220567D01*
X367784Y220443D01*
X368408Y220567D01*
X368937Y220921D01*
X369291Y221450D01*
X369415Y222074D01*
X369291Y222699D01*
X368937Y223228D01*
X368408Y223582D01*
X367784Y223706D01*
D02*
G37*
G36*
X383451Y219091D02*
X382826Y218967D01*
X382297Y218613D01*
X381943Y218084D01*
X381819Y217460D01*
X381943Y216836D01*
X382297Y216306D01*
X382826Y215953D01*
X383451Y215828D01*
X384075Y215953D01*
X384604Y216306D01*
X384958Y216836D01*
X385082Y217460D01*
X384958Y218084D01*
X384604Y218613D01*
X384075Y218967D01*
X383451Y219091D01*
D02*
G37*
G36*
X404300Y225028D02*
X401699Y224857D01*
X399142Y224349D01*
X396674Y223511D01*
X394336Y222358D01*
X392169Y220910D01*
X390209Y219191D01*
X388490Y217231D01*
X387042Y215064D01*
X385889Y212726D01*
X385051Y210258D01*
X384543Y207701D01*
X384372Y205100D01*
X384543Y202499D01*
X385051Y199942D01*
X385889Y197474D01*
X387042Y195136D01*
X388490Y192969D01*
X390209Y191009D01*
X392169Y189290D01*
X394336Y187842D01*
X396674Y186689D01*
X399142Y185851D01*
X401699Y185343D01*
X404300Y185172D01*
X406901Y185343D01*
X409458Y185851D01*
X411926Y186689D01*
X414264Y187842D01*
X416431Y189290D01*
X418391Y191009D01*
X420110Y192969D01*
X421558Y195136D01*
X422711Y197474D01*
X423549Y199942D01*
X424057Y202499D01*
X424228Y205100D01*
X424057Y207701D01*
X423549Y210258D01*
X422711Y212726D01*
X421558Y215064D01*
X420110Y217231D01*
X418391Y219191D01*
X416431Y220910D01*
X414264Y222358D01*
X411926Y223511D01*
X409458Y224349D01*
X406901Y224857D01*
X404300Y225028D01*
D02*
G37*
G36*
X438184Y137947D02*
X437560Y137823D01*
X437031Y137469D01*
X436677Y136940D01*
X436553Y136316D01*
X436677Y135691D01*
X437031Y135162D01*
X437560Y134808D01*
X438184Y134684D01*
X438809Y134808D01*
X439338Y135162D01*
X439691Y135691D01*
X439816Y136316D01*
X439691Y136940D01*
X439338Y137469D01*
X438809Y137823D01*
X438184Y137947D01*
D02*
G37*
G36*
X413040Y137601D02*
X412416Y137477D01*
X411886Y137123D01*
X411533Y136594D01*
X411408Y135969D01*
X411533Y135345D01*
X411886Y134816D01*
X412416Y134462D01*
X413040Y134338D01*
X413664Y134462D01*
X414193Y134816D01*
X414547Y135345D01*
X414671Y135969D01*
X414547Y136594D01*
X414193Y137123D01*
X413664Y137477D01*
X413040Y137601D01*
D02*
G37*
G36*
X429614Y137569D02*
X428990Y137445D01*
X428460Y137091D01*
X428107Y136562D01*
X427982Y135938D01*
X428107Y135313D01*
X428460Y134784D01*
X428990Y134430D01*
X429614Y134306D01*
X430238Y134430D01*
X430767Y134784D01*
X431121Y135313D01*
X431245Y135938D01*
X431121Y136562D01*
X430767Y137091D01*
X430238Y137445D01*
X429614Y137569D01*
D02*
G37*
G36*
X421242Y137515D02*
X420618Y137391D01*
X420088Y137038D01*
X419735Y136508D01*
X419611Y135884D01*
X419735Y135260D01*
X420088Y134731D01*
X420618Y134377D01*
X421242Y134253D01*
X421866Y134377D01*
X422396Y134731D01*
X422749Y135260D01*
X422873Y135884D01*
X422749Y136508D01*
X422396Y137038D01*
X421866Y137391D01*
X421242Y137515D01*
D02*
G37*
G36*
X366334Y137213D02*
X365710Y137089D01*
X365181Y136735D01*
X364827Y136206D01*
X364703Y135582D01*
X364827Y134958D01*
X365181Y134428D01*
X365710Y134075D01*
X366334Y133950D01*
X366959Y134075D01*
X367488Y134428D01*
X367842Y134958D01*
X367966Y135582D01*
X367842Y136206D01*
X367488Y136735D01*
X366959Y137089D01*
X366334Y137213D01*
D02*
G37*
G36*
X360690Y137136D02*
X360066Y137012D01*
X359537Y136658D01*
X359183Y136129D01*
X359059Y135505D01*
X359183Y134880D01*
X359537Y134351D01*
X360066Y133998D01*
X360690Y133873D01*
X361315Y133998D01*
X361844Y134351D01*
X362197Y134880D01*
X362321Y135505D01*
X362197Y136129D01*
X361844Y136658D01*
X361315Y137012D01*
X360690Y137136D01*
D02*
G37*
G36*
X360516Y131614D02*
X359892Y131490D01*
X359363Y131136D01*
X359009Y130607D01*
X358885Y129983D01*
X359009Y129358D01*
X359363Y128829D01*
X359892Y128475D01*
X360516Y128351D01*
X361140Y128475D01*
X361670Y128829D01*
X362023Y129358D01*
X362147Y129983D01*
X362023Y130607D01*
X361670Y131136D01*
X361140Y131490D01*
X360516Y131614D01*
D02*
G37*
G36*
X366084Y131530D02*
X365460Y131405D01*
X364931Y131052D01*
X364577Y130523D01*
X364453Y129898D01*
X364577Y129274D01*
X364931Y128745D01*
X365460Y128391D01*
X366084Y128267D01*
X366708Y128391D01*
X367238Y128745D01*
X367591Y129274D01*
X367716Y129898D01*
X367591Y130523D01*
X367238Y131052D01*
X366708Y131405D01*
X366084Y131530D01*
D02*
G37*
G36*
X438252Y129783D02*
X437628Y129659D01*
X437099Y129306D01*
X436745Y128777D01*
X436621Y128152D01*
X436745Y127528D01*
X437099Y126999D01*
X437628Y126645D01*
X438252Y126521D01*
X438877Y126645D01*
X439406Y126999D01*
X439759Y127528D01*
X439884Y128152D01*
X439759Y128777D01*
X439406Y129306D01*
X438877Y129659D01*
X438252Y129783D01*
D02*
G37*
G36*
X430147Y129517D02*
X429523Y129393D01*
X428994Y129039D01*
X428640Y128510D01*
X428516Y127886D01*
X428640Y127261D01*
X428994Y126732D01*
X429523Y126379D01*
X430147Y126254D01*
X430771Y126379D01*
X431301Y126732D01*
X431654Y127261D01*
X431778Y127886D01*
X431654Y128510D01*
X431301Y129039D01*
X430771Y129393D01*
X430147Y129517D01*
D02*
G37*
G36*
X412912Y129441D02*
X412287Y129317D01*
X411758Y128963D01*
X411405Y128434D01*
X411280Y127810D01*
X411405Y127186D01*
X411758Y126656D01*
X412287Y126303D01*
X412912Y126179D01*
X413536Y126303D01*
X414065Y126656D01*
X414419Y127186D01*
X414543Y127810D01*
X414419Y128434D01*
X414065Y128963D01*
X413536Y129317D01*
X412912Y129441D01*
D02*
G37*
G36*
X421455Y129357D02*
X420831Y129233D01*
X420302Y128879D01*
X419948Y128350D01*
X419824Y127726D01*
X419948Y127101D01*
X420302Y126572D01*
X420831Y126218D01*
X421455Y126094D01*
X422080Y126218D01*
X422609Y126572D01*
X422962Y127101D01*
X423087Y127726D01*
X422962Y128350D01*
X422609Y128879D01*
X422080Y129233D01*
X421455Y129357D01*
D02*
G37*
G36*
X72500Y110131D02*
X71876Y110007D01*
X71346Y109653D01*
X70993Y109124D01*
X70869Y108500D01*
X70993Y107876D01*
X71346Y107346D01*
X71876Y106993D01*
X72500Y106869D01*
X73124Y106993D01*
X73654Y107346D01*
X74007Y107876D01*
X74131Y108500D01*
X74007Y109124D01*
X73654Y109653D01*
X73124Y110007D01*
X72500Y110131D01*
D02*
G37*
G36*
X67500D02*
X66876Y110007D01*
X66347Y109653D01*
X65993Y109124D01*
X65869Y108500D01*
X65993Y107876D01*
X66347Y107346D01*
X66876Y106993D01*
X67500Y106869D01*
X68124Y106993D01*
X68654Y107346D01*
X69007Y107876D01*
X69131Y108500D01*
X69007Y109124D01*
X68654Y109653D01*
X68124Y110007D01*
X67500Y110131D01*
D02*
G37*
G36*
X36609Y111758D02*
X35651Y111632D01*
X34758Y111262D01*
X33992Y110674D01*
X33403Y109907D01*
X33034Y109014D01*
X32907Y108056D01*
X33034Y107098D01*
X33403Y106205D01*
X33992Y105439D01*
X34758Y104850D01*
X35651Y104481D01*
X36609Y104355D01*
X37567Y104481D01*
X38460Y104850D01*
X39227Y105439D01*
X39815Y106205D01*
X40185Y107098D01*
X40311Y108056D01*
X40185Y109014D01*
X39815Y109907D01*
X39227Y110674D01*
X38460Y111262D01*
X37567Y111632D01*
X36609Y111758D01*
D02*
G37*
G36*
X46609Y106758D02*
X45651Y106632D01*
X44758Y106262D01*
X43992Y105674D01*
X43403Y104907D01*
X43034Y104015D01*
X42907Y103056D01*
X43034Y102098D01*
X43403Y101205D01*
X43992Y100439D01*
X44758Y99850D01*
X45651Y99481D01*
X46609Y99354D01*
X47567Y99481D01*
X48460Y99850D01*
X49227Y100439D01*
X49815Y101205D01*
X50185Y102098D01*
X50311Y103056D01*
X50185Y104015D01*
X49815Y104907D01*
X49227Y105674D01*
X48460Y106262D01*
X47567Y106632D01*
X46609Y106758D01*
D02*
G37*
G36*
X36609Y101758D02*
X35651Y101632D01*
X34758Y101262D01*
X33992Y100674D01*
X33403Y99907D01*
X33034Y99015D01*
X32907Y98056D01*
X33034Y97098D01*
X33403Y96205D01*
X33992Y95439D01*
X34758Y94850D01*
X35651Y94481D01*
X36609Y94354D01*
X37567Y94481D01*
X38460Y94850D01*
X39227Y95439D01*
X39815Y96205D01*
X40185Y97098D01*
X40311Y98056D01*
X40185Y99015D01*
X39815Y99907D01*
X39227Y100674D01*
X38460Y101262D01*
X37567Y101632D01*
X36609Y101758D01*
D02*
G37*
G36*
X46609Y96758D02*
X45651Y96632D01*
X44758Y96262D01*
X43992Y95674D01*
X43403Y94907D01*
X43034Y94015D01*
X42907Y93056D01*
X43034Y92098D01*
X43403Y91205D01*
X43992Y90439D01*
X44758Y89850D01*
X45651Y89481D01*
X46609Y89354D01*
X47567Y89481D01*
X48460Y89850D01*
X49227Y90439D01*
X49815Y91205D01*
X50185Y92098D01*
X50311Y93056D01*
X50185Y94015D01*
X49815Y94907D01*
X49227Y95674D01*
X48460Y96262D01*
X47567Y96632D01*
X46609Y96758D01*
D02*
G37*
G36*
X36609Y91758D02*
X35651Y91632D01*
X34758Y91262D01*
X33992Y90674D01*
X33403Y89907D01*
X33034Y89015D01*
X32907Y88056D01*
X33034Y87098D01*
X33403Y86205D01*
X33992Y85439D01*
X34758Y84851D01*
X35651Y84481D01*
X36609Y84355D01*
X37567Y84481D01*
X38460Y84851D01*
X39227Y85439D01*
X39815Y86205D01*
X40185Y87098D01*
X40311Y88056D01*
X40185Y89015D01*
X39815Y89907D01*
X39227Y90674D01*
X38460Y91262D01*
X37567Y91632D01*
X36609Y91758D01*
D02*
G37*
G36*
X322935Y85958D02*
X322311Y85834D01*
X321782Y85481D01*
X321428Y84951D01*
X321304Y84327D01*
X321428Y83703D01*
X321782Y83174D01*
X322311Y82820D01*
X322935Y82696D01*
X323560Y82820D01*
X324089Y83174D01*
X324443Y83703D01*
X324567Y84327D01*
X324443Y84951D01*
X324089Y85481D01*
X323560Y85834D01*
X322935Y85958D01*
D02*
G37*
G36*
X46609Y86758D02*
X45651Y86632D01*
X44758Y86262D01*
X43992Y85674D01*
X43403Y84907D01*
X43034Y84014D01*
X42907Y83056D01*
X43034Y82098D01*
X43403Y81205D01*
X43992Y80439D01*
X44758Y79851D01*
X45651Y79481D01*
X46609Y79355D01*
X47567Y79481D01*
X48460Y79851D01*
X49227Y80439D01*
X49815Y81205D01*
X50185Y82098D01*
X50311Y83056D01*
X50185Y84014D01*
X49815Y84907D01*
X49227Y85674D01*
X48460Y86262D01*
X47567Y86632D01*
X46609Y86758D01*
D02*
G37*
G36*
X322955Y79931D02*
X322330Y79807D01*
X321801Y79453D01*
X321447Y78924D01*
X321323Y78300D01*
X321447Y77676D01*
X321801Y77146D01*
X322330Y76793D01*
X322955Y76669D01*
X323579Y76793D01*
X324108Y77146D01*
X324462Y77676D01*
X324586Y78300D01*
X324462Y78924D01*
X324108Y79453D01*
X323579Y79807D01*
X322955Y79931D01*
D02*
G37*
G36*
X323077Y73945D02*
X322453Y73821D01*
X321924Y73467D01*
X321570Y72938D01*
X321446Y72314D01*
X321570Y71690D01*
X321924Y71160D01*
X322453Y70807D01*
X323077Y70683D01*
X323702Y70807D01*
X324231Y71160D01*
X324585Y71690D01*
X324709Y72314D01*
X324585Y72938D01*
X324231Y73467D01*
X323702Y73821D01*
X323077Y73945D01*
D02*
G37*
G36*
X69070Y69960D02*
X68446Y69836D01*
X67917Y69482D01*
X67563Y68953D01*
X67439Y68328D01*
X67563Y67704D01*
X67917Y67175D01*
X68446Y66821D01*
X69070Y66697D01*
X69695Y66821D01*
X70224Y67175D01*
X70578Y67704D01*
X70702Y68328D01*
X70578Y68953D01*
X70224Y69482D01*
X69695Y69836D01*
X69070Y69960D01*
D02*
G37*
G36*
X64570D02*
X63946Y69836D01*
X63417Y69482D01*
X63063Y68953D01*
X62939Y68328D01*
X63063Y67704D01*
X63417Y67175D01*
X63946Y66821D01*
X64570Y66697D01*
X65195Y66821D01*
X65724Y67175D01*
X66078Y67704D01*
X66202Y68328D01*
X66078Y68953D01*
X65724Y69482D01*
X65195Y69836D01*
X64570Y69960D01*
D02*
G37*
G36*
X60070D02*
X59446Y69836D01*
X58917Y69482D01*
X58563Y68953D01*
X58439Y68328D01*
X58563Y67704D01*
X58917Y67175D01*
X59446Y66821D01*
X60070Y66697D01*
X60695Y66821D01*
X61224Y67175D01*
X61577Y67704D01*
X61702Y68328D01*
X61577Y68953D01*
X61224Y69482D01*
X60695Y69836D01*
X60070Y69960D01*
D02*
G37*
G36*
X331168Y64791D02*
X330543Y64667D01*
X330014Y64313D01*
X329660Y63784D01*
X329536Y63159D01*
X329660Y62535D01*
X330014Y62006D01*
X330543Y61652D01*
X331168Y61528D01*
X331792Y61652D01*
X332321Y62006D01*
X332675Y62535D01*
X332799Y63159D01*
X332675Y63784D01*
X332321Y64313D01*
X331792Y64667D01*
X331168Y64791D01*
D02*
G37*
G36*
X338566Y64508D02*
X337942Y64384D01*
X337413Y64030D01*
X337059Y63501D01*
X336935Y62876D01*
X337059Y62252D01*
X337413Y61723D01*
X337942Y61369D01*
X338566Y61245D01*
X339190Y61369D01*
X339720Y61723D01*
X340073Y62252D01*
X340197Y62876D01*
X340073Y63501D01*
X339720Y64030D01*
X339190Y64384D01*
X338566Y64508D01*
D02*
G37*
G36*
X335227Y61219D02*
X334603Y61095D01*
X334074Y60741D01*
X333720Y60212D01*
X333596Y59588D01*
X333720Y58963D01*
X334074Y58434D01*
X334603Y58080D01*
X335227Y57956D01*
X335852Y58080D01*
X336381Y58434D01*
X336735Y58963D01*
X336859Y59588D01*
X336735Y60212D01*
X336381Y60741D01*
X335852Y61095D01*
X335227Y61219D01*
D02*
G37*
G36*
X59493Y57625D02*
X58868Y57501D01*
X58339Y57147D01*
X57986Y56618D01*
X57862Y55993D01*
X57986Y55369D01*
X58339Y54840D01*
X58868Y54486D01*
X59493Y54362D01*
X60117Y54486D01*
X60646Y54840D01*
X61000Y55369D01*
X61124Y55993D01*
X61000Y56618D01*
X60646Y57147D01*
X60117Y57501D01*
X59493Y57625D01*
D02*
G37*
G36*
X331092Y57616D02*
X330468Y57492D01*
X329939Y57139D01*
X329585Y56609D01*
X329461Y55985D01*
X329585Y55361D01*
X329939Y54832D01*
X330468Y54478D01*
X331092Y54354D01*
X331717Y54478D01*
X332246Y54832D01*
X332599Y55361D01*
X332724Y55985D01*
X332599Y56609D01*
X332246Y57139D01*
X331717Y57492D01*
X331092Y57616D01*
D02*
G37*
G36*
X338566Y57519D02*
X337942Y57395D01*
X337413Y57042D01*
X337059Y56512D01*
X336935Y55888D01*
X337059Y55264D01*
X337413Y54734D01*
X337942Y54381D01*
X338566Y54257D01*
X339190Y54381D01*
X339720Y54734D01*
X340073Y55264D01*
X340197Y55888D01*
X340073Y56512D01*
X339720Y57042D01*
X339190Y57395D01*
X338566Y57519D01*
D02*
G37*
G36*
X65070Y57460D02*
X64446Y57336D01*
X63917Y56982D01*
X63563Y56453D01*
X63439Y55828D01*
X63563Y55204D01*
X63917Y54675D01*
X64446Y54321D01*
X65070Y54197D01*
X65695Y54321D01*
X66224Y54675D01*
X66578Y55204D01*
X66702Y55828D01*
X66578Y56453D01*
X66224Y56982D01*
X65695Y57336D01*
X65070Y57460D01*
D02*
G37*
G36*
X334788Y53347D02*
X334163Y53223D01*
X333634Y52870D01*
X333280Y52340D01*
X333156Y51716D01*
X333280Y51092D01*
X333634Y50563D01*
X334163Y50209D01*
X334788Y50085D01*
X335412Y50209D01*
X335941Y50563D01*
X336295Y51092D01*
X336419Y51716D01*
X336295Y52340D01*
X335941Y52870D01*
X335412Y53223D01*
X334788Y53347D01*
D02*
G37*
G36*
X59518Y52749D02*
X58894Y52625D01*
X58364Y52271D01*
X58011Y51742D01*
X57886Y51117D01*
X58011Y50493D01*
X58364Y49964D01*
X58894Y49610D01*
X59518Y49486D01*
X60142Y49610D01*
X60671Y49964D01*
X61025Y50493D01*
X61149Y51117D01*
X61025Y51742D01*
X60671Y52271D01*
X60142Y52625D01*
X59518Y52749D01*
D02*
G37*
G36*
X338214Y50716D02*
X337590Y50591D01*
X337061Y50238D01*
X336707Y49709D01*
X336583Y49084D01*
X336707Y48460D01*
X337061Y47931D01*
X337590Y47577D01*
X338214Y47453D01*
X338839Y47577D01*
X339368Y47931D01*
X339721Y48460D01*
X339846Y49084D01*
X339721Y49709D01*
X339368Y50238D01*
X338839Y50591D01*
X338214Y50716D01*
D02*
G37*
G36*
X354953Y50437D02*
X354329Y50313D01*
X353800Y49959D01*
X353446Y49430D01*
X353322Y48805D01*
X353446Y48181D01*
X353800Y47652D01*
X354329Y47298D01*
X354953Y47174D01*
X355578Y47298D01*
X356107Y47652D01*
X356460Y48181D01*
X356585Y48805D01*
X356460Y49430D01*
X356107Y49959D01*
X355578Y50313D01*
X354953Y50437D01*
D02*
G37*
G36*
X346385Y50397D02*
X345760Y50273D01*
X345231Y49919D01*
X344877Y49390D01*
X344753Y48765D01*
X344877Y48141D01*
X345231Y47612D01*
X345760Y47258D01*
X346385Y47134D01*
X347009Y47258D01*
X347538Y47612D01*
X347892Y48141D01*
X348016Y48765D01*
X347892Y49390D01*
X347538Y49919D01*
X347009Y50273D01*
X346385Y50397D01*
D02*
G37*
G36*
X330801D02*
X330177Y50273D01*
X329648Y49919D01*
X329294Y49390D01*
X329170Y48765D01*
X329294Y48141D01*
X329648Y47612D01*
X330177Y47258D01*
X330801Y47134D01*
X331425Y47258D01*
X331955Y47612D01*
X332308Y48141D01*
X332433Y48765D01*
X332308Y49390D01*
X331955Y49919D01*
X331425Y50273D01*
X330801Y50397D01*
D02*
G37*
G36*
X279416Y-2711D02*
X278424Y-2841D01*
X277500Y-3224D01*
X276706Y-3833D01*
X276097Y-4627D01*
X275714Y-5551D01*
X275584Y-6543D01*
X275714Y-7536D01*
X276097Y-8460D01*
X276706Y-9254D01*
X277500Y-9863D01*
X278424Y-10246D01*
X279416Y-10376D01*
X280408Y-10246D01*
X281333Y-9863D01*
X282126Y-9254D01*
X282736Y-8460D01*
X283119Y-7536D01*
X283249Y-6543D01*
X283119Y-5551D01*
X282736Y-4627D01*
X282126Y-3833D01*
X281333Y-3224D01*
X280408Y-2841D01*
X279416Y-2711D01*
D02*
G37*
G36*
X255794D02*
X254802Y-2841D01*
X253878Y-3224D01*
X253084Y-3833D01*
X252475Y-4627D01*
X252092Y-5551D01*
X251961Y-6543D01*
X252092Y-7536D01*
X252475Y-8460D01*
X253084Y-9254D01*
X253878Y-9863D01*
X254802Y-10246D01*
X255794Y-10376D01*
X256786Y-10246D01*
X257711Y-9863D01*
X258505Y-9254D01*
X259114Y-8460D01*
X259496Y-7536D01*
X259627Y-6543D01*
X259496Y-5551D01*
X259114Y-4627D01*
X258505Y-3833D01*
X257711Y-3224D01*
X256786Y-2841D01*
X255794Y-2711D01*
D02*
G37*
G36*
X243983D02*
X242991Y-2841D01*
X242067Y-3224D01*
X241273Y-3833D01*
X240664Y-4627D01*
X240281Y-5551D01*
X240150Y-6543D01*
X240281Y-7536D01*
X240664Y-8460D01*
X241273Y-9254D01*
X242067Y-9863D01*
X242991Y-10246D01*
X243983Y-10376D01*
X244975Y-10246D01*
X245900Y-9863D01*
X246693Y-9254D01*
X247303Y-8460D01*
X247685Y-7536D01*
X247816Y-6543D01*
X247685Y-5551D01*
X247303Y-4627D01*
X246693Y-3833D01*
X245900Y-3224D01*
X244975Y-2841D01*
X243983Y-2711D01*
D02*
G37*
G36*
X55347Y-3511D02*
X51347D01*
X50643Y-3603D01*
X49986Y-3875D01*
X49422Y-4308D01*
X48989Y-4872D01*
X48717Y-5529D01*
X48624Y-6234D01*
Y-10234D01*
X48717Y-10939D01*
X48989Y-11596D01*
X49422Y-12160D01*
X49986Y-12592D01*
X50643Y-12864D01*
X51347Y-12957D01*
X55347D01*
X56052Y-12864D01*
X56709Y-12592D01*
X57273Y-12160D01*
X57706Y-11596D01*
X57978Y-10939D01*
X58071Y-10234D01*
Y-6234D01*
X57978Y-5529D01*
X57706Y-4872D01*
X57273Y-4308D01*
X56709Y-3875D01*
X56052Y-3603D01*
X55347Y-3511D01*
D02*
G37*
G36*
X255794Y-14522D02*
X254802Y-14652D01*
X253878Y-15035D01*
X253084Y-15644D01*
X252475Y-16438D01*
X252092Y-17363D01*
X251961Y-18355D01*
X252092Y-19347D01*
X252475Y-20271D01*
X253084Y-21065D01*
X253878Y-21674D01*
X254802Y-22057D01*
X255794Y-22187D01*
X256786Y-22057D01*
X257711Y-21674D01*
X258505Y-21065D01*
X259114Y-20271D01*
X259496Y-19347D01*
X259627Y-18355D01*
X259496Y-17363D01*
X259114Y-16438D01*
X258505Y-15644D01*
X257711Y-15035D01*
X256786Y-14652D01*
X255794Y-14522D01*
D02*
G37*
G36*
X243983D02*
X242991Y-14652D01*
X242067Y-15035D01*
X241273Y-15644D01*
X240664Y-16438D01*
X240281Y-17363D01*
X240150Y-18355D01*
X240281Y-19347D01*
X240664Y-20271D01*
X241273Y-21065D01*
X242067Y-21674D01*
X242991Y-22057D01*
X243983Y-22187D01*
X244975Y-22057D01*
X245900Y-21674D01*
X246693Y-21065D01*
X247303Y-20271D01*
X247685Y-19347D01*
X247816Y-18355D01*
X247685Y-17363D01*
X247303Y-16438D01*
X246693Y-15644D01*
X245900Y-15035D01*
X244975Y-14652D01*
X243983Y-14522D01*
D02*
G37*
G36*
X280966Y-14511D02*
X277866D01*
X276988Y-14685D01*
X276244Y-15182D01*
X275747Y-15927D01*
X275572Y-16805D01*
Y-19905D01*
X275747Y-20783D01*
X276244Y-21527D01*
X276988Y-22024D01*
X277866Y-22199D01*
X280966D01*
X281844Y-22024D01*
X282589Y-21527D01*
X283086Y-20783D01*
X283260Y-19905D01*
Y-16805D01*
X283086Y-15927D01*
X282589Y-15182D01*
X281844Y-14685D01*
X280966Y-14511D01*
D02*
G37*
G36*
X45347Y-23196D02*
X41347D01*
X40642Y-23288D01*
X39986Y-23561D01*
X39422Y-23993D01*
X38989Y-24557D01*
X38717Y-25214D01*
X38624Y-25919D01*
Y-29919D01*
X38717Y-30624D01*
X38989Y-31281D01*
X39422Y-31845D01*
X39986Y-32277D01*
X40642Y-32550D01*
X41347Y-32642D01*
X45347D01*
X46052Y-32550D01*
X46709Y-32277D01*
X47273Y-31845D01*
X47706Y-31281D01*
X47978Y-30624D01*
X48071Y-29919D01*
Y-25919D01*
X47978Y-25214D01*
X47706Y-24557D01*
X47273Y-23993D01*
X46709Y-23561D01*
X46052Y-23288D01*
X45347Y-23196D01*
D02*
G37*
G36*
X143347Y-23178D02*
X142120Y-23340D01*
X140977Y-23813D01*
X139995Y-24567D01*
X139242Y-25549D01*
X138768Y-26692D01*
X138607Y-27919D01*
X138768Y-29146D01*
X139242Y-30289D01*
X139995Y-31271D01*
X140977Y-32024D01*
X142120Y-32498D01*
X143347Y-32660D01*
X144574Y-32498D01*
X145718Y-32024D01*
X146699Y-31271D01*
X147453Y-30289D01*
X147926Y-29146D01*
X148088Y-27919D01*
X147926Y-26692D01*
X147453Y-25549D01*
X146699Y-24567D01*
X145718Y-23813D01*
X144574Y-23340D01*
X143347Y-23178D01*
D02*
G37*
G36*
X123347D02*
X122120Y-23340D01*
X120977Y-23813D01*
X119995Y-24567D01*
X119242Y-25549D01*
X118768Y-26692D01*
X118607Y-27919D01*
X118768Y-29146D01*
X119242Y-30289D01*
X119995Y-31271D01*
X120977Y-32024D01*
X122120Y-32498D01*
X123347Y-32660D01*
X124574Y-32498D01*
X125718Y-32024D01*
X126699Y-31271D01*
X127453Y-30289D01*
X127926Y-29146D01*
X128088Y-27919D01*
X127926Y-26692D01*
X127453Y-25549D01*
X126699Y-24567D01*
X125718Y-23813D01*
X124574Y-23340D01*
X123347Y-23178D01*
D02*
G37*
G36*
X103347D02*
X102120Y-23340D01*
X100977Y-23813D01*
X99995Y-24567D01*
X99242Y-25549D01*
X98768Y-26692D01*
X98607Y-27919D01*
X98768Y-29146D01*
X99242Y-30289D01*
X99995Y-31271D01*
X100977Y-32024D01*
X102120Y-32498D01*
X103347Y-32660D01*
X104574Y-32498D01*
X105718Y-32024D01*
X106699Y-31271D01*
X107453Y-30289D01*
X107926Y-29146D01*
X108088Y-27919D01*
X107926Y-26692D01*
X107453Y-25549D01*
X106699Y-24567D01*
X105718Y-23813D01*
X104574Y-23340D01*
X103347Y-23178D01*
D02*
G37*
G36*
X83347D02*
X82120Y-23340D01*
X80977Y-23813D01*
X79995Y-24567D01*
X79242Y-25549D01*
X78768Y-26692D01*
X78607Y-27919D01*
X78768Y-29146D01*
X79242Y-30289D01*
X79995Y-31271D01*
X80977Y-32024D01*
X82120Y-32498D01*
X83347Y-32660D01*
X84574Y-32498D01*
X85718Y-32024D01*
X86699Y-31271D01*
X87453Y-30289D01*
X87926Y-29146D01*
X88088Y-27919D01*
X87926Y-26692D01*
X87453Y-25549D01*
X86699Y-24567D01*
X85718Y-23813D01*
X84574Y-23340D01*
X83347Y-23178D01*
D02*
G37*
G36*
X63347D02*
X62120Y-23340D01*
X60977Y-23813D01*
X59995Y-24567D01*
X59242Y-25549D01*
X58768Y-26692D01*
X58607Y-27919D01*
X58768Y-29146D01*
X59242Y-30289D01*
X59995Y-31271D01*
X60977Y-32024D01*
X62120Y-32498D01*
X63347Y-32660D01*
X64574Y-32498D01*
X65718Y-32024D01*
X66699Y-31271D01*
X67453Y-30289D01*
X67926Y-29146D01*
X68088Y-27919D01*
X67926Y-26692D01*
X67453Y-25549D01*
X66699Y-24567D01*
X65718Y-23813D01*
X64574Y-23340D01*
X63347Y-23178D01*
D02*
G37*
G36*
X198476Y-27267D02*
X197304Y-27421D01*
X196213Y-27873D01*
X195275Y-28592D01*
X194556Y-29530D01*
X194104Y-30621D01*
X193950Y-31793D01*
X194104Y-32964D01*
X194556Y-34056D01*
X195275Y-34993D01*
X196213Y-35713D01*
X197304Y-36165D01*
X198476Y-36319D01*
X199647Y-36165D01*
X200739Y-35713D01*
X201676Y-34993D01*
X202396Y-34056D01*
X202848Y-32964D01*
X203002Y-31793D01*
X202848Y-30621D01*
X202396Y-29530D01*
X201676Y-28592D01*
X200739Y-27873D01*
X199647Y-27421D01*
X198476Y-27267D01*
D02*
G37*
G36*
X56060Y268460D02*
X55436Y268335D01*
X54907Y267982D01*
X54553Y267452D01*
X54429Y266828D01*
X54553Y266204D01*
X54907Y265675D01*
X55436Y265321D01*
X56060Y265197D01*
X56684Y265321D01*
X57214Y265675D01*
X57567Y266204D01*
X57692Y266828D01*
X57567Y267452D01*
X57214Y267982D01*
X56684Y268335D01*
X56060Y268460D01*
D02*
G37*
G36*
X196312Y237970D02*
X195688Y237845D01*
X195159Y237492D01*
X194805Y236963D01*
X194725Y236929D01*
X194608Y237007D01*
X193984Y237131D01*
X193359Y237007D01*
X192830Y236653D01*
X192477Y236124D01*
X192352Y235500D01*
X192477Y234876D01*
X192830Y234347D01*
X193359Y233993D01*
X193984Y233869D01*
X194608Y233993D01*
X195137Y234347D01*
X195491Y234876D01*
X195572Y234909D01*
X195688Y234831D01*
X196312Y234707D01*
X196937Y234831D01*
X197466Y235185D01*
X197820Y235714D01*
X197944Y236338D01*
X197820Y236963D01*
X197466Y237492D01*
X196937Y237845D01*
X196312Y237970D01*
D02*
G37*
G36*
X186952Y236664D02*
X186327Y236540D01*
X185798Y236186D01*
X185444Y235657D01*
X185320Y235033D01*
X185444Y234409D01*
X185798Y233879D01*
X186327Y233526D01*
X186952Y233401D01*
X187576Y233526D01*
X188105Y233879D01*
X188459Y234409D01*
X188583Y235033D01*
X188459Y235657D01*
X188105Y236186D01*
X187576Y236540D01*
X186952Y236664D01*
D02*
G37*
G36*
X224068Y236246D02*
X223444Y236122D01*
X222915Y235768D01*
X222561Y235239D01*
X222437Y234614D01*
X222561Y233990D01*
X222915Y233461D01*
X223444Y233107D01*
X224068Y232983D01*
X224693Y233107D01*
X225222Y233461D01*
X225575Y233990D01*
X225700Y234614D01*
X225575Y235239D01*
X225222Y235768D01*
X224693Y236122D01*
X224068Y236246D01*
D02*
G37*
G36*
X233969Y235597D02*
X233345Y235473D01*
X232816Y235119D01*
X232462Y234590D01*
X232338Y233965D01*
X232462Y233341D01*
X232816Y232812D01*
X233345Y232458D01*
X233969Y232334D01*
X234594Y232458D01*
X235123Y232812D01*
X235476Y233341D01*
X235601Y233965D01*
X235476Y234590D01*
X235123Y235119D01*
X234594Y235473D01*
X233969Y235597D01*
D02*
G37*
G36*
X229844Y231127D02*
X229220Y231003D01*
X228691Y230649D01*
X228337Y230120D01*
X228213Y229496D01*
X228337Y228871D01*
X228691Y228342D01*
X229220Y227988D01*
X229844Y227864D01*
X230469Y227988D01*
X230998Y228342D01*
X231351Y228871D01*
X231476Y229496D01*
X231351Y230120D01*
X230998Y230649D01*
X230469Y231003D01*
X229844Y231127D01*
D02*
G37*
G36*
X188584Y230113D02*
X187960Y229988D01*
X187431Y229635D01*
X187077Y229105D01*
X186953Y228481D01*
X187077Y227857D01*
X187431Y227328D01*
X187960Y226974D01*
X188584Y226850D01*
X189209Y226974D01*
X189738Y227328D01*
X190092Y227857D01*
X190216Y228481D01*
X190092Y229105D01*
X189738Y229635D01*
X189209Y229988D01*
X188584Y230113D01*
D02*
G37*
G36*
X149181Y229828D02*
X148557Y229703D01*
X148028Y229350D01*
X147674Y228820D01*
X147550Y228196D01*
X147674Y227572D01*
X148028Y227043D01*
X148557Y226689D01*
X149181Y226565D01*
X149806Y226689D01*
X150335Y227043D01*
X150689Y227572D01*
X150813Y228196D01*
X150689Y228820D01*
X150335Y229350D01*
X149806Y229703D01*
X149181Y229828D01*
D02*
G37*
G36*
X56002Y226974D02*
X55378Y226850D01*
X54849Y226496D01*
X54495Y225967D01*
X54371Y225343D01*
X54495Y224718D01*
X54849Y224189D01*
X55378Y223836D01*
X56002Y223711D01*
X56627Y223836D01*
X57156Y224189D01*
X57509Y224718D01*
X57634Y225343D01*
X57509Y225967D01*
X57156Y226496D01*
X56627Y226850D01*
X56002Y226974D01*
D02*
G37*
G36*
X215599Y226790D02*
X214974Y226666D01*
X214445Y226312D01*
X214091Y225783D01*
X213967Y225159D01*
X214091Y224535D01*
X214445Y224005D01*
X214974Y223652D01*
X215599Y223527D01*
X216223Y223652D01*
X216752Y224005D01*
X217106Y224535D01*
X217230Y225159D01*
X217106Y225783D01*
X216752Y226312D01*
X216223Y226666D01*
X215599Y226790D01*
D02*
G37*
G36*
X201431Y226347D02*
X200806Y226223D01*
X200277Y225870D01*
X199924Y225340D01*
X199799Y224716D01*
X199924Y224092D01*
X200277Y223563D01*
X200806Y223209D01*
X201431Y223085D01*
X202055Y223209D01*
X202584Y223563D01*
X202938Y224092D01*
X203062Y224716D01*
X202938Y225340D01*
X202584Y225870D01*
X202055Y226223D01*
X201431Y226347D01*
D02*
G37*
G36*
X181626Y227238D02*
X181002Y227113D01*
X180473Y226760D01*
X180119Y226231D01*
X180017Y225714D01*
X179915Y225534D01*
X179563Y225217D01*
X179134Y225132D01*
X178605Y224778D01*
X178251Y224249D01*
X178127Y223624D01*
X178251Y223000D01*
X178605Y222471D01*
X179134Y222117D01*
X179758Y221993D01*
X180382Y222117D01*
X180912Y222471D01*
X181265Y223000D01*
X181368Y223516D01*
X181469Y223696D01*
X181822Y224014D01*
X182251Y224099D01*
X182780Y224453D01*
X183134Y224982D01*
X183258Y225606D01*
X183134Y226231D01*
X182780Y226760D01*
X182251Y227113D01*
X181626Y227238D01*
D02*
G37*
G36*
X50944Y224904D02*
X50320Y224780D01*
X49791Y224426D01*
X49437Y223897D01*
X49313Y223272D01*
X49437Y222648D01*
X49791Y222119D01*
X50320Y221765D01*
X50944Y221641D01*
X51568Y221765D01*
X52098Y222119D01*
X52451Y222648D01*
X52575Y223272D01*
X52451Y223897D01*
X52098Y224426D01*
X51568Y224780D01*
X50944Y224904D01*
D02*
G37*
G36*
X186301Y224422D02*
X185677Y224297D01*
X185148Y223944D01*
X184794Y223414D01*
X184670Y222790D01*
X184794Y222166D01*
X185148Y221637D01*
X185677Y221283D01*
X186301Y221159D01*
X186925Y221283D01*
X187454Y221637D01*
X187808Y222166D01*
X187932Y222790D01*
X187808Y223414D01*
X187454Y223944D01*
X186925Y224297D01*
X186301Y224422D01*
D02*
G37*
G36*
X213173Y221496D02*
X212548Y221372D01*
X212019Y221018D01*
X211666Y220489D01*
X211542Y219865D01*
X211666Y219240D01*
X212019Y218711D01*
X212548Y218358D01*
X213173Y218233D01*
X213797Y218358D01*
X214326Y218711D01*
X214680Y219240D01*
X214804Y219865D01*
X214680Y220489D01*
X214326Y221018D01*
X213797Y221372D01*
X213173Y221496D01*
D02*
G37*
G36*
X287644Y223436D02*
X286722Y223314D01*
X285863Y222958D01*
X285125Y222392D01*
X284559Y221655D01*
X284203Y220796D01*
X284082Y219874D01*
X284203Y218952D01*
X284559Y218093D01*
X285125Y217355D01*
X285863Y216789D01*
X286722Y216433D01*
X287644Y216312D01*
X288566Y216433D01*
X289425Y216789D01*
X290162Y217355D01*
X290729Y218093D01*
X291084Y218952D01*
X291206Y219874D01*
X291084Y220796D01*
X290729Y221655D01*
X290162Y222392D01*
X289425Y222958D01*
X288566Y223314D01*
X287644Y223436D01*
D02*
G37*
G36*
X144495Y219508D02*
X143871Y219383D01*
X143341Y219030D01*
X142988Y218500D01*
X142864Y217876D01*
X142988Y217252D01*
X143341Y216723D01*
X143871Y216369D01*
X144495Y216245D01*
X145119Y216369D01*
X145649Y216723D01*
X146002Y217252D01*
X146126Y217876D01*
X146002Y218500D01*
X145649Y219030D01*
X145119Y219383D01*
X144495Y219508D01*
D02*
G37*
G36*
X316974Y223594D02*
X316012Y223467D01*
X315114Y223095D01*
X314344Y222504D01*
X313753Y221734D01*
X313381Y220836D01*
X313255Y219874D01*
X313381Y218911D01*
X313753Y218014D01*
X314344Y217243D01*
X315114Y216652D01*
X316012Y216281D01*
X316974Y216154D01*
X317937Y216281D01*
X318834Y216652D01*
X319605Y217243D01*
X320196Y218014D01*
X320568Y218911D01*
X320694Y219874D01*
X320568Y220836D01*
X320196Y221734D01*
X319605Y222504D01*
X318834Y223095D01*
X317937Y223467D01*
X316974Y223594D01*
D02*
G37*
G36*
X222926Y217789D02*
X222302Y217665D01*
X221773Y217311D01*
X221419Y216782D01*
X221295Y216158D01*
X221419Y215533D01*
X221773Y215004D01*
X222302Y214650D01*
X222926Y214526D01*
X223551Y214650D01*
X224080Y215004D01*
X224433Y215533D01*
X224558Y216158D01*
X224433Y216782D01*
X224080Y217311D01*
X223551Y217665D01*
X222926Y217789D01*
D02*
G37*
G36*
X267725Y214277D02*
X267101Y214153D01*
X266572Y213800D01*
X266218Y213270D01*
X266094Y212646D01*
X266218Y212022D01*
X266572Y211492D01*
X267101Y211139D01*
X267725Y211015D01*
X268350Y211139D01*
X268879Y211492D01*
X269232Y212022D01*
X269357Y212646D01*
X269232Y213270D01*
X268879Y213800D01*
X268350Y214153D01*
X267725Y214277D01*
D02*
G37*
G36*
X273583Y214227D02*
X272958Y214103D01*
X272429Y213749D01*
X272075Y213220D01*
X271951Y212596D01*
X272075Y211972D01*
X272429Y211442D01*
X272958Y211089D01*
X273583Y210965D01*
X274207Y211089D01*
X274736Y211442D01*
X275090Y211972D01*
X275214Y212596D01*
X275090Y213220D01*
X274736Y213749D01*
X274207Y214103D01*
X273583Y214227D01*
D02*
G37*
G36*
X95647Y213295D02*
X95023Y213171D01*
X94493Y212817D01*
X94140Y212288D01*
X94016Y211664D01*
X94140Y211039D01*
X94493Y210510D01*
X95023Y210157D01*
X95647Y210032D01*
X96271Y210157D01*
X96801Y210510D01*
X97154Y211039D01*
X97278Y211664D01*
X97154Y212288D01*
X96801Y212817D01*
X96271Y213171D01*
X95647Y213295D01*
D02*
G37*
G36*
X40462Y210728D02*
X39838Y210604D01*
X39309Y210250D01*
X38955Y209721D01*
X38831Y209096D01*
X38955Y208472D01*
X39309Y207943D01*
X39838Y207589D01*
X40462Y207465D01*
X41087Y207589D01*
X41616Y207943D01*
X41970Y208472D01*
X42094Y209096D01*
X41970Y209721D01*
X41616Y210250D01*
X41087Y210604D01*
X40462Y210728D01*
D02*
G37*
G36*
X176792Y208880D02*
X176168Y208756D01*
X175638Y208402D01*
X175285Y207873D01*
X175160Y207249D01*
X175285Y206625D01*
X175638Y206095D01*
X176168Y205742D01*
X176792Y205617D01*
X177416Y205742D01*
X177945Y206095D01*
X178299Y206625D01*
X178423Y207249D01*
X178299Y207873D01*
X177945Y208402D01*
X177416Y208756D01*
X176792Y208880D01*
D02*
G37*
G36*
X122605Y208447D02*
X121981Y208323D01*
X121452Y207969D01*
X121098Y207440D01*
X120974Y206816D01*
X121098Y206191D01*
X121452Y205662D01*
X121981Y205308D01*
X122605Y205184D01*
X123229Y205308D01*
X123759Y205662D01*
X124112Y206191D01*
X124237Y206816D01*
X124112Y207440D01*
X123759Y207969D01*
X123229Y208323D01*
X122605Y208447D01*
D02*
G37*
G36*
X164791Y219767D02*
X156810D01*
X156657Y219704D01*
X156593Y219551D01*
Y205377D01*
X156657Y205224D01*
X156810Y205161D01*
X164791D01*
X164945Y205224D01*
X165008Y205377D01*
Y219551D01*
X164945Y219704D01*
X164791Y219767D01*
D02*
G37*
G36*
X85991Y208412D02*
X85366Y208287D01*
X84837Y207934D01*
X84483Y207404D01*
X84359Y206780D01*
X84483Y206156D01*
X84837Y205627D01*
X85366Y205273D01*
X85991Y205149D01*
X86615Y205273D01*
X87144Y205627D01*
X87498Y206156D01*
X87622Y206780D01*
X87498Y207404D01*
X87144Y207934D01*
X86615Y208287D01*
X85991Y208412D01*
D02*
G37*
G36*
X43512Y207432D02*
X42887Y207308D01*
X42358Y206954D01*
X42005Y206425D01*
X41881Y205801D01*
X42005Y205176D01*
X42358Y204647D01*
X42887Y204294D01*
X43512Y204170D01*
X44136Y204294D01*
X44665Y204647D01*
X45019Y205176D01*
X45143Y205801D01*
X45019Y206425D01*
X44665Y206954D01*
X44136Y207308D01*
X43512Y207432D01*
D02*
G37*
G36*
X217628Y207223D02*
X217003Y207098D01*
X216474Y206745D01*
X216120Y206215D01*
X215996Y205591D01*
X216120Y204967D01*
X216474Y204438D01*
X217003Y204084D01*
X217628Y203960D01*
X218252Y204084D01*
X218781Y204438D01*
X219135Y204967D01*
X219259Y205591D01*
X219135Y206215D01*
X218781Y206745D01*
X218252Y207098D01*
X217628Y207223D01*
D02*
G37*
G36*
X286912Y206609D02*
X286287Y206484D01*
X285758Y206131D01*
X285405Y205602D01*
X285280Y204977D01*
X285405Y204353D01*
X285758Y203824D01*
X286287Y203470D01*
X286912Y203346D01*
X287536Y203470D01*
X288065Y203824D01*
X288419Y204353D01*
X288543Y204977D01*
X288419Y205602D01*
X288065Y206131D01*
X287536Y206484D01*
X286912Y206609D01*
D02*
G37*
G36*
X307599Y206436D02*
X306974Y206311D01*
X306445Y205958D01*
X306091Y205429D01*
X305967Y204804D01*
X306091Y204180D01*
X306445Y203651D01*
X306974Y203297D01*
X307599Y203173D01*
X308223Y203297D01*
X308752Y203651D01*
X309106Y204180D01*
X309230Y204804D01*
X309106Y205429D01*
X308752Y205958D01*
X308223Y206311D01*
X307599Y206436D01*
D02*
G37*
G36*
X276871Y206423D02*
X276247Y206299D01*
X275717Y205946D01*
X275364Y205416D01*
X275240Y204792D01*
X275364Y204168D01*
X275717Y203639D01*
X276247Y203285D01*
X276871Y203161D01*
X277495Y203285D01*
X278024Y203639D01*
X278378Y204168D01*
X278502Y204792D01*
X278378Y205416D01*
X278024Y205946D01*
X277495Y206299D01*
X276871Y206423D01*
D02*
G37*
G36*
X267279Y206342D02*
X266655Y206218D01*
X266126Y205864D01*
X265772Y205335D01*
X265648Y204711D01*
X265772Y204086D01*
X266126Y203557D01*
X266655Y203203D01*
X267279Y203079D01*
X267904Y203203D01*
X268433Y203557D01*
X268787Y204086D01*
X268911Y204711D01*
X268787Y205335D01*
X268433Y205864D01*
X267904Y206218D01*
X267279Y206342D01*
D02*
G37*
G36*
X327293Y206321D02*
X326669Y206196D01*
X326139Y205843D01*
X325786Y205313D01*
X325662Y204689D01*
X325786Y204065D01*
X326139Y203536D01*
X326669Y203182D01*
X327293Y203058D01*
X327917Y203182D01*
X328447Y203536D01*
X328800Y204065D01*
X328924Y204689D01*
X328800Y205313D01*
X328447Y205843D01*
X327917Y206196D01*
X327293Y206321D01*
D02*
G37*
G36*
X297687Y206319D02*
X297063Y206195D01*
X296533Y205842D01*
X296180Y205312D01*
X296056Y204688D01*
X296180Y204064D01*
X296533Y203535D01*
X297063Y203181D01*
X297687Y203057D01*
X298311Y203181D01*
X298840Y203535D01*
X299194Y204064D01*
X299318Y204688D01*
X299194Y205312D01*
X298840Y205842D01*
X298311Y206195D01*
X297687Y206319D01*
D02*
G37*
G36*
X317083Y206181D02*
X316458Y206057D01*
X315929Y205703D01*
X315575Y205174D01*
X315451Y204550D01*
X315575Y203926D01*
X315929Y203396D01*
X316458Y203043D01*
X317083Y202919D01*
X317707Y203043D01*
X318236Y203396D01*
X318590Y203926D01*
X318714Y204550D01*
X318590Y205174D01*
X318236Y205703D01*
X317707Y206057D01*
X317083Y206181D01*
D02*
G37*
G36*
X201232Y205025D02*
X200608Y204900D01*
X200079Y204547D01*
X199725Y204017D01*
X199601Y203393D01*
X199725Y202769D01*
X200079Y202240D01*
X200608Y201886D01*
X201232Y201762D01*
X201856Y201886D01*
X202386Y202240D01*
X202739Y202769D01*
X202864Y203393D01*
X202739Y204017D01*
X202386Y204547D01*
X201856Y204900D01*
X201232Y205025D01*
D02*
G37*
G36*
X184432Y205001D02*
X183808Y204877D01*
X183279Y204523D01*
X182925Y203994D01*
X182801Y203370D01*
X182925Y202746D01*
X183279Y202216D01*
X183808Y201863D01*
X184432Y201739D01*
X185057Y201863D01*
X185586Y202216D01*
X185940Y202746D01*
X186064Y203370D01*
X185940Y203994D01*
X185586Y204523D01*
X185057Y204877D01*
X184432Y205001D01*
D02*
G37*
G36*
X68009Y204547D02*
X67385Y204423D01*
X66856Y204069D01*
X66502Y203540D01*
X66378Y202916D01*
X66502Y202291D01*
X66856Y201762D01*
X67385Y201409D01*
X68009Y201284D01*
X68633Y201409D01*
X69163Y201762D01*
X69516Y202291D01*
X69640Y202916D01*
X69516Y203540D01*
X69163Y204069D01*
X68633Y204423D01*
X68009Y204547D01*
D02*
G37*
G36*
X72749Y204186D02*
X72125Y204062D01*
X71596Y203708D01*
X71242Y203179D01*
X71118Y202554D01*
X71242Y201930D01*
X71596Y201401D01*
X72125Y201047D01*
X72749Y200923D01*
X73374Y201047D01*
X73903Y201401D01*
X74256Y201930D01*
X74381Y202554D01*
X74256Y203179D01*
X73903Y203708D01*
X73374Y204062D01*
X72749Y204186D01*
D02*
G37*
G36*
X45500Y202631D02*
X44876Y202507D01*
X44346Y202153D01*
X43993Y201624D01*
X43869Y201000D01*
X43993Y200376D01*
X44346Y199846D01*
X44876Y199493D01*
X45500Y199369D01*
X46124Y199493D01*
X46654Y199846D01*
X47007Y200376D01*
X47131Y201000D01*
X47007Y201624D01*
X46654Y202153D01*
X46124Y202507D01*
X45500Y202631D01*
D02*
G37*
G36*
X116527Y202511D02*
X115903Y202387D01*
X115374Y202033D01*
X115020Y201504D01*
X114896Y200880D01*
X115020Y200255D01*
X115374Y199726D01*
X115903Y199373D01*
X116527Y199248D01*
X117151Y199373D01*
X117681Y199726D01*
X118034Y200255D01*
X118158Y200880D01*
X118034Y201504D01*
X117681Y202033D01*
X117151Y202387D01*
X116527Y202511D01*
D02*
G37*
G36*
X95629Y200266D02*
X95005Y200142D01*
X94476Y199788D01*
X94122Y199259D01*
X93998Y198635D01*
X94122Y198011D01*
X94476Y197481D01*
X95005Y197128D01*
X95629Y197004D01*
X96254Y197128D01*
X96783Y197481D01*
X97137Y198011D01*
X97261Y198635D01*
X97137Y199259D01*
X96783Y199788D01*
X96254Y200142D01*
X95629Y200266D01*
D02*
G37*
G36*
X181080Y197969D02*
X180456Y197845D01*
X179927Y197491D01*
X179573Y196962D01*
X179449Y196338D01*
X179573Y195713D01*
X179927Y195184D01*
X180456Y194831D01*
X181080Y194706D01*
X181704Y194831D01*
X182234Y195184D01*
X182587Y195713D01*
X182712Y196338D01*
X182587Y196962D01*
X182234Y197491D01*
X181704Y197845D01*
X181080Y197969D01*
D02*
G37*
G36*
X149442Y197266D02*
X148818Y197142D01*
X148289Y196788D01*
X147935Y196259D01*
X147811Y195635D01*
X147935Y195010D01*
X148289Y194481D01*
X148818Y194128D01*
X149442Y194003D01*
X150067Y194128D01*
X150596Y194481D01*
X150950Y195010D01*
X151074Y195635D01*
X150950Y196259D01*
X150596Y196788D01*
X150067Y197142D01*
X149442Y197266D01*
D02*
G37*
G36*
X108244Y195708D02*
X102338D01*
X102185Y195645D01*
X102122Y195492D01*
Y190726D01*
X102185Y190573D01*
X102338Y190510D01*
X108244D01*
X108397Y190573D01*
X108460Y190726D01*
Y195492D01*
X108397Y195645D01*
X108244Y195708D01*
D02*
G37*
G36*
X209172Y199693D02*
X208547Y199569D01*
X208018Y199215D01*
X207665Y198686D01*
X207540Y198062D01*
X207665Y197437D01*
X208018Y196908D01*
X208356Y196682D01*
X208205Y196182D01*
X204453D01*
X203789Y196050D01*
X203227Y195675D01*
X194834Y187282D01*
X194458Y186720D01*
X194326Y186056D01*
Y174946D01*
X194458Y174282D01*
X194834Y173720D01*
X195396Y173344D01*
X196060Y173212D01*
X196723Y173344D01*
X197285Y173720D01*
X197661Y174282D01*
X197793Y174946D01*
Y185338D01*
X204689Y192234D01*
X205150Y191988D01*
X205105Y191763D01*
X205230Y191139D01*
X205583Y190610D01*
X206113Y190256D01*
X206737Y190132D01*
X207361Y190256D01*
X207890Y190610D01*
X208244Y191139D01*
X208368Y191763D01*
X208278Y192216D01*
X208580Y192716D01*
X229462D01*
X230125Y192848D01*
X230688Y193223D01*
X232226Y194762D01*
X232602Y195324D01*
X232734Y195987D01*
X232602Y196651D01*
X232226Y197213D01*
X231664Y197589D01*
X231001Y197721D01*
X230338Y197589D01*
X229775Y197213D01*
X228744Y196182D01*
X210139D01*
X209987Y196682D01*
X210325Y196908D01*
X210679Y197437D01*
X210803Y198062D01*
X210679Y198686D01*
X210325Y199215D01*
X209796Y199569D01*
X209172Y199693D01*
D02*
G37*
G36*
X137061Y192722D02*
X136437Y192598D01*
X135908Y192244D01*
X135554Y191715D01*
X135430Y191091D01*
X135554Y190466D01*
X135908Y189937D01*
X136437Y189584D01*
X137061Y189459D01*
X137686Y189584D01*
X138215Y189937D01*
X138568Y190466D01*
X138692Y191091D01*
X138568Y191715D01*
X138215Y192244D01*
X137686Y192598D01*
X137061Y192722D01*
D02*
G37*
G36*
X171781Y191605D02*
X171157Y191481D01*
X170628Y191127D01*
X170274Y190598D01*
X170150Y189973D01*
X170274Y189349D01*
X170628Y188820D01*
X171157Y188466D01*
X171781Y188342D01*
X172406Y188466D01*
X172935Y188820D01*
X173288Y189349D01*
X173413Y189973D01*
X173288Y190598D01*
X172935Y191127D01*
X172406Y191481D01*
X171781Y191605D01*
D02*
G37*
G36*
X332377Y191506D02*
X331753Y191382D01*
X331224Y191028D01*
X330870Y190499D01*
X330746Y189874D01*
X330870Y189250D01*
X331224Y188721D01*
X331753Y188367D01*
X332377Y188243D01*
X333002Y188367D01*
X333531Y188721D01*
X333885Y189250D01*
X334009Y189874D01*
X333885Y190499D01*
X333531Y191028D01*
X333002Y191382D01*
X332377Y191506D01*
D02*
G37*
G36*
X223069Y191440D02*
X222444Y191316D01*
X221915Y190963D01*
X221562Y190433D01*
X221437Y189809D01*
X221562Y189185D01*
X221915Y188655D01*
X222444Y188302D01*
X223069Y188178D01*
X223693Y188302D01*
X224222Y188655D01*
X224576Y189185D01*
X224700Y189809D01*
X224576Y190433D01*
X224222Y190963D01*
X223693Y191316D01*
X223069Y191440D01*
D02*
G37*
G36*
X122789Y193165D02*
X122165Y193041D01*
X121635Y192687D01*
X121282Y192158D01*
X121158Y191533D01*
X121282Y190909D01*
X121635Y190380D01*
X122165Y190026D01*
X122789Y189902D01*
X123286Y190001D01*
X123616Y189766D01*
X123722Y189631D01*
X123717Y189606D01*
X123841Y188981D01*
X124195Y188452D01*
X124724Y188099D01*
X125348Y187975D01*
X125973Y188099D01*
X126502Y188452D01*
X126856Y188981D01*
X126980Y189606D01*
X126856Y190230D01*
X126502Y190759D01*
X125973Y191113D01*
X125348Y191237D01*
X124852Y191138D01*
X124521Y191373D01*
X124415Y191508D01*
X124420Y191533D01*
X124296Y192158D01*
X123942Y192687D01*
X123413Y193041D01*
X122789Y193165D01*
D02*
G37*
G36*
X208763Y190006D02*
X208138Y189882D01*
X207609Y189529D01*
X207256Y188999D01*
X207131Y188375D01*
X207256Y187751D01*
X207609Y187222D01*
X208138Y186868D01*
X208763Y186744D01*
X209387Y186868D01*
X209916Y187222D01*
X210270Y187751D01*
X210394Y188375D01*
X210270Y188999D01*
X209916Y189529D01*
X209387Y189882D01*
X208763Y190006D01*
D02*
G37*
G36*
X168257Y189441D02*
X167633Y189316D01*
X167103Y188963D01*
X166750Y188434D01*
X166626Y187809D01*
X166750Y187185D01*
X167103Y186656D01*
X167633Y186302D01*
X168257Y186178D01*
X168881Y186302D01*
X169411Y186656D01*
X169764Y187185D01*
X169888Y187809D01*
X169764Y188434D01*
X169411Y188963D01*
X168881Y189316D01*
X168257Y189441D01*
D02*
G37*
G36*
X67500Y188631D02*
X66876Y188507D01*
X66347Y188154D01*
X65993Y187624D01*
X65869Y187000D01*
X65993Y186376D01*
X66347Y185846D01*
X66876Y185493D01*
X67500Y185369D01*
X68124Y185493D01*
X68654Y185846D01*
X69007Y186376D01*
X69131Y187000D01*
X69007Y187624D01*
X68654Y188154D01*
X68124Y188507D01*
X67500Y188631D01*
D02*
G37*
G36*
X230343Y188266D02*
X229719Y188142D01*
X229190Y187788D01*
X228836Y187259D01*
X228712Y186634D01*
X228836Y186010D01*
X229190Y185481D01*
X229719Y185127D01*
X230343Y185003D01*
X230967Y185127D01*
X231497Y185481D01*
X231850Y186010D01*
X231975Y186634D01*
X231850Y187259D01*
X231497Y187788D01*
X230967Y188142D01*
X230343Y188266D01*
D02*
G37*
G36*
X210292Y184856D02*
X209667Y184732D01*
X209138Y184378D01*
X208785Y183849D01*
X208660Y183225D01*
X208785Y182600D01*
X209138Y182071D01*
X209667Y181718D01*
X210292Y181594D01*
X210916Y181718D01*
X211445Y182071D01*
X211799Y182600D01*
X211923Y183225D01*
X211799Y183849D01*
X211445Y184378D01*
X210916Y184732D01*
X210292Y184856D01*
D02*
G37*
G36*
X100564Y183564D02*
X99940Y183440D01*
X99411Y183086D01*
X99057Y182557D01*
X98933Y181932D01*
X99057Y181308D01*
X99411Y180779D01*
X99940Y180425D01*
X100564Y180301D01*
X101189Y180425D01*
X101718Y180779D01*
X102071Y181308D01*
X102196Y181932D01*
X102071Y182557D01*
X101718Y183086D01*
X101189Y183440D01*
X100564Y183564D01*
D02*
G37*
G36*
X57984Y182853D02*
X55234D01*
X54425Y182692D01*
X53738Y182233D01*
X53280Y181547D01*
X53119Y180737D01*
Y177987D01*
X53280Y177177D01*
X53738Y176491D01*
X54425Y176032D01*
X55234Y175871D01*
X57984D01*
X58794Y176032D01*
X59480Y176491D01*
X59939Y177177D01*
X60100Y177987D01*
Y180737D01*
X59939Y181547D01*
X59480Y182233D01*
X58794Y182692D01*
X57984Y182853D01*
D02*
G37*
G36*
X152502Y178993D02*
X151878Y178869D01*
X151349Y178516D01*
X150995Y177986D01*
X150871Y177362D01*
X150995Y176738D01*
X151349Y176209D01*
X151878Y175855D01*
X152502Y175731D01*
X153127Y175855D01*
X153656Y176209D01*
X154010Y176738D01*
X154134Y177362D01*
X154010Y177986D01*
X153656Y178516D01*
X153127Y178869D01*
X152502Y178993D01*
D02*
G37*
G36*
X122135Y178955D02*
X121511Y178831D01*
X120981Y178478D01*
X120628Y177948D01*
X120503Y177324D01*
X120628Y176700D01*
X120981Y176171D01*
X121511Y175817D01*
X122135Y175693D01*
X122759Y175817D01*
X123288Y176171D01*
X123642Y176700D01*
X123766Y177324D01*
X123642Y177948D01*
X123288Y178478D01*
X122759Y178831D01*
X122135Y178955D01*
D02*
G37*
G36*
X180098Y176969D02*
X179473Y176845D01*
X178944Y176492D01*
X178591Y175962D01*
X178489Y175451D01*
X177979D01*
X177879Y175954D01*
X177525Y176483D01*
X176996Y176837D01*
X176372Y176961D01*
X175747Y176837D01*
X175218Y176483D01*
X174865Y175954D01*
X174740Y175330D01*
X174865Y174706D01*
X175218Y174176D01*
X175747Y173823D01*
X176372Y173698D01*
X176996Y173823D01*
X177525Y174176D01*
X177879Y174706D01*
X177981Y175217D01*
X178490D01*
X178591Y174714D01*
X178944Y174185D01*
X179473Y173831D01*
X180098Y173707D01*
X180722Y173831D01*
X181251Y174185D01*
X181605Y174714D01*
X181729Y175338D01*
X181605Y175962D01*
X181251Y176492D01*
X180722Y176845D01*
X180098Y176969D01*
D02*
G37*
G36*
X201928Y178710D02*
X201304Y178586D01*
X200775Y178232D01*
X200421Y177703D01*
X200297Y177078D01*
X200421Y176454D01*
X200775Y175925D01*
X201304Y175571D01*
X201928Y175447D01*
X202553Y175571D01*
X203082Y175925D01*
X203435Y176454D01*
X203560Y177078D01*
X203435Y177703D01*
X203082Y178232D01*
X202553Y178586D01*
X201928Y178710D01*
D02*
G37*
G36*
X233200Y178431D02*
X232576Y178307D01*
X232047Y177954D01*
X231693Y177424D01*
X231569Y176800D01*
X231693Y176176D01*
X232047Y175646D01*
X232576Y175293D01*
X233200Y175169D01*
X233824Y175293D01*
X234353Y175646D01*
X234707Y176176D01*
X234831Y176800D01*
X234707Y177424D01*
X234353Y177954D01*
X233824Y178307D01*
X233200Y178431D01*
D02*
G37*
G36*
X205550Y176993D02*
X204925Y176868D01*
X204396Y176515D01*
X204042Y175986D01*
X203918Y175361D01*
X204042Y174737D01*
X204396Y174208D01*
X204925Y173854D01*
X205550Y173730D01*
X206174Y173854D01*
X206703Y174208D01*
X207057Y174737D01*
X207181Y175361D01*
X207057Y175986D01*
X206703Y176515D01*
X206174Y176868D01*
X205550Y176993D01*
D02*
G37*
G36*
X183999Y176705D02*
X183374Y176581D01*
X182845Y176227D01*
X182491Y175698D01*
X182367Y175074D01*
X182491Y174450D01*
X182845Y173920D01*
X183374Y173567D01*
X183999Y173442D01*
X184623Y173567D01*
X185152Y173920D01*
X185487Y174421D01*
X185608Y174437D01*
X186003Y174388D01*
X186004Y174382D01*
X186358Y173853D01*
X186887Y173499D01*
X187511Y173375D01*
X188136Y173499D01*
X188665Y173853D01*
X189019Y174382D01*
X189143Y175006D01*
X189019Y175631D01*
X188665Y176160D01*
X188136Y176514D01*
X187511Y176638D01*
X186887Y176514D01*
X186358Y176160D01*
X186023Y175659D01*
X185902Y175643D01*
X185507Y175692D01*
X185506Y175698D01*
X185152Y176227D01*
X184623Y176581D01*
X183999Y176705D01*
D02*
G37*
G36*
X120035Y175450D02*
X119410Y175326D01*
X118881Y174973D01*
X118527Y174443D01*
X118403Y173819D01*
X118527Y173195D01*
X118881Y172666D01*
X119410Y172312D01*
X120035Y172188D01*
X120659Y172312D01*
X121188Y172666D01*
X121542Y173195D01*
X121666Y173819D01*
X121542Y174443D01*
X121188Y174973D01*
X120659Y175326D01*
X120035Y175450D01*
D02*
G37*
G36*
X166540Y175835D02*
X165916Y175711D01*
X165386Y175357D01*
X165033Y174828D01*
X164909Y174204D01*
X165033Y173580D01*
X165386Y173050D01*
X165405Y172915D01*
X165336Y172483D01*
X164924Y172208D01*
X164570Y171678D01*
X164446Y171054D01*
X164570Y170430D01*
X164924Y169901D01*
X165453Y169547D01*
X166077Y169423D01*
X166701Y169547D01*
X167231Y169901D01*
X167584Y170430D01*
X167708Y171054D01*
X167584Y171678D01*
X167231Y172208D01*
X167212Y172343D01*
X167281Y172775D01*
X167693Y173050D01*
X168047Y173580D01*
X168171Y174204D01*
X168047Y174828D01*
X167693Y175357D01*
X167164Y175711D01*
X166540Y175835D01*
D02*
G37*
G36*
X157262Y170481D02*
X156638Y170357D01*
X156108Y170004D01*
X155755Y169474D01*
X155630Y168850D01*
X155755Y168226D01*
X156108Y167696D01*
X156638Y167343D01*
X157262Y167219D01*
X157886Y167343D01*
X158415Y167696D01*
X158769Y168226D01*
X158893Y168850D01*
X158769Y169474D01*
X158415Y170004D01*
X157886Y170357D01*
X157262Y170481D01*
D02*
G37*
G36*
X183451Y166337D02*
X182826Y166213D01*
X182297Y165860D01*
X181944Y165330D01*
X181819Y164706D01*
X181944Y164082D01*
X182297Y163552D01*
X182826Y163199D01*
X183451Y163075D01*
X184075Y163199D01*
X184604Y163552D01*
X184958Y164082D01*
X185082Y164706D01*
X184958Y165330D01*
X184604Y165860D01*
X184075Y166213D01*
X183451Y166337D01*
D02*
G37*
G36*
X175274Y166328D02*
X174650Y166204D01*
X174120Y165851D01*
X173767Y165321D01*
X173643Y164697D01*
X173767Y164073D01*
X174120Y163544D01*
X174650Y163190D01*
X175274Y163066D01*
X175898Y163190D01*
X176428Y163544D01*
X176781Y164073D01*
X176905Y164697D01*
X176781Y165321D01*
X176428Y165851D01*
X175898Y166204D01*
X175274Y166328D01*
D02*
G37*
G36*
X84931Y166288D02*
X84307Y166164D01*
X83778Y165810D01*
X83424Y165281D01*
X83300Y164657D01*
X83424Y164032D01*
X83778Y163503D01*
X84307Y163149D01*
X84931Y163025D01*
X85555Y163149D01*
X86085Y163503D01*
X86438Y164032D01*
X86563Y164657D01*
X86438Y165281D01*
X86085Y165810D01*
X85555Y166164D01*
X84931Y166288D01*
D02*
G37*
G36*
X170026Y165775D02*
X169401Y165651D01*
X168872Y165298D01*
X168518Y164768D01*
X168394Y164144D01*
X168518Y163520D01*
X168872Y162991D01*
X169401Y162637D01*
X170026Y162513D01*
X170650Y162637D01*
X171179Y162991D01*
X171533Y163520D01*
X171657Y164144D01*
X171533Y164768D01*
X171179Y165298D01*
X170650Y165651D01*
X170026Y165775D01*
D02*
G37*
G36*
X210109Y165615D02*
X209485Y165491D01*
X208956Y165137D01*
X208602Y164608D01*
X208478Y163984D01*
X208602Y163359D01*
X208956Y162830D01*
X209485Y162477D01*
X210109Y162352D01*
X210734Y162477D01*
X211263Y162830D01*
X211617Y163359D01*
X211741Y163984D01*
X211617Y164608D01*
X211263Y165137D01*
X210734Y165491D01*
X210109Y165615D01*
D02*
G37*
G36*
X145609Y164220D02*
X144985Y164096D01*
X144456Y163742D01*
X144102Y163213D01*
X143978Y162589D01*
X144102Y161964D01*
X144456Y161435D01*
X144985Y161082D01*
X145609Y160957D01*
X146234Y161082D01*
X146763Y161435D01*
X147116Y161964D01*
X147241Y162589D01*
X147116Y163213D01*
X146763Y163742D01*
X146234Y164096D01*
X145609Y164220D01*
D02*
G37*
G36*
X163055Y162544D02*
X162431Y162419D01*
X161901Y162066D01*
X161548Y161537D01*
X161424Y160912D01*
X161548Y160288D01*
X161901Y159759D01*
X162431Y159405D01*
X163055Y159281D01*
X163679Y159405D01*
X164208Y159759D01*
X164562Y160288D01*
X164686Y160912D01*
X164562Y161537D01*
X164208Y162066D01*
X163679Y162419D01*
X163055Y162544D01*
D02*
G37*
G36*
X148878Y162287D02*
X148253Y162163D01*
X147724Y161809D01*
X147371Y161280D01*
X147246Y160656D01*
X147371Y160032D01*
X147724Y159502D01*
X148253Y159149D01*
X148878Y159025D01*
X149502Y159149D01*
X150031Y159502D01*
X150385Y160032D01*
X150509Y160656D01*
X150385Y161280D01*
X150031Y161809D01*
X149502Y162163D01*
X148878Y162287D01*
D02*
G37*
G36*
X233000Y162031D02*
X232376Y161907D01*
X231846Y161554D01*
X231493Y161024D01*
X231369Y160400D01*
X231493Y159776D01*
X231846Y159247D01*
X232376Y158893D01*
X233000Y158769D01*
X233624Y158893D01*
X234154Y159247D01*
X234507Y159776D01*
X234631Y160400D01*
X234507Y161024D01*
X234154Y161554D01*
X233624Y161907D01*
X233000Y162031D01*
D02*
G37*
G36*
X139500Y161631D02*
X138876Y161507D01*
X138347Y161153D01*
X137993Y160624D01*
X137869Y160000D01*
X137993Y159376D01*
X138347Y158846D01*
X138876Y158493D01*
X139500Y158369D01*
X140124Y158493D01*
X140654Y158846D01*
X141007Y159376D01*
X141131Y160000D01*
X141007Y160624D01*
X140654Y161153D01*
X140124Y161507D01*
X139500Y161631D01*
D02*
G37*
G36*
X105695Y159555D02*
X105070Y159431D01*
X104541Y159077D01*
X104188Y158548D01*
X104063Y157923D01*
X104188Y157299D01*
X104541Y156770D01*
X105070Y156416D01*
X105695Y156292D01*
X106319Y156416D01*
X106848Y156770D01*
X107202Y157299D01*
X107326Y157923D01*
X107202Y158548D01*
X106848Y159077D01*
X106319Y159431D01*
X105695Y159555D01*
D02*
G37*
G36*
X155393Y157750D02*
X154769Y157626D01*
X154240Y157272D01*
X153886Y156743D01*
X153762Y156119D01*
X153886Y155494D01*
X154240Y154965D01*
X154769Y154612D01*
X155393Y154487D01*
X156018Y154612D01*
X156547Y154965D01*
X156901Y155494D01*
X157025Y156119D01*
X156901Y156743D01*
X156547Y157272D01*
X156018Y157626D01*
X155393Y157750D01*
D02*
G37*
G36*
X199536Y156843D02*
X198911Y156719D01*
X198382Y156365D01*
X198028Y155836D01*
X197904Y155211D01*
X198028Y154587D01*
X198382Y154058D01*
X198911Y153704D01*
X199536Y153580D01*
X200160Y153704D01*
X200689Y154058D01*
X201043Y154587D01*
X201167Y155211D01*
X201043Y155836D01*
X200689Y156365D01*
X200160Y156719D01*
X199536Y156843D01*
D02*
G37*
G36*
X209634Y156709D02*
X209010Y156585D01*
X208481Y156231D01*
X208127Y155702D01*
X208003Y155077D01*
X208127Y154453D01*
X208481Y153924D01*
X209010Y153570D01*
X209634Y153446D01*
X210259Y153570D01*
X210788Y153924D01*
X211141Y154453D01*
X211265Y155077D01*
X211141Y155702D01*
X210788Y156231D01*
X210259Y156585D01*
X209634Y156709D01*
D02*
G37*
G36*
X257285Y154995D02*
X256661Y154871D01*
X256132Y154517D01*
X255778Y153988D01*
X255654Y153364D01*
X255778Y152740D01*
X256132Y152210D01*
X256661Y151857D01*
X257285Y151733D01*
X257910Y151857D01*
X258439Y152210D01*
X258793Y152740D01*
X258917Y153364D01*
X258793Y153988D01*
X258439Y154517D01*
X257910Y154871D01*
X257285Y154995D01*
D02*
G37*
G36*
X84626Y154662D02*
X84001Y154538D01*
X83472Y154184D01*
X83119Y153655D01*
X82994Y153031D01*
X83119Y152407D01*
X83472Y151877D01*
X84001Y151524D01*
X84626Y151400D01*
X85250Y151524D01*
X85779Y151877D01*
X86133Y152407D01*
X86257Y153031D01*
X86133Y153655D01*
X85779Y154184D01*
X85250Y154538D01*
X84626Y154662D01*
D02*
G37*
G36*
X143500Y154631D02*
X142876Y154507D01*
X142347Y154154D01*
X141993Y153624D01*
X141869Y153000D01*
X141993Y152376D01*
X142347Y151847D01*
X142876Y151493D01*
X143500Y151369D01*
X144124Y151493D01*
X144653Y151847D01*
X145007Y152376D01*
X145131Y153000D01*
X145007Y153624D01*
X144653Y154154D01*
X144124Y154507D01*
X143500Y154631D01*
D02*
G37*
G36*
X210295Y153026D02*
X209670Y152901D01*
X209141Y152548D01*
X208788Y152018D01*
X208663Y151394D01*
X208788Y150770D01*
X209141Y150241D01*
X209670Y149887D01*
X210295Y149763D01*
X210919Y149887D01*
X211448Y150241D01*
X211802Y150770D01*
X211926Y151394D01*
X211802Y152018D01*
X211448Y152548D01*
X210919Y152901D01*
X210295Y153026D01*
D02*
G37*
G36*
X263978Y152026D02*
X263354Y151902D01*
X262825Y151549D01*
X262471Y151019D01*
X262347Y150395D01*
X262471Y149771D01*
X262825Y149241D01*
X263354Y148888D01*
X263978Y148764D01*
X264603Y148888D01*
X265132Y149241D01*
X265486Y149771D01*
X265610Y150395D01*
X265486Y151019D01*
X265132Y151549D01*
X264603Y151902D01*
X263978Y152026D01*
D02*
G37*
G36*
X87500Y150131D02*
X86876Y150007D01*
X86347Y149653D01*
X85993Y149124D01*
X85869Y148500D01*
X85993Y147876D01*
X86347Y147346D01*
X86876Y146993D01*
X87500Y146869D01*
X88124Y146993D01*
X88653Y147346D01*
X89007Y147876D01*
X89131Y148500D01*
X89007Y149124D01*
X88653Y149653D01*
X88124Y150007D01*
X87500Y150131D01*
D02*
G37*
G36*
X311178Y149226D02*
X310554Y149102D01*
X310025Y148749D01*
X309671Y148219D01*
X309547Y147595D01*
X309671Y146971D01*
X310025Y146441D01*
X310554Y146088D01*
X311178Y145964D01*
X311803Y146088D01*
X312332Y146441D01*
X312685Y146971D01*
X312810Y147595D01*
X312685Y148219D01*
X312332Y148749D01*
X311803Y149102D01*
X311178Y149226D01*
D02*
G37*
G36*
X271178D02*
X270554Y149102D01*
X270025Y148749D01*
X269671Y148219D01*
X269547Y147595D01*
X269671Y146971D01*
X270025Y146441D01*
X270554Y146088D01*
X271178Y145964D01*
X271803Y146088D01*
X272332Y146441D01*
X272686Y146971D01*
X272810Y147595D01*
X272686Y148219D01*
X272332Y148749D01*
X271803Y149102D01*
X271178Y149226D01*
D02*
G37*
G36*
X291180Y149212D02*
X290556Y149088D01*
X290027Y148735D01*
X289673Y148205D01*
X289549Y147581D01*
X289673Y146957D01*
X290027Y146428D01*
X290556Y146074D01*
X291180Y145950D01*
X291805Y146074D01*
X292334Y146428D01*
X292688Y146957D01*
X292812Y147581D01*
X292688Y148205D01*
X292334Y148735D01*
X291805Y149088D01*
X291180Y149212D01*
D02*
G37*
G36*
X281178D02*
X280553Y149088D01*
X280024Y148735D01*
X279670Y148205D01*
X279546Y147581D01*
X279670Y146957D01*
X280024Y146428D01*
X280553Y146074D01*
X281178Y145950D01*
X281802Y146074D01*
X282331Y146428D01*
X282685Y146957D01*
X282809Y147581D01*
X282685Y148205D01*
X282331Y148735D01*
X281802Y149088D01*
X281178Y149212D01*
D02*
G37*
G36*
X230157Y148954D02*
X229533Y148830D01*
X229004Y148477D01*
X228650Y147947D01*
X228526Y147323D01*
X228650Y146699D01*
X229004Y146169D01*
X229533Y145816D01*
X230157Y145692D01*
X230782Y145816D01*
X231311Y146169D01*
X231664Y146699D01*
X231788Y147323D01*
X231664Y147947D01*
X231311Y148477D01*
X230782Y148830D01*
X230157Y148954D01*
D02*
G37*
G36*
X116795Y148757D02*
X116171Y148633D01*
X115642Y148279D01*
X115288Y147750D01*
X115164Y147125D01*
X115288Y146501D01*
X115642Y145972D01*
X116171Y145618D01*
X116795Y145494D01*
X117420Y145618D01*
X117949Y145972D01*
X118303Y146501D01*
X118427Y147125D01*
X118303Y147750D01*
X117949Y148279D01*
X117420Y148633D01*
X116795Y148757D01*
D02*
G37*
G36*
X199546Y148656D02*
X198921Y148532D01*
X198392Y148178D01*
X198038Y147649D01*
X197914Y147025D01*
X198038Y146400D01*
X198392Y145871D01*
X198921Y145517D01*
X199546Y145393D01*
X200170Y145517D01*
X200699Y145871D01*
X201053Y146400D01*
X201177Y147025D01*
X201053Y147649D01*
X200699Y148178D01*
X200170Y148532D01*
X199546Y148656D01*
D02*
G37*
G36*
X152500Y150131D02*
X151876Y150007D01*
X151347Y149653D01*
X150993Y149124D01*
X150869Y148500D01*
X150993Y147876D01*
X151347Y147346D01*
X151876Y146993D01*
X152500Y146869D01*
X152950Y146958D01*
X153325Y146668D01*
X153383Y146573D01*
X153369Y146500D01*
X153493Y145876D01*
X153847Y145346D01*
X154376Y144993D01*
X155000Y144869D01*
X155624Y144993D01*
X156154Y145346D01*
X156507Y145876D01*
X156631Y146500D01*
X156507Y147124D01*
X156154Y147653D01*
X155624Y148007D01*
X155000Y148131D01*
X154550Y148042D01*
X154175Y148332D01*
X154117Y148427D01*
X154131Y148500D01*
X154007Y149124D01*
X153654Y149653D01*
X153124Y150007D01*
X152500Y150131D01*
D02*
G37*
G36*
X186600Y147131D02*
X185976Y147007D01*
X185447Y146653D01*
X185093Y146124D01*
X184969Y145500D01*
X185093Y144876D01*
X185447Y144346D01*
X185976Y143993D01*
X186600Y143869D01*
X187224Y143993D01*
X187753Y144346D01*
X188107Y144876D01*
X188231Y145500D01*
X188107Y146124D01*
X187753Y146653D01*
X187224Y147007D01*
X186600Y147131D01*
D02*
G37*
G36*
X209688Y147120D02*
X209064Y146996D01*
X208534Y146642D01*
X208181Y146113D01*
X208057Y145489D01*
X208181Y144864D01*
X208534Y144335D01*
X209064Y143982D01*
X209688Y143857D01*
X210312Y143982D01*
X210841Y144335D01*
X211195Y144864D01*
X211319Y145489D01*
X211195Y146113D01*
X210841Y146642D01*
X210312Y146996D01*
X209688Y147120D01*
D02*
G37*
G36*
X176897Y146919D02*
X176273Y146794D01*
X175744Y146441D01*
X175390Y145912D01*
X175266Y145287D01*
X175390Y144663D01*
X175744Y144134D01*
X176273Y143780D01*
X176897Y143656D01*
X177522Y143780D01*
X178051Y144134D01*
X178404Y144663D01*
X178529Y145287D01*
X178404Y145912D01*
X178051Y146441D01*
X177522Y146794D01*
X176897Y146919D01*
D02*
G37*
G36*
X103041Y145635D02*
X102417Y145511D01*
X101887Y145157D01*
X101534Y144628D01*
X101409Y144004D01*
X101534Y143379D01*
X101887Y142850D01*
X102417Y142497D01*
X103041Y142372D01*
X103665Y142497D01*
X104194Y142850D01*
X104548Y143379D01*
X104672Y144004D01*
X104548Y144628D01*
X104194Y145157D01*
X103665Y145511D01*
X103041Y145635D01*
D02*
G37*
G36*
X150000Y145631D02*
X149376Y145507D01*
X148846Y145153D01*
X148493Y144624D01*
X148369Y144000D01*
X148493Y143376D01*
X148846Y142847D01*
X149376Y142493D01*
X150000Y142369D01*
X150624Y142493D01*
X151154Y142847D01*
X151507Y143376D01*
X151631Y144000D01*
X151507Y144624D01*
X151154Y145153D01*
X150624Y145507D01*
X150000Y145631D01*
D02*
G37*
G36*
X234446Y144639D02*
X233822Y144515D01*
X233293Y144161D01*
X232939Y143632D01*
X232815Y143008D01*
X232939Y142383D01*
X233293Y141854D01*
X233822Y141500D01*
X234446Y141376D01*
X235071Y141500D01*
X235600Y141854D01*
X235953Y142383D01*
X236078Y143008D01*
X235953Y143632D01*
X235600Y144161D01*
X235071Y144515D01*
X234446Y144639D01*
D02*
G37*
G36*
X137290Y143808D02*
X136666Y143684D01*
X136137Y143330D01*
X135783Y142801D01*
X135659Y142177D01*
X135783Y141552D01*
X136137Y141023D01*
X136273Y140932D01*
X136078Y140461D01*
X135992Y140478D01*
X135368Y140354D01*
X134838Y140000D01*
X134485Y139471D01*
X134360Y138847D01*
X134485Y138222D01*
X134838Y137693D01*
X135368Y137339D01*
X135992Y137215D01*
X136616Y137339D01*
X137145Y137693D01*
X137499Y138222D01*
X137623Y138847D01*
X137499Y139471D01*
X137145Y140000D01*
X137008Y140092D01*
X137204Y140562D01*
X137290Y140545D01*
X137914Y140669D01*
X138444Y141023D01*
X138797Y141552D01*
X138921Y142177D01*
X138797Y142801D01*
X138444Y143330D01*
X137914Y143684D01*
X137290Y143808D01*
D02*
G37*
G36*
X142887Y143204D02*
X142263Y143080D01*
X141734Y142727D01*
X141380Y142197D01*
X141256Y141573D01*
X141380Y140949D01*
X141734Y140420D01*
X142263Y140066D01*
X142887Y139942D01*
X143512Y140066D01*
X144041Y140420D01*
X144395Y140949D01*
X144519Y141573D01*
X144395Y142197D01*
X144041Y142727D01*
X143512Y143080D01*
X142887Y143204D01*
D02*
G37*
G36*
X186500Y142631D02*
X185876Y142507D01*
X185346Y142154D01*
X184993Y141624D01*
X184869Y141000D01*
X184993Y140376D01*
X185346Y139847D01*
X185876Y139493D01*
X186500Y139369D01*
X187124Y139493D01*
X187654Y139847D01*
X188007Y140376D01*
X188131Y141000D01*
X188007Y141624D01*
X187654Y142154D01*
X187124Y142507D01*
X186500Y142631D01*
D02*
G37*
G36*
X307285Y142030D02*
X306661Y141906D01*
X306132Y141552D01*
X305778Y141023D01*
X305654Y140399D01*
X305778Y139774D01*
X306132Y139245D01*
X306661Y138891D01*
X307285Y138767D01*
X307910Y138891D01*
X308439Y139245D01*
X308793Y139774D01*
X308917Y140399D01*
X308793Y141023D01*
X308439Y141552D01*
X307910Y141906D01*
X307285Y142030D01*
D02*
G37*
G36*
X287285Y141296D02*
X286660Y141172D01*
X286131Y140818D01*
X285777Y140289D01*
X285653Y139665D01*
X285777Y139041D01*
X286131Y138511D01*
X286660Y138158D01*
X287285Y138033D01*
X287909Y138158D01*
X288438Y138511D01*
X288792Y139041D01*
X288916Y139665D01*
X288792Y140289D01*
X288438Y140818D01*
X287909Y141172D01*
X287285Y141296D01*
D02*
G37*
G36*
X293722Y141200D02*
X293097Y141075D01*
X292568Y140722D01*
X292214Y140192D01*
X292090Y139568D01*
X292214Y138944D01*
X292568Y138415D01*
X293097Y138061D01*
X293722Y137937D01*
X294346Y138061D01*
X294875Y138415D01*
X295229Y138944D01*
X295241Y139008D01*
X295751D01*
X295780Y138863D01*
X296134Y138334D01*
X296663Y137980D01*
X297287Y137856D01*
X297912Y137980D01*
X298441Y138334D01*
X298795Y138863D01*
X298919Y139487D01*
X298795Y140111D01*
X298441Y140641D01*
X297912Y140994D01*
X297287Y141119D01*
X296663Y140994D01*
X296134Y140641D01*
X295780Y140111D01*
X295767Y140047D01*
X295258D01*
X295229Y140192D01*
X294875Y140722D01*
X294346Y141075D01*
X293722Y141200D01*
D02*
G37*
G36*
X79929Y140789D02*
X79304Y140665D01*
X78775Y140311D01*
X78421Y139782D01*
X78297Y139157D01*
X78421Y138533D01*
X78775Y138004D01*
X79304Y137650D01*
X79929Y137526D01*
X80553Y137650D01*
X81082Y138004D01*
X81436Y138533D01*
X81560Y139157D01*
X81436Y139782D01*
X81082Y140311D01*
X80553Y140665D01*
X79929Y140789D01*
D02*
G37*
G36*
X277285Y140785D02*
X276661Y140660D01*
X276132Y140307D01*
X275778Y139778D01*
X275654Y139153D01*
X275778Y138529D01*
X276132Y138000D01*
X276661Y137646D01*
X277285Y137522D01*
X277910Y137646D01*
X278439Y138000D01*
X278793Y138529D01*
X278917Y139153D01*
X278793Y139778D01*
X278439Y140307D01*
X277910Y140660D01*
X277285Y140785D01*
D02*
G37*
G36*
X199546Y140392D02*
X198921Y140268D01*
X198392Y139914D01*
X198038Y139385D01*
X197914Y138761D01*
X198038Y138136D01*
X198392Y137607D01*
X198921Y137253D01*
X199546Y137129D01*
X200170Y137253D01*
X200699Y137607D01*
X201053Y138136D01*
X201177Y138761D01*
X201053Y139385D01*
X200699Y139914D01*
X200170Y140268D01*
X199546Y140392D01*
D02*
G37*
G36*
X209759Y143344D02*
X209135Y143220D01*
X208606Y142866D01*
X208252Y142337D01*
X208128Y141713D01*
X208252Y141088D01*
X208606Y140559D01*
X209135Y140206D01*
X209276Y140178D01*
X209308Y140171D01*
X209231Y139685D01*
X209189Y139676D01*
X208606Y139561D01*
X208077Y139207D01*
X207723Y138678D01*
X207599Y138053D01*
X207723Y137429D01*
X208077Y136900D01*
X208606Y136546D01*
X209231Y136422D01*
X209855Y136546D01*
X210384Y136900D01*
X210738Y137429D01*
X210862Y138053D01*
X210738Y138678D01*
X210384Y139207D01*
X209855Y139561D01*
X209714Y139589D01*
X209682Y139595D01*
X209759Y140081D01*
X209802Y140090D01*
X210384Y140206D01*
X210913Y140559D01*
X211267Y141088D01*
X211391Y141713D01*
X211267Y142337D01*
X210913Y142866D01*
X210384Y143220D01*
X209759Y143344D01*
D02*
G37*
G36*
X75953Y138224D02*
X75328Y138099D01*
X74799Y137746D01*
X74446Y137216D01*
X74322Y136592D01*
X74446Y135968D01*
X74799Y135439D01*
X75328Y135085D01*
X75953Y134961D01*
X76577Y135085D01*
X77106Y135439D01*
X77460Y135968D01*
X77584Y136592D01*
X77460Y137216D01*
X77106Y137746D01*
X76577Y138099D01*
X75953Y138224D01*
D02*
G37*
G36*
X234241Y136454D02*
X233617Y136330D01*
X233088Y135977D01*
X232734Y135448D01*
X232610Y134823D01*
X232734Y134199D01*
X233088Y133670D01*
X233617Y133316D01*
X234241Y133192D01*
X234866Y133316D01*
X235395Y133670D01*
X235749Y134199D01*
X235873Y134823D01*
X235749Y135448D01*
X235395Y135977D01*
X234866Y136330D01*
X234241Y136454D01*
D02*
G37*
G36*
X268894Y136109D02*
X268270Y135985D01*
X267741Y135632D01*
X267387Y135102D01*
X267263Y134478D01*
X267387Y133854D01*
X267741Y133325D01*
X268270Y132971D01*
X268894Y132847D01*
X269519Y132971D01*
X270048Y133325D01*
X270402Y133854D01*
X270526Y134478D01*
X270402Y135102D01*
X270048Y135632D01*
X269519Y135985D01*
X268894Y136109D01*
D02*
G37*
G36*
X136544Y135681D02*
X135920Y135557D01*
X135390Y135204D01*
X135037Y134674D01*
X134913Y134050D01*
X135037Y133426D01*
X135390Y132896D01*
X135920Y132543D01*
X136544Y132419D01*
X137168Y132543D01*
X137698Y132896D01*
X138051Y133426D01*
X138175Y134050D01*
X138051Y134674D01*
X137698Y135204D01*
X137168Y135557D01*
X136544Y135681D01*
D02*
G37*
G36*
X263318Y132973D02*
X262693Y132849D01*
X262164Y132495D01*
X261810Y131966D01*
X261686Y131341D01*
X261810Y130717D01*
X262164Y130188D01*
X262693Y129834D01*
X263318Y129710D01*
X263942Y129834D01*
X264471Y130188D01*
X264825Y130717D01*
X264826Y130725D01*
X265336D01*
X265378Y130517D01*
X265731Y129988D01*
X266261Y129634D01*
X266885Y129510D01*
X267509Y129634D01*
X268038Y129988D01*
X268392Y130517D01*
X268516Y131141D01*
X268392Y131766D01*
X268038Y132295D01*
X267509Y132649D01*
X266885Y132773D01*
X266261Y132649D01*
X265731Y132295D01*
X265378Y131766D01*
X265376Y131758D01*
X264866D01*
X264825Y131966D01*
X264471Y132495D01*
X263942Y132849D01*
X263318Y132973D01*
D02*
G37*
G36*
X199569Y132215D02*
X198945Y132091D01*
X198415Y131737D01*
X198062Y131208D01*
X197938Y130584D01*
X198062Y129960D01*
X198415Y129430D01*
X198945Y129077D01*
X199569Y128953D01*
X200193Y129077D01*
X200723Y129430D01*
X201076Y129960D01*
X201200Y130584D01*
X201076Y131208D01*
X200723Y131737D01*
X200193Y132091D01*
X199569Y132215D01*
D02*
G37*
G36*
X210433Y135277D02*
X209809Y135153D01*
X209280Y134800D01*
X208926Y134271D01*
X208802Y133646D01*
X208926Y133022D01*
X209280Y132493D01*
X209453Y132377D01*
X209347Y131846D01*
X209200Y131817D01*
X208670Y131463D01*
X208317Y130934D01*
X208192Y130310D01*
X208317Y129685D01*
X208670Y129156D01*
X209200Y128803D01*
X209824Y128678D01*
X210448Y128803D01*
X210977Y129156D01*
X211331Y129685D01*
X211455Y130310D01*
X211331Y130934D01*
X210977Y131463D01*
X210804Y131579D01*
X210910Y132110D01*
X211058Y132139D01*
X211587Y132493D01*
X211941Y133022D01*
X212065Y133646D01*
X211941Y134271D01*
X211587Y134800D01*
X211058Y135153D01*
X210433Y135277D01*
D02*
G37*
G36*
X170617Y130968D02*
X169993Y130844D01*
X169464Y130490D01*
X169110Y129961D01*
X168986Y129337D01*
X169085Y128837D01*
X168614Y128641D01*
X168601Y128661D01*
X168072Y129015D01*
X167447Y129139D01*
X166823Y129015D01*
X166294Y128661D01*
X165940Y128132D01*
X165816Y127508D01*
X165940Y126883D01*
X166294Y126354D01*
X166823Y126001D01*
X167447Y125876D01*
X168072Y126001D01*
X168601Y126354D01*
X168955Y126883D01*
X169079Y127508D01*
X168979Y128008D01*
X169450Y128203D01*
X169464Y128183D01*
X169993Y127830D01*
X170617Y127705D01*
X171241Y127830D01*
X171771Y128183D01*
X172124Y128712D01*
X172248Y129337D01*
X172124Y129961D01*
X171771Y130490D01*
X171241Y130844D01*
X170617Y130968D01*
D02*
G37*
G36*
X116440Y130049D02*
X115815Y129925D01*
X115286Y129571D01*
X114933Y129042D01*
X114808Y128418D01*
X114933Y127793D01*
X115286Y127264D01*
X115815Y126910D01*
X116440Y126786D01*
X117064Y126910D01*
X117593Y127264D01*
X117947Y127793D01*
X118071Y128418D01*
X117947Y129042D01*
X117593Y129571D01*
X117064Y129925D01*
X116440Y130049D01*
D02*
G37*
G36*
X199569Y128115D02*
X198945Y127991D01*
X198415Y127637D01*
X198062Y127108D01*
X197938Y126484D01*
X198062Y125860D01*
X198415Y125330D01*
X198945Y124977D01*
X199569Y124853D01*
X200193Y124977D01*
X200723Y125330D01*
X201076Y125860D01*
X201200Y126484D01*
X201076Y127108D01*
X200723Y127637D01*
X200193Y127991D01*
X199569Y128115D01*
D02*
G37*
G36*
X173132Y127860D02*
X172507Y127735D01*
X171978Y127382D01*
X171624Y126853D01*
X171500Y126228D01*
X171624Y125604D01*
X171978Y125075D01*
X172507Y124721D01*
X173132Y124597D01*
X173756Y124721D01*
X174285Y125075D01*
X174639Y125604D01*
X174763Y126228D01*
X174639Y126853D01*
X174285Y127382D01*
X173756Y127735D01*
X173132Y127860D01*
D02*
G37*
G36*
X229642Y127733D02*
X229018Y127609D01*
X228489Y127255D01*
X228135Y126726D01*
X228011Y126102D01*
X228135Y125478D01*
X228489Y124948D01*
X229018Y124595D01*
X229642Y124470D01*
X230266Y124595D01*
X230796Y124948D01*
X231149Y125478D01*
X231274Y126102D01*
X231149Y126726D01*
X230796Y127255D01*
X230266Y127609D01*
X229642Y127733D01*
D02*
G37*
G36*
X210339Y127444D02*
X209714Y127320D01*
X209185Y126966D01*
X208831Y126437D01*
X208707Y125813D01*
X208831Y125188D01*
X209185Y124659D01*
X209706Y124311D01*
X209712Y124272D01*
X209674Y123804D01*
X209157Y123701D01*
X208627Y123347D01*
X208274Y122818D01*
X208150Y122194D01*
X208274Y121569D01*
X208627Y121040D01*
X209157Y120686D01*
X209781Y120562D01*
X210405Y120686D01*
X210934Y121040D01*
X211288Y121569D01*
X211412Y122194D01*
X211288Y122818D01*
X210934Y123347D01*
X210413Y123696D01*
X210408Y123734D01*
X210445Y124203D01*
X210963Y124305D01*
X211492Y124659D01*
X211846Y125188D01*
X211970Y125813D01*
X211846Y126437D01*
X211492Y126966D01*
X210963Y127320D01*
X210339Y127444D01*
D02*
G37*
G36*
X140000Y125631D02*
X139376Y125507D01*
X138847Y125154D01*
X138493Y124624D01*
X138369Y124000D01*
X138493Y123376D01*
X138847Y122846D01*
X139376Y122493D01*
X140000Y122369D01*
X140624Y122493D01*
X141031Y122765D01*
X141464Y122480D01*
X141369Y122000D01*
X141493Y121376D01*
X141847Y120846D01*
X142376Y120493D01*
X143000Y120369D01*
X143624Y120493D01*
X144153Y120846D01*
X144507Y121376D01*
X144631Y122000D01*
X144507Y122624D01*
X144153Y123153D01*
X143624Y123507D01*
X143000Y123631D01*
X142376Y123507D01*
X141969Y123235D01*
X141536Y123520D01*
X141631Y124000D01*
X141507Y124624D01*
X141154Y125154D01*
X140624Y125507D01*
X140000Y125631D01*
D02*
G37*
G36*
X125004Y122958D02*
X124380Y122834D01*
X123851Y122480D01*
X123497Y121951D01*
X123373Y121327D01*
X123497Y120702D01*
X123851Y120173D01*
X124380Y119819D01*
X125004Y119695D01*
X125629Y119819D01*
X126158Y120173D01*
X126512Y120702D01*
X126636Y121327D01*
X126512Y121951D01*
X126158Y122480D01*
X125629Y122834D01*
X125004Y122958D01*
D02*
G37*
G36*
X235955Y122620D02*
X235331Y122496D01*
X234801Y122142D01*
X234448Y121613D01*
X234324Y120988D01*
X234448Y120364D01*
X234801Y119835D01*
X235331Y119481D01*
X235955Y119357D01*
X236579Y119481D01*
X237108Y119835D01*
X237462Y120364D01*
X237586Y120988D01*
X237462Y121613D01*
X237108Y122142D01*
X236579Y122496D01*
X235955Y122620D01*
D02*
G37*
G36*
X114086Y121992D02*
X113462Y121868D01*
X112933Y121514D01*
X112579Y120985D01*
X112455Y120360D01*
X112579Y119736D01*
X112933Y119207D01*
X113462Y118853D01*
X114086Y118729D01*
X114710Y118853D01*
X115240Y119207D01*
X115593Y119736D01*
X115717Y120360D01*
X115593Y120985D01*
X115240Y121514D01*
X114710Y121868D01*
X114086Y121992D01*
D02*
G37*
G36*
X187400Y123631D02*
X186775Y123507D01*
X186246Y123153D01*
X185892Y122624D01*
X185768Y122000D01*
X185338Y121599D01*
X184876Y121507D01*
X184346Y121153D01*
X183993Y120624D01*
X183869Y120000D01*
X183993Y119376D01*
X184346Y118846D01*
X184876Y118493D01*
X185500Y118369D01*
X186124Y118493D01*
X186653Y118846D01*
X187007Y119376D01*
X187131Y120000D01*
X187561Y120401D01*
X188024Y120493D01*
X188553Y120846D01*
X188907Y121376D01*
X189031Y122000D01*
X188907Y122624D01*
X188553Y123153D01*
X188024Y123507D01*
X187400Y123631D01*
D02*
G37*
G36*
X137883Y120291D02*
X137259Y120166D01*
X136729Y119813D01*
X136376Y119283D01*
X136251Y118659D01*
X136376Y118035D01*
X136729Y117506D01*
X137259Y117152D01*
X137883Y117028D01*
X138507Y117152D01*
X139036Y117506D01*
X139390Y118035D01*
X139514Y118659D01*
X139390Y119283D01*
X139036Y119813D01*
X138507Y120166D01*
X137883Y120291D01*
D02*
G37*
G36*
X209522Y119320D02*
X208897Y119196D01*
X208368Y118843D01*
X208014Y118313D01*
X207890Y117689D01*
X208014Y117065D01*
X208368Y116536D01*
X208897Y116182D01*
X209522Y116058D01*
X210146Y116182D01*
X210675Y116536D01*
X211029Y117065D01*
X211153Y117689D01*
X211029Y118313D01*
X210675Y118843D01*
X210146Y119196D01*
X209522Y119320D01*
D02*
G37*
G36*
X104850Y119012D02*
X104225Y118888D01*
X103696Y118534D01*
X103342Y118005D01*
X103218Y117380D01*
X103342Y116756D01*
X103696Y116227D01*
X104225Y115873D01*
X104850Y115749D01*
X105474Y115873D01*
X106003Y116227D01*
X106357Y116756D01*
X106481Y117380D01*
X106357Y118005D01*
X106003Y118534D01*
X105474Y118888D01*
X104850Y119012D01*
D02*
G37*
G36*
X263069Y117917D02*
X262445Y117793D01*
X261915Y117439D01*
X261562Y116910D01*
X261438Y116286D01*
X261562Y115662D01*
X261915Y115132D01*
X262445Y114779D01*
X263069Y114655D01*
X263693Y114779D01*
X264222Y115132D01*
X264576Y115662D01*
X264700Y116286D01*
X264576Y116910D01*
X264222Y117439D01*
X263693Y117793D01*
X263069Y117917D01*
D02*
G37*
G36*
X164900Y116428D02*
X164275Y116304D01*
X163746Y115951D01*
X163392Y115421D01*
X163268Y114797D01*
X163392Y114173D01*
X163746Y113644D01*
X164275Y113290D01*
X164900Y113166D01*
X165524Y113290D01*
X166053Y113644D01*
X166407Y114173D01*
X166531Y114797D01*
X166407Y115421D01*
X166053Y115951D01*
X165524Y116304D01*
X164900Y116428D01*
D02*
G37*
G36*
X148500Y116426D02*
X147875Y116301D01*
X147346Y115948D01*
X146993Y115419D01*
X146868Y114794D01*
X146993Y114170D01*
X147346Y113641D01*
X147875Y113287D01*
X148500Y113163D01*
X149124Y113287D01*
X149653Y113641D01*
X150007Y114170D01*
X150131Y114794D01*
X150007Y115419D01*
X149653Y115948D01*
X149124Y116301D01*
X148500Y116426D01*
D02*
G37*
G36*
X173100Y116400D02*
X172475Y116276D01*
X171946Y115922D01*
X171592Y115393D01*
X171468Y114769D01*
X171592Y114145D01*
X171946Y113616D01*
X172475Y113262D01*
X173100Y113138D01*
X173724Y113262D01*
X174253Y113616D01*
X174607Y114145D01*
X174731Y114769D01*
X174607Y115393D01*
X174253Y115922D01*
X173724Y116276D01*
X173100Y116400D01*
D02*
G37*
G36*
X156700Y116385D02*
X156075Y116261D01*
X155546Y115908D01*
X155192Y115378D01*
X155068Y114754D01*
X155192Y114130D01*
X155546Y113600D01*
X156075Y113247D01*
X156700Y113123D01*
X157324Y113247D01*
X157853Y113600D01*
X158207Y114130D01*
X158331Y114754D01*
X158207Y115378D01*
X157853Y115908D01*
X157324Y116261D01*
X156700Y116385D01*
D02*
G37*
G36*
X205500Y117131D02*
X204876Y117007D01*
X204346Y116654D01*
X203993Y116124D01*
X203869Y115500D01*
X203993Y114876D01*
X204346Y114347D01*
X204876Y113993D01*
X205500Y113869D01*
X206034Y113975D01*
X206328Y113781D01*
X206475Y113629D01*
X206599Y113004D01*
X206953Y112475D01*
X207482Y112121D01*
X208106Y111997D01*
X208730Y112121D01*
X209260Y112475D01*
X209613Y113004D01*
X209737Y113629D01*
X209613Y114253D01*
X209260Y114782D01*
X208730Y115136D01*
X208106Y115260D01*
X207572Y115154D01*
X207278Y115348D01*
X207131Y115500D01*
X207007Y116124D01*
X206653Y116654D01*
X206124Y117007D01*
X205500Y117131D01*
D02*
G37*
G36*
X103763Y115255D02*
X103139Y115131D01*
X102610Y114777D01*
X102256Y114248D01*
X102132Y113623D01*
X102256Y112999D01*
X102610Y112470D01*
X103139Y112116D01*
X103763Y111992D01*
X104387Y112116D01*
X104917Y112470D01*
X105270Y112999D01*
X105394Y113623D01*
X105270Y114248D01*
X104917Y114777D01*
X104387Y115131D01*
X103763Y115255D01*
D02*
G37*
G36*
X181100Y115131D02*
X180476Y115007D01*
X179946Y114654D01*
X179593Y114124D01*
X179469Y113500D01*
X179593Y112876D01*
X179946Y112346D01*
X180476Y111993D01*
X181100Y111869D01*
X181724Y111993D01*
X182254Y112346D01*
X182607Y112876D01*
X182731Y113500D01*
X182607Y114124D01*
X182254Y114654D01*
X181724Y115007D01*
X181100Y115131D01*
D02*
G37*
G36*
X184900Y111331D02*
X184276Y111207D01*
X183747Y110854D01*
X183393Y110324D01*
X183269Y109700D01*
X183393Y109076D01*
X183747Y108546D01*
X184276Y108193D01*
X184900Y108069D01*
X185524Y108193D01*
X186054Y108546D01*
X186407Y109076D01*
X186531Y109700D01*
X186407Y110324D01*
X186054Y110854D01*
X185524Y111207D01*
X184900Y111331D01*
D02*
G37*
G36*
X236312Y110283D02*
X235688Y110159D01*
X235159Y109806D01*
X234805Y109276D01*
X234681Y108652D01*
X234805Y108028D01*
X235159Y107499D01*
X235688Y107145D01*
X236312Y107021D01*
X236936Y107145D01*
X237466Y107499D01*
X237819Y108028D01*
X237944Y108652D01*
X237819Y109276D01*
X237466Y109806D01*
X236936Y110159D01*
X236312Y110283D01*
D02*
G37*
G36*
X100026Y110088D02*
X99402Y109964D01*
X98872Y109610D01*
X98519Y109081D01*
X98395Y108457D01*
X98519Y107833D01*
X98872Y107303D01*
X99402Y106950D01*
X100026Y106825D01*
X100650Y106950D01*
X101179Y107303D01*
X101533Y107833D01*
X101657Y108457D01*
X101533Y109081D01*
X101179Y109610D01*
X100650Y109964D01*
X100026Y110088D01*
D02*
G37*
G36*
X137412Y107765D02*
X136787Y107641D01*
X136258Y107287D01*
X135904Y106758D01*
X135780Y106133D01*
X135904Y105509D01*
X136258Y104980D01*
X136787Y104626D01*
X137412Y104502D01*
X138036Y104626D01*
X138565Y104980D01*
X138919Y105509D01*
X139043Y106133D01*
X138919Y106758D01*
X138565Y107287D01*
X138036Y107641D01*
X137412Y107765D01*
D02*
G37*
G36*
X263069Y107709D02*
X262445Y107584D01*
X261915Y107231D01*
X261562Y106702D01*
X261438Y106077D01*
X261562Y105453D01*
X261915Y104924D01*
X262445Y104570D01*
X263069Y104446D01*
X263693Y104570D01*
X264222Y104924D01*
X264576Y105453D01*
X264700Y106077D01*
X264576Y106702D01*
X264222Y107231D01*
X263693Y107584D01*
X263069Y107709D01*
D02*
G37*
G36*
X112951Y107526D02*
X112327Y107402D01*
X111798Y107048D01*
X111444Y106519D01*
X111320Y105894D01*
X111444Y105270D01*
X111798Y104741D01*
X112327Y104387D01*
X112951Y104263D01*
X113576Y104387D01*
X114105Y104741D01*
X114459Y105270D01*
X114583Y105894D01*
X114459Y106519D01*
X114105Y107048D01*
X113576Y107402D01*
X112951Y107526D01*
D02*
G37*
G36*
X189400Y118175D02*
X188775Y118051D01*
X188246Y117697D01*
X187892Y117168D01*
X187768Y116543D01*
X187892Y115919D01*
X188246Y115390D01*
X188775Y115036D01*
X189400Y114912D01*
X189557Y114943D01*
X189942Y114510D01*
X189869Y114140D01*
X189993Y113516D01*
X190347Y112987D01*
X190876Y112633D01*
X191500Y112509D01*
X191774Y112564D01*
X191948Y112384D01*
X192115Y112122D01*
X192006Y111572D01*
X192130Y110947D01*
X192483Y110418D01*
X193013Y110064D01*
X193570Y109954D01*
X193740Y109857D01*
X194007Y109590D01*
X194006Y109582D01*
X194130Y108957D01*
X194483Y108428D01*
X195013Y108075D01*
X195637Y107950D01*
X195803Y107474D01*
X195875Y107112D01*
X196228Y106582D01*
X196758Y106229D01*
X196826Y106215D01*
X196993Y106124D01*
X196869Y105500D01*
X196993Y104876D01*
X197346Y104347D01*
X197876Y103993D01*
X198500Y103869D01*
X199124Y103993D01*
X199653Y104347D01*
X200007Y104876D01*
X200131Y105500D01*
X200007Y106124D01*
X199653Y106653D01*
X199124Y107007D01*
X198961Y107473D01*
X199013Y107736D01*
X198889Y108360D01*
X198536Y108890D01*
X198006Y109243D01*
X197382Y109367D01*
X197216Y109844D01*
X197144Y110206D01*
X196790Y110735D01*
X196261Y111089D01*
X195704Y111200D01*
X195533Y111296D01*
X195266Y111563D01*
X195268Y111572D01*
X195144Y112196D01*
X194790Y112725D01*
X194261Y113079D01*
X193637Y113203D01*
X193363Y113148D01*
X193189Y113328D01*
X193022Y113591D01*
X193131Y114140D01*
X193007Y114765D01*
X192654Y115294D01*
X192124Y115648D01*
X191500Y115772D01*
X191343Y115741D01*
X190957Y116174D01*
X191031Y116543D01*
X190907Y117168D01*
X190553Y117697D01*
X190024Y118051D01*
X189400Y118175D01*
D02*
G37*
G36*
X173076Y106663D02*
X172451Y106539D01*
X171922Y106185D01*
X171568Y105656D01*
X171444Y105032D01*
X171568Y104407D01*
X171922Y103878D01*
X172451Y103524D01*
X173076Y103400D01*
X173700Y103524D01*
X174229Y103878D01*
X174583Y104407D01*
X174707Y105032D01*
X174583Y105656D01*
X174229Y106185D01*
X173700Y106539D01*
X173076Y106663D01*
D02*
G37*
G36*
X168976D02*
X168351Y106539D01*
X167822Y106185D01*
X167468Y105656D01*
X167344Y105032D01*
X167468Y104407D01*
X167822Y103878D01*
X168351Y103524D01*
X168976Y103400D01*
X169600Y103524D01*
X170129Y103878D01*
X170483Y104407D01*
X170607Y105032D01*
X170483Y105656D01*
X170129Y106185D01*
X169600Y106539D01*
X168976Y106663D01*
D02*
G37*
G36*
X164876D02*
X164251Y106539D01*
X163722Y106185D01*
X163368Y105656D01*
X163244Y105032D01*
X163368Y104407D01*
X163722Y103878D01*
X164251Y103524D01*
X164876Y103400D01*
X165500Y103524D01*
X166029Y103878D01*
X166383Y104407D01*
X166507Y105032D01*
X166383Y105656D01*
X166029Y106185D01*
X165500Y106539D01*
X164876Y106663D01*
D02*
G37*
G36*
X160776D02*
X160151Y106539D01*
X159622Y106185D01*
X159268Y105656D01*
X159144Y105032D01*
X159268Y104407D01*
X159622Y103878D01*
X160151Y103524D01*
X160776Y103400D01*
X161400Y103524D01*
X161929Y103878D01*
X162283Y104407D01*
X162407Y105032D01*
X162283Y105656D01*
X161929Y106185D01*
X161400Y106539D01*
X160776Y106663D01*
D02*
G37*
G36*
X178138Y106024D02*
X177513Y105900D01*
X176984Y105546D01*
X176630Y105017D01*
X176506Y104393D01*
X176630Y103769D01*
X176984Y103240D01*
X177513Y102886D01*
X178138Y102762D01*
X178762Y102886D01*
X179291Y103240D01*
X179645Y103769D01*
X179769Y104393D01*
X179645Y105017D01*
X179291Y105546D01*
X178762Y105900D01*
X178138Y106024D01*
D02*
G37*
G36*
X247949Y110018D02*
X246983Y109891D01*
X246083Y109518D01*
X245310Y108925D01*
X244717Y108152D01*
X244344Y107252D01*
X244217Y106286D01*
X244344Y105320D01*
X244717Y104420D01*
X245310Y103647D01*
X246083Y103054D01*
X246983Y102681D01*
X247949Y102554D01*
X248915Y102681D01*
X249815Y103054D01*
X250588Y103647D01*
X251181Y104420D01*
X251554Y105320D01*
X251681Y106286D01*
X251554Y107252D01*
X251181Y108152D01*
X250588Y108925D01*
X249815Y109518D01*
X248915Y109891D01*
X247949Y110018D01*
D02*
G37*
G36*
X156439Y105493D02*
X155815Y105368D01*
X155286Y105015D01*
X154932Y104486D01*
X154808Y103861D01*
X154932Y103237D01*
X155286Y102708D01*
X155815Y102354D01*
X156439Y102230D01*
X157064Y102354D01*
X157593Y102708D01*
X157947Y103237D01*
X158071Y103861D01*
X157947Y104486D01*
X157593Y105015D01*
X157064Y105368D01*
X156439Y105493D01*
D02*
G37*
G36*
X149257Y106178D02*
X148633Y106054D01*
X148104Y105700D01*
X147750Y105171D01*
X147626Y104547D01*
X147750Y103922D01*
X148104Y103393D01*
X148633Y103040D01*
X149257Y102915D01*
X149882Y103040D01*
X150411Y103393D01*
X150428Y103419D01*
X150959Y103313D01*
X150995Y103129D01*
X151349Y102600D01*
X151878Y102246D01*
X152502Y102122D01*
X153127Y102246D01*
X153656Y102600D01*
X154010Y103129D01*
X154134Y103753D01*
X154010Y104378D01*
X153656Y104907D01*
X153127Y105261D01*
X152502Y105385D01*
X151878Y105261D01*
X151349Y104907D01*
X151332Y104882D01*
X150801Y104987D01*
X150765Y105171D01*
X150411Y105700D01*
X149882Y106054D01*
X149257Y106178D01*
D02*
G37*
G36*
X128371Y101361D02*
X127747Y101237D01*
X127217Y100883D01*
X126864Y100354D01*
X126740Y99730D01*
X126864Y99106D01*
X127217Y98576D01*
X127747Y98223D01*
X128371Y98099D01*
X128995Y98223D01*
X129525Y98576D01*
X129878Y99106D01*
X130002Y99730D01*
X129878Y100354D01*
X129525Y100883D01*
X128995Y101237D01*
X128371Y101361D01*
D02*
G37*
G36*
X118314Y98745D02*
X117690Y98620D01*
X117160Y98267D01*
X116807Y97738D01*
X116683Y97113D01*
X116807Y96489D01*
X117160Y95960D01*
X117690Y95606D01*
X118314Y95482D01*
X118938Y95606D01*
X119467Y95960D01*
X119821Y96489D01*
X119945Y97113D01*
X119821Y97738D01*
X119467Y98267D01*
X118938Y98620D01*
X118314Y98745D01*
D02*
G37*
G36*
X100444Y98387D02*
X99819Y98263D01*
X99290Y97910D01*
X98937Y97381D01*
X98813Y96756D01*
X98937Y96132D01*
X99290Y95603D01*
X99819Y95249D01*
X100444Y95125D01*
X101068Y95249D01*
X101597Y95603D01*
X101951Y96132D01*
X102075Y96756D01*
X101951Y97381D01*
X101597Y97910D01*
X101068Y98263D01*
X100444Y98387D01*
D02*
G37*
G36*
X247949Y100018D02*
X246983Y99891D01*
X246083Y99518D01*
X245310Y98925D01*
X244717Y98152D01*
X244344Y97252D01*
X244217Y96286D01*
X244344Y95320D01*
X244717Y94420D01*
X245310Y93647D01*
X246083Y93054D01*
X246983Y92681D01*
X247949Y92554D01*
X248915Y92681D01*
X249815Y93054D01*
X250588Y93647D01*
X251181Y94420D01*
X251554Y95320D01*
X251681Y96286D01*
X251554Y97252D01*
X251181Y98152D01*
X250588Y98925D01*
X249815Y99518D01*
X248915Y99891D01*
X247949Y100018D01*
D02*
G37*
G36*
X232835Y92879D02*
X232211Y92755D01*
X231682Y92401D01*
X231328Y91872D01*
X231204Y91248D01*
X231328Y90623D01*
X231682Y90094D01*
X232211Y89741D01*
X232835Y89616D01*
X233459Y89741D01*
X233989Y90094D01*
X234342Y90623D01*
X234467Y91248D01*
X234342Y91872D01*
X233989Y92401D01*
X233459Y92755D01*
X232835Y92879D01*
D02*
G37*
G36*
X195400Y94431D02*
X194776Y94307D01*
X194246Y93954D01*
X193893Y93424D01*
X193769Y92800D01*
X193792Y92683D01*
X193500Y92231D01*
X193414Y92214D01*
X192876Y92107D01*
X192347Y91754D01*
X191993Y91224D01*
X191869Y90600D01*
X191993Y89976D01*
X192347Y89447D01*
X192876Y89093D01*
X193500Y88969D01*
X194124Y89093D01*
X194653Y89447D01*
X195007Y89976D01*
X195131Y90600D01*
X195108Y90717D01*
X195400Y91169D01*
X195486Y91186D01*
X196024Y91293D01*
X196554Y91646D01*
X196907Y92176D01*
X197031Y92800D01*
X196907Y93424D01*
X196554Y93954D01*
X196024Y94307D01*
X195400Y94431D01*
D02*
G37*
G36*
X157519Y87716D02*
X156895Y87592D01*
X156366Y87238D01*
X156012Y86709D01*
X155888Y86084D01*
X156012Y85460D01*
X156366Y84931D01*
X156895Y84577D01*
X157519Y84453D01*
X158144Y84577D01*
X158673Y84931D01*
X159026Y85460D01*
X159151Y86084D01*
X159026Y86709D01*
X158673Y87238D01*
X158144Y87592D01*
X157519Y87716D01*
D02*
G37*
G36*
X263069Y87709D02*
X262445Y87584D01*
X261915Y87231D01*
X261562Y86702D01*
X261438Y86077D01*
X261562Y85453D01*
X261915Y84924D01*
X262445Y84570D01*
X263069Y84446D01*
X263693Y84570D01*
X264222Y84924D01*
X264576Y85453D01*
X264700Y86077D01*
X264576Y86702D01*
X264222Y87231D01*
X263693Y87584D01*
X263069Y87709D01*
D02*
G37*
G36*
X208535Y87662D02*
X207911Y87538D01*
X207382Y87185D01*
X207028Y86655D01*
X206904Y86031D01*
X207028Y85407D01*
X207382Y84878D01*
X207911Y84524D01*
X208535Y84400D01*
X209159Y84524D01*
X209689Y84878D01*
X210042Y85407D01*
X210166Y86031D01*
X210042Y86655D01*
X209689Y87185D01*
X209159Y87538D01*
X208535Y87662D01*
D02*
G37*
G36*
X196408Y86672D02*
X195783Y86548D01*
X195254Y86194D01*
X194900Y85665D01*
X194776Y85040D01*
X194900Y84416D01*
X195254Y83887D01*
X195783Y83533D01*
X196408Y83409D01*
X197032Y83533D01*
X197561Y83887D01*
X197915Y84416D01*
X198039Y85040D01*
X197915Y85665D01*
X197561Y86194D01*
X197032Y86548D01*
X196408Y86672D01*
D02*
G37*
G36*
X247949Y90018D02*
X246983Y89891D01*
X246083Y89518D01*
X245310Y88925D01*
X244717Y88152D01*
X244344Y87252D01*
X244217Y86286D01*
X244344Y85320D01*
X244717Y84420D01*
X245310Y83647D01*
X246083Y83054D01*
X246983Y82681D01*
X247949Y82554D01*
X248915Y82681D01*
X249815Y83054D01*
X250588Y83647D01*
X251181Y84420D01*
X251554Y85320D01*
X251681Y86286D01*
X251554Y87252D01*
X251181Y88152D01*
X250588Y88925D01*
X249815Y89518D01*
X248915Y89891D01*
X247949Y90018D01*
D02*
G37*
G36*
X203704Y85392D02*
X203080Y85268D01*
X202551Y84915D01*
X202197Y84385D01*
X202073Y83761D01*
X202197Y83137D01*
X202551Y82608D01*
X203080Y82254D01*
X203704Y82130D01*
X204329Y82254D01*
X204858Y82608D01*
X205211Y83137D01*
X205336Y83761D01*
X205211Y84385D01*
X204858Y84915D01*
X204329Y85268D01*
X203704Y85392D01*
D02*
G37*
G36*
X180320Y83938D02*
X179695Y83814D01*
X179166Y83460D01*
X178812Y82931D01*
X178688Y82307D01*
X178812Y81683D01*
X179166Y81153D01*
X179695Y80800D01*
X180320Y80676D01*
X180944Y80800D01*
X181473Y81153D01*
X181827Y81683D01*
X181951Y82307D01*
X181827Y82931D01*
X181473Y83460D01*
X180944Y83814D01*
X180320Y83938D01*
D02*
G37*
G36*
X131208Y82440D02*
X130584Y82315D01*
X130054Y81962D01*
X129701Y81433D01*
X129577Y80808D01*
X129701Y80184D01*
X130054Y79655D01*
X130584Y79301D01*
X131208Y79177D01*
X131832Y79301D01*
X132361Y79655D01*
X132715Y80184D01*
X132839Y80808D01*
X132715Y81433D01*
X132361Y81962D01*
X131832Y82315D01*
X131208Y82440D01*
D02*
G37*
G36*
X147728Y82423D02*
X147104Y82299D01*
X146575Y81946D01*
X146221Y81416D01*
X146097Y80792D01*
X146221Y80168D01*
X146575Y79638D01*
X147104Y79285D01*
X147728Y79161D01*
X148353Y79285D01*
X148882Y79638D01*
X149236Y80168D01*
X149360Y80792D01*
X149236Y81416D01*
X148882Y81946D01*
X148353Y82299D01*
X147728Y82423D01*
D02*
G37*
G36*
X135296Y81933D02*
X134672Y81809D01*
X134143Y81455D01*
X133789Y80926D01*
X133665Y80301D01*
X133789Y79677D01*
X134143Y79148D01*
X134672Y78794D01*
X135296Y78670D01*
X135921Y78794D01*
X136450Y79148D01*
X136803Y79677D01*
X136928Y80301D01*
X136803Y80926D01*
X136450Y81455D01*
X135921Y81809D01*
X135296Y81933D01*
D02*
G37*
G36*
X211585Y78832D02*
X210961Y78708D01*
X210431Y78354D01*
X210078Y77825D01*
X209954Y77201D01*
X210078Y76577D01*
X210431Y76047D01*
X210961Y75694D01*
X211585Y75569D01*
X212209Y75694D01*
X212738Y76047D01*
X213092Y76577D01*
X213216Y77201D01*
X213092Y77825D01*
X212738Y78354D01*
X212209Y78708D01*
X211585Y78832D01*
D02*
G37*
G36*
X263056Y77917D02*
X262432Y77793D01*
X261902Y77439D01*
X261549Y76910D01*
X261425Y76286D01*
X261549Y75662D01*
X261902Y75132D01*
X262432Y74779D01*
X263056Y74655D01*
X263680Y74779D01*
X264210Y75132D01*
X264563Y75662D01*
X264687Y76286D01*
X264563Y76910D01*
X264210Y77439D01*
X263680Y77793D01*
X263056Y77917D01*
D02*
G37*
G36*
X139385Y77295D02*
X138760Y77171D01*
X138231Y76817D01*
X137878Y76288D01*
X137753Y75664D01*
X137878Y75039D01*
X138231Y74510D01*
X138760Y74156D01*
X139385Y74032D01*
X140009Y74156D01*
X140538Y74510D01*
X140892Y75039D01*
X141016Y75664D01*
X140892Y76288D01*
X140538Y76817D01*
X140009Y77171D01*
X139385Y77295D01*
D02*
G37*
G36*
X143628Y77295D02*
X143004Y77171D01*
X142475Y76817D01*
X142121Y76288D01*
X141997Y75664D01*
X142121Y75039D01*
X142475Y74510D01*
X143004Y74156D01*
X143628Y74032D01*
X144253Y74156D01*
X144782Y74510D01*
X145135Y75039D01*
X145260Y75664D01*
X145135Y76288D01*
X144782Y76817D01*
X144253Y77171D01*
X143628Y77295D01*
D02*
G37*
G36*
X247949Y80018D02*
X246983Y79891D01*
X246083Y79518D01*
X245310Y78925D01*
X244717Y78152D01*
X244344Y77252D01*
X244217Y76286D01*
X244344Y75320D01*
X244717Y74420D01*
X245310Y73647D01*
X246083Y73054D01*
X246983Y72681D01*
X247949Y72554D01*
X248915Y72681D01*
X249815Y73054D01*
X250588Y73647D01*
X251181Y74420D01*
X251554Y75320D01*
X251681Y76286D01*
X251554Y77252D01*
X251181Y78152D01*
X250588Y78925D01*
X249815Y79518D01*
X248915Y79891D01*
X247949Y80018D01*
D02*
G37*
G36*
X117500Y73131D02*
X116876Y73007D01*
X116347Y72654D01*
X115993Y72124D01*
X115869Y71500D01*
X115993Y70876D01*
X116347Y70346D01*
X116876Y69993D01*
X117500Y69869D01*
X118124Y69993D01*
X118654Y70346D01*
X119007Y70876D01*
X119131Y71500D01*
X119007Y72124D01*
X118654Y72654D01*
X118124Y73007D01*
X117500Y73131D01*
D02*
G37*
G36*
X221578Y72659D02*
X220954Y72535D01*
X220425Y72181D01*
X220071Y71652D01*
X219947Y71028D01*
X220071Y70403D01*
X220425Y69874D01*
X220954Y69520D01*
X221578Y69396D01*
X222202Y69520D01*
X222732Y69874D01*
X223085Y70403D01*
X223209Y71028D01*
X223085Y71652D01*
X222732Y72181D01*
X222202Y72535D01*
X221578Y72659D01*
D02*
G37*
G36*
X193226Y71436D02*
X192601Y71311D01*
X192072Y70958D01*
X191718Y70429D01*
X191594Y69804D01*
X191718Y69180D01*
X192072Y68651D01*
X192601Y68297D01*
X193226Y68173D01*
X193850Y68297D01*
X194379Y68651D01*
X194733Y69180D01*
X194857Y69804D01*
X194733Y70429D01*
X194379Y70958D01*
X193850Y71311D01*
X193226Y71436D01*
D02*
G37*
G36*
X230311Y68738D02*
X229687Y68613D01*
X229158Y68260D01*
X228804Y67731D01*
X228680Y67106D01*
X228804Y66482D01*
X229158Y65953D01*
X229687Y65599D01*
X230311Y65475D01*
X230936Y65599D01*
X231465Y65953D01*
X231819Y66482D01*
X231943Y67106D01*
X231819Y67731D01*
X231465Y68260D01*
X230936Y68613D01*
X230311Y68738D01*
D02*
G37*
G36*
X145934Y60934D02*
X145310Y60809D01*
X144781Y60456D01*
X144427Y59926D01*
X144303Y59302D01*
X144427Y58678D01*
X144781Y58149D01*
X145310Y57795D01*
X145934Y57671D01*
X146558Y57795D01*
X147088Y58149D01*
X147441Y58678D01*
X147565Y59302D01*
X147441Y59926D01*
X147088Y60456D01*
X146558Y60809D01*
X145934Y60934D01*
D02*
G37*
G36*
X150895Y60845D02*
X150270Y60721D01*
X149741Y60367D01*
X149388Y59838D01*
X149263Y59214D01*
X149388Y58589D01*
X149741Y58060D01*
X150270Y57706D01*
X150895Y57582D01*
X151519Y57706D01*
X152048Y58060D01*
X152402Y58589D01*
X152526Y59214D01*
X152402Y59838D01*
X152048Y60367D01*
X151519Y60721D01*
X150895Y60845D01*
D02*
G37*
G36*
X209848Y60828D02*
X209224Y60704D01*
X208695Y60351D01*
X208341Y59821D01*
X208217Y59197D01*
X208341Y58573D01*
X208695Y58044D01*
X209224Y57690D01*
X209848Y57566D01*
X210472Y57690D01*
X211001Y58044D01*
X211355Y58573D01*
X211479Y59197D01*
X211355Y59821D01*
X211001Y60351D01*
X210472Y60704D01*
X209848Y60828D01*
D02*
G37*
G36*
X204610Y60690D02*
X203986Y60566D01*
X203456Y60212D01*
X203103Y59683D01*
X202978Y59059D01*
X203103Y58434D01*
X203456Y57905D01*
X203986Y57551D01*
X204610Y57427D01*
X205234Y57551D01*
X205763Y57905D01*
X206117Y58434D01*
X206241Y59059D01*
X206117Y59683D01*
X205763Y60212D01*
X205234Y60566D01*
X204610Y60690D01*
D02*
G37*
G36*
X209633Y55745D02*
X209009Y55620D01*
X208480Y55267D01*
X208126Y54738D01*
X208002Y54113D01*
X208126Y53489D01*
X208480Y52960D01*
X209009Y52606D01*
X209633Y52482D01*
X210258Y52606D01*
X210787Y52960D01*
X211141Y53489D01*
X211265Y54113D01*
X211141Y54738D01*
X210787Y55267D01*
X210258Y55620D01*
X209633Y55745D01*
D02*
G37*
G36*
X238347Y46642D02*
X237723Y46517D01*
X237194Y46164D01*
X236840Y45635D01*
X236716Y45010D01*
X236840Y44386D01*
X237194Y43857D01*
X237723Y43503D01*
X238347Y43379D01*
X238971Y43503D01*
X239501Y43857D01*
X239854Y44386D01*
X239979Y45010D01*
X239854Y45635D01*
X239501Y46164D01*
X238971Y46517D01*
X238347Y46642D01*
D02*
G37*
G36*
X231809Y45115D02*
X231185Y44991D01*
X230656Y44637D01*
X230302Y44108D01*
X230178Y43484D01*
X230302Y42860D01*
X230656Y42330D01*
X231185Y41977D01*
X231809Y41853D01*
X232433Y41977D01*
X232962Y42330D01*
X233316Y42860D01*
X233440Y43484D01*
X233316Y44108D01*
X232962Y44637D01*
X232433Y44991D01*
X231809Y45115D01*
D02*
G37*
G36*
X249121Y44411D02*
X248497Y44287D01*
X247968Y43933D01*
X247614Y43404D01*
X247490Y42779D01*
X247614Y42155D01*
X247968Y41626D01*
X248497Y41272D01*
X249121Y41148D01*
X249745Y41272D01*
X250274Y41626D01*
X250628Y42155D01*
X250752Y42779D01*
X250628Y43404D01*
X250274Y43933D01*
X249745Y44287D01*
X249121Y44411D01*
D02*
G37*
G36*
X234269Y42048D02*
X233645Y41924D01*
X233115Y41570D01*
X232762Y41041D01*
X232638Y40417D01*
X232762Y39793D01*
X233115Y39263D01*
X233645Y38910D01*
X234269Y38786D01*
X234893Y38910D01*
X235422Y39263D01*
X235776Y39793D01*
X235900Y40417D01*
X235776Y41041D01*
X235422Y41570D01*
X234893Y41924D01*
X234269Y42048D01*
D02*
G37*
G36*
X211502Y40859D02*
X210878Y40734D01*
X210349Y40381D01*
X209995Y39851D01*
X209871Y39227D01*
X209995Y38603D01*
X210349Y38074D01*
X210878Y37720D01*
X211502Y37596D01*
X212127Y37720D01*
X212656Y38074D01*
X213010Y38603D01*
X213134Y39227D01*
X213010Y39851D01*
X212656Y40381D01*
X212127Y40734D01*
X211502Y40859D01*
D02*
G37*
G36*
X68500Y39131D02*
X67876Y39007D01*
X67347Y38653D01*
X66993Y38124D01*
X66869Y37500D01*
X66993Y36876D01*
X67347Y36347D01*
X67876Y35993D01*
X68500Y35869D01*
X69124Y35993D01*
X69653Y36347D01*
X70007Y36876D01*
X70131Y37500D01*
X70007Y38124D01*
X69653Y38653D01*
X69124Y39007D01*
X68500Y39131D01*
D02*
G37*
G36*
X222096Y38265D02*
X221472Y38141D01*
X220943Y37787D01*
X220589Y37258D01*
X220465Y36634D01*
X220589Y36009D01*
X220943Y35480D01*
X221472Y35126D01*
X222096Y35002D01*
X222721Y35126D01*
X223250Y35480D01*
X223604Y36009D01*
X223728Y36634D01*
X223604Y37258D01*
X223250Y37787D01*
X222721Y38141D01*
X222096Y38265D01*
D02*
G37*
G36*
X147877Y38012D02*
X147252Y37888D01*
X146723Y37534D01*
X146369Y37005D01*
X146245Y36380D01*
X146369Y35756D01*
X146723Y35227D01*
X147252Y34873D01*
X147877Y34749D01*
X148501Y34873D01*
X149030Y35227D01*
X149384Y35756D01*
X149508Y36380D01*
X149384Y37005D01*
X149030Y37534D01*
X148501Y37888D01*
X147877Y38012D01*
D02*
G37*
G36*
X238347Y37455D02*
X237723Y37331D01*
X237194Y36977D01*
X236840Y36448D01*
X236716Y35824D01*
X236840Y35199D01*
X237194Y34670D01*
X237723Y34317D01*
X238347Y34192D01*
X238971Y34317D01*
X239501Y34670D01*
X239854Y35199D01*
X239979Y35824D01*
X239854Y36448D01*
X239501Y36977D01*
X238971Y37331D01*
X238347Y37455D01*
D02*
G37*
G36*
X222319Y32711D02*
X221695Y32587D01*
X221166Y32233D01*
X220812Y31704D01*
X220688Y31079D01*
X220812Y30455D01*
X221166Y29926D01*
X221695Y29572D01*
X222319Y29448D01*
X222943Y29572D01*
X223473Y29926D01*
X223826Y30455D01*
X223951Y31079D01*
X223826Y31704D01*
X223473Y32233D01*
X222943Y32587D01*
X222319Y32711D01*
D02*
G37*
G36*
X93698Y20377D02*
X93073Y20252D01*
X92544Y19899D01*
X92190Y19369D01*
X92066Y18745D01*
X92190Y18121D01*
X92544Y17592D01*
X93073Y17238D01*
X93698Y17114D01*
X94322Y17238D01*
X94851Y17592D01*
X95205Y18121D01*
X95329Y18745D01*
X95205Y19369D01*
X94851Y19899D01*
X94322Y20252D01*
X93698Y20377D01*
D02*
G37*
G36*
X82056Y10321D02*
X81432Y10196D01*
X80902Y9843D01*
X80549Y9313D01*
X80425Y8689D01*
X80549Y8065D01*
X80902Y7536D01*
X81432Y7182D01*
X82056Y7058D01*
X82680Y7182D01*
X83210Y7536D01*
X83563Y8065D01*
X83687Y8689D01*
X83563Y9313D01*
X83210Y9843D01*
X82680Y10196D01*
X82056Y10321D01*
D02*
G37*
G36*
X161334Y64890D02*
X160710Y64766D01*
X160181Y64412D01*
X159827Y63883D01*
X159703Y63258D01*
X159827Y62634D01*
X160181Y62105D01*
X160710Y61751D01*
X161334Y61627D01*
X161959Y61751D01*
X162488Y62105D01*
X162841Y62634D01*
X162966Y63258D01*
X162841Y63883D01*
X162488Y64412D01*
X161959Y64766D01*
X161334Y64890D01*
D02*
G37*
G36*
X180642Y48110D02*
X180018Y47986D01*
X179489Y47632D01*
X179135Y47103D01*
X179011Y46479D01*
X179135Y45855D01*
X179489Y45325D01*
X180018Y44972D01*
X180642Y44848D01*
X181266Y44972D01*
X181796Y45325D01*
X182149Y45855D01*
X182274Y46479D01*
X182149Y47103D01*
X181796Y47632D01*
X181266Y47986D01*
X180642Y48110D01*
D02*
G37*
G36*
X179135Y44205D02*
X178511Y44081D01*
X177982Y43727D01*
X177628Y43198D01*
X177504Y42574D01*
X177628Y41950D01*
X177982Y41420D01*
X178511Y41067D01*
X179135Y40942D01*
X179759Y41067D01*
X180289Y41420D01*
X180642Y41950D01*
X180766Y42574D01*
X180642Y43198D01*
X180289Y43727D01*
X179759Y44081D01*
X179135Y44205D01*
D02*
G37*
G36*
X185054Y43707D02*
X184429Y43583D01*
X183900Y43230D01*
X183546Y42700D01*
X183422Y42076D01*
X183546Y41452D01*
X183900Y40923D01*
X184429Y40569D01*
X185054Y40445D01*
X185678Y40569D01*
X186207Y40923D01*
X186561Y41452D01*
X186685Y42076D01*
X186561Y42700D01*
X186207Y43230D01*
X185678Y43583D01*
X185054Y43707D01*
D02*
G37*
G36*
X195220Y39489D02*
X194596Y39365D01*
X194067Y39011D01*
X193713Y38482D01*
X193589Y37858D01*
X193713Y37234D01*
X194067Y36704D01*
X194596Y36351D01*
X195220Y36226D01*
X195844Y36351D01*
X196374Y36704D01*
X196727Y37234D01*
X196852Y37858D01*
X196727Y38482D01*
X196374Y39011D01*
X195844Y39365D01*
X195220Y39489D01*
D02*
G37*
G36*
X189758Y39424D02*
X189133Y39299D01*
X188604Y38946D01*
X188251Y38417D01*
X188126Y37792D01*
X188251Y37168D01*
X188604Y36639D01*
X189133Y36285D01*
X189758Y36161D01*
X190382Y36285D01*
X190911Y36639D01*
X191265Y37168D01*
X191389Y37792D01*
X191265Y38417D01*
X190911Y38946D01*
X190382Y39299D01*
X189758Y39424D01*
D02*
G37*
G36*
X196326Y34005D02*
X195702Y33881D01*
X195173Y33527D01*
X194819Y32998D01*
X194695Y32374D01*
X194819Y31750D01*
X195173Y31220D01*
X195702Y30867D01*
X196326Y30742D01*
X196951Y30867D01*
X197480Y31220D01*
X197834Y31750D01*
X197958Y32374D01*
X197834Y32998D01*
X197480Y33527D01*
X196951Y33881D01*
X196326Y34005D01*
D02*
G37*
G36*
X130380Y-204364D02*
X129059Y-207978D01*
X131744D01*
X130380Y-204364D01*
D02*
G37*
G36*
X112637Y-203746D02*
X111174D01*
Y-206515D01*
X112524D01*
X112623Y-206501D01*
X112876D01*
X113129Y-206487D01*
X113382Y-206459D01*
X113607Y-206417D01*
X113705Y-206403D01*
X113790Y-206375D01*
X113804Y-206361D01*
X113860Y-206347D01*
X113930Y-206305D01*
X114015Y-206262D01*
X114113Y-206192D01*
X114211Y-206108D01*
X114324Y-206009D01*
X114408Y-205897D01*
X114422Y-205883D01*
X114450Y-205840D01*
X114479Y-205770D01*
X114521Y-205672D01*
X114563Y-205559D01*
X114605Y-205433D01*
X114619Y-205292D01*
X114633Y-205137D01*
Y-205109D01*
Y-205053D01*
X114619Y-204955D01*
X114591Y-204828D01*
X114549Y-204688D01*
X114493Y-204533D01*
X114422Y-204392D01*
X114310Y-204252D01*
X114296Y-204238D01*
X114254Y-204195D01*
X114183Y-204139D01*
X114099Y-204069D01*
X113986Y-203985D01*
X113846Y-203914D01*
X113691Y-203858D01*
X113523Y-203816D01*
X113508D01*
X113452Y-203802D01*
X113354Y-203788D01*
X113213Y-203774D01*
X113030D01*
X112904Y-203760D01*
X112777D01*
X112637Y-203746D01*
D02*
G37*
G36*
X99828D02*
X97578D01*
Y-206220D01*
X99491D01*
X99772Y-206206D01*
X100067Y-206192D01*
X100362Y-206178D01*
X100489Y-206164D01*
X100601Y-206150D01*
X100714Y-206122D01*
X100784Y-206108D01*
X100798D01*
X100840Y-206080D01*
X100911Y-206051D01*
X100981Y-206009D01*
X101164Y-205883D01*
X101248Y-205798D01*
X101332Y-205700D01*
X101347Y-205686D01*
X101361Y-205644D01*
X101403Y-205587D01*
X101445Y-205503D01*
X101473Y-205391D01*
X101515Y-205264D01*
X101529Y-205123D01*
X101543Y-204969D01*
Y-204941D01*
Y-204884D01*
X101529Y-204800D01*
X101515Y-204688D01*
X101473Y-204561D01*
X101431Y-204434D01*
X101361Y-204294D01*
X101276Y-204181D01*
X101262Y-204167D01*
X101234Y-204125D01*
X101164Y-204083D01*
X101079Y-204013D01*
X100981Y-203942D01*
X100854Y-203886D01*
X100700Y-203830D01*
X100531Y-203788D01*
X100517D01*
X100475Y-203774D01*
X100390D01*
X100264Y-203760D01*
X99954D01*
X99828Y-203746D01*
D02*
G37*
G36*
X57493D02*
X56031D01*
Y-206515D01*
X57381D01*
X57479Y-206501D01*
X57732D01*
X57986Y-206487D01*
X58239Y-206459D01*
X58464Y-206417D01*
X58562Y-206403D01*
X58646Y-206375D01*
X58660Y-206361D01*
X58717Y-206347D01*
X58787Y-206305D01*
X58871Y-206262D01*
X58970Y-206192D01*
X59068Y-206108D01*
X59181Y-206009D01*
X59265Y-205897D01*
X59279Y-205883D01*
X59307Y-205840D01*
X59335Y-205770D01*
X59377Y-205672D01*
X59420Y-205559D01*
X59462Y-205433D01*
X59476Y-205292D01*
X59490Y-205137D01*
Y-205109D01*
Y-205053D01*
X59476Y-204955D01*
X59448Y-204828D01*
X59405Y-204688D01*
X59349Y-204533D01*
X59279Y-204392D01*
X59167Y-204252D01*
X59152Y-204238D01*
X59110Y-204195D01*
X59040Y-204139D01*
X58956Y-204069D01*
X58843Y-203985D01*
X58702Y-203914D01*
X58548Y-203858D01*
X58379Y-203816D01*
X58365D01*
X58309Y-203802D01*
X58210Y-203788D01*
X58070Y-203774D01*
X57887D01*
X57761Y-203760D01*
X57634D01*
X57493Y-203746D01*
D02*
G37*
G36*
X67448Y-203591D02*
X67335D01*
X67251Y-203605D01*
X67138Y-203619D01*
X67026Y-203633D01*
X66745Y-203689D01*
X66435Y-203802D01*
X66267Y-203858D01*
X66098Y-203942D01*
X65943Y-204041D01*
X65775Y-204153D01*
X65620Y-204280D01*
X65479Y-204434D01*
X65465Y-204449D01*
X65451Y-204477D01*
X65409Y-204519D01*
X65367Y-204589D01*
X65311Y-204688D01*
X65254Y-204786D01*
X65184Y-204913D01*
X65114Y-205067D01*
X65044Y-205236D01*
X64973Y-205419D01*
X64917Y-205630D01*
X64861Y-205855D01*
X64819Y-206108D01*
X64776Y-206375D01*
X64762Y-206656D01*
X64748Y-206965D01*
Y-206979D01*
Y-207036D01*
Y-207120D01*
X64762Y-207232D01*
X64776Y-207373D01*
X64790Y-207542D01*
X64819Y-207711D01*
X64847Y-207907D01*
X64931Y-208315D01*
X65072Y-208723D01*
X65156Y-208934D01*
X65254Y-209131D01*
X65381Y-209313D01*
X65508Y-209482D01*
X65522Y-209496D01*
X65550Y-209524D01*
X65592Y-209566D01*
X65648Y-209609D01*
X65718Y-209679D01*
X65817Y-209749D01*
X65915Y-209834D01*
X66042Y-209904D01*
X66309Y-210073D01*
X66646Y-210199D01*
X66829Y-210255D01*
X67026Y-210297D01*
X67237Y-210326D01*
X67448Y-210340D01*
X67560D01*
X67645Y-210326D01*
X67743Y-210312D01*
X67856Y-210297D01*
X68123Y-210227D01*
X68432Y-210129D01*
X68587Y-210058D01*
X68755Y-209988D01*
X68910Y-209890D01*
X69079Y-209777D01*
X69234Y-209651D01*
X69374Y-209496D01*
X69388Y-209482D01*
X69402Y-209454D01*
X69444Y-209412D01*
X69486Y-209342D01*
X69557Y-209243D01*
X69613Y-209131D01*
X69683Y-209004D01*
X69754Y-208849D01*
X69824Y-208681D01*
X69894Y-208498D01*
X69965Y-208287D01*
X70021Y-208048D01*
X70063Y-207809D01*
X70105Y-207542D01*
X70119Y-207246D01*
X70133Y-206937D01*
Y-206923D01*
Y-206867D01*
Y-206783D01*
X70119Y-206656D01*
X70105Y-206515D01*
X70091Y-206361D01*
X70077Y-206178D01*
X70035Y-205995D01*
X69950Y-205587D01*
X69824Y-205166D01*
X69740Y-204955D01*
X69641Y-204772D01*
X69515Y-204589D01*
X69388Y-204420D01*
X69374Y-204406D01*
X69360Y-204378D01*
X69318Y-204350D01*
X69262Y-204294D01*
X69177Y-204224D01*
X69093Y-204153D01*
X68994Y-204083D01*
X68868Y-203999D01*
X68741Y-203928D01*
X68587Y-203858D01*
X68263Y-203717D01*
X68081Y-203661D01*
X67884Y-203633D01*
X67673Y-203605D01*
X67448Y-203591D01*
D02*
G37*
%LPD*%
D122*
X196060Y186056D02*
X204453Y194449D01*
X229462D02*
X231001Y195987D01*
X204453Y194449D02*
X229462D01*
X196060Y174946D02*
Y186056D01*
D124*
X46609Y73056D02*
D03*
X36609Y78056D02*
D03*
D132*
X317908Y257517D02*
D03*
D133*
X267605Y-6543D02*
D03*
Y-18355D02*
D03*
D136*
X349304Y-11580D02*
D03*
X347730Y-25950D02*
D03*
D139*
X247949Y116286D02*
D03*
D140*
X185800Y82200D02*
D03*
X120236Y170253D02*
D03*
X109500Y181939D02*
D03*
X182718Y125454D02*
D03*
X157475Y127025D02*
D03*
X260683Y142595D02*
D03*
X257285Y175186D02*
D03*
X252396Y170297D02*
D03*
X156450Y41142D02*
D03*
X107653Y201791D02*
D03*
X137405Y200914D02*
D03*
X133574Y197061D02*
D03*
X153008Y195730D02*
D03*
X275477Y229364D02*
D03*
X270850Y233981D02*
D03*
X380979Y33921D02*
D03*
X381057Y39617D02*
D03*
X380930Y28619D02*
D03*
X380951Y23726D02*
D03*
X374972Y23817D02*
D03*
X374951Y28710D02*
D03*
X375078Y39709D02*
D03*
X374999Y34012D02*
D03*
X369185Y23681D02*
D03*
X369236Y29177D02*
D03*
X369118Y34114D02*
D03*
X369146Y39748D02*
D03*
X290950Y13727D02*
D03*
X290900Y22260D02*
D03*
X282813Y22310D02*
D03*
X282714Y14024D02*
D03*
X282516Y5441D02*
D03*
X176135Y272805D02*
D03*
X176003Y267737D02*
D03*
X175893Y263064D02*
D03*
X176753Y152679D02*
D03*
X203785Y24756D02*
D03*
X211002Y25291D02*
D03*
Y32814D02*
D03*
X214764Y29052D02*
D03*
X161334Y76274D02*
D03*
X238297Y209455D02*
D03*
X242425Y213577D02*
D03*
X273720Y139456D02*
D03*
X283719Y139439D02*
D03*
X313720Y139479D02*
D03*
X52751Y269860D02*
D03*
X48169Y274442D02*
D03*
X206366Y229892D02*
D03*
X196060Y174946D02*
D03*
X231001Y195987D02*
D03*
X148482Y270858D02*
D03*
Y275598D02*
D03*
X263891Y101077D02*
D03*
Y91077D02*
D03*
X229705Y129671D02*
D03*
X178023Y229241D02*
D03*
X85991Y210346D02*
D03*
X55751Y237410D02*
D03*
X206701Y226810D02*
D03*
X50891Y237663D02*
D03*
X306004Y234059D02*
D03*
X306098Y228236D02*
D03*
X323942Y233620D02*
D03*
X317399Y233839D02*
D03*
X311326Y234027D02*
D03*
X323786Y228299D02*
D03*
X317305Y228173D02*
D03*
X311326Y228361D02*
D03*
X151325Y50205D02*
D03*
X198604Y25552D02*
D03*
X200727Y28780D02*
D03*
X195835Y28389D02*
D03*
X182787Y38531D02*
D03*
X210595Y71305D02*
D03*
X160943Y86244D02*
D03*
X215223Y89258D02*
D03*
X230343Y183069D02*
D03*
X177514Y196338D02*
D03*
X222159Y228253D02*
D03*
X204896Y233076D02*
D03*
X204953Y235955D02*
D03*
X121886Y97125D02*
D03*
X116807Y143553D02*
D03*
X116451Y124846D02*
D03*
X230146Y150895D02*
D03*
X93286Y4758D02*
D03*
X71518Y5193D02*
D03*
M02*
