G04*
G04 #@! TF.GenerationSoftware,Altium Limited,Altium Designer,21.4.1 (30)*
G04*
G04 Layer_Physical_Order=4*
G04 Layer_Color=16711680*
%FSLAX25Y25*%
%MOIN*%
G70*
G04*
G04 #@! TF.SameCoordinates,04E9EE4E-D336-421F-817C-04C26E83230A*
G04*
G04*
G04 #@! TF.FilePolarity,Positive*
G04*
G01*
G75*
%ADD15R,0.02400X0.02400*%
%ADD18R,0.02756X0.07800*%
%ADD19R,0.02400X0.02400*%
%ADD23R,0.03150X0.03937*%
%ADD31R,0.04528X0.07087*%
%ADD33R,0.03400X0.03900*%
%ADD47R,0.04700X0.07100*%
%ADD48R,0.03900X0.03400*%
%ADD49R,0.07800X0.02756*%
%ADD50R,0.12992X0.09843*%
%ADD51R,0.01181X0.01575*%
%ADD52C,0.06000*%
%ADD100C,0.11500*%
%ADD112C,0.11100*%
%ADD115C,0.04000*%
%ADD119C,0.01500*%
%ADD120C,0.00800*%
%ADD121C,0.01000*%
%ADD122C,0.02000*%
%ADD124C,0.05941*%
%ADD125C,0.09744*%
%ADD126C,0.05500*%
G04:AMPARAMS|DCode=127|XSize=55mil|YSize=55mil|CornerRadius=13.75mil|HoleSize=0mil|Usage=FLASHONLY|Rotation=270.000|XOffset=0mil|YOffset=0mil|HoleType=Round|Shape=RoundedRectangle|*
%AMROUNDEDRECTD127*
21,1,0.05500,0.02750,0,0,270.0*
21,1,0.02750,0.05500,0,0,270.0*
1,1,0.02750,-0.01375,-0.01375*
1,1,0.02750,-0.01375,0.01375*
1,1,0.02750,0.01375,0.01375*
1,1,0.02750,0.01375,-0.01375*
%
%ADD127ROUNDEDRECTD127*%
%ADD128C,0.05700*%
G04:AMPARAMS|DCode=129|XSize=57mil|YSize=57mil|CornerRadius=14.25mil|HoleSize=0mil|Usage=FLASHONLY|Rotation=180.000|XOffset=0mil|YOffset=0mil|HoleType=Round|Shape=RoundedRectangle|*
%AMROUNDEDRECTD129*
21,1,0.05700,0.02850,0,0,180.0*
21,1,0.02850,0.05700,0,0,180.0*
1,1,0.02850,-0.01425,0.01425*
1,1,0.02850,0.01425,0.01425*
1,1,0.02850,0.01425,-0.01425*
1,1,0.02850,-0.01425,-0.01425*
%
%ADD129ROUNDEDRECTD129*%
G04:AMPARAMS|DCode=130|XSize=80mil|YSize=80mil|CornerRadius=20mil|HoleSize=0mil|Usage=FLASHONLY|Rotation=0.000|XOffset=0mil|YOffset=0mil|HoleType=Round|Shape=RoundedRectangle|*
%AMROUNDEDRECTD130*
21,1,0.08000,0.04000,0,0,0.0*
21,1,0.04000,0.08000,0,0,0.0*
1,1,0.04000,0.02000,-0.02000*
1,1,0.04000,-0.02000,-0.02000*
1,1,0.04000,-0.02000,0.02000*
1,1,0.04000,0.02000,0.02000*
%
%ADD130ROUNDEDRECTD130*%
%ADD131C,0.08000*%
%ADD132C,0.05512*%
%ADD133C,0.06200*%
G04:AMPARAMS|DCode=134|XSize=62mil|YSize=62mil|CornerRadius=15.5mil|HoleSize=0mil|Usage=FLASHONLY|Rotation=0.000|XOffset=0mil|YOffset=0mil|HoleType=Round|Shape=RoundedRectangle|*
%AMROUNDEDRECTD134*
21,1,0.06200,0.03100,0,0,0.0*
21,1,0.03100,0.06200,0,0,0.0*
1,1,0.03100,0.01550,-0.01550*
1,1,0.03100,-0.01550,-0.01550*
1,1,0.03100,-0.01550,0.01550*
1,1,0.03100,0.01550,0.01550*
%
%ADD134ROUNDEDRECTD134*%
%ADD135C,0.09449*%
%ADD136O,0.04400X0.12700*%
%ADD137O,0.10700X0.06000*%
%ADD138C,0.10700*%
G04:AMPARAMS|DCode=139|XSize=60mil|YSize=60mil|CornerRadius=15mil|HoleSize=0mil|Usage=FLASHONLY|Rotation=270.000|XOffset=0mil|YOffset=0mil|HoleType=Round|Shape=RoundedRectangle|*
%AMROUNDEDRECTD139*
21,1,0.06000,0.03000,0,0,270.0*
21,1,0.03000,0.06000,0,0,270.0*
1,1,0.03000,-0.01500,-0.01500*
1,1,0.03000,-0.01500,0.01500*
1,1,0.03000,0.01500,0.01500*
1,1,0.03000,0.01500,-0.01500*
%
%ADD139ROUNDEDRECTD139*%
%ADD140C,0.01800*%
%ADD141R,0.04764X0.02323*%
%ADD142R,0.09843X0.12992*%
%ADD143R,0.02000X0.02000*%
%ADD144R,0.03937X0.02362*%
%ADD145R,0.02362X0.03937*%
%ADD146R,0.17717X0.09055*%
%ADD147R,0.03937X0.11024*%
%ADD148R,0.05118X0.07480*%
%ADD149R,0.03937X0.04724*%
%ADD150R,0.02756X0.04724*%
%ADD151R,0.03937X0.03150*%
%ADD152R,0.07087X0.04528*%
G36*
X305628Y298852D02*
X307744Y296736D01*
X307744Y280259D01*
X306896Y279411D01*
X300943D01*
X299829Y280525D01*
X291132Y280525D01*
X291132Y296799D01*
X293185Y298852D01*
X305628Y298852D01*
D02*
G37*
G36*
X135634Y274907D02*
X135595Y274855D01*
X135560Y274797D01*
X135530Y274734D01*
X135505Y274667D01*
X135485Y274594D01*
X135468Y274516D01*
X135457Y274433D01*
X135450Y274345D01*
X135448Y274252D01*
X134648D01*
X134645Y274345D01*
X134639Y274433D01*
X134627Y274516D01*
X134611Y274594D01*
X134590Y274667D01*
X134565Y274734D01*
X134535Y274797D01*
X134501Y274855D01*
X134461Y274907D01*
X134418Y274955D01*
X135678D01*
X135634Y274907D01*
D02*
G37*
G36*
X138973Y270784D02*
X138983Y270719D01*
X138999Y270654D01*
X139022Y270588D01*
X139052Y270523D01*
X139089Y270456D01*
X139133Y270390D01*
X139184Y270323D01*
X139241Y270256D01*
X139305Y270189D01*
X138740Y269623D01*
X138672Y269687D01*
X138605Y269744D01*
X138538Y269795D01*
X138472Y269839D01*
X138406Y269876D01*
X138340Y269906D01*
X138274Y269929D01*
X138209Y269945D01*
X138144Y269955D01*
X138079Y269958D01*
X138970Y270849D01*
X138973Y270784D01*
D02*
G37*
G36*
X279532Y296666D02*
Y267856D01*
X277746Y266070D01*
Y263318D01*
X276316Y261889D01*
X271896Y261889D01*
X270903Y262882D01*
Y272374D01*
X265764Y277513D01*
Y297129D01*
X266074Y297439D01*
X278759D01*
X279532Y296666D01*
D02*
G37*
G36*
X379259Y263074D02*
X379271Y262840D01*
X379306Y262601D01*
X379364Y262358D01*
X379446Y262112D01*
X379551Y261861D01*
X379679Y261606D01*
X379830Y261348D01*
X380005Y261085D01*
X380424Y260547D01*
X376450Y260900D01*
X376699Y261117D01*
X376921Y261336D01*
X377118Y261559D01*
X377288Y261785D01*
X377432Y262015D01*
X377550Y262248D01*
X377642Y262484D01*
X377707Y262723D01*
X377746Y262966D01*
X377759Y263212D01*
X379259Y263074D01*
D02*
G37*
G36*
X142082Y261304D02*
X142091Y261239D01*
X142108Y261174D01*
X142131Y261108D01*
X142161Y261042D01*
X142198Y260976D01*
X142242Y260910D01*
X142292Y260843D01*
X142349Y260776D01*
X142414Y260708D01*
X141848Y260142D01*
X141780Y260207D01*
X141713Y260264D01*
X141647Y260315D01*
X141580Y260358D01*
X141514Y260395D01*
X141448Y260425D01*
X141383Y260449D01*
X141317Y260465D01*
X141252Y260475D01*
X141188Y260477D01*
X142079Y261368D01*
X142082Y261304D01*
D02*
G37*
G36*
Y256564D02*
X142091Y256499D01*
X142108Y256434D01*
X142131Y256368D01*
X142161Y256302D01*
X142198Y256236D01*
X142242Y256170D01*
X142292Y256103D01*
X142349Y256035D01*
X142414Y255968D01*
X141848Y255402D01*
X141780Y255467D01*
X141713Y255524D01*
X141647Y255574D01*
X141580Y255618D01*
X141514Y255655D01*
X141448Y255685D01*
X141383Y255708D01*
X141317Y255725D01*
X141252Y255734D01*
X141188Y255737D01*
X142079Y256628D01*
X142082Y256564D01*
D02*
G37*
G36*
X452138Y277913D02*
X458034Y272017D01*
X458034Y162787D01*
X445816Y150569D01*
X407277D01*
X400510Y143802D01*
X380575Y143802D01*
X379455Y144922D01*
X379455Y233573D01*
X392987Y247105D01*
Y256010D01*
X393116Y256054D01*
X393487Y256129D01*
X394183Y255595D01*
X395047Y255238D01*
X395974Y255116D01*
X396900Y255238D01*
X397764Y255595D01*
X398506Y256164D01*
X399075Y256906D01*
X399432Y257769D01*
X399554Y258696D01*
X399432Y259623D01*
X399075Y260487D01*
X398506Y261228D01*
X397764Y261797D01*
X396900Y262155D01*
X395974Y262277D01*
X395047Y262155D01*
X394183Y261797D01*
X393487Y261263D01*
X393116Y261339D01*
X392987Y261382D01*
Y273096D01*
X397804Y277913D01*
X452138Y277913D01*
D02*
G37*
G36*
X141765Y251207D02*
X141726Y251154D01*
X141692Y251096D01*
X141662Y251033D01*
X141636Y250966D01*
X141616Y250893D01*
X141600Y250815D01*
X141588Y250732D01*
X141581Y250644D01*
X141579Y250551D01*
X140779D01*
X140777Y250644D01*
X140770Y250732D01*
X140758Y250815D01*
X140742Y250893D01*
X140721Y250966D01*
X140696Y251033D01*
X140666Y251096D01*
X140632Y251154D01*
X140593Y251207D01*
X140549Y251254D01*
X141809D01*
X141765Y251207D01*
D02*
G37*
G36*
X173821Y240692D02*
X173782Y240639D01*
X173747Y240582D01*
X173717Y240519D01*
X173692Y240451D01*
X173671Y240378D01*
X173655Y240300D01*
X173644Y240217D01*
X173637Y240129D01*
X173635Y240036D01*
X172835D01*
X172832Y240129D01*
X172825Y240217D01*
X172814Y240300D01*
X172798Y240378D01*
X172777Y240451D01*
X172752Y240519D01*
X172722Y240582D01*
X172687Y240639D01*
X172648Y240692D01*
X172605Y240740D01*
X173865D01*
X173821Y240692D01*
D02*
G37*
G36*
X146256Y232246D02*
X146217Y232193D01*
X146183Y232136D01*
X146153Y232073D01*
X146128Y232005D01*
X146107Y231932D01*
X146091Y231854D01*
X146079Y231771D01*
X146072Y231683D01*
X146070Y231590D01*
X145270D01*
X145268Y231683D01*
X145261Y231771D01*
X145249Y231854D01*
X145233Y231932D01*
X145213Y232005D01*
X145187Y232073D01*
X145157Y232136D01*
X145123Y232193D01*
X145084Y232246D01*
X145040Y232294D01*
X146300D01*
X146256Y232246D01*
D02*
G37*
G36*
X189256Y229087D02*
X189293Y229065D01*
X189338Y229045D01*
X189391Y229028D01*
X189452Y229014D01*
X189520Y229002D01*
X189681Y228987D01*
X189773Y228983D01*
X189872Y228982D01*
X189873Y227982D01*
X189773Y227980D01*
X189521Y227961D01*
X189453Y227949D01*
X189392Y227935D01*
X189339Y227918D01*
X189294Y227898D01*
X189257Y227876D01*
X189227Y227852D01*
X189227Y229112D01*
X189256Y229087D01*
D02*
G37*
G36*
X335109Y228185D02*
X347378Y228185D01*
X349362Y226201D01*
X349362Y204011D01*
Y183254D01*
X349133Y182849D01*
X348862Y182849D01*
X345033D01*
Y178306D01*
X345950D01*
Y176658D01*
X345947Y176637D01*
X345941Y176608D01*
X345939Y176601D01*
X345918Y176587D01*
X345564Y176058D01*
X345440Y175434D01*
X345564Y174809D01*
X345918Y174280D01*
X346447Y173926D01*
X347071Y173802D01*
X347696Y173926D01*
X348225Y174280D01*
X348579Y174809D01*
X348703Y175434D01*
X348579Y176058D01*
X348225Y176587D01*
X348204Y176601D01*
X348202Y176608D01*
X348196Y176637D01*
X348193Y176658D01*
Y177953D01*
X348547Y178306D01*
X349133Y178306D01*
X349362Y177901D01*
Y154199D01*
X331106Y135943D01*
X276315D01*
X276123Y136405D01*
X277213Y137495D01*
X277229Y137507D01*
X277254Y137523D01*
X277260Y137527D01*
X277285Y137522D01*
X277910Y137646D01*
X278439Y138000D01*
X278793Y138529D01*
X278917Y139153D01*
X278793Y139778D01*
X278439Y140307D01*
X278212Y140459D01*
X278363Y140959D01*
X282254D01*
X282304Y140900D01*
X282476Y140459D01*
X282212Y140063D01*
X282087Y139439D01*
X282212Y138815D01*
X282565Y138286D01*
X283095Y137932D01*
X283719Y137808D01*
X284343Y137932D01*
X284872Y138286D01*
X285226Y138815D01*
X285269Y139032D01*
X285762Y139040D01*
X285780Y139037D01*
X286131Y138511D01*
X286660Y138158D01*
X287285Y138033D01*
X287909Y138158D01*
X288438Y138511D01*
X288792Y139041D01*
X288916Y139665D01*
X288792Y140289D01*
X288438Y140818D01*
X287909Y141172D01*
X287285Y141296D01*
X287260Y141291D01*
X287254Y141295D01*
X287229Y141311D01*
X287212Y141323D01*
X285953Y142583D01*
X286160Y143083D01*
X292106D01*
X295629Y139560D01*
X295641Y139543D01*
X295658Y139518D01*
X295661Y139512D01*
X295656Y139487D01*
X295780Y138863D01*
X296134Y138334D01*
X296663Y137980D01*
X297287Y137856D01*
X297912Y137980D01*
X298441Y138334D01*
X298795Y138863D01*
X298919Y139487D01*
X298795Y140111D01*
X298441Y140641D01*
X297912Y140994D01*
X297287Y141119D01*
X297262Y141114D01*
X297256Y141117D01*
X297232Y141133D01*
X297215Y141146D01*
X293363Y144997D01*
X293000Y145240D01*
X292570Y145326D01*
X292570Y145326D01*
X270945D01*
X270945Y145326D01*
X270515Y145240D01*
X270151Y144997D01*
X270151Y144997D01*
X262525Y137370D01*
X262281Y137006D01*
X262196Y136577D01*
X262196Y136577D01*
Y135943D01*
X256471D01*
X248649Y143765D01*
Y201115D01*
X254390Y206857D01*
X284958D01*
X305087Y226987D01*
X305473Y226729D01*
X306098Y226605D01*
X306722Y226729D01*
X307251Y227082D01*
X307605Y227612D01*
X307719Y228185D01*
X309730D01*
X309819Y227737D01*
X310172Y227208D01*
X310701Y226854D01*
X311326Y226730D01*
X311950Y226854D01*
X312479Y227208D01*
X312833Y227737D01*
X312922Y228185D01*
X315664D01*
X315674Y228173D01*
X315798Y227549D01*
X316152Y227020D01*
X316681Y226666D01*
X317305Y226542D01*
X317930Y226666D01*
X318459Y227020D01*
X318812Y227549D01*
X318937Y228173D01*
X318946Y228185D01*
X322177D01*
X322278Y227674D01*
X322632Y227145D01*
X323161Y226791D01*
X323786Y226667D01*
X324410Y226791D01*
X324939Y227145D01*
X325293Y227674D01*
X325394Y228185D01*
X327910D01*
X335109Y228185D01*
D02*
G37*
G36*
X215113Y226354D02*
X215305Y226189D01*
X215361Y226149D01*
X215415Y226116D01*
X215464Y226091D01*
X215509Y226073D01*
X215551Y226062D01*
X215590Y226059D01*
X214699Y225168D01*
X214695Y225206D01*
X214685Y225248D01*
X214667Y225294D01*
X214641Y225343D01*
X214608Y225396D01*
X214568Y225453D01*
X214466Y225577D01*
X214404Y225645D01*
X214334Y225716D01*
X215041Y226423D01*
X215113Y226354D01*
D02*
G37*
G36*
X182317Y226192D02*
X182369Y226153D01*
X182427Y226119D01*
X182490Y226089D01*
X182558Y226064D01*
X182631Y226043D01*
X182709Y226027D01*
X182791Y226015D01*
X182880Y226009D01*
X182973Y226006D01*
Y225206D01*
X182880Y225204D01*
X182791Y225197D01*
X182709Y225185D01*
X182631Y225169D01*
X182558Y225149D01*
X182490Y225123D01*
X182427Y225094D01*
X182369Y225059D01*
X182317Y225020D01*
X182269Y224976D01*
Y226236D01*
X182317Y226192D01*
D02*
G37*
G36*
X206352Y242684D02*
Y233698D01*
X207925Y232125D01*
Y225408D01*
X207221Y224704D01*
X205261D01*
X204909Y225056D01*
Y230986D01*
X203218Y232678D01*
X203218Y242774D01*
X203522Y243079D01*
X205957Y243079D01*
X206352Y242684D01*
D02*
G37*
G36*
X180661Y223552D02*
X180671Y223487D01*
X180687Y223422D01*
X180710Y223357D01*
X180740Y223291D01*
X180778Y223224D01*
X180821Y223158D01*
X180872Y223091D01*
X180929Y223024D01*
X180993Y222957D01*
X180429Y222390D01*
X180361Y222454D01*
X180294Y222512D01*
X180227Y222562D01*
X180161Y222606D01*
X180095Y222643D01*
X180029Y222673D01*
X179963Y222696D01*
X179898Y222712D01*
X179833Y222722D01*
X179769Y222724D01*
X180658Y223617D01*
X180661Y223552D01*
D02*
G37*
G36*
X213674Y221053D02*
X213694Y220801D01*
X213705Y220733D01*
X213720Y220672D01*
X213737Y220619D01*
X213756Y220574D01*
X213778Y220537D01*
X213803Y220508D01*
X212543D01*
X212567Y220537D01*
X212590Y220574D01*
X212609Y220619D01*
X212626Y220672D01*
X212640Y220733D01*
X212652Y220801D01*
X212668Y220961D01*
X212671Y221053D01*
X212673Y221153D01*
X213673D01*
X213674Y221053D01*
D02*
G37*
G36*
X224161Y216827D02*
X224097Y216759D01*
X224040Y216692D01*
X223989Y216625D01*
X223945Y216559D01*
X223908Y216493D01*
X223878Y216427D01*
X223855Y216361D01*
X223839Y216296D01*
X223829Y216231D01*
X223826Y216166D01*
X222935Y217057D01*
X223000Y217060D01*
X223065Y217070D01*
X223130Y217086D01*
X223196Y217109D01*
X223261Y217140D01*
X223327Y217177D01*
X223394Y217220D01*
X223461Y217271D01*
X223528Y217328D01*
X223595Y217392D01*
X224161Y216827D01*
D02*
G37*
G36*
X96252Y210992D02*
X96230Y210954D01*
X96211Y210909D01*
X96194Y210857D01*
X96179Y210796D01*
X96168Y210728D01*
X96152Y210567D01*
X96148Y210475D01*
X96147Y210375D01*
X95147D01*
X95146Y210475D01*
X95126Y210728D01*
X95114Y210796D01*
X95100Y210857D01*
X95083Y210909D01*
X95064Y210954D01*
X95042Y210992D01*
X95017Y211021D01*
X96277D01*
X96252Y210992D01*
D02*
G37*
G36*
X281004Y225518D02*
Y212001D01*
X279009Y210006D01*
X263304D01*
X261340Y211969D01*
Y224939D01*
X262531Y226130D01*
X280393D01*
X281004Y225518D01*
D02*
G37*
G36*
X41153Y209683D02*
X41205Y209644D01*
X41263Y209609D01*
X41326Y209579D01*
X41394Y209554D01*
X41467Y209533D01*
X41545Y209517D01*
X41628Y209506D01*
X41716Y209499D01*
X41809Y209496D01*
Y208696D01*
X41716Y208694D01*
X41628Y208687D01*
X41545Y208676D01*
X41467Y208660D01*
X41394Y208639D01*
X41326Y208614D01*
X41263Y208584D01*
X41205Y208549D01*
X41153Y208510D01*
X41105Y208466D01*
Y209726D01*
X41153Y209683D01*
D02*
G37*
G36*
X218112Y206890D02*
X218114Y206797D01*
X218130Y206625D01*
X218144Y206546D01*
X218163Y206472D01*
X218185Y206402D01*
X218211Y206337D01*
X218242Y206278D01*
X218276Y206222D01*
X218315Y206172D01*
X217061Y206290D01*
X217108Y206334D01*
X217151Y206383D01*
X217189Y206437D01*
X217221Y206497D01*
X217249Y206563D01*
X217272Y206634D01*
X217289Y206711D01*
X217302Y206793D01*
X217309Y206881D01*
X217312Y206974D01*
X218112Y206890D01*
D02*
G37*
G36*
X122596Y205915D02*
X122532Y205913D01*
X122467Y205903D01*
X122401Y205887D01*
X122336Y205863D01*
X122270Y205833D01*
X122204Y205797D01*
X122137Y205753D01*
X122071Y205702D01*
X122003Y205645D01*
X121936Y205581D01*
X121370Y206146D01*
X121435Y206214D01*
X121492Y206281D01*
X121543Y206348D01*
X121586Y206414D01*
X121623Y206480D01*
X121653Y206546D01*
X121676Y206612D01*
X121693Y206677D01*
X121702Y206742D01*
X121705Y206806D01*
X122596Y205915D01*
D02*
G37*
G36*
X44202Y206387D02*
X44255Y206348D01*
X44313Y206313D01*
X44375Y206284D01*
X44443Y206258D01*
X44516Y206238D01*
X44594Y206222D01*
X44677Y206210D01*
X44765Y206203D01*
X44858Y206201D01*
Y205401D01*
X44765Y205399D01*
X44677Y205392D01*
X44594Y205380D01*
X44516Y205364D01*
X44443Y205343D01*
X44375Y205318D01*
X44313Y205288D01*
X44255Y205254D01*
X44202Y205215D01*
X44155Y205171D01*
Y206431D01*
X44202Y206387D01*
D02*
G37*
G36*
X218214Y204901D02*
X218175Y204848D01*
X218140Y204790D01*
X218110Y204728D01*
X218085Y204660D01*
X218064Y204587D01*
X218048Y204509D01*
X218037Y204426D01*
X218030Y204338D01*
X218027Y204245D01*
X217228D01*
X217225Y204338D01*
X217218Y204426D01*
X217207Y204509D01*
X217191Y204587D01*
X217170Y204660D01*
X217145Y204728D01*
X217115Y204790D01*
X217080Y204848D01*
X217041Y204901D01*
X216998Y204948D01*
X218257D01*
X218214Y204901D01*
D02*
G37*
G36*
X73440Y203141D02*
X73492Y203102D01*
X73550Y203067D01*
X73613Y203037D01*
X73681Y203012D01*
X73753Y202991D01*
X73831Y202975D01*
X73914Y202964D01*
X74002Y202957D01*
X74095Y202955D01*
Y202154D01*
X74002Y202152D01*
X73914Y202145D01*
X73831Y202134D01*
X73753Y202118D01*
X73681Y202097D01*
X73613Y202072D01*
X73550Y202042D01*
X73492Y202007D01*
X73440Y201968D01*
X73392Y201924D01*
Y203185D01*
X73440Y203141D01*
D02*
G37*
G36*
X68912Y202842D02*
X68922Y202777D01*
X68938Y202712D01*
X68961Y202646D01*
X68991Y202581D01*
X69028Y202514D01*
X69072Y202448D01*
X69122Y202381D01*
X69180Y202314D01*
X69244Y202247D01*
X68678Y201681D01*
X68611Y201745D01*
X68544Y201802D01*
X68477Y201853D01*
X68410Y201897D01*
X68344Y201934D01*
X68278Y201964D01*
X68213Y201987D01*
X68148Y202003D01*
X68083Y202013D01*
X68018Y202016D01*
X68909Y202907D01*
X68912Y202842D01*
D02*
G37*
G36*
X117113Y200189D02*
X117074Y200137D01*
X117040Y200079D01*
X117010Y200016D01*
X116985Y199949D01*
X116964Y199876D01*
X116948Y199798D01*
X116936Y199715D01*
X116929Y199627D01*
X116927Y199534D01*
X116127D01*
X116125Y199627D01*
X116118Y199715D01*
X116106Y199798D01*
X116090Y199876D01*
X116070Y199949D01*
X116044Y200016D01*
X116015Y200079D01*
X115980Y200137D01*
X115941Y200189D01*
X115897Y200237D01*
X117157D01*
X117113Y200189D01*
D02*
G37*
G36*
X209574Y199315D02*
X209581Y199227D01*
X209593Y199144D01*
X209609Y199066D01*
X209629Y198993D01*
X209655Y198925D01*
X209684Y198862D01*
X209719Y198805D01*
X209758Y198752D01*
X209802Y198704D01*
X208542D01*
X208586Y198752D01*
X208625Y198805D01*
X208659Y198862D01*
X208689Y198925D01*
X208714Y198993D01*
X208735Y199066D01*
X208751Y199144D01*
X208763Y199227D01*
X208769Y199315D01*
X208772Y199408D01*
X209572D01*
X209574Y199315D01*
D02*
G37*
G36*
X207139Y193017D02*
X207146Y192929D01*
X207157Y192846D01*
X207174Y192768D01*
X207194Y192695D01*
X207220Y192627D01*
X207249Y192564D01*
X207284Y192507D01*
X207323Y192454D01*
X207367Y192406D01*
X206107D01*
X206151Y192454D01*
X206190Y192507D01*
X206224Y192564D01*
X206254Y192627D01*
X206279Y192695D01*
X206300Y192768D01*
X206316Y192846D01*
X206328Y192929D01*
X206334Y193017D01*
X206337Y193110D01*
X207137D01*
X207139Y193017D01*
D02*
G37*
G36*
X123191Y192787D02*
X123198Y192699D01*
X123210Y192615D01*
X123226Y192538D01*
X123247Y192465D01*
X123272Y192397D01*
X123302Y192334D01*
X123336Y192276D01*
X123375Y192224D01*
X123419Y192176D01*
X122159D01*
X122203Y192224D01*
X122242Y192276D01*
X122276Y192334D01*
X122306Y192397D01*
X122332Y192465D01*
X122352Y192538D01*
X122368Y192615D01*
X122380Y192699D01*
X122387Y192787D01*
X122389Y192880D01*
X123189D01*
X123191Y192787D01*
D02*
G37*
G36*
X125751Y190859D02*
X125758Y190771D01*
X125769Y190688D01*
X125785Y190610D01*
X125806Y190537D01*
X125831Y190469D01*
X125861Y190407D01*
X125896Y190349D01*
X125935Y190296D01*
X125978Y190249D01*
X124718D01*
X124762Y190296D01*
X124801Y190349D01*
X124836Y190407D01*
X124866Y190469D01*
X124891Y190537D01*
X124912Y190610D01*
X124928Y190688D01*
X124939Y190771D01*
X124946Y190859D01*
X124948Y190952D01*
X125748D01*
X125751Y190859D01*
D02*
G37*
G36*
X171139Y189344D02*
X171091Y189387D01*
X171038Y189426D01*
X170981Y189461D01*
X170918Y189491D01*
X170850Y189516D01*
X170777Y189537D01*
X170699Y189553D01*
X170616Y189564D01*
X170528Y189571D01*
X170435Y189574D01*
Y190374D01*
X170528Y190376D01*
X170616Y190383D01*
X170699Y190394D01*
X170777Y190410D01*
X170850Y190431D01*
X170918Y190456D01*
X170981Y190486D01*
X171038Y190521D01*
X171091Y190560D01*
X171139Y190603D01*
Y189344D01*
D02*
G37*
G36*
X167614Y187179D02*
X167567Y187223D01*
X167514Y187262D01*
X167456Y187297D01*
X167394Y187327D01*
X167326Y187352D01*
X167253Y187373D01*
X167175Y187389D01*
X167092Y187400D01*
X167004Y187407D01*
X166911Y187409D01*
Y188209D01*
X167004Y188212D01*
X167092Y188219D01*
X167175Y188230D01*
X167253Y188246D01*
X167326Y188267D01*
X167394Y188292D01*
X167456Y188322D01*
X167514Y188357D01*
X167567Y188396D01*
X167614Y188439D01*
Y187179D01*
D02*
G37*
G36*
X208754Y187475D02*
X208689Y187472D01*
X208624Y187463D01*
X208559Y187446D01*
X208493Y187423D01*
X208428Y187393D01*
X208362Y187356D01*
X208295Y187312D01*
X208228Y187262D01*
X208161Y187204D01*
X208094Y187140D01*
X207528Y187706D01*
X207592Y187773D01*
X207649Y187840D01*
X207700Y187907D01*
X207744Y187974D01*
X207781Y188040D01*
X207811Y188106D01*
X207834Y188171D01*
X207850Y188236D01*
X207860Y188301D01*
X207863Y188366D01*
X208754Y187475D01*
D02*
G37*
G36*
X209649Y182595D02*
X209601Y182639D01*
X209549Y182678D01*
X209491Y182712D01*
X209428Y182742D01*
X209360Y182767D01*
X209288Y182788D01*
X209210Y182804D01*
X209127Y182816D01*
X209039Y182823D01*
X208945Y182825D01*
Y183625D01*
X209039Y183627D01*
X209127Y183634D01*
X209210Y183645D01*
X209288Y183662D01*
X209360Y183682D01*
X209428Y183708D01*
X209491Y183738D01*
X209549Y183772D01*
X209601Y183811D01*
X209649Y183855D01*
Y182595D01*
D02*
G37*
G36*
X201327Y178249D02*
X201394Y178191D01*
X201461Y178141D01*
X201527Y178097D01*
X201593Y178060D01*
X201659Y178030D01*
X201725Y178007D01*
X201790Y177991D01*
X201855Y177981D01*
X201919Y177978D01*
X201028Y177087D01*
X201026Y177152D01*
X201016Y177217D01*
X201000Y177282D01*
X200976Y177348D01*
X200946Y177413D01*
X200909Y177480D01*
X200866Y177546D01*
X200815Y177613D01*
X200758Y177680D01*
X200693Y177747D01*
X201259Y178313D01*
X201327Y178249D01*
D02*
G37*
G36*
X151860Y176732D02*
X151812Y176776D01*
X151759Y176815D01*
X151702Y176849D01*
X151639Y176879D01*
X151571Y176905D01*
X151498Y176925D01*
X151420Y176941D01*
X151337Y176953D01*
X151249Y176960D01*
X151156Y176962D01*
Y177762D01*
X151249Y177764D01*
X151337Y177771D01*
X151420Y177783D01*
X151498Y177799D01*
X151571Y177820D01*
X151639Y177845D01*
X151702Y177875D01*
X151759Y177909D01*
X151812Y177948D01*
X151860Y177992D01*
Y176732D01*
D02*
G37*
G36*
X347474Y176687D02*
X347481Y176599D01*
X347492Y176516D01*
X347508Y176438D01*
X347529Y176365D01*
X347554Y176297D01*
X347584Y176234D01*
X347619Y176177D01*
X347658Y176124D01*
X347701Y176076D01*
X346441D01*
X346485Y176124D01*
X346524Y176177D01*
X346559Y176234D01*
X346589Y176297D01*
X346614Y176365D01*
X346635Y176438D01*
X346651Y176516D01*
X346662Y176599D01*
X346669Y176687D01*
X346671Y176780D01*
X347471D01*
X347474Y176687D01*
D02*
G37*
G36*
X206052Y176648D02*
X206054Y176555D01*
X206070Y176383D01*
X206083Y176304D01*
X206101Y176229D01*
X206123Y176160D01*
X206148Y176095D01*
X206178Y176034D01*
X206211Y175979D01*
X206249Y175928D01*
X204997Y176071D01*
X205045Y176114D01*
X205089Y176162D01*
X205127Y176216D01*
X205160Y176275D01*
X205188Y176340D01*
X205211Y176411D01*
X205229Y176488D01*
X205242Y176570D01*
X205249Y176657D01*
X205252Y176751D01*
X206052Y176648D01*
D02*
G37*
G36*
X176363Y174430D02*
X176298Y174427D01*
X176233Y174417D01*
X176168Y174401D01*
X176102Y174378D01*
X176037Y174348D01*
X175970Y174311D01*
X175904Y174267D01*
X175837Y174217D01*
X175770Y174159D01*
X175703Y174095D01*
X175137Y174661D01*
X175201Y174728D01*
X175259Y174795D01*
X175309Y174862D01*
X175353Y174929D01*
X175390Y174995D01*
X175420Y175061D01*
X175443Y175126D01*
X175459Y175191D01*
X175469Y175256D01*
X175472Y175321D01*
X176363Y174430D01*
D02*
G37*
G36*
X188098Y174316D02*
X188059Y174263D01*
X188024Y174206D01*
X187994Y174143D01*
X187969Y174075D01*
X187948Y174002D01*
X187932Y173924D01*
X187921Y173841D01*
X187914Y173753D01*
X187911Y173660D01*
X187111D01*
X187109Y173753D01*
X187102Y173841D01*
X187091Y173924D01*
X187075Y174002D01*
X187054Y174075D01*
X187029Y174143D01*
X186999Y174206D01*
X186964Y174263D01*
X186925Y174316D01*
X186881Y174364D01*
X188141D01*
X188098Y174316D01*
D02*
G37*
G36*
X165897Y173574D02*
X165850Y173618D01*
X165797Y173657D01*
X165739Y173691D01*
X165676Y173721D01*
X165609Y173746D01*
X165536Y173767D01*
X165458Y173783D01*
X165375Y173795D01*
X165287Y173802D01*
X165194Y173804D01*
Y174604D01*
X165287Y174606D01*
X165375Y174613D01*
X165458Y174625D01*
X165536Y174641D01*
X165609Y174661D01*
X165676Y174687D01*
X165739Y174717D01*
X165797Y174751D01*
X165850Y174790D01*
X165897Y174834D01*
Y173574D01*
D02*
G37*
G36*
X165434Y170424D02*
X165387Y170468D01*
X165334Y170507D01*
X165276Y170541D01*
X165214Y170571D01*
X165146Y170597D01*
X165073Y170617D01*
X164995Y170633D01*
X164912Y170645D01*
X164824Y170652D01*
X164731Y170654D01*
Y171454D01*
X164824Y171456D01*
X164912Y171463D01*
X164995Y171475D01*
X165073Y171491D01*
X165146Y171512D01*
X165214Y171537D01*
X165276Y171567D01*
X165334Y171601D01*
X165387Y171640D01*
X165434Y171684D01*
Y170424D01*
D02*
G37*
G36*
X156619Y168220D02*
X156571Y168264D01*
X156519Y168303D01*
X156461Y168337D01*
X156398Y168367D01*
X156331Y168393D01*
X156258Y168413D01*
X156180Y168429D01*
X156097Y168441D01*
X156009Y168448D01*
X155916Y168450D01*
Y169250D01*
X156009Y169252D01*
X156097Y169259D01*
X156180Y169271D01*
X156258Y169287D01*
X156331Y169307D01*
X156398Y169333D01*
X156461Y169363D01*
X156519Y169397D01*
X156571Y169436D01*
X156619Y169480D01*
Y168220D01*
D02*
G37*
G36*
X210696Y163294D02*
X210657Y163241D01*
X210622Y163183D01*
X210592Y163120D01*
X210567Y163052D01*
X210546Y162980D01*
X210530Y162902D01*
X210519Y162819D01*
X210512Y162731D01*
X210509Y162638D01*
X209709D01*
X209707Y162731D01*
X209700Y162819D01*
X209689Y162902D01*
X209673Y162980D01*
X209652Y163052D01*
X209627Y163120D01*
X209597Y163183D01*
X209562Y163241D01*
X209523Y163294D01*
X209479Y163341D01*
X210739D01*
X210696Y163294D01*
D02*
G37*
G36*
X163745Y161498D02*
X163798Y161459D01*
X163856Y161425D01*
X163918Y161395D01*
X163986Y161370D01*
X164059Y161349D01*
X164137Y161333D01*
X164220Y161321D01*
X164308Y161314D01*
X164401Y161312D01*
Y160512D01*
X164308Y160510D01*
X164220Y160503D01*
X164137Y160492D01*
X164059Y160475D01*
X163986Y160455D01*
X163918Y160429D01*
X163856Y160399D01*
X163798Y160365D01*
X163745Y160326D01*
X163698Y160282D01*
Y161542D01*
X163745Y161498D01*
D02*
G37*
G36*
X208906Y154549D02*
X208865Y154598D01*
X208818Y154643D01*
X208766Y154682D01*
X208707Y154716D01*
X208643Y154745D01*
X208573Y154768D01*
X208497Y154787D01*
X208416Y154799D01*
X208328Y154807D01*
X208235Y154810D01*
X208369Y155610D01*
X208462Y155612D01*
X208634Y155627D01*
X208714Y155640D01*
X208788Y155656D01*
X208858Y155677D01*
X208924Y155701D01*
X208984Y155728D01*
X209040Y155760D01*
X209091Y155795D01*
X208906Y154549D01*
D02*
G37*
G36*
X209652Y150764D02*
X209604Y150808D01*
X209552Y150847D01*
X209494Y150882D01*
X209431Y150911D01*
X209363Y150937D01*
X209291Y150957D01*
X209213Y150973D01*
X209130Y150985D01*
X209042Y150992D01*
X208948Y150994D01*
Y151794D01*
X209042Y151796D01*
X209130Y151803D01*
X209213Y151815D01*
X209291Y151831D01*
X209363Y151852D01*
X209431Y151877D01*
X209494Y151907D01*
X209552Y151941D01*
X209604Y151980D01*
X209652Y152024D01*
Y150764D01*
D02*
G37*
G36*
X209086Y146659D02*
X209153Y146602D01*
X209220Y146551D01*
X209287Y146508D01*
X209353Y146471D01*
X209419Y146441D01*
X209484Y146417D01*
X209549Y146401D01*
X209614Y146391D01*
X209679Y146389D01*
X208788Y145498D01*
X208785Y145562D01*
X208776Y145627D01*
X208759Y145692D01*
X208736Y145758D01*
X208706Y145824D01*
X208669Y145890D01*
X208625Y145956D01*
X208575Y146023D01*
X208517Y146090D01*
X208453Y146158D01*
X209019Y146723D01*
X209086Y146659D01*
D02*
G37*
G36*
X209158Y142883D02*
X209225Y142826D01*
X209292Y142775D01*
X209358Y142732D01*
X209424Y142695D01*
X209490Y142665D01*
X209556Y142641D01*
X209621Y142625D01*
X209686Y142615D01*
X209751Y142613D01*
X208859Y141722D01*
X208857Y141786D01*
X208847Y141851D01*
X208831Y141917D01*
X208807Y141982D01*
X208777Y142048D01*
X208741Y142114D01*
X208697Y142181D01*
X208646Y142247D01*
X208589Y142314D01*
X208525Y142382D01*
X209090Y142948D01*
X209158Y142883D01*
D02*
G37*
G36*
X286683Y140835D02*
X286750Y140778D01*
X286817Y140727D01*
X286883Y140684D01*
X286950Y140647D01*
X287015Y140617D01*
X287081Y140594D01*
X287146Y140577D01*
X287211Y140568D01*
X287276Y140565D01*
X286385Y139674D01*
X286382Y139738D01*
X286372Y139803D01*
X286356Y139868D01*
X286333Y139934D01*
X286303Y140000D01*
X286266Y140066D01*
X286222Y140132D01*
X286171Y140199D01*
X286114Y140267D01*
X286050Y140334D01*
X286615Y140900D01*
X286683Y140835D01*
D02*
G37*
G36*
X296686Y140658D02*
X296753Y140601D01*
X296820Y140550D01*
X296886Y140506D01*
X296952Y140469D01*
X297018Y140439D01*
X297084Y140416D01*
X297149Y140400D01*
X297214Y140390D01*
X297278Y140387D01*
X296387Y139496D01*
X296385Y139561D01*
X296375Y139626D01*
X296359Y139691D01*
X296335Y139756D01*
X296305Y139822D01*
X296268Y139889D01*
X296225Y139955D01*
X296174Y140022D01*
X296117Y140089D01*
X296053Y140156D01*
X296618Y140722D01*
X296686Y140658D01*
D02*
G37*
G36*
X80831Y139084D02*
X80841Y139019D01*
X80857Y138954D01*
X80881Y138888D01*
X80911Y138822D01*
X80948Y138756D01*
X80991Y138690D01*
X81042Y138623D01*
X81099Y138556D01*
X81163Y138488D01*
X80598Y137923D01*
X80530Y137987D01*
X80463Y138044D01*
X80396Y138095D01*
X80330Y138139D01*
X80264Y138175D01*
X80198Y138206D01*
X80132Y138229D01*
X80067Y138245D01*
X80002Y138255D01*
X79938Y138258D01*
X80828Y139148D01*
X80831Y139084D01*
D02*
G37*
G36*
X277276Y138253D02*
X277212Y138251D01*
X277147Y138241D01*
X277082Y138224D01*
X277016Y138201D01*
X276950Y138171D01*
X276884Y138134D01*
X276818Y138091D01*
X276751Y138040D01*
X276684Y137983D01*
X276616Y137918D01*
X276051Y138484D01*
X276115Y138551D01*
X276172Y138619D01*
X276223Y138686D01*
X276267Y138752D01*
X276303Y138818D01*
X276333Y138884D01*
X276357Y138950D01*
X276373Y139015D01*
X276383Y139080D01*
X276385Y139144D01*
X277276Y138253D01*
D02*
G37*
G36*
X61466Y285852D02*
Y221984D01*
X56546Y217064D01*
X39668D01*
X36723Y214119D01*
Y202338D01*
X50995Y188066D01*
X50995Y153495D01*
X48000Y150500D01*
Y146000D01*
X47000Y145000D01*
Y136000D01*
X46500Y135500D01*
X33000D01*
X33000Y135500D01*
X-5634Y135500D01*
X-14313Y144179D01*
Y258049D01*
X-7887Y264475D01*
X11580D01*
X34479Y287374D01*
X59943D01*
X61466Y285852D01*
D02*
G37*
G36*
X76856Y136519D02*
X76865Y136454D01*
X76882Y136389D01*
X76905Y136323D01*
X76935Y136257D01*
X76972Y136191D01*
X77016Y136125D01*
X77066Y136058D01*
X77123Y135991D01*
X77188Y135923D01*
X76622Y135357D01*
X76555Y135422D01*
X76487Y135479D01*
X76420Y135529D01*
X76354Y135573D01*
X76288Y135610D01*
X76222Y135640D01*
X76157Y135663D01*
X76091Y135680D01*
X76026Y135689D01*
X75962Y135692D01*
X76853Y136583D01*
X76856Y136519D01*
D02*
G37*
G36*
X269585Y135064D02*
X269637Y135025D01*
X269695Y134991D01*
X269758Y134961D01*
X269826Y134935D01*
X269899Y134915D01*
X269976Y134899D01*
X270059Y134887D01*
X270147Y134880D01*
X270241Y134878D01*
Y134078D01*
X270147Y134076D01*
X270059Y134069D01*
X269976Y134057D01*
X269899Y134041D01*
X269826Y134020D01*
X269758Y133995D01*
X269695Y133965D01*
X269637Y133931D01*
X269585Y133892D01*
X269537Y133848D01*
Y135108D01*
X269585Y135064D01*
D02*
G37*
G36*
X209832Y134817D02*
X209899Y134759D01*
X209966Y134709D01*
X210032Y134665D01*
X210098Y134628D01*
X210164Y134598D01*
X210230Y134575D01*
X210295Y134558D01*
X210360Y134549D01*
X210424Y134546D01*
X209533Y133655D01*
X209531Y133720D01*
X209521Y133785D01*
X209505Y133850D01*
X209481Y133915D01*
X209451Y133981D01*
X209415Y134047D01*
X209371Y134114D01*
X209320Y134181D01*
X209263Y134248D01*
X209199Y134315D01*
X209764Y134881D01*
X209832Y134817D01*
D02*
G37*
G36*
X263720Y132595D02*
X263727Y132507D01*
X263738Y132423D01*
X263755Y132346D01*
X263775Y132273D01*
X263801Y132205D01*
X263830Y132142D01*
X263865Y132084D01*
X263904Y132032D01*
X263948Y131984D01*
X262688D01*
X262731Y132032D01*
X262771Y132084D01*
X262805Y132142D01*
X262835Y132205D01*
X262860Y132273D01*
X262881Y132346D01*
X262897Y132423D01*
X262909Y132507D01*
X262915Y132595D01*
X262918Y132688D01*
X263718D01*
X263720Y132595D01*
D02*
G37*
G36*
X267287Y132395D02*
X267294Y132307D01*
X267305Y132224D01*
X267322Y132146D01*
X267342Y132073D01*
X267368Y132005D01*
X267397Y131942D01*
X267432Y131885D01*
X267471Y131832D01*
X267515Y131784D01*
X266255D01*
X266299Y131832D01*
X266338Y131885D01*
X266372Y131942D01*
X266402Y132005D01*
X266427Y132073D01*
X266448Y132146D01*
X266464Y132224D01*
X266476Y132307D01*
X266482Y132395D01*
X266485Y132488D01*
X267285D01*
X267287Y132395D01*
D02*
G37*
G36*
X209181Y129680D02*
X209134Y129724D01*
X209081Y129763D01*
X209023Y129797D01*
X208960Y129827D01*
X208892Y129852D01*
X208820Y129873D01*
X208742Y129889D01*
X208659Y129901D01*
X208571Y129907D01*
X208478Y129910D01*
Y130710D01*
X208571Y130712D01*
X208659Y130719D01*
X208742Y130730D01*
X208820Y130747D01*
X208892Y130767D01*
X208960Y130793D01*
X209023Y130823D01*
X209081Y130857D01*
X209134Y130896D01*
X209181Y130940D01*
Y129680D01*
D02*
G37*
G36*
X209138Y121564D02*
X209091Y121607D01*
X209038Y121646D01*
X208980Y121681D01*
X208917Y121711D01*
X208850Y121736D01*
X208777Y121757D01*
X208699Y121773D01*
X208616Y121784D01*
X208528Y121791D01*
X208435Y121794D01*
Y122594D01*
X208528Y122596D01*
X208616Y122603D01*
X208699Y122614D01*
X208777Y122630D01*
X208850Y122651D01*
X208917Y122676D01*
X208980Y122706D01*
X209038Y122741D01*
X209091Y122780D01*
X209138Y122824D01*
Y121564D01*
D02*
G37*
G36*
X125907Y121253D02*
X125917Y121188D01*
X125933Y121123D01*
X125956Y121057D01*
X125986Y120992D01*
X126023Y120925D01*
X126067Y120859D01*
X126118Y120792D01*
X126175Y120725D01*
X126239Y120658D01*
X125673Y120092D01*
X125606Y120156D01*
X125539Y120213D01*
X125472Y120264D01*
X125406Y120308D01*
X125339Y120345D01*
X125274Y120375D01*
X125208Y120398D01*
X125143Y120414D01*
X125078Y120424D01*
X125013Y120427D01*
X125904Y121318D01*
X125907Y121253D01*
D02*
G37*
G36*
X208879Y117059D02*
X208831Y117103D01*
X208779Y117142D01*
X208721Y117176D01*
X208658Y117206D01*
X208590Y117232D01*
X208517Y117252D01*
X208439Y117268D01*
X208356Y117280D01*
X208268Y117287D01*
X208175Y117289D01*
Y118089D01*
X208268Y118091D01*
X208356Y118098D01*
X208439Y118110D01*
X208517Y118126D01*
X208590Y118147D01*
X208658Y118172D01*
X208721Y118202D01*
X208779Y118236D01*
X208831Y118275D01*
X208879Y118319D01*
Y117059D01*
D02*
G37*
G36*
X104207Y116751D02*
X104159Y116794D01*
X104106Y116833D01*
X104049Y116868D01*
X103986Y116898D01*
X103918Y116923D01*
X103845Y116944D01*
X103767Y116960D01*
X103684Y116971D01*
X103596Y116978D01*
X103503Y116981D01*
Y117780D01*
X103596Y117783D01*
X103684Y117790D01*
X103767Y117801D01*
X103845Y117817D01*
X103918Y117838D01*
X103986Y117863D01*
X104049Y117893D01*
X104106Y117928D01*
X104159Y117967D01*
X104207Y118010D01*
Y116751D01*
D02*
G37*
G36*
X103120Y112993D02*
X103073Y113037D01*
X103020Y113076D01*
X102962Y113111D01*
X102900Y113141D01*
X102832Y113166D01*
X102759Y113187D01*
X102681Y113203D01*
X102598Y113214D01*
X102510Y113221D01*
X102417Y113223D01*
Y114023D01*
X102510Y114026D01*
X102598Y114033D01*
X102681Y114044D01*
X102759Y114060D01*
X102832Y114081D01*
X102900Y114106D01*
X102962Y114136D01*
X103020Y114171D01*
X103073Y114210D01*
X103120Y114253D01*
Y112993D01*
D02*
G37*
G36*
X454999Y139539D02*
Y112831D01*
X451820Y109652D01*
X378323D01*
X377194Y110780D01*
X377194Y136814D01*
X377861Y137481D01*
X403201D01*
X408831Y143111D01*
X451427D01*
X454999Y139539D01*
D02*
G37*
G36*
X101261Y109126D02*
X101197Y109058D01*
X101139Y108991D01*
X101089Y108925D01*
X101045Y108858D01*
X101008Y108792D01*
X100978Y108726D01*
X100955Y108661D01*
X100938Y108595D01*
X100929Y108530D01*
X100926Y108466D01*
X100035Y109357D01*
X100100Y109360D01*
X100164Y109369D01*
X100230Y109386D01*
X100295Y109409D01*
X100361Y109439D01*
X100427Y109476D01*
X100494Y109520D01*
X100560Y109570D01*
X100628Y109627D01*
X100695Y109692D01*
X101261Y109126D01*
D02*
G37*
G36*
X173478Y106285D02*
X173485Y106197D01*
X173496Y106114D01*
X173512Y106036D01*
X173533Y105963D01*
X173558Y105895D01*
X173588Y105832D01*
X173623Y105775D01*
X173662Y105722D01*
X173706Y105674D01*
X172446D01*
X172489Y105722D01*
X172528Y105775D01*
X172563Y105832D01*
X172593Y105895D01*
X172618Y105963D01*
X172639Y106036D01*
X172655Y106114D01*
X172666Y106197D01*
X172673Y106285D01*
X172676Y106378D01*
X173476D01*
X173478Y106285D01*
D02*
G37*
G36*
X169378D02*
X169385Y106197D01*
X169396Y106114D01*
X169412Y106036D01*
X169433Y105963D01*
X169458Y105895D01*
X169488Y105832D01*
X169523Y105775D01*
X169562Y105722D01*
X169606Y105674D01*
X168346D01*
X168389Y105722D01*
X168428Y105775D01*
X168463Y105832D01*
X168493Y105895D01*
X168518Y105963D01*
X168539Y106036D01*
X168555Y106114D01*
X168566Y106197D01*
X168573Y106285D01*
X168576Y106378D01*
X169376D01*
X169378Y106285D01*
D02*
G37*
G36*
X165278D02*
X165285Y106197D01*
X165296Y106114D01*
X165312Y106036D01*
X165333Y105963D01*
X165358Y105895D01*
X165388Y105832D01*
X165423Y105775D01*
X165462Y105722D01*
X165506Y105674D01*
X164246D01*
X164289Y105722D01*
X164328Y105775D01*
X164363Y105832D01*
X164393Y105895D01*
X164418Y105963D01*
X164439Y106036D01*
X164455Y106114D01*
X164466Y106197D01*
X164473Y106285D01*
X164476Y106378D01*
X165276D01*
X165278Y106285D01*
D02*
G37*
G36*
X161178D02*
X161185Y106197D01*
X161196Y106114D01*
X161212Y106036D01*
X161233Y105963D01*
X161258Y105895D01*
X161288Y105832D01*
X161323Y105775D01*
X161362Y105722D01*
X161406Y105674D01*
X160146D01*
X160189Y105722D01*
X160228Y105775D01*
X160263Y105832D01*
X160293Y105895D01*
X160318Y105963D01*
X160339Y106036D01*
X160355Y106114D01*
X160366Y106197D01*
X160373Y106285D01*
X160376Y106378D01*
X161176D01*
X161178Y106285D01*
D02*
G37*
G36*
X137403Y105234D02*
X137338Y105231D01*
X137273Y105221D01*
X137208Y105205D01*
X137142Y105182D01*
X137076Y105151D01*
X137010Y105114D01*
X136944Y105071D01*
X136877Y105020D01*
X136810Y104963D01*
X136742Y104899D01*
X136177Y105464D01*
X136241Y105532D01*
X136298Y105599D01*
X136349Y105666D01*
X136393Y105732D01*
X136430Y105798D01*
X136460Y105864D01*
X136483Y105930D01*
X136499Y105995D01*
X136509Y106060D01*
X136512Y106124D01*
X137403Y105234D01*
D02*
G37*
G36*
X156842Y105114D02*
X156849Y105026D01*
X156860Y104943D01*
X156876Y104866D01*
X156897Y104793D01*
X156922Y104725D01*
X156952Y104662D01*
X156987Y104604D01*
X157026Y104552D01*
X157069Y104504D01*
X155809D01*
X155853Y104552D01*
X155892Y104604D01*
X155927Y104662D01*
X155957Y104725D01*
X155982Y104793D01*
X156003Y104866D01*
X156019Y104943D01*
X156030Y105026D01*
X156037Y105114D01*
X156039Y105208D01*
X156839D01*
X156842Y105114D01*
D02*
G37*
G36*
X152905Y105007D02*
X152912Y104919D01*
X152923Y104835D01*
X152939Y104758D01*
X152960Y104685D01*
X152985Y104617D01*
X153015Y104554D01*
X153050Y104496D01*
X153089Y104444D01*
X153132Y104396D01*
X151872D01*
X151916Y104444D01*
X151955Y104496D01*
X151990Y104554D01*
X152020Y104617D01*
X152045Y104685D01*
X152066Y104758D01*
X152082Y104835D01*
X152093Y104919D01*
X152100Y105007D01*
X152102Y105100D01*
X152902D01*
X152905Y105007D01*
D02*
G37*
G36*
X51494Y124505D02*
Y100005D01*
X51500Y100000D01*
X50000Y98500D01*
X43500D01*
X42000Y100000D01*
Y113500D01*
X40500Y115000D01*
X33500D01*
X32000Y116500D01*
Y124500D01*
X34000Y126500D01*
X49500D01*
X51494Y124505D01*
D02*
G37*
G36*
X101035Y97975D02*
X101037Y97881D01*
X101050Y97708D01*
X101061Y97629D01*
X101093Y97484D01*
X101114Y97418D01*
X101138Y97358D01*
X101165Y97302D01*
X101196Y97250D01*
X99965Y97518D01*
X100016Y97555D01*
X100062Y97599D01*
X100103Y97648D01*
X100138Y97704D01*
X100168Y97767D01*
X100192Y97835D01*
X100211Y97910D01*
X100224Y97991D01*
X100232Y98078D01*
X100235Y98172D01*
X101035Y97975D01*
D02*
G37*
G36*
X234070Y91917D02*
X234006Y91849D01*
X233948Y91782D01*
X233898Y91716D01*
X233854Y91649D01*
X233817Y91583D01*
X233787Y91517D01*
X233764Y91452D01*
X233748Y91386D01*
X233738Y91321D01*
X233735Y91257D01*
X232844Y92148D01*
X232909Y92150D01*
X232974Y92160D01*
X233039Y92177D01*
X233104Y92200D01*
X233170Y92230D01*
X233237Y92267D01*
X233303Y92311D01*
X233370Y92361D01*
X233437Y92418D01*
X233504Y92483D01*
X234070Y91917D01*
D02*
G37*
G36*
X196994Y84350D02*
X196955Y84298D01*
X196920Y84240D01*
X196890Y84177D01*
X196865Y84109D01*
X196844Y84036D01*
X196828Y83958D01*
X196817Y83875D01*
X196810Y83787D01*
X196808Y83694D01*
X196008D01*
X196005Y83787D01*
X195998Y83875D01*
X195987Y83958D01*
X195971Y84036D01*
X195950Y84109D01*
X195925Y84177D01*
X195895Y84240D01*
X195860Y84298D01*
X195821Y84350D01*
X195778Y84398D01*
X197038D01*
X196994Y84350D01*
D02*
G37*
G36*
X132443Y81477D02*
X132379Y81410D01*
X132321Y81343D01*
X132271Y81276D01*
X132227Y81209D01*
X132190Y81143D01*
X132160Y81077D01*
X132137Y81012D01*
X132120Y80947D01*
X132111Y80882D01*
X132108Y80817D01*
X131217Y81708D01*
X131282Y81711D01*
X131346Y81721D01*
X131412Y81737D01*
X131477Y81760D01*
X131543Y81790D01*
X131609Y81827D01*
X131676Y81871D01*
X131743Y81921D01*
X131810Y81979D01*
X131877Y82043D01*
X132443Y81477D01*
D02*
G37*
G36*
X136531Y80971D02*
X136467Y80903D01*
X136409Y80836D01*
X136359Y80769D01*
X136315Y80703D01*
X136278Y80636D01*
X136248Y80571D01*
X136225Y80505D01*
X136209Y80440D01*
X136199Y80375D01*
X136196Y80310D01*
X135305Y81201D01*
X135370Y81204D01*
X135435Y81214D01*
X135500Y81230D01*
X135565Y81253D01*
X135631Y81283D01*
X135697Y81320D01*
X135764Y81364D01*
X135831Y81415D01*
X135898Y81472D01*
X135965Y81536D01*
X136531Y80971D01*
D02*
G37*
G36*
X39000Y112500D02*
X40500Y111000D01*
Y105000D01*
X39000Y103500D01*
X29500D01*
X24500Y98500D01*
X24500Y82000D01*
X22500Y80000D01*
X14000D01*
X12500Y81500D01*
Y101136D01*
X23864Y112500D01*
X39000Y112500D01*
D02*
G37*
G36*
X1598Y95200D02*
Y80168D01*
X-214Y78355D01*
X-14807D01*
X-16206Y79754D01*
X-16206Y94524D01*
X-15091Y95639D01*
X1159D01*
X1598Y95200D01*
D02*
G37*
G36*
X139971Y74973D02*
X139932Y74921D01*
X139897Y74863D01*
X139867Y74800D01*
X139842Y74732D01*
X139822Y74659D01*
X139805Y74581D01*
X139794Y74498D01*
X139787Y74410D01*
X139785Y74317D01*
X138985D01*
X138982Y74410D01*
X138976Y74498D01*
X138964Y74581D01*
X138948Y74659D01*
X138927Y74732D01*
X138902Y74800D01*
X138872Y74863D01*
X138838Y74921D01*
X138798Y74973D01*
X138755Y75021D01*
X140015D01*
X139971Y74973D01*
D02*
G37*
G36*
X144215Y74973D02*
X144176Y74920D01*
X144141Y74863D01*
X144111Y74800D01*
X144086Y74732D01*
X144065Y74659D01*
X144049Y74581D01*
X144038Y74498D01*
X144031Y74410D01*
X144028Y74317D01*
X143228D01*
X143226Y74410D01*
X143219Y74498D01*
X143208Y74581D01*
X143192Y74659D01*
X143171Y74732D01*
X143146Y74800D01*
X143116Y74863D01*
X143081Y74920D01*
X143042Y74973D01*
X142998Y75021D01*
X144258D01*
X144215Y74973D01*
D02*
G37*
G36*
X374836Y232513D02*
Y104008D01*
X371605Y100777D01*
X337874D01*
X333121Y96025D01*
Y78361D01*
X334803Y76679D01*
Y70493D01*
X333919Y69609D01*
X312240D01*
X291826Y49196D01*
X229884D01*
X222589Y41901D01*
X191294D01*
X189648Y43547D01*
X189648Y52878D01*
X204214Y67444D01*
X204214Y77671D01*
X207775Y81232D01*
X215461D01*
X217735Y78957D01*
Y64863D01*
X220117Y62481D01*
X273207D01*
X285448Y74722D01*
X285448Y121052D01*
X287789Y123393D01*
X330415Y123393D01*
X356804Y149783D01*
Y232822D01*
X358690Y234708D01*
X372641D01*
X374836Y232513D01*
D02*
G37*
G36*
X145333Y60473D02*
X145400Y60415D01*
X145466Y60365D01*
X145533Y60321D01*
X145599Y60284D01*
X145665Y60254D01*
X145730Y60231D01*
X145796Y60214D01*
X145861Y60205D01*
X145925Y60202D01*
X145034Y59311D01*
X145031Y59376D01*
X145022Y59441D01*
X145005Y59506D01*
X144982Y59571D01*
X144952Y59637D01*
X144915Y59703D01*
X144871Y59770D01*
X144821Y59837D01*
X144764Y59904D01*
X144699Y59971D01*
X145265Y60537D01*
X145333Y60473D01*
D02*
G37*
G36*
X150293Y60384D02*
X150360Y60327D01*
X150427Y60276D01*
X150494Y60232D01*
X150560Y60196D01*
X150626Y60166D01*
X150691Y60142D01*
X150756Y60126D01*
X150821Y60116D01*
X150886Y60114D01*
X149995Y59223D01*
X149992Y59287D01*
X149983Y59352D01*
X149966Y59417D01*
X149943Y59483D01*
X149913Y59549D01*
X149876Y59615D01*
X149832Y59681D01*
X149782Y59748D01*
X149724Y59815D01*
X149660Y59883D01*
X150226Y60448D01*
X150293Y60384D01*
D02*
G37*
G36*
X83245Y124136D02*
Y54864D01*
X80753Y52373D01*
X57007Y52373D01*
X54500Y54880D01*
Y127500D01*
X57004Y130004D01*
X77376D01*
X83245Y124136D01*
D02*
G37*
G36*
X361452Y86284D02*
Y49536D01*
X358428Y46512D01*
X329410Y46512D01*
X328325Y47597D01*
X328325Y65438D01*
X330048Y67160D01*
X335881D01*
X337231Y68511D01*
Y75243D01*
X337838Y75850D01*
Y86367D01*
X339127Y87656D01*
X360081D01*
X361452Y86284D01*
D02*
G37*
G36*
X232439Y42841D02*
X232395Y42794D01*
X232356Y42741D01*
X232322Y42683D01*
X232292Y42620D01*
X232266Y42553D01*
X232246Y42480D01*
X232230Y42402D01*
X232218Y42319D01*
X232211Y42231D01*
X232209Y42138D01*
X231409Y42138D01*
X231407Y42231D01*
X231400Y42319D01*
X231388Y42402D01*
X231372Y42480D01*
X231351Y42553D01*
X231326Y42620D01*
X231296Y42683D01*
X231262Y42741D01*
X231223Y42794D01*
X231179Y42841D01*
X232439Y42841D01*
D02*
G37*
G36*
X148780Y36321D02*
X148791Y36256D01*
X148808Y36191D01*
X148832Y36126D01*
X148862Y36060D01*
X148900Y35994D01*
X148944Y35927D01*
X148994Y35861D01*
X149052Y35794D01*
X149116Y35726D01*
X148560Y35151D01*
X148493Y35215D01*
X148425Y35272D01*
X148359Y35322D01*
X148292Y35366D01*
X148226Y35402D01*
X148160Y35432D01*
X148094Y35454D01*
X148029Y35470D01*
X147964Y35479D01*
X147899Y35481D01*
X148776Y36385D01*
X148780Y36321D01*
D02*
G37*
G36*
X223554Y31749D02*
X223490Y31681D01*
X223432Y31614D01*
X223382Y31547D01*
X223338Y31481D01*
X223301Y31414D01*
X223271Y31349D01*
X223248Y31283D01*
X223232Y31218D01*
X223222Y31153D01*
X223219Y31088D01*
X222328Y31979D01*
X222393Y31982D01*
X222458Y31992D01*
X222523Y32008D01*
X222588Y32031D01*
X222654Y32061D01*
X222720Y32098D01*
X222787Y32142D01*
X222854Y32193D01*
X222921Y32250D01*
X222988Y32314D01*
X223554Y31749D01*
D02*
G37*
G36*
X202017Y38364D02*
Y33387D01*
X199267Y30637D01*
X176361D01*
X176006Y30992D01*
X176006Y31952D01*
Y33040D01*
X176290Y33324D01*
X182299D01*
X188752Y39777D01*
X200604D01*
X202017Y38364D01*
D02*
G37*
G36*
X205904Y37664D02*
X206272Y37296D01*
X206272Y22545D01*
X203638Y19910D01*
X178284D01*
X176228Y21965D01*
Y29346D01*
X176503Y29620D01*
X199329D01*
X202989Y33280D01*
Y37129D01*
X203524Y37664D01*
X205904Y37664D01*
D02*
G37*
G36*
X156974Y12970D02*
X156994Y12718D01*
X157005Y12650D01*
X157020Y12589D01*
X157037Y12536D01*
X157056Y12491D01*
X157078Y12454D01*
X157103Y12425D01*
X155843D01*
X155868Y12454D01*
X155890Y12491D01*
X155909Y12536D01*
X155926Y12589D01*
X155940Y12650D01*
X155952Y12718D01*
X155968Y12879D01*
X155972Y12970D01*
X155973Y13070D01*
X156973D01*
X156974Y12970D01*
D02*
G37*
G36*
X59729Y10081D02*
X59796Y10024D01*
X59863Y9973D01*
X59930Y9929D01*
X59996Y9893D01*
X60062Y9863D01*
X60127Y9839D01*
X60192Y9823D01*
X60257Y9813D01*
X60322Y9810D01*
X59431Y8920D01*
X59428Y8984D01*
X59419Y9049D01*
X59402Y9114D01*
X59379Y9180D01*
X59349Y9246D01*
X59312Y9312D01*
X59268Y9378D01*
X59218Y9445D01*
X59160Y9512D01*
X59096Y9580D01*
X59662Y10145D01*
X59729Y10081D01*
D02*
G37*
G36*
X81454Y9860D02*
X81521Y9803D01*
X81588Y9752D01*
X81655Y9708D01*
X81721Y9671D01*
X81787Y9641D01*
X81852Y9618D01*
X81918Y9602D01*
X81982Y9592D01*
X82047Y9589D01*
X81156Y8698D01*
X81153Y8763D01*
X81144Y8828D01*
X81127Y8893D01*
X81104Y8958D01*
X81074Y9024D01*
X81037Y9091D01*
X80993Y9157D01*
X80943Y9224D01*
X80885Y9291D01*
X80821Y9358D01*
X81387Y9924D01*
X81454Y9860D01*
D02*
G37*
G36*
X60917Y8220D02*
X60878Y8168D01*
X60844Y8110D01*
X60814Y8047D01*
X60788Y7979D01*
X60768Y7906D01*
X60752Y7828D01*
X60740Y7745D01*
X60733Y7657D01*
X60731Y7564D01*
X59931D01*
X59929Y7657D01*
X59922Y7745D01*
X59910Y7828D01*
X59894Y7906D01*
X59873Y7979D01*
X59848Y8047D01*
X59818Y8110D01*
X59784Y8168D01*
X59745Y8220D01*
X59701Y8268D01*
X60961D01*
X60917Y8220D01*
D02*
G37*
G36*
X82642Y7999D02*
X82603Y7946D01*
X82569Y7888D01*
X82539Y7826D01*
X82513Y7758D01*
X82493Y7685D01*
X82477Y7607D01*
X82465Y7524D01*
X82458Y7436D01*
X82456Y7343D01*
X81656D01*
X81654Y7436D01*
X81647Y7524D01*
X81635Y7607D01*
X81619Y7685D01*
X81598Y7758D01*
X81573Y7826D01*
X81543Y7888D01*
X81509Y7946D01*
X81470Y7999D01*
X81426Y8046D01*
X82686D01*
X82642Y7999D01*
D02*
G37*
G36*
X54105Y-3016D02*
X54127Y-3273D01*
X54165Y-3500D01*
X54217Y-3696D01*
X54285Y-3863D01*
X54367Y-3999D01*
X54465Y-4105D01*
X54577Y-4180D01*
X54705Y-4226D01*
X54847Y-4241D01*
X51847D01*
X51990Y-4226D01*
X52117Y-4180D01*
X52230Y-4105D01*
X52327Y-3999D01*
X52410Y-3863D01*
X52477Y-3696D01*
X52530Y-3500D01*
X52567Y-3273D01*
X52590Y-3016D01*
X52597Y-2729D01*
X54097D01*
X54105Y-3016D01*
D02*
G37*
G36*
X94106Y-3114D02*
X94132Y-3353D01*
X94175Y-3573D01*
X94235Y-3773D01*
X94312Y-3954D01*
X94406Y-4116D01*
X94518Y-4259D01*
X94646Y-4382D01*
X94792Y-4486D01*
X94955Y-4571D01*
X93347Y-6949D01*
X91740Y-4571D01*
X91903Y-4486D01*
X92048Y-4382D01*
X92177Y-4259D01*
X92289Y-4116D01*
X92383Y-3954D01*
X92460Y-3773D01*
X92520Y-3573D01*
X92563Y-3353D01*
X92589Y-3114D01*
X92597Y-2856D01*
X94097D01*
X94106Y-3114D01*
D02*
G37*
G36*
X51464Y-12227D02*
X51350Y-12142D01*
X51218Y-12095D01*
X51068Y-12088D01*
X50900Y-12119D01*
X50714Y-12190D01*
X50510Y-12299D01*
X50289Y-12448D01*
X50049Y-12635D01*
X49791Y-12861D01*
X49515Y-13127D01*
X48454Y-12066D01*
X48720Y-11790D01*
X49134Y-11293D01*
X49282Y-11071D01*
X49391Y-10867D01*
X49462Y-10681D01*
X49494Y-10513D01*
X49486Y-10363D01*
X49440Y-10232D01*
X49354Y-10118D01*
X51464Y-12227D01*
D02*
G37*
G36*
X96147Y-11090D02*
X95409Y-11872D01*
X95102Y-12247D01*
X94835Y-12611D01*
X94610Y-12963D01*
X94425Y-13305D01*
X94282Y-13636D01*
X94179Y-13956D01*
X94118Y-14265D01*
X94097Y-14563D01*
X92597D01*
X92577Y-14265D01*
X92515Y-13956D01*
X92413Y-13636D01*
X92269Y-13305D01*
X92085Y-12963D01*
X91859Y-12611D01*
X91593Y-12247D01*
X90937Y-11487D01*
X90547Y-11090D01*
X93347Y-6949D01*
X96147Y-11090D01*
D02*
G37*
G36*
X255156Y22202D02*
Y4152D01*
X259642Y-334D01*
Y-16408D01*
X259142Y-16508D01*
X259114Y-16438D01*
X258505Y-15644D01*
X257711Y-15035D01*
X256786Y-14652D01*
X255794Y-14522D01*
X254802Y-14652D01*
X253878Y-15035D01*
X253084Y-15644D01*
X252475Y-16438D01*
X252092Y-17363D01*
X251961Y-18355D01*
X252092Y-19347D01*
X252475Y-20271D01*
X253084Y-21065D01*
X253878Y-21674D01*
X254802Y-22057D01*
X255794Y-22187D01*
X256786Y-22057D01*
X257711Y-21674D01*
X258505Y-21065D01*
X259114Y-20271D01*
X259142Y-20201D01*
X259642Y-20301D01*
Y-35432D01*
X254565Y-40510D01*
X240156D01*
X239988Y-40039D01*
X240102Y-39945D01*
X240908Y-38963D01*
X241507Y-37843D01*
X241875Y-36627D01*
X242000Y-35362D01*
X241875Y-34098D01*
X241507Y-32882D01*
X240908Y-31762D01*
X240102Y-30779D01*
X239120Y-29974D01*
X237999Y-29375D01*
X236783Y-29006D01*
X235519Y-28881D01*
X234254Y-29006D01*
X233038Y-29375D01*
X231918Y-29974D01*
X230936Y-30779D01*
X230130Y-31762D01*
X229531Y-32882D01*
X229162Y-34098D01*
X229037Y-35362D01*
X229162Y-36627D01*
X229531Y-37843D01*
X230130Y-38963D01*
X230936Y-39945D01*
X231050Y-40039D01*
X230881Y-40510D01*
X105337Y-40510D01*
X97812Y-32984D01*
X97812Y-9737D01*
X97926Y-9461D01*
X98088Y-8234D01*
X97926Y-7007D01*
X97812Y-6730D01*
Y-3968D01*
X110560Y8781D01*
X205574Y8781D01*
X221538Y24745D01*
X252613D01*
X255156Y22202D01*
D02*
G37*
G36*
X44105Y-22701D02*
X44127Y-22958D01*
X44165Y-23185D01*
X44217Y-23381D01*
X44285Y-23548D01*
X44367Y-23684D01*
X44465Y-23790D01*
X44577Y-23865D01*
X44705Y-23911D01*
X44847Y-23926D01*
X41847D01*
X41990Y-23911D01*
X42117Y-23865D01*
X42230Y-23790D01*
X42327Y-23684D01*
X42410Y-23548D01*
X42477Y-23381D01*
X42530Y-23185D01*
X42567Y-22958D01*
X42590Y-22701D01*
X42597Y-22414D01*
X44097D01*
X44105Y-22701D01*
D02*
G37*
G36*
X88353Y-23974D02*
X88157Y-24199D01*
X87982Y-24461D01*
X87828Y-24760D01*
X87695Y-25095D01*
X87584Y-25468D01*
X87494Y-25876D01*
X87426Y-26322D01*
X87378Y-26804D01*
X87347Y-27879D01*
X83387Y-23919D01*
X83943Y-23914D01*
X84944Y-23841D01*
X85390Y-23772D01*
X85799Y-23682D01*
X86171Y-23571D01*
X86506Y-23438D01*
X86805Y-23285D01*
X87067Y-23110D01*
X87292Y-22913D01*
X88353Y-23974D01*
D02*
G37*
G36*
X382535Y41741D02*
X384224Y40051D01*
X384224Y9785D01*
X379628Y5189D01*
X363081D01*
X358384Y492D01*
X358384Y-30316D01*
X355679Y-33022D01*
X340458Y-33022D01*
X338383Y-30947D01*
X338384Y19521D01*
X335370Y22534D01*
X307779Y22534D01*
X285957Y712D01*
X274814D01*
X272693Y-1409D01*
Y-22268D01*
X271016Y-23945D01*
X264368D01*
X262912Y-22489D01*
X262912Y31432D01*
X273220Y41741D01*
X382535Y41741D01*
D02*
G37*
G36*
X333151Y18802D02*
Y-34759D01*
X335723Y-37330D01*
X343627D01*
X343922Y-37830D01*
X343594Y-38622D01*
X343448Y-39730D01*
X343594Y-40838D01*
X344022Y-41871D01*
X344702Y-42757D01*
X345589Y-43438D01*
X346621Y-43866D01*
X347730Y-44012D01*
X348838Y-43866D01*
X349870Y-43438D01*
X350757Y-42757D01*
X351437Y-41871D01*
X351865Y-40838D01*
X352011Y-39730D01*
X351865Y-38622D01*
X351537Y-37830D01*
X351832Y-37330D01*
X355743D01*
X363109Y-29965D01*
Y-1607D01*
X367437Y2721D01*
X377264D01*
X380821Y-836D01*
X380821Y-21401D01*
Y-44331D01*
X373813Y-51340D01*
X280971D01*
X274930Y-45299D01*
Y-4516D01*
X277493Y-1953D01*
X289827D01*
X312474Y20694D01*
X331259Y20694D01*
X333151Y18802D01*
D02*
G37*
G36*
X139393Y-207753D02*
Y-211830D01*
X137425D01*
Y-207739D01*
X133867Y-202101D01*
X136159D01*
X138451Y-205953D01*
X140686Y-202101D01*
X142950D01*
X139393Y-207753D01*
D02*
G37*
G36*
X110978Y-211830D02*
X109164D01*
X109150Y-204181D01*
X107238Y-211830D01*
X105340D01*
X103427Y-204181D01*
Y-211830D01*
X101614D01*
Y-202101D01*
X104552D01*
X106296Y-208751D01*
X108025Y-202101D01*
X110978D01*
Y-211830D01*
D02*
G37*
G36*
X52966Y-209229D02*
X49296D01*
Y-207359D01*
X52966D01*
Y-209229D01*
D02*
G37*
G36*
X157530Y-202115D02*
X157685D01*
X157840Y-202129D01*
X158022D01*
X158388Y-202171D01*
X158767Y-202213D01*
X159119Y-202283D01*
X159274Y-202326D01*
X159414Y-202368D01*
X159428D01*
X159442Y-202382D01*
X159527Y-202424D01*
X159653Y-202494D01*
X159822Y-202579D01*
X160005Y-202719D01*
X160188Y-202874D01*
X160370Y-203071D01*
X160539Y-203310D01*
Y-203324D01*
X160553Y-203338D01*
X160581Y-203380D01*
X160609Y-203422D01*
X160680Y-203563D01*
X160764Y-203746D01*
X160834Y-203971D01*
X160905Y-204224D01*
X160961Y-204519D01*
X160975Y-204828D01*
Y-204842D01*
Y-204870D01*
Y-204941D01*
X160961Y-205011D01*
Y-205109D01*
X160947Y-205208D01*
X160891Y-205461D01*
X160820Y-205756D01*
X160708Y-206051D01*
X160539Y-206361D01*
X160441Y-206501D01*
X160328Y-206642D01*
X160314Y-206656D01*
X160300Y-206670D01*
X160258Y-206712D01*
X160202Y-206754D01*
X160145Y-206811D01*
X160061Y-206881D01*
X159963Y-206951D01*
X159850Y-207022D01*
X159724Y-207106D01*
X159569Y-207176D01*
X159414Y-207246D01*
X159246Y-207317D01*
X159049Y-207387D01*
X158852Y-207443D01*
X158641Y-207500D01*
X158402Y-207542D01*
X158416D01*
X158430Y-207556D01*
X158514Y-207612D01*
X158627Y-207682D01*
X158767Y-207781D01*
X158936Y-207907D01*
X159105Y-208034D01*
X159288Y-208189D01*
X159442Y-208357D01*
X159457Y-208371D01*
X159527Y-208442D01*
X159611Y-208554D01*
X159738Y-208723D01*
X159906Y-208934D01*
X159991Y-209074D01*
X160089Y-209215D01*
X160202Y-209370D01*
X160314Y-209538D01*
X160441Y-209735D01*
X160567Y-209932D01*
X161762Y-211830D01*
X159400D01*
X157994Y-209721D01*
X157980Y-209707D01*
X157966Y-209665D01*
X157924Y-209609D01*
X157868Y-209538D01*
X157811Y-209454D01*
X157741Y-209342D01*
X157587Y-209117D01*
X157404Y-208863D01*
X157235Y-208639D01*
X157080Y-208428D01*
X157010Y-208357D01*
X156954Y-208287D01*
X156940Y-208273D01*
X156912Y-208245D01*
X156855Y-208189D01*
X156785Y-208118D01*
X156687Y-208062D01*
X156588Y-207992D01*
X156476Y-207936D01*
X156363Y-207879D01*
X156349D01*
X156307Y-207865D01*
X156237Y-207837D01*
X156124Y-207823D01*
X155984Y-207795D01*
X155815Y-207781D01*
X155618Y-207767D01*
X154985D01*
Y-211830D01*
X153017D01*
Y-202101D01*
X157404D01*
X157530Y-202115D01*
D02*
G37*
G36*
X151161Y-203746D02*
X145917D01*
Y-205897D01*
X150795D01*
Y-207542D01*
X145917D01*
Y-210185D01*
X151344D01*
Y-211830D01*
X143948D01*
Y-202101D01*
X151161D01*
Y-203746D01*
D02*
G37*
G36*
X133825Y-211830D02*
X131702D01*
X130858Y-209623D01*
X126950D01*
X126148Y-211830D01*
X124067D01*
X127836Y-202101D01*
X129916D01*
X133825Y-211830D01*
D02*
G37*
G36*
X118767Y-210185D02*
X123660D01*
Y-211830D01*
X116798D01*
Y-202171D01*
X118767D01*
Y-210185D01*
D02*
G37*
G36*
X89789Y-203746D02*
X86921D01*
Y-211830D01*
X84952D01*
Y-203746D01*
X82070D01*
Y-202101D01*
X89789D01*
Y-203746D01*
D02*
G37*
G36*
X81480D02*
X78611D01*
Y-211830D01*
X76643D01*
Y-203746D01*
X73761D01*
Y-202101D01*
X81480D01*
Y-203746D01*
D02*
G37*
G36*
X58590Y-202115D02*
X58871Y-202129D01*
X59152Y-202143D01*
X59420Y-202171D01*
X59659Y-202199D01*
X59687D01*
X59757Y-202213D01*
X59855Y-202241D01*
X59996Y-202283D01*
X60151Y-202340D01*
X60319Y-202410D01*
X60502Y-202494D01*
X60671Y-202607D01*
X60685Y-202621D01*
X60741Y-202663D01*
X60826Y-202733D01*
X60938Y-202818D01*
X61050Y-202944D01*
X61177Y-203085D01*
X61304Y-203239D01*
X61416Y-203422D01*
X61430Y-203450D01*
X61458Y-203507D01*
X61515Y-203619D01*
X61571Y-203760D01*
X61627Y-203928D01*
X61683Y-204111D01*
X61711Y-204336D01*
X61725Y-204561D01*
Y-204575D01*
Y-204589D01*
Y-204674D01*
X61711Y-204800D01*
X61683Y-204969D01*
X61627Y-205166D01*
X61571Y-205377D01*
X61472Y-205587D01*
X61346Y-205812D01*
X61332Y-205840D01*
X61276Y-205911D01*
X61191Y-206009D01*
X61093Y-206136D01*
X60952Y-206262D01*
X60783Y-206417D01*
X60587Y-206543D01*
X60362Y-206670D01*
X60376D01*
X60404Y-206684D01*
X60446Y-206698D01*
X60502Y-206712D01*
X60671Y-206783D01*
X60868Y-206881D01*
X61079Y-206993D01*
X61318Y-207148D01*
X61529Y-207331D01*
X61725Y-207556D01*
X61739Y-207584D01*
X61796Y-207668D01*
X61880Y-207795D01*
X61964Y-207964D01*
X62049Y-208189D01*
X62133Y-208428D01*
X62189Y-208709D01*
X62203Y-209018D01*
Y-209032D01*
Y-209046D01*
Y-209131D01*
X62189Y-209257D01*
X62161Y-209426D01*
X62133Y-209623D01*
X62077Y-209848D01*
X61993Y-210073D01*
X61894Y-210312D01*
X61880Y-210340D01*
X61838Y-210410D01*
X61768Y-210523D01*
X61669Y-210663D01*
X61557Y-210832D01*
X61402Y-210986D01*
X61247Y-211155D01*
X61050Y-211310D01*
X61022Y-211324D01*
X60952Y-211366D01*
X60840Y-211436D01*
X60685Y-211507D01*
X60488Y-211591D01*
X60263Y-211661D01*
X60010Y-211732D01*
X59729Y-211774D01*
X59673D01*
X59616Y-211788D01*
X59476D01*
X59377Y-211802D01*
X59110D01*
X58942Y-211816D01*
X58520D01*
X58281Y-211830D01*
X54063D01*
Y-202101D01*
X58337D01*
X58590Y-202115D01*
D02*
G37*
G36*
X47019Y-208245D02*
X48228D01*
Y-209876D01*
X47019D01*
Y-211830D01*
X45219D01*
Y-209876D01*
X41226D01*
Y-208259D01*
X45444Y-202058D01*
X47019D01*
Y-208245D01*
D02*
G37*
G36*
X35672Y-210185D02*
X40565D01*
Y-211830D01*
X33704D01*
Y-202171D01*
X35672D01*
Y-210185D01*
D02*
G37*
G36*
X95568Y-201932D02*
X95708D01*
X95891Y-201960D01*
X96102Y-201988D01*
X96341Y-202030D01*
X96594Y-202086D01*
X96861Y-202157D01*
X97143Y-202241D01*
X97424Y-202354D01*
X97719Y-202480D01*
X98000Y-202635D01*
X98281Y-202818D01*
X98549Y-203028D01*
X98802Y-203268D01*
X98816Y-203282D01*
X98858Y-203324D01*
X98928Y-203408D01*
X98998Y-203507D01*
X99097Y-203647D01*
X99209Y-203816D01*
X99322Y-204013D01*
X99448Y-204238D01*
X99575Y-204477D01*
X99687Y-204758D01*
X99800Y-205067D01*
X99898Y-205391D01*
X99983Y-205756D01*
X100039Y-206136D01*
X100081Y-206543D01*
X100095Y-206979D01*
Y-207008D01*
Y-207078D01*
X100081Y-207204D01*
Y-207373D01*
X100053Y-207570D01*
X100025Y-207795D01*
X99983Y-208062D01*
X99941Y-208329D01*
X99870Y-208624D01*
X99786Y-208934D01*
X99673Y-209243D01*
X99547Y-209552D01*
X99406Y-209848D01*
X99223Y-210143D01*
X99027Y-210424D01*
X98802Y-210691D01*
X98788Y-210705D01*
X98745Y-210748D01*
X98675Y-210818D01*
X98563Y-210902D01*
X98436Y-211000D01*
X98281Y-211113D01*
X98099Y-211226D01*
X97902Y-211352D01*
X97663Y-211479D01*
X97410Y-211591D01*
X97128Y-211703D01*
X96819Y-211802D01*
X96496Y-211886D01*
X96144Y-211957D01*
X95779Y-211999D01*
X95385Y-212013D01*
X95287D01*
X95174Y-211999D01*
X95034Y-211985D01*
X94851Y-211971D01*
X94640Y-211943D01*
X94401Y-211900D01*
X94148Y-211844D01*
X93867Y-211774D01*
X93599Y-211689D01*
X93304Y-211577D01*
X93023Y-211451D01*
X92728Y-211310D01*
X92461Y-211127D01*
X92193Y-210930D01*
X91940Y-210691D01*
X91926Y-210677D01*
X91884Y-210635D01*
X91828Y-210551D01*
X91743Y-210452D01*
X91645Y-210312D01*
X91533Y-210143D01*
X91420Y-209960D01*
X91308Y-209735D01*
X91181Y-209496D01*
X91069Y-209215D01*
X90956Y-208920D01*
X90858Y-208596D01*
X90773Y-208245D01*
X90717Y-207865D01*
X90675Y-207457D01*
X90661Y-207036D01*
Y-207022D01*
Y-206965D01*
Y-206895D01*
X90675Y-206783D01*
Y-206656D01*
X90689Y-206515D01*
X90703Y-206347D01*
X90717Y-206164D01*
X90773Y-205770D01*
X90844Y-205348D01*
X90956Y-204927D01*
X91097Y-204533D01*
Y-204519D01*
X91111Y-204505D01*
X91139Y-204463D01*
X91153Y-204406D01*
X91237Y-204266D01*
X91336Y-204083D01*
X91462Y-203872D01*
X91617Y-203661D01*
X91800Y-203422D01*
X91997Y-203197D01*
X92011Y-203183D01*
X92025Y-203169D01*
X92095Y-203099D01*
X92222Y-202986D01*
X92376Y-202860D01*
X92559Y-202719D01*
X92770Y-202565D01*
X93009Y-202424D01*
X93262Y-202311D01*
X93276D01*
X93304Y-202297D01*
X93360Y-202269D01*
X93431Y-202255D01*
X93515Y-202213D01*
X93613Y-202185D01*
X93740Y-202157D01*
X93867Y-202115D01*
X94176Y-202044D01*
X94527Y-201974D01*
X94935Y-201932D01*
X95357Y-201918D01*
X95455D01*
X95568Y-201932D01*
D02*
G37*
G36*
X68376D02*
X68516D01*
X68699Y-201960D01*
X68910Y-201988D01*
X69149Y-202030D01*
X69402Y-202086D01*
X69669Y-202157D01*
X69950Y-202241D01*
X70232Y-202354D01*
X70527Y-202480D01*
X70808Y-202635D01*
X71089Y-202818D01*
X71356Y-203028D01*
X71610Y-203268D01*
X71624Y-203282D01*
X71666Y-203324D01*
X71736Y-203408D01*
X71806Y-203507D01*
X71905Y-203647D01*
X72017Y-203816D01*
X72130Y-204013D01*
X72256Y-204238D01*
X72383Y-204477D01*
X72495Y-204758D01*
X72608Y-205067D01*
X72706Y-205391D01*
X72791Y-205756D01*
X72847Y-206136D01*
X72889Y-206543D01*
X72903Y-206979D01*
Y-207008D01*
Y-207078D01*
X72889Y-207204D01*
Y-207373D01*
X72861Y-207570D01*
X72833Y-207795D01*
X72791Y-208062D01*
X72749Y-208329D01*
X72678Y-208624D01*
X72594Y-208934D01*
X72481Y-209243D01*
X72355Y-209552D01*
X72214Y-209848D01*
X72031Y-210143D01*
X71835Y-210424D01*
X71610Y-210691D01*
X71596Y-210705D01*
X71553Y-210748D01*
X71483Y-210818D01*
X71371Y-210902D01*
X71244Y-211000D01*
X71089Y-211113D01*
X70907Y-211226D01*
X70710Y-211352D01*
X70471Y-211479D01*
X70218Y-211591D01*
X69937Y-211703D01*
X69627Y-211802D01*
X69304Y-211886D01*
X68952Y-211957D01*
X68587Y-211999D01*
X68193Y-212013D01*
X68095D01*
X67982Y-211999D01*
X67842Y-211985D01*
X67659Y-211971D01*
X67448Y-211943D01*
X67209Y-211900D01*
X66956Y-211844D01*
X66675Y-211774D01*
X66407Y-211689D01*
X66112Y-211577D01*
X65831Y-211451D01*
X65536Y-211310D01*
X65268Y-211127D01*
X65001Y-210930D01*
X64748Y-210691D01*
X64734Y-210677D01*
X64692Y-210635D01*
X64636Y-210551D01*
X64552Y-210452D01*
X64453Y-210312D01*
X64341Y-210143D01*
X64228Y-209960D01*
X64116Y-209735D01*
X63989Y-209496D01*
X63877Y-209215D01*
X63764Y-208920D01*
X63666Y-208596D01*
X63581Y-208245D01*
X63525Y-207865D01*
X63483Y-207457D01*
X63469Y-207036D01*
Y-207022D01*
Y-206965D01*
Y-206895D01*
X63483Y-206783D01*
Y-206656D01*
X63497Y-206515D01*
X63511Y-206347D01*
X63525Y-206164D01*
X63581Y-205770D01*
X63652Y-205348D01*
X63764Y-204927D01*
X63905Y-204533D01*
Y-204519D01*
X63919Y-204505D01*
X63947Y-204463D01*
X63961Y-204406D01*
X64045Y-204266D01*
X64144Y-204083D01*
X64270Y-203872D01*
X64425Y-203661D01*
X64608Y-203422D01*
X64805Y-203197D01*
X64819Y-203183D01*
X64833Y-203169D01*
X64903Y-203099D01*
X65030Y-202986D01*
X65184Y-202860D01*
X65367Y-202719D01*
X65578Y-202565D01*
X65817Y-202424D01*
X66070Y-202311D01*
X66084D01*
X66112Y-202297D01*
X66168Y-202269D01*
X66239Y-202255D01*
X66323Y-202213D01*
X66422Y-202185D01*
X66548Y-202157D01*
X66675Y-202115D01*
X66984Y-202044D01*
X67335Y-201974D01*
X67743Y-201932D01*
X68165Y-201918D01*
X68263D01*
X68376Y-201932D01*
D02*
G37*
%LPC*%
G36*
X417903Y275646D02*
X416678Y275525D01*
X415499Y275168D01*
X414414Y274587D01*
X413462Y273806D01*
X412681Y272855D01*
X412101Y271769D01*
X411743Y270591D01*
X411623Y269366D01*
X411743Y268140D01*
X412101Y266962D01*
X412681Y265876D01*
X413462Y264925D01*
X414414Y264144D01*
X415499Y263563D01*
X416678Y263206D01*
X417903Y263085D01*
X419128Y263206D01*
X420306Y263563D01*
X421392Y264144D01*
X422344Y264925D01*
X423125Y265876D01*
X423705Y266962D01*
X424062Y268140D01*
X424183Y269366D01*
X424062Y270591D01*
X423705Y271769D01*
X423125Y272855D01*
X422344Y273806D01*
X421392Y274587D01*
X420306Y275168D01*
X419128Y275525D01*
X417903Y275646D01*
D02*
G37*
G36*
X449064Y253585D02*
X448439Y253461D01*
X447910Y253107D01*
X447556Y252578D01*
X447432Y251954D01*
X447556Y251329D01*
X447910Y250800D01*
X448439Y250446D01*
X449064Y250322D01*
X449688Y250446D01*
X450217Y250800D01*
X450571Y251329D01*
X450695Y251954D01*
X450571Y252578D01*
X450217Y253107D01*
X449688Y253461D01*
X449064Y253585D01*
D02*
G37*
G36*
X404300Y225028D02*
X401699Y224857D01*
X399142Y224349D01*
X396674Y223511D01*
X394336Y222358D01*
X392169Y220910D01*
X390209Y219191D01*
X388490Y217231D01*
X387042Y215064D01*
X385889Y212726D01*
X385051Y210258D01*
X384543Y207701D01*
X384372Y205100D01*
X384543Y202499D01*
X385051Y199942D01*
X385889Y197474D01*
X387042Y195136D01*
X388490Y192969D01*
X390209Y191009D01*
X392169Y189290D01*
X394336Y187842D01*
X396674Y186689D01*
X399142Y185851D01*
X401699Y185343D01*
X404300Y185172D01*
X406901Y185343D01*
X409458Y185851D01*
X411926Y186689D01*
X414264Y187842D01*
X416431Y189290D01*
X418391Y191009D01*
X420110Y192969D01*
X421558Y195136D01*
X422711Y197474D01*
X423549Y199942D01*
X424057Y202499D01*
X424228Y205100D01*
X424057Y207701D01*
X423549Y210258D01*
X422711Y212726D01*
X421558Y215064D01*
X420110Y217231D01*
X418391Y219191D01*
X416431Y220910D01*
X414264Y222358D01*
X411926Y223511D01*
X409458Y224349D01*
X406901Y224857D01*
X404300Y225028D01*
D02*
G37*
G36*
X316974Y223594D02*
X316012Y223467D01*
X315114Y223095D01*
X314344Y222504D01*
X313753Y221734D01*
X313381Y220836D01*
X313255Y219874D01*
X313381Y218911D01*
X313753Y218014D01*
X314344Y217243D01*
X315114Y216652D01*
X316012Y216281D01*
X316974Y216154D01*
X317937Y216281D01*
X318834Y216652D01*
X319605Y217243D01*
X320196Y218014D01*
X320568Y218911D01*
X320694Y219874D01*
X320568Y220836D01*
X320196Y221734D01*
X319605Y222504D01*
X318834Y223095D01*
X317937Y223467D01*
X316974Y223594D01*
D02*
G37*
G36*
X339347Y182124D02*
X335247D01*
Y177581D01*
X336164D01*
Y175932D01*
X336161Y175911D01*
X336155Y175882D01*
X336153Y175876D01*
X336132Y175861D01*
X335778Y175332D01*
X335654Y174708D01*
X335778Y174084D01*
X336132Y173554D01*
X336661Y173201D01*
X337285Y173076D01*
X337910Y173201D01*
X338439Y173554D01*
X338793Y174084D01*
X338917Y174708D01*
X338793Y175332D01*
X338439Y175861D01*
X338418Y175876D01*
X338416Y175882D01*
X338410Y175911D01*
X338407Y175932D01*
Y177581D01*
X339347D01*
Y182124D01*
D02*
G37*
G36*
X257285Y176817D02*
X256661Y176693D01*
X256132Y176339D01*
X255778Y175810D01*
X255654Y175186D01*
X255778Y174562D01*
X255807Y174519D01*
Y172847D01*
X254485D01*
Y171775D01*
X253064D01*
X253020Y171804D01*
X252396Y171928D01*
X251772Y171804D01*
X251243Y171450D01*
X250889Y170921D01*
X250765Y170297D01*
X250889Y169672D01*
X251243Y169143D01*
X251772Y168790D01*
X252396Y168665D01*
X253020Y168790D01*
X253064Y168818D01*
X254485D01*
Y161728D01*
X255807D01*
Y154031D01*
X255778Y153988D01*
X255654Y153364D01*
X255778Y152740D01*
X256132Y152210D01*
X256661Y151857D01*
X257285Y151733D01*
X257910Y151857D01*
X258439Y152210D01*
X258793Y152740D01*
X258917Y153364D01*
X258793Y153988D01*
X258764Y154031D01*
Y161728D01*
X260140D01*
Y172847D01*
X258764D01*
Y174519D01*
X258793Y174562D01*
X258917Y175186D01*
X258793Y175810D01*
X258439Y176339D01*
X257910Y176693D01*
X257285Y176817D01*
D02*
G37*
G36*
X260683Y144226D02*
X260058Y144102D01*
X259529Y143748D01*
X259175Y143219D01*
X259051Y142595D01*
X259175Y141971D01*
X259529Y141442D01*
X260058Y141088D01*
X260683Y140964D01*
X261307Y141088D01*
X261836Y141442D01*
X262190Y141971D01*
X262314Y142595D01*
X262190Y143219D01*
X261836Y143748D01*
X261307Y144102D01*
X260683Y144226D01*
D02*
G37*
G36*
X313720Y141111D02*
X313095Y140987D01*
X312566Y140633D01*
X312212Y140104D01*
X312088Y139479D01*
X312212Y138855D01*
X312566Y138326D01*
X313095Y137972D01*
X313720Y137848D01*
X314344Y137972D01*
X314873Y138326D01*
X315227Y138855D01*
X315351Y139479D01*
X315227Y140104D01*
X314873Y140633D01*
X314344Y140987D01*
X313720Y141111D01*
D02*
G37*
%LPD*%
G36*
X317820Y223028D02*
X318607Y222702D01*
X319284Y222183D01*
X319803Y221507D01*
X320129Y220719D01*
X320240Y219874D01*
X320129Y219028D01*
X319803Y218241D01*
X319284Y217564D01*
X318607Y217045D01*
X317820Y216719D01*
X316974Y216608D01*
X316129Y216719D01*
X315341Y217045D01*
X314665Y217564D01*
X314146Y218241D01*
X313820Y219028D01*
X313708Y219874D01*
X313820Y220719D01*
X314146Y221507D01*
X314665Y222183D01*
X315341Y222702D01*
X316129Y223028D01*
X316974Y223140D01*
X317820Y223028D01*
D02*
G37*
%LPC*%
G36*
X316974Y222597D02*
X316270Y222504D01*
X315613Y222232D01*
X315049Y221799D01*
X314616Y221235D01*
X314344Y220579D01*
X314251Y219874D01*
X314344Y219169D01*
X314616Y218512D01*
X315049Y217948D01*
X315613Y217515D01*
X316270Y217243D01*
X316974Y217150D01*
X317679Y217243D01*
X318336Y217515D01*
X318900Y217948D01*
X319333Y218512D01*
X319605Y219169D01*
X319698Y219874D01*
X319605Y220579D01*
X319333Y221235D01*
X318900Y221799D01*
X318336Y222232D01*
X317679Y222504D01*
X316974Y222597D01*
D02*
G37*
%LPD*%
G36*
X337688Y175961D02*
X337695Y175873D01*
X337706Y175790D01*
X337722Y175712D01*
X337743Y175639D01*
X337768Y175571D01*
X337798Y175509D01*
X337833Y175451D01*
X337872Y175398D01*
X337915Y175351D01*
X336655D01*
X336699Y175398D01*
X336738Y175451D01*
X336773Y175509D01*
X336803Y175571D01*
X336828Y175639D01*
X336849Y175712D01*
X336865Y175790D01*
X336876Y175873D01*
X336883Y175961D01*
X336885Y176054D01*
X337685D01*
X337688Y175961D01*
D02*
G37*
%LPC*%
G36*
X48169Y276074D02*
X47545Y275949D01*
X47015Y275596D01*
X46662Y275066D01*
X46538Y274442D01*
X46662Y273818D01*
X47015Y273289D01*
X47545Y272935D01*
X48169Y272811D01*
X48793Y272935D01*
X49322Y273289D01*
X49676Y273818D01*
X49800Y274442D01*
X49676Y275066D01*
X49322Y275596D01*
X48793Y275949D01*
X48169Y276074D01*
D02*
G37*
G36*
X52751Y271491D02*
X52127Y271367D01*
X51597Y271013D01*
X51244Y270484D01*
X51120Y269860D01*
X51244Y269235D01*
X51597Y268706D01*
X52127Y268352D01*
X52751Y268228D01*
X53375Y268352D01*
X53904Y268706D01*
X54258Y269235D01*
X54382Y269860D01*
X54258Y270484D01*
X53904Y271013D01*
X53375Y271367D01*
X52751Y271491D01*
D02*
G37*
G36*
X50891Y239295D02*
X50267Y239171D01*
X49738Y238817D01*
X49384Y238288D01*
X49260Y237663D01*
X49384Y237039D01*
X49738Y236510D01*
X50267Y236156D01*
X50891Y236032D01*
X51515Y236156D01*
X52045Y236510D01*
X52398Y237039D01*
X52522Y237663D01*
X52398Y238288D01*
X52045Y238817D01*
X51515Y239171D01*
X50891Y239295D01*
D02*
G37*
G36*
X55751Y239042D02*
X55127Y238918D01*
X54598Y238564D01*
X54244Y238035D01*
X54120Y237410D01*
X54244Y236786D01*
X54598Y236257D01*
X55127Y235903D01*
X55751Y235779D01*
X56375Y235903D01*
X56905Y236257D01*
X57258Y236786D01*
X57382Y237410D01*
X57258Y238035D01*
X56905Y238564D01*
X56375Y238918D01*
X55751Y239042D01*
D02*
G37*
G36*
X-3953Y228258D02*
X-4919Y228131D01*
X-5819Y227758D01*
X-6592Y227165D01*
X-7185Y226392D01*
X-7558Y225492D01*
X-7685Y224526D01*
X-7558Y223560D01*
X-7185Y222660D01*
X-6592Y221887D01*
X-5819Y221294D01*
X-4919Y220921D01*
X-3953Y220794D01*
X-2987Y220921D01*
X-2087Y221294D01*
X-1314Y221887D01*
X-721Y222660D01*
X-348Y223560D01*
X-221Y224526D01*
X-348Y225492D01*
X-721Y226392D01*
X-1314Y227165D01*
X-2087Y227758D01*
X-2987Y228131D01*
X-3953Y228258D01*
D02*
G37*
G36*
X-2453Y218269D02*
X-5453D01*
X-6311Y218098D01*
X-7039Y217612D01*
X-7525Y216884D01*
X-7696Y216026D01*
Y213026D01*
X-7525Y212168D01*
X-7039Y211440D01*
X-6311Y210953D01*
X-5453Y210783D01*
X-2453D01*
X-1594Y210953D01*
X-867Y211440D01*
X-380Y212168D01*
X-210Y213026D01*
Y216026D01*
X-380Y216884D01*
X-867Y217612D01*
X-1594Y218098D01*
X-2453Y218269D01*
D02*
G37*
G36*
X21609Y195266D02*
X19966Y195105D01*
X18386Y194625D01*
X16929Y193847D01*
X15653Y192799D01*
X14605Y191523D01*
X13826Y190066D01*
X13347Y188486D01*
X13185Y186842D01*
X13347Y185199D01*
X13826Y183618D01*
X14605Y182162D01*
X15653Y180886D01*
X16929Y179838D01*
X18386Y179060D01*
X19966Y178580D01*
X21609Y178418D01*
X23253Y178580D01*
X24833Y179060D01*
X26289Y179838D01*
X27566Y180886D01*
X28614Y182162D01*
X29392Y183618D01*
X29871Y185199D01*
X30033Y186842D01*
X29871Y188486D01*
X29392Y190066D01*
X28614Y191523D01*
X27566Y192799D01*
X26289Y193847D01*
X24833Y194625D01*
X23253Y195105D01*
X21609Y195266D01*
D02*
G37*
G36*
Y155266D02*
X19966Y155104D01*
X18386Y154625D01*
X16929Y153847D01*
X15653Y152799D01*
X14605Y151523D01*
X13826Y150066D01*
X13347Y148486D01*
X13185Y146842D01*
X13347Y145199D01*
X13826Y143619D01*
X14605Y142162D01*
X15653Y140886D01*
X16929Y139838D01*
X18386Y139059D01*
X19966Y138580D01*
X21609Y138418D01*
X23253Y138580D01*
X24833Y139059D01*
X26289Y139838D01*
X27566Y140886D01*
X28614Y142162D01*
X29392Y143619D01*
X29871Y145199D01*
X30033Y146842D01*
X29871Y148486D01*
X29392Y150066D01*
X28614Y151523D01*
X27566Y152799D01*
X26289Y153847D01*
X24833Y154625D01*
X23253Y155104D01*
X21609Y155266D01*
D02*
G37*
%LPD*%
G36*
X23165Y194661D02*
X24660Y194207D01*
X26038Y193471D01*
X27246Y192479D01*
X28238Y191271D01*
X28974Y189893D01*
X29428Y188398D01*
X29581Y186842D01*
X29428Y185287D01*
X28974Y183792D01*
X28238Y182413D01*
X27246Y181205D01*
X26038Y180214D01*
X24660Y179477D01*
X23165Y179024D01*
X21609Y178870D01*
X20054Y179024D01*
X18559Y179477D01*
X17180Y180214D01*
X15972Y181205D01*
X14981Y182413D01*
X14244Y183792D01*
X13791Y185287D01*
X13637Y186842D01*
X13791Y188398D01*
X14244Y189893D01*
X14981Y191271D01*
X15972Y192479D01*
X17180Y193471D01*
X18559Y194207D01*
X20054Y194661D01*
X21609Y194814D01*
X23165Y194661D01*
D02*
G37*
%LPC*%
G36*
X21609Y194077D02*
X20198Y193938D01*
X18841Y193526D01*
X17590Y192858D01*
X16493Y191958D01*
X15594Y190862D01*
X14925Y189611D01*
X14514Y188254D01*
X14375Y186842D01*
X14514Y185431D01*
X14925Y184074D01*
X15594Y182823D01*
X16493Y181727D01*
X17590Y180827D01*
X18841Y180158D01*
X20198Y179746D01*
X21609Y179607D01*
X23021Y179746D01*
X24378Y180158D01*
X25629Y180827D01*
X26725Y181727D01*
X27625Y182823D01*
X28293Y184074D01*
X28705Y185431D01*
X28844Y186842D01*
X28705Y188254D01*
X28293Y189611D01*
X27625Y190862D01*
X26725Y191958D01*
X25629Y192858D01*
X24378Y193526D01*
X23021Y193938D01*
X21609Y194077D01*
D02*
G37*
%LPD*%
G36*
X23165Y154661D02*
X24660Y154207D01*
X26038Y153471D01*
X27246Y152479D01*
X28238Y151271D01*
X28974Y149893D01*
X29428Y148398D01*
X29581Y146842D01*
X29428Y145287D01*
X28974Y143792D01*
X28238Y142413D01*
X27246Y141205D01*
X26038Y140214D01*
X24660Y139477D01*
X23165Y139024D01*
X21609Y138870D01*
X20054Y139024D01*
X18559Y139477D01*
X17180Y140214D01*
X15972Y141205D01*
X14981Y142413D01*
X14244Y143792D01*
X13791Y145287D01*
X13637Y146842D01*
X13791Y148398D01*
X14244Y149893D01*
X14981Y151271D01*
X15972Y152479D01*
X17180Y153471D01*
X18559Y154207D01*
X20054Y154661D01*
X21609Y154814D01*
X23165Y154661D01*
D02*
G37*
%LPC*%
G36*
X21609Y154077D02*
X20198Y153938D01*
X18841Y153526D01*
X17590Y152858D01*
X16493Y151958D01*
X15594Y150862D01*
X14925Y149611D01*
X14514Y148254D01*
X14375Y146842D01*
X14514Y145431D01*
X14925Y144074D01*
X15594Y142823D01*
X16493Y141727D01*
X17590Y140827D01*
X18841Y140158D01*
X20198Y139746D01*
X21609Y139608D01*
X23021Y139746D01*
X24378Y140158D01*
X25629Y140827D01*
X26725Y141727D01*
X27625Y142823D01*
X28293Y144074D01*
X28705Y145431D01*
X28844Y146842D01*
X28705Y148254D01*
X28293Y149611D01*
X27625Y150862D01*
X26725Y151958D01*
X25629Y152858D01*
X24378Y153526D01*
X23021Y153938D01*
X21609Y154077D01*
D02*
G37*
G36*
X349989Y118322D02*
X331047D01*
X331047Y109236D01*
X349989D01*
X349989Y118322D01*
D02*
G37*
G36*
X210595Y72936D02*
X209971Y72812D01*
X209441Y72458D01*
X209088Y71929D01*
X208963Y71305D01*
X209088Y70680D01*
X209441Y70151D01*
X209971Y69798D01*
X210595Y69674D01*
X211219Y69798D01*
X211748Y70151D01*
X212102Y70680D01*
X212226Y71305D01*
X212102Y71929D01*
X211748Y72458D01*
X211219Y72812D01*
X210595Y72936D01*
D02*
G37*
G36*
X222481Y-797D02*
X221857Y-922D01*
X221327Y-1275D01*
X220974Y-1805D01*
X220849Y-2429D01*
X220974Y-3053D01*
X221327Y-3582D01*
X221857Y-3936D01*
X222481Y-4060D01*
X223105Y-3936D01*
X223634Y-3582D01*
X223988Y-3053D01*
X224112Y-2429D01*
X223988Y-1805D01*
X223634Y-1275D01*
X223105Y-922D01*
X222481Y-797D01*
D02*
G37*
G36*
X198476Y292D02*
X197304Y138D01*
X196213Y-314D01*
X195275Y-1033D01*
X194556Y-1971D01*
X194104Y-3062D01*
X193950Y-4234D01*
X194104Y-5405D01*
X194556Y-6497D01*
X195275Y-7434D01*
X196213Y-8154D01*
X197304Y-8606D01*
X198476Y-8760D01*
X199647Y-8606D01*
X200739Y-8154D01*
X201676Y-7434D01*
X202396Y-6497D01*
X202848Y-5405D01*
X203002Y-4234D01*
X202848Y-3062D01*
X202396Y-1971D01*
X201676Y-1033D01*
X200739Y-314D01*
X199647Y138D01*
X198476Y292D01*
D02*
G37*
G36*
X243983Y-2711D02*
X242991Y-2841D01*
X242067Y-3224D01*
X241273Y-3833D01*
X240664Y-4627D01*
X240281Y-5551D01*
X240150Y-6543D01*
X240281Y-7536D01*
X240664Y-8460D01*
X241273Y-9254D01*
X242067Y-9863D01*
X242991Y-10246D01*
X243983Y-10376D01*
X244975Y-10246D01*
X245900Y-9863D01*
X246693Y-9254D01*
X247303Y-8460D01*
X247685Y-7536D01*
X247816Y-6543D01*
X247685Y-5551D01*
X247303Y-4627D01*
X246693Y-3833D01*
X245900Y-3224D01*
X244975Y-2841D01*
X243983Y-2711D01*
D02*
G37*
G36*
X153347Y-3493D02*
X152120Y-3655D01*
X150977Y-4129D01*
X149995Y-4882D01*
X149242Y-5864D01*
X148768Y-7007D01*
X148607Y-8234D01*
X148768Y-9461D01*
X149242Y-10604D01*
X149995Y-11586D01*
X150977Y-12339D01*
X152120Y-12813D01*
X153347Y-12975D01*
X154574Y-12813D01*
X155718Y-12339D01*
X156699Y-11586D01*
X157453Y-10604D01*
X157926Y-9461D01*
X158088Y-8234D01*
X157926Y-7007D01*
X157453Y-5864D01*
X156699Y-4882D01*
X155718Y-4129D01*
X154574Y-3655D01*
X153347Y-3493D01*
D02*
G37*
G36*
X133347D02*
X132120Y-3655D01*
X130977Y-4129D01*
X129995Y-4882D01*
X129242Y-5864D01*
X128768Y-7007D01*
X128607Y-8234D01*
X128768Y-9461D01*
X129242Y-10604D01*
X129995Y-11586D01*
X130977Y-12339D01*
X132120Y-12813D01*
X133347Y-12975D01*
X134574Y-12813D01*
X135718Y-12339D01*
X136699Y-11586D01*
X137453Y-10604D01*
X137926Y-9461D01*
X138088Y-8234D01*
X137926Y-7007D01*
X137453Y-5864D01*
X136699Y-4882D01*
X135718Y-4129D01*
X134574Y-3655D01*
X133347Y-3493D01*
D02*
G37*
G36*
X243983Y-14522D02*
X242991Y-14652D01*
X242067Y-15035D01*
X241273Y-15644D01*
X240664Y-16438D01*
X240281Y-17363D01*
X240150Y-18355D01*
X240281Y-19347D01*
X240664Y-20271D01*
X241273Y-21065D01*
X242067Y-21674D01*
X242991Y-22057D01*
X243983Y-22187D01*
X244975Y-22057D01*
X245900Y-21674D01*
X246693Y-21065D01*
X247303Y-20271D01*
X247685Y-19347D01*
X247816Y-18355D01*
X247685Y-17363D01*
X247303Y-16438D01*
X246693Y-15644D01*
X245900Y-15035D01*
X244975Y-14652D01*
X243983Y-14522D01*
D02*
G37*
G36*
X143347Y-23178D02*
X142120Y-23340D01*
X140977Y-23813D01*
X139995Y-24567D01*
X139242Y-25549D01*
X138768Y-26692D01*
X138607Y-27919D01*
X138768Y-29146D01*
X139242Y-30289D01*
X139995Y-31271D01*
X140977Y-32024D01*
X142120Y-32498D01*
X143347Y-32660D01*
X144574Y-32498D01*
X145718Y-32024D01*
X146699Y-31271D01*
X147453Y-30289D01*
X147926Y-29146D01*
X148088Y-27919D01*
X147926Y-26692D01*
X147453Y-25549D01*
X146699Y-24567D01*
X145718Y-23813D01*
X144574Y-23340D01*
X143347Y-23178D01*
D02*
G37*
G36*
X123347D02*
X122120Y-23340D01*
X120977Y-23813D01*
X119995Y-24567D01*
X119242Y-25549D01*
X118768Y-26692D01*
X118607Y-27919D01*
X118768Y-29146D01*
X119242Y-30289D01*
X119995Y-31271D01*
X120977Y-32024D01*
X122120Y-32498D01*
X123347Y-32660D01*
X124574Y-32498D01*
X125718Y-32024D01*
X126699Y-31271D01*
X127453Y-30289D01*
X127926Y-29146D01*
X128088Y-27919D01*
X127926Y-26692D01*
X127453Y-25549D01*
X126699Y-24567D01*
X125718Y-23813D01*
X124574Y-23340D01*
X123347Y-23178D01*
D02*
G37*
G36*
X198476Y-27267D02*
X197304Y-27421D01*
X196213Y-27873D01*
X195275Y-28592D01*
X194556Y-29530D01*
X194104Y-30621D01*
X193950Y-31793D01*
X194104Y-32964D01*
X194556Y-34056D01*
X195275Y-34993D01*
X196213Y-35713D01*
X197304Y-36165D01*
X198476Y-36319D01*
X199647Y-36165D01*
X200739Y-35713D01*
X201676Y-34993D01*
X202396Y-34056D01*
X202848Y-32964D01*
X203002Y-31793D01*
X202848Y-30621D01*
X202396Y-29530D01*
X201676Y-28592D01*
X200739Y-27873D01*
X199647Y-27421D01*
X198476Y-27267D01*
D02*
G37*
G36*
X279416Y-2711D02*
X278424Y-2841D01*
X277500Y-3224D01*
X276706Y-3833D01*
X276097Y-4627D01*
X275714Y-5551D01*
X275584Y-6543D01*
X275714Y-7536D01*
X276097Y-8460D01*
X276706Y-9254D01*
X277500Y-9863D01*
X278424Y-10246D01*
X279416Y-10376D01*
X280408Y-10246D01*
X281333Y-9863D01*
X282126Y-9254D01*
X282736Y-8460D01*
X283119Y-7536D01*
X283249Y-6543D01*
X283119Y-5551D01*
X282736Y-4627D01*
X282126Y-3833D01*
X281333Y-3224D01*
X280408Y-2841D01*
X279416Y-2711D01*
D02*
G37*
G36*
X287881Y-28881D02*
X286616Y-29006D01*
X285401Y-29375D01*
X284280Y-29974D01*
X283298Y-30779D01*
X282492Y-31762D01*
X281893Y-32882D01*
X281524Y-34098D01*
X281400Y-35362D01*
X281524Y-36627D01*
X281893Y-37843D01*
X282492Y-38963D01*
X283298Y-39945D01*
X284280Y-40751D01*
X285401Y-41350D01*
X286616Y-41719D01*
X287881Y-41844D01*
X289145Y-41719D01*
X290361Y-41350D01*
X291482Y-40751D01*
X292464Y-39945D01*
X293270Y-38963D01*
X293869Y-37843D01*
X294238Y-36627D01*
X294362Y-35362D01*
X294238Y-34098D01*
X293869Y-32882D01*
X293270Y-31762D01*
X292464Y-30779D01*
X291482Y-29974D01*
X290361Y-29375D01*
X289145Y-29006D01*
X287881Y-28881D01*
D02*
G37*
G36*
X328045Y-35448D02*
X326937Y-35594D01*
X325904Y-36022D01*
X325017Y-36702D01*
X324337Y-37589D01*
X323909Y-38622D01*
X323763Y-39730D01*
X323909Y-40838D01*
X324337Y-41871D01*
X325017Y-42757D01*
X325904Y-43438D01*
X326937Y-43866D01*
X328045Y-44012D01*
X329153Y-43866D01*
X330185Y-43438D01*
X331072Y-42757D01*
X331752Y-41871D01*
X332180Y-40838D01*
X332326Y-39730D01*
X332180Y-38622D01*
X331752Y-37589D01*
X331072Y-36702D01*
X330185Y-36022D01*
X329153Y-35594D01*
X328045Y-35448D01*
D02*
G37*
G36*
X157235Y-203746D02*
X154985D01*
Y-206220D01*
X156898D01*
X157179Y-206206D01*
X157474Y-206192D01*
X157769Y-206178D01*
X157896Y-206164D01*
X158008Y-206150D01*
X158121Y-206122D01*
X158191Y-206108D01*
X158205D01*
X158247Y-206080D01*
X158318Y-206051D01*
X158388Y-206009D01*
X158571Y-205883D01*
X158655Y-205798D01*
X158739Y-205700D01*
X158754Y-205686D01*
X158767Y-205644D01*
X158810Y-205587D01*
X158852Y-205503D01*
X158880Y-205391D01*
X158922Y-205264D01*
X158936Y-205123D01*
X158950Y-204969D01*
Y-204941D01*
Y-204884D01*
X158936Y-204800D01*
X158922Y-204688D01*
X158880Y-204561D01*
X158838Y-204434D01*
X158767Y-204294D01*
X158683Y-204181D01*
X158669Y-204167D01*
X158641Y-204125D01*
X158571Y-204083D01*
X158486Y-204013D01*
X158388Y-203942D01*
X158261Y-203886D01*
X158107Y-203830D01*
X157938Y-203788D01*
X157924D01*
X157882Y-203774D01*
X157797D01*
X157671Y-203760D01*
X157361D01*
X157235Y-203746D01*
D02*
G37*
G36*
X128862Y-204364D02*
X127540Y-207978D01*
X130226D01*
X128862Y-204364D01*
D02*
G37*
G36*
X57986Y-203717D02*
X56031D01*
Y-205967D01*
X57915D01*
X58154Y-205953D01*
X58590D01*
X58674Y-205939D01*
X58759D01*
X58815Y-205925D01*
X58899Y-205911D01*
X59026Y-205869D01*
X59152Y-205826D01*
X59279Y-205770D01*
X59405Y-205700D01*
X59518Y-205602D01*
X59532Y-205587D01*
X59560Y-205545D01*
X59616Y-205489D01*
X59673Y-205391D01*
X59715Y-205278D01*
X59771Y-205152D01*
X59799Y-204997D01*
X59813Y-204828D01*
Y-204814D01*
Y-204758D01*
X59799Y-204674D01*
X59785Y-204561D01*
X59757Y-204449D01*
X59701Y-204336D01*
X59645Y-204210D01*
X59560Y-204097D01*
X59546Y-204083D01*
X59518Y-204055D01*
X59448Y-203999D01*
X59377Y-203942D01*
X59265Y-203886D01*
X59138Y-203830D01*
X58984Y-203788D01*
X58815Y-203760D01*
X58801D01*
X58745Y-203746D01*
X58590D01*
X58506Y-203731D01*
X58140D01*
X57986Y-203717D01*
D02*
G37*
G36*
X58070Y-207584D02*
X56031D01*
Y-210185D01*
X58196D01*
X58407Y-210171D01*
X58632D01*
X58857Y-210157D01*
X59040Y-210143D01*
X59124D01*
X59181Y-210129D01*
X59195D01*
X59251Y-210115D01*
X59335Y-210087D01*
X59434Y-210058D01*
X59546Y-210002D01*
X59673Y-209932D01*
X59785Y-209848D01*
X59898Y-209749D01*
X59912Y-209735D01*
X59940Y-209693D01*
X59982Y-209623D01*
X60038Y-209524D01*
X60094Y-209412D01*
X60137Y-209271D01*
X60165Y-209102D01*
X60179Y-208920D01*
Y-208906D01*
Y-208849D01*
X60165Y-208765D01*
X60151Y-208667D01*
X60123Y-208540D01*
X60080Y-208428D01*
X60024Y-208301D01*
X59954Y-208174D01*
X59940Y-208160D01*
X59912Y-208118D01*
X59869Y-208062D01*
X59799Y-208006D01*
X59715Y-207921D01*
X59602Y-207851D01*
X59476Y-207781D01*
X59335Y-207725D01*
X59321D01*
X59251Y-207696D01*
X59138Y-207682D01*
X59068Y-207668D01*
X58970Y-207654D01*
X58871Y-207640D01*
X58745Y-207626D01*
X58604Y-207612D01*
X58435D01*
X58267Y-207598D01*
X58070Y-207584D01*
D02*
G37*
G36*
X45219Y-204899D02*
X42955Y-208245D01*
X45219D01*
Y-204899D01*
D02*
G37*
G36*
X95385Y-203591D02*
X95273D01*
X95188Y-203605D01*
X95076Y-203619D01*
X94963Y-203633D01*
X94682Y-203689D01*
X94373Y-203802D01*
X94204Y-203858D01*
X94035Y-203942D01*
X93881Y-204041D01*
X93712Y-204153D01*
X93557Y-204280D01*
X93417Y-204434D01*
X93403Y-204449D01*
X93388Y-204477D01*
X93346Y-204519D01*
X93304Y-204589D01*
X93248Y-204688D01*
X93192Y-204786D01*
X93121Y-204913D01*
X93051Y-205067D01*
X92981Y-205236D01*
X92910Y-205419D01*
X92854Y-205630D01*
X92798Y-205855D01*
X92756Y-206108D01*
X92714Y-206375D01*
X92700Y-206656D01*
X92686Y-206965D01*
Y-206979D01*
Y-207036D01*
Y-207120D01*
X92700Y-207232D01*
X92714Y-207373D01*
X92728Y-207542D01*
X92756Y-207711D01*
X92784Y-207907D01*
X92868Y-208315D01*
X93009Y-208723D01*
X93093Y-208934D01*
X93192Y-209131D01*
X93318Y-209313D01*
X93445Y-209482D01*
X93459Y-209496D01*
X93487Y-209524D01*
X93529Y-209566D01*
X93585Y-209609D01*
X93656Y-209679D01*
X93754Y-209749D01*
X93853Y-209834D01*
X93979Y-209904D01*
X94246Y-210073D01*
X94584Y-210199D01*
X94766Y-210255D01*
X94963Y-210297D01*
X95174Y-210326D01*
X95385Y-210340D01*
X95498D01*
X95582Y-210326D01*
X95680Y-210312D01*
X95793Y-210297D01*
X96060Y-210227D01*
X96369Y-210129D01*
X96524Y-210058D01*
X96693Y-209988D01*
X96847Y-209890D01*
X97016Y-209777D01*
X97171Y-209651D01*
X97311Y-209496D01*
X97325Y-209482D01*
X97339Y-209454D01*
X97382Y-209412D01*
X97424Y-209342D01*
X97494Y-209243D01*
X97550Y-209131D01*
X97621Y-209004D01*
X97691Y-208849D01*
X97761Y-208681D01*
X97831Y-208498D01*
X97902Y-208287D01*
X97958Y-208048D01*
X98000Y-207809D01*
X98042Y-207542D01*
X98056Y-207246D01*
X98071Y-206937D01*
Y-206923D01*
Y-206867D01*
Y-206783D01*
X98056Y-206656D01*
X98042Y-206515D01*
X98028Y-206361D01*
X98014Y-206178D01*
X97972Y-205995D01*
X97888Y-205587D01*
X97761Y-205166D01*
X97677Y-204955D01*
X97578Y-204772D01*
X97452Y-204589D01*
X97325Y-204420D01*
X97311Y-204406D01*
X97297Y-204378D01*
X97255Y-204350D01*
X97199Y-204294D01*
X97114Y-204224D01*
X97030Y-204153D01*
X96932Y-204083D01*
X96805Y-203999D01*
X96679Y-203928D01*
X96524Y-203858D01*
X96201Y-203717D01*
X96018Y-203661D01*
X95821Y-203633D01*
X95610Y-203605D01*
X95385Y-203591D01*
D02*
G37*
G36*
X68193D02*
X68081D01*
X67996Y-203605D01*
X67884Y-203619D01*
X67771Y-203633D01*
X67490Y-203689D01*
X67181Y-203802D01*
X67012Y-203858D01*
X66843Y-203942D01*
X66689Y-204041D01*
X66520Y-204153D01*
X66365Y-204280D01*
X66225Y-204434D01*
X66211Y-204449D01*
X66197Y-204477D01*
X66154Y-204519D01*
X66112Y-204589D01*
X66056Y-204688D01*
X66000Y-204786D01*
X65929Y-204913D01*
X65859Y-205067D01*
X65789Y-205236D01*
X65718Y-205419D01*
X65662Y-205630D01*
X65606Y-205855D01*
X65564Y-206108D01*
X65522Y-206375D01*
X65508Y-206656D01*
X65494Y-206965D01*
Y-206979D01*
Y-207036D01*
Y-207120D01*
X65508Y-207232D01*
X65522Y-207373D01*
X65536Y-207542D01*
X65564Y-207711D01*
X65592Y-207907D01*
X65676Y-208315D01*
X65817Y-208723D01*
X65901Y-208934D01*
X66000Y-209131D01*
X66126Y-209313D01*
X66253Y-209482D01*
X66267Y-209496D01*
X66295Y-209524D01*
X66337Y-209566D01*
X66393Y-209609D01*
X66464Y-209679D01*
X66562Y-209749D01*
X66660Y-209834D01*
X66787Y-209904D01*
X67054Y-210073D01*
X67392Y-210199D01*
X67574Y-210255D01*
X67771Y-210297D01*
X67982Y-210326D01*
X68193Y-210340D01*
X68305D01*
X68390Y-210326D01*
X68488Y-210312D01*
X68601Y-210297D01*
X68868Y-210227D01*
X69177Y-210129D01*
X69332Y-210058D01*
X69501Y-209988D01*
X69655Y-209890D01*
X69824Y-209777D01*
X69979Y-209651D01*
X70119Y-209496D01*
X70133Y-209482D01*
X70147Y-209454D01*
X70189Y-209412D01*
X70232Y-209342D01*
X70302Y-209243D01*
X70358Y-209131D01*
X70429Y-209004D01*
X70499Y-208849D01*
X70569Y-208681D01*
X70639Y-208498D01*
X70710Y-208287D01*
X70766Y-208048D01*
X70808Y-207809D01*
X70850Y-207542D01*
X70864Y-207246D01*
X70878Y-206937D01*
Y-206923D01*
Y-206867D01*
Y-206783D01*
X70864Y-206656D01*
X70850Y-206515D01*
X70836Y-206361D01*
X70822Y-206178D01*
X70780Y-205995D01*
X70696Y-205587D01*
X70569Y-205166D01*
X70485Y-204955D01*
X70386Y-204772D01*
X70260Y-204589D01*
X70133Y-204420D01*
X70119Y-204406D01*
X70105Y-204378D01*
X70063Y-204350D01*
X70007Y-204294D01*
X69922Y-204224D01*
X69838Y-204153D01*
X69740Y-204083D01*
X69613Y-203999D01*
X69486Y-203928D01*
X69332Y-203858D01*
X69008Y-203717D01*
X68826Y-203661D01*
X68629Y-203633D01*
X68418Y-203605D01*
X68193Y-203591D01*
D02*
G37*
%LPD*%
D15*
X157399Y130892D02*
D03*
Y134457D02*
D03*
X179362Y171408D02*
D03*
Y167842D02*
D03*
X175274Y167831D02*
D03*
Y171397D02*
D03*
X60331Y5193D02*
D03*
Y1628D02*
D03*
X82056Y4744D02*
D03*
Y1178D02*
D03*
X192019Y28336D02*
D03*
Y31902D02*
D03*
X183451Y171420D02*
D03*
Y167854D02*
D03*
X218635Y228223D02*
D03*
Y231789D02*
D03*
X180843Y232807D02*
D03*
Y229241D02*
D03*
X187551Y171420D02*
D03*
Y167854D02*
D03*
X173076Y108273D02*
D03*
Y111839D02*
D03*
X168976Y108273D02*
D03*
Y111839D02*
D03*
X164876Y108273D02*
D03*
Y111839D02*
D03*
X139500Y156500D02*
D03*
Y152934D02*
D03*
X160776Y108273D02*
D03*
Y111839D02*
D03*
X156676Y108273D02*
D03*
Y111839D02*
D03*
X152576Y108273D02*
D03*
Y111839D02*
D03*
X148476Y108273D02*
D03*
Y111839D02*
D03*
X-11224Y97898D02*
D03*
Y94332D02*
D03*
X303398Y277098D02*
D03*
Y280664D02*
D03*
X-11201Y105564D02*
D03*
Y101998D02*
D03*
X89313Y1178D02*
D03*
Y4744D02*
D03*
X67545Y1628D02*
D03*
Y5193D02*
D03*
X180046Y152679D02*
D03*
Y149113D02*
D03*
X303375Y269432D02*
D03*
Y272998D02*
D03*
X186546Y133569D02*
D03*
Y137135D02*
D03*
X337297Y179758D02*
D03*
Y183324D02*
D03*
X347083Y180483D02*
D03*
Y184049D02*
D03*
D18*
X35023Y139663D02*
D03*
X40023D02*
D03*
X45023D02*
D03*
X50023D02*
D03*
Y120263D02*
D03*
X45023D02*
D03*
X40023D02*
D03*
X35023D02*
D03*
D19*
X46365Y148350D02*
D03*
X49931D02*
D03*
X55476Y148248D02*
D03*
X59042D02*
D03*
X170726Y57884D02*
D03*
X174291D02*
D03*
X170786Y53313D02*
D03*
X174352D02*
D03*
X170026Y160984D02*
D03*
X166460D02*
D03*
X180142Y126204D02*
D03*
X176576D02*
D03*
X204315Y34968D02*
D03*
X200749D02*
D03*
X95647Y207976D02*
D03*
X99213D02*
D03*
X206236Y155210D02*
D03*
X202671D02*
D03*
X139268Y132834D02*
D03*
X142834D02*
D03*
X202671Y151110D02*
D03*
X206236D02*
D03*
X202682Y147022D02*
D03*
X206248D02*
D03*
X202694Y142933D02*
D03*
X206260D02*
D03*
X202682Y138758D02*
D03*
X206248D02*
D03*
X206236Y159310D02*
D03*
X202671D02*
D03*
X131937Y103026D02*
D03*
X128371D02*
D03*
X148962Y156125D02*
D03*
X152528D02*
D03*
X202694Y134669D02*
D03*
X206260D02*
D03*
X202705Y130581D02*
D03*
X206271D02*
D03*
X202705Y126481D02*
D03*
X206271D02*
D03*
X202705Y122381D02*
D03*
X206271D02*
D03*
X131124Y119898D02*
D03*
X134690D02*
D03*
X139214Y137924D02*
D03*
X142780D02*
D03*
D23*
X152733Y31150D02*
D03*
X160213D02*
D03*
X156473Y21701D02*
D03*
D31*
X328783Y113779D02*
D03*
X340595D02*
D03*
D33*
X174947Y42574D02*
D03*
X169051D02*
D03*
X379032Y134108D02*
D03*
X373136D02*
D03*
X333035Y73293D02*
D03*
X338931D02*
D03*
D47*
X380985Y125487D02*
D03*
X371567D02*
D03*
X371720Y114252D02*
D03*
X381137D02*
D03*
X330771Y81911D02*
D03*
X340188D02*
D03*
D48*
X186233Y27142D02*
D03*
Y33038D02*
D03*
X257285Y170297D02*
D03*
Y164401D02*
D03*
D49*
X275632Y292098D02*
D03*
Y287098D02*
D03*
Y282098D02*
D03*
Y277098D02*
D03*
X295032D02*
D03*
Y282098D02*
D03*
Y287098D02*
D03*
Y292098D02*
D03*
X-2470Y83746D02*
D03*
Y88746D02*
D03*
Y93746D02*
D03*
Y98746D02*
D03*
X16930D02*
D03*
Y93746D02*
D03*
Y88746D02*
D03*
Y83746D02*
D03*
D50*
X352063Y61156D02*
D03*
Y33990D02*
D03*
D51*
X191982Y228482D02*
D03*
Y231789D02*
D03*
X200643Y228482D02*
D03*
Y231789D02*
D03*
X213635Y228482D02*
D03*
Y231789D02*
D03*
X209304Y228482D02*
D03*
Y231789D02*
D03*
D52*
X247949Y76286D02*
D03*
Y86286D02*
D03*
Y96286D02*
D03*
Y106286D02*
D03*
X-3953Y234526D02*
D03*
Y224526D02*
D03*
D100*
X235519Y-35362D02*
D03*
X287881D02*
D03*
D112*
X417903Y269366D02*
D03*
X366171D02*
D03*
D115*
X447551Y291247D02*
D03*
X2306Y-39469D02*
D03*
D119*
X139533Y152967D02*
X143467D01*
X143500Y153000D01*
X139500Y152934D02*
X139533Y152967D01*
X199569Y126484D02*
X202702D01*
X202700Y130587D02*
X202702Y130584D01*
X199569D02*
X202702D01*
X180142Y126204D02*
X180166Y126180D01*
X186546Y129046D02*
Y133569D01*
X180166Y126180D02*
X183680D01*
X186546Y129046D01*
X142786Y141391D02*
X142887Y141492D01*
Y141573D01*
X142786Y134835D02*
Y137917D01*
Y141391D01*
X157437Y127063D02*
X157475Y127025D01*
X157437Y127063D02*
Y130612D01*
X157558Y130733D01*
X190748Y43775D02*
X191993D01*
X163644Y49505D02*
X185018D01*
X191993Y43775D02*
X192050Y43717D01*
X185018Y49505D02*
X190748Y43775D01*
X160213Y46074D02*
X163644Y49505D01*
X160213Y31150D02*
Y46074D01*
X170756Y53343D02*
Y57854D01*
X170726Y57884D02*
X170756Y57854D01*
X171587Y46479D02*
X180642D01*
X170001Y43524D02*
Y44892D01*
X169051Y42574D02*
X170001Y43524D01*
Y44892D02*
X171587Y46479D01*
X157558Y130733D02*
X159781D01*
X160711Y131663D01*
X163867D01*
X164298Y132094D02*
Y132858D01*
X163867Y131663D02*
X164298Y132094D01*
X142786Y137917D02*
X142807Y137897D01*
X142780Y137924D02*
X142786Y137917D01*
X142807Y132861D02*
Y137897D01*
Y132861D02*
X142834Y132834D01*
X180094Y126252D02*
X180142Y126204D01*
X202679Y147025D02*
X202682Y147022D01*
X199546Y147025D02*
X202679D01*
X202702Y130584D02*
X202705Y130581D01*
X199546Y138761D02*
X202679D01*
X199536Y155211D02*
X202669D01*
X195474Y235500D02*
X196312Y236338D01*
X193984Y235500D02*
X195474D01*
X196312Y236338D02*
Y239789D01*
Y236338D02*
X196312Y236338D01*
X174227Y297466D02*
X180173D01*
X180171Y281127D02*
Y284455D01*
X178762Y285864D02*
X180171Y284455D01*
X176223Y281127D02*
X180171D01*
X233321Y299239D02*
Y304834D01*
Y299239D02*
X233322Y299238D01*
X342162Y190599D02*
X345016D01*
X332377Y189874D02*
X335230D01*
X67544Y18884D02*
Y22276D01*
X89313Y4758D02*
X93322D01*
X67545Y5193D02*
X71554D01*
X128371Y99732D02*
Y103026D01*
X136644Y119898D02*
X137883Y118659D01*
X134690Y119898D02*
X136644D01*
X137802Y118659D02*
X137883D01*
X257285Y170297D02*
Y175186D01*
X252396Y170297D02*
X257285D01*
Y153364D02*
Y164401D01*
X170026Y160984D02*
Y164144D01*
X152534Y156119D02*
X155393D01*
X152528Y156125D02*
X152534Y156119D01*
X176752Y152679D02*
X180046D01*
X378257Y258696D02*
X378509Y258948D01*
Y263796D01*
X381423Y266710D02*
X389657D01*
X378509Y263796D02*
X381423Y266710D01*
X347083Y184049D02*
Y188532D01*
X345016Y190599D02*
X347083Y188532D01*
X335230Y189874D02*
X337297Y187807D01*
Y183324D02*
Y187807D01*
X148500Y111863D02*
Y114794D01*
X156700Y111863D02*
Y114754D01*
X173100Y111863D02*
Y114769D01*
X164900Y111863D02*
Y114797D01*
X202671Y155210D02*
Y159310D01*
X178023Y229241D02*
X180843D01*
X183451Y164706D02*
Y167854D01*
X175274Y164697D02*
Y167831D01*
X175274Y167831D01*
X175280Y167836D01*
X202705Y122381D02*
Y126481D01*
X202694Y134669D02*
X202700Y134663D01*
Y130587D02*
Y134663D01*
X202688Y142928D02*
X202694Y142933D01*
X202688Y138763D02*
Y142928D01*
X202682Y138758D02*
X202688Y138763D01*
X202676Y147027D02*
X202679Y147025D01*
X202671Y151110D02*
X202676Y151104D01*
Y147027D02*
Y151104D01*
X183451Y167854D02*
X187551D01*
X175280Y167836D02*
X179357D01*
X179362Y167842D01*
X89312Y18521D02*
X89536Y18745D01*
X93698D01*
X224068Y234614D02*
Y239789D01*
X169945Y302228D02*
X178954D01*
X180173Y297466D02*
Y301009D01*
X178954Y302228D02*
X180173Y301009D01*
X174341Y256718D02*
X180171D01*
X233322Y299238D02*
X239152D01*
X168976Y111839D02*
X173076D01*
X164876D02*
X168976D01*
X156676D02*
X160776D01*
X148476D02*
X152576D01*
X174947Y42574D02*
X179135D01*
X180015Y35759D02*
X182787Y38531D01*
X178795Y35759D02*
X180015D01*
X170597Y129357D02*
Y132858D01*
Y129357D02*
X170617Y129337D01*
X167447Y127508D02*
Y132858D01*
X218635Y228223D02*
X222018D01*
X204925Y235927D02*
X204953Y235955D01*
X204925Y233104D02*
Y235927D01*
X204896Y233076D02*
X204925Y233104D01*
X204953Y235955D02*
Y239768D01*
X204974Y239789D01*
X89312Y11041D02*
X89312Y11040D01*
Y4745D02*
Y11040D01*
Y4745D02*
X89313Y4744D01*
X93347Y-17919D02*
Y-2856D01*
X89313Y1178D02*
X93347Y-2856D01*
X82056Y1178D02*
X89313D01*
X83347Y-27919D02*
X93347Y-17919D01*
X67544Y11404D02*
X67544Y11403D01*
Y5194D02*
Y11403D01*
Y5194D02*
X67545Y5193D01*
X56327Y1628D02*
X60331D01*
X53347Y-1352D02*
X56327Y1628D01*
X53347Y-8234D02*
Y-1352D01*
X60331Y1628D02*
X67545D01*
X43347Y-27919D02*
Y-18234D01*
X53347Y-8234D01*
X340595Y113779D02*
X347806D01*
D120*
X145023Y90028D02*
X182772D01*
X190068Y66656D02*
Y82732D01*
X182772Y90028D02*
X190068Y82732D01*
X183517Y92483D02*
X193226Y82774D01*
X142883Y92483D02*
X183517D01*
X193226Y69804D02*
Y82774D01*
X193500Y90600D02*
X196300D01*
X198500Y92800D01*
X195400D02*
X196400Y93800D01*
Y106754D02*
X197382Y107736D01*
X196400Y93800D02*
Y106754D01*
X201704Y67624D02*
Y87358D01*
X193625Y116543D02*
X202000Y108168D01*
X201704Y87358D02*
X202000Y87653D01*
X198500Y92800D02*
Y105500D01*
X193907Y114140D02*
X200500Y107547D01*
X200204Y69925D02*
Y87979D01*
X202000Y87653D02*
Y108168D01*
X200500Y88275D02*
Y107547D01*
X200204Y87979D02*
X200500Y88275D01*
X178800Y112100D02*
X181271Y109629D01*
X178800Y112100D02*
Y118477D01*
X181271Y109629D02*
X184829D01*
X178800Y118477D02*
X191114Y130791D01*
X184829Y109629D02*
X184900Y109700D01*
X181100Y118656D02*
X192614Y130170D01*
X181100Y113500D02*
Y118656D01*
X84700Y144200D02*
X92734Y136166D01*
X64700Y144200D02*
X84700D01*
X51500Y131000D02*
X64700Y144200D01*
X92734Y136166D02*
X125466D01*
X131477Y142177D02*
X137290D01*
X125466Y136166D02*
X131477Y142177D01*
X94000Y139000D02*
X124800D01*
X129977Y144177D01*
X149823D01*
X97251Y152337D02*
X127473D01*
X84931Y164657D02*
X97251Y152337D01*
X180046Y145401D02*
Y149113D01*
Y143995D02*
Y145401D01*
X180146Y145500D01*
X186600D01*
X139500Y156500D02*
Y160000D01*
X92411Y162589D02*
X145609D01*
X74497Y180503D02*
X92411Y162589D01*
X53500Y201000D02*
X67500Y187000D01*
X45500Y201000D02*
X53500D01*
X68009Y202916D02*
X79631Y191294D01*
X84902Y181098D02*
Y200584D01*
X88676Y177324D02*
X122135D01*
X84902Y181098D02*
X88676Y177324D01*
X82193Y179807D02*
X91440Y170560D01*
X111442D01*
X82193Y179807D02*
Y198210D01*
X79631Y178869D02*
Y191294D01*
X89953Y168547D02*
X109947D01*
X79631Y178869D02*
X89953Y168547D01*
X74497Y180503D02*
Y186827D01*
X111442Y170560D02*
X115311Y166692D01*
X165913D01*
X113352Y165143D02*
X166556D01*
X109947Y168547D02*
X113352Y165143D01*
X55523Y205801D02*
X74497Y186827D01*
X43512Y205801D02*
X55523D01*
X206328Y113500D02*
X206457Y113629D01*
X203032Y113500D02*
X206328D01*
X195614Y123274D02*
X203388Y115500D01*
X206457Y113629D02*
X208106D01*
X203388Y115500D02*
X205500D01*
X194114Y122418D02*
X203032Y113500D01*
X203321Y117689D02*
X209522D01*
X197150Y123860D02*
X203321Y117689D01*
X185472Y55193D02*
X200204Y69925D01*
X188262Y54181D02*
X201704Y67624D01*
X191500Y114140D02*
X193907D01*
X189400Y116543D02*
X193625D01*
X187400Y122000D02*
X192411D01*
X238125Y76286D01*
X185557Y120000D02*
X187013Y118543D01*
X185500Y120000D02*
X185557D01*
X187013Y118543D02*
X193746D01*
X192614Y130170D02*
Y163549D01*
X191114Y130791D02*
Y165189D01*
X186500Y137181D02*
Y141000D01*
Y137181D02*
X186546Y137135D01*
X49931Y139755D02*
X50023Y139663D01*
X49931Y139755D02*
Y148350D01*
X55374D02*
X55476Y148248D01*
X49931Y148350D02*
X55374D01*
X84500Y148500D02*
X87500D01*
X84626Y153031D02*
X89469D01*
X92242Y150258D02*
X126563D01*
X89469Y153031D02*
X92242Y150258D01*
X84500Y148500D02*
X94000Y139000D01*
X59294Y148500D02*
X84500D01*
X59042Y148248D02*
X59294Y148500D01*
X149823Y144177D02*
X150000Y144000D01*
X131309Y148500D02*
X152500D01*
X130321Y146500D02*
X155000D01*
X126563Y150258D02*
X130321Y146500D01*
X127473Y152337D02*
X131309Y148500D01*
X79929Y139157D02*
X101706Y117380D01*
X79929Y139157D02*
X79929D01*
X-6951Y131000D02*
X51500D01*
X151735Y127014D02*
Y137578D01*
X159657Y145500D01*
X148912Y124191D02*
X151735Y127014D01*
X140191Y124191D02*
X148912D01*
X149500Y122000D02*
X153500Y126000D01*
Y136963D01*
X143000Y122000D02*
X149500D01*
X153500Y136963D02*
X157948Y141411D01*
X167389Y141470D02*
Y144111D01*
X166000Y145500D02*
X167389Y144111D01*
X159657Y145500D02*
X166000D01*
X167389Y141470D02*
X167447Y141411D01*
X140000Y124000D02*
X140191Y124191D01*
X137833Y110349D02*
X140000Y112516D01*
Y124000D01*
X138705Y108371D02*
X143000Y112667D01*
Y122000D01*
X58095Y11147D02*
Y15144D01*
Y17595D02*
X72000Y31500D01*
X95249D02*
X123407Y59658D01*
X72000Y31500D02*
X95249D01*
X58095Y15144D02*
Y17595D01*
X63000Y34000D02*
X93500D01*
X112500Y53000D01*
X53500Y24500D02*
X63000Y34000D01*
X9000Y24500D02*
X53500D01*
X112500Y53000D02*
Y66500D01*
X125263Y57830D02*
Y68468D01*
X96822Y29389D02*
X125263Y57830D01*
X123407Y59658D02*
Y68468D01*
X83728Y29389D02*
X96822D01*
X112500Y66500D02*
X117500Y71500D01*
X-11201Y126750D02*
X-6951Y131000D01*
X174198Y66517D02*
X176462Y64252D01*
X147877Y52815D02*
X161579Y66517D01*
X174198D01*
X174352Y53313D02*
X174533Y53132D01*
X186942D02*
X187991Y54181D01*
X174533Y53132D02*
X186942D01*
X187991Y54181D02*
X188262D01*
X177246Y57884D02*
X179937Y55193D01*
X174291Y57884D02*
X177246D01*
X179937Y55193D02*
X185472D01*
X147877Y36400D02*
Y52815D01*
X191412Y64252D02*
X196408Y69248D01*
X176462Y64252D02*
X191412D01*
X157948Y141411D02*
X164298D01*
X148878Y156210D02*
Y160656D01*
Y156210D02*
X148962Y156125D01*
X182755Y96700D02*
X195637Y109582D01*
X193746Y118543D02*
X230311Y81978D01*
X193637Y111562D02*
Y111572D01*
X138068Y138724D02*
X138414D01*
X135992Y138847D02*
X137945D01*
X138414Y138724D02*
X139214Y137924D01*
X137945Y138847D02*
X138068Y138724D01*
X136544Y133964D02*
X137641Y132867D01*
X136544Y133964D02*
Y134050D01*
X139235Y132867D02*
X139268Y132834D01*
X137641Y132867D02*
X139235D01*
X191114Y165189D02*
X198957Y173032D01*
X195614Y161422D02*
X201676Y167484D01*
X194114Y162437D02*
X200751Y169074D01*
X192614Y163549D02*
X200069Y171004D01*
X194114Y122418D02*
Y162437D01*
X195614Y123274D02*
Y161422D01*
X197150Y160312D02*
X202822Y165984D01*
X197150Y123860D02*
Y160312D01*
X180825Y98750D02*
X193637Y111562D01*
X140477Y96700D02*
X182755D01*
X139902Y98750D02*
X180825D01*
X238125Y76286D02*
X247949D01*
X230311Y67106D02*
Y81978D01*
X191982Y231789D02*
Y239789D01*
X131937Y103026D02*
X134304D01*
X137412Y106133D01*
X125004Y121327D02*
X126433Y119898D01*
X131124D01*
X206236Y155210D02*
X209502D01*
X209634Y155077D01*
X210109Y160279D02*
Y163984D01*
X209140Y159310D02*
X210109Y160279D01*
X202822Y165984D02*
X210715D01*
X219627Y174897D02*
Y217949D01*
X210715Y165984D02*
X219627Y174897D01*
X201676Y167484D02*
X210093D01*
X217628Y175018D02*
Y205591D01*
X210093Y167484D02*
X217628Y175018D01*
X131572Y179571D02*
X142293Y168850D01*
X157262D01*
X166556Y165143D02*
X171435Y170022D01*
Y174476D01*
X165913Y166692D02*
X169407Y170186D01*
X144217Y177362D02*
X152502D01*
X175239Y224145D02*
X188267Y211118D01*
X175239Y230134D02*
X177912Y232807D01*
X175239Y224145D02*
Y230134D01*
X211362Y226215D02*
X219627Y217949D01*
X211362Y226215D02*
Y229535D01*
X196308Y222259D02*
Y230431D01*
X215956Y175468D02*
Y202610D01*
X196308Y222259D02*
X215956Y202610D01*
X213937Y176178D02*
Y202072D01*
X181626Y225606D02*
X190402D01*
X213937Y202072D01*
X212393Y177774D02*
Y200979D01*
X193901Y219472D02*
X212393Y200979D01*
X183913Y219472D02*
X193901D01*
X208763Y171004D02*
X213937Y176178D01*
X143216Y183225D02*
X210292D01*
X207651Y173032D02*
X212393Y177774D01*
X135426Y183131D02*
X144353Y174204D01*
X119629Y188827D02*
X125325Y183131D01*
X135426D01*
X136532Y185047D02*
X144217Y177362D01*
X127658Y189246D02*
X131857Y185047D01*
X136532D01*
X139536Y186904D02*
X143216Y183225D01*
X129369Y190979D02*
X133444Y186904D01*
X139536D01*
X141436Y188702D02*
X144953Y185185D01*
X131237Y192632D02*
X135167Y188702D01*
X141436D01*
X205572Y185185D02*
X208763Y188375D01*
X144953Y185185D02*
X205572D01*
X209400Y126481D02*
X210068Y125813D01*
X206271Y126481D02*
X209400D01*
X210068Y125813D02*
X210339D01*
X147218Y189973D02*
X171781D01*
X141468Y195723D02*
X147218Y189973D01*
X179760Y223624D02*
X183913Y219472D01*
X179758Y223624D02*
X179760D01*
X173235Y223410D02*
X187078Y209566D01*
X198403D01*
X173235Y223410D02*
Y241383D01*
X188267Y211118D02*
X199485D01*
X141468Y195723D02*
Y219423D01*
X149027Y228041D02*
X149181Y228196D01*
X141468Y219423D02*
X149027Y226981D01*
Y228041D01*
X139872Y193888D02*
Y220217D01*
X145670Y226015D02*
Y232936D01*
X139872Y220217D02*
X145670Y226015D01*
X143368Y226679D02*
Y235995D01*
X138136Y205825D02*
Y221446D01*
X143368Y226679D01*
X135952Y222430D02*
X140888Y227367D01*
X135952Y206396D02*
Y222430D01*
X140888Y227367D02*
Y236987D01*
X134075Y207458D02*
Y223664D01*
X138206Y227795D02*
Y237594D01*
X134075Y223664D02*
X138206Y227795D01*
X132090Y208414D02*
Y224386D01*
X136219Y228515D02*
Y238947D01*
X132090Y224386D02*
X136219Y228515D01*
X130155Y225877D02*
X134466Y230188D01*
X130155Y210158D02*
Y225877D01*
X134466Y230188D02*
Y241739D01*
X206737Y191763D02*
Y201233D01*
X198403Y209566D02*
X206737Y201233D01*
X209172Y198062D02*
Y201431D01*
X199485Y211118D02*
X209172Y201431D01*
X147877Y36400D02*
X152733Y31544D01*
X134013Y181189D02*
X144148Y171054D01*
X166077D01*
X217712Y205607D02*
Y208468D01*
X263318Y131341D02*
Y136577D01*
X270945Y144204D01*
X266885Y131141D02*
Y136377D01*
X272588Y142080D01*
X268894Y134478D02*
X272610D01*
X277285Y139153D01*
X116527Y187210D02*
X122548Y181189D01*
X116527Y187210D02*
Y200880D01*
X122789Y191533D02*
Y202793D01*
X130155Y210158D01*
X125348Y189606D02*
Y201673D01*
X132090Y208414D01*
X100635Y96947D02*
Y103887D01*
X105120Y108371D01*
X138705D01*
X100444Y96756D02*
X100635Y96947D01*
X101918Y110349D02*
X137833D01*
X100026Y108457D02*
X101918Y110349D01*
X119629Y203840D02*
X122605Y206816D01*
X119629Y188827D02*
Y203840D01*
X131237Y198926D02*
X138136Y205825D01*
X127658Y201040D02*
X134075Y207458D01*
X127658Y189246D02*
Y201040D01*
X129369Y190979D02*
Y199813D01*
X135952Y206396D01*
X131237Y192632D02*
Y198926D01*
X145950Y187809D02*
X168257D01*
X139872Y193888D02*
X145950Y187809D01*
X144353Y174204D02*
X166540D01*
X122548Y181189D02*
X134013D01*
X120655Y179571D02*
X131572D01*
X134466Y241739D02*
X141179Y248451D01*
X136219Y238947D02*
X143828Y246555D01*
X101706Y117380D02*
X104850D01*
X98922Y113623D02*
X103763D01*
X75953Y136592D02*
X98922Y113623D01*
X203754Y222426D02*
X217712Y208468D01*
X209562Y169074D02*
X215956Y175468D01*
X222319Y31079D02*
X231809Y40569D01*
Y43484D02*
X231809Y43484D01*
X231809Y40569D02*
Y43484D01*
X222319Y31079D02*
X222319D01*
X143368Y235995D02*
X150108Y242736D01*
Y258820D01*
X148024Y244123D02*
Y257657D01*
X140888Y236987D02*
X148024Y244123D01*
X145866Y245253D02*
Y256691D01*
X138206Y237594D02*
X145866Y245253D01*
X138070Y270858D02*
X150108Y258820D01*
X141179Y248451D02*
Y251897D01*
X114215Y186011D02*
X120655Y179571D01*
X114215Y186011D02*
Y205002D01*
X40462Y209096D02*
X76389D01*
X84902Y200584D01*
X135048Y270634D02*
X148024Y257657D01*
X143828Y246555D02*
Y253988D01*
X141179Y261377D02*
X145866Y256691D01*
X141179Y256637D02*
X143828Y253988D01*
X169407Y170186D02*
Y175485D01*
X174612Y180689D02*
X203710D01*
X169407Y175485D02*
X174612Y180689D01*
X175742Y178783D02*
X200224D01*
X171435Y174476D02*
X175742Y178783D01*
X163055Y160912D02*
X166388D01*
X166460Y160984D01*
X100479Y209242D02*
X109975D01*
X114215Y205002D01*
X99213Y207976D02*
X100479Y209242D01*
X72749Y202554D02*
X77848D01*
X82193Y198210D01*
X125263Y81486D02*
X140477Y96700D01*
X123407Y82255D02*
X139902Y98750D01*
X135296Y80301D02*
X145023Y90028D01*
X131208Y80808D02*
X142883Y92483D01*
X196408Y69248D02*
Y85040D01*
X187511Y171459D02*
X187551Y171420D01*
X187511Y171459D02*
Y175006D01*
X175274Y174232D02*
X176372Y175330D01*
X179362Y174603D02*
X180098Y175338D01*
X183451Y171420D02*
Y174256D01*
X183999Y174803D01*
Y175074D01*
X284869Y142080D02*
X287285Y139665D01*
X272588Y142080D02*
X284869D01*
X270945Y144204D02*
X292570D01*
X297287Y139487D01*
X180046Y143995D02*
X180046Y143995D01*
X180046Y141411D02*
Y143995D01*
X143628Y66480D02*
Y75664D01*
Y66480D02*
X150895Y59214D01*
X139385Y65851D02*
Y75664D01*
Y65851D02*
X145934Y59302D01*
X347071Y180472D02*
X347083Y180483D01*
X347071Y175434D02*
Y180472D01*
X337285Y179746D02*
X337297Y179758D01*
X337285Y174708D02*
Y179746D01*
X246787Y175196D02*
Y242477D01*
X254781Y250471D02*
X294131D01*
X246787Y242477D02*
X254781Y250471D01*
X240078Y168487D02*
X246787Y175196D01*
X198957Y173032D02*
X207651D01*
X232835Y91248D02*
X240078Y98490D01*
Y168487D01*
X232835Y91248D02*
X232835D01*
X138070Y270858D02*
X138070D01*
X135048Y270634D02*
Y275598D01*
X203710Y180689D02*
X205652Y178747D01*
X200224Y178783D02*
X201928Y177078D01*
X205652Y175464D02*
Y178747D01*
X205550Y175361D02*
X205652Y175464D01*
X179362Y171408D02*
Y174603D01*
X222926Y216158D02*
X226358Y219590D01*
X200069Y171004D02*
X208763D01*
X200751Y169074D02*
X209562D01*
X206236Y159310D02*
X209140D01*
X177912Y232807D02*
X180843D01*
X218651Y231773D02*
X223245D01*
X226358Y228660D01*
Y219590D02*
Y228660D01*
X183911Y235875D02*
Y239789D01*
X180843Y232807D02*
X183911Y235875D01*
X175274Y171397D02*
Y174232D01*
X206236Y151110D02*
X206521Y151394D01*
X210295D01*
X206248Y147022D02*
X206272Y146997D01*
X208179D01*
X209688Y145489D01*
X206260Y142933D02*
X208539D01*
X209759Y141713D01*
X206271Y122381D02*
X206459Y122194D01*
X209781D01*
X206271Y130581D02*
X206542Y130310D01*
X209824D01*
X206260Y134669D02*
X209410D01*
X210433Y133646D01*
X206248Y138758D02*
X208300D01*
X209004Y138053D01*
X209231D01*
X203754Y222426D02*
Y230184D01*
X202149Y231789D02*
X203754Y230184D01*
X213635Y231789D02*
X218635D01*
X218651Y231773D01*
X173076Y105032D02*
Y108273D01*
X168976Y105032D02*
Y108273D01*
X164876Y105032D02*
Y108273D01*
X160776Y105032D02*
Y108273D01*
X156439Y108037D02*
X156676Y108273D01*
X156439Y103861D02*
Y108037D01*
X152502Y108200D02*
X152576Y108273D01*
X152502Y103753D02*
Y108200D01*
X149257Y104547D02*
Y104551D01*
X148476Y105333D02*
X149257Y104551D01*
X148476Y105333D02*
Y108273D01*
X152733Y31150D02*
Y31544D01*
X-11201Y105564D02*
Y126750D01*
X123407Y82255D02*
X123407Y68468D01*
X79863Y25524D02*
X83728Y29389D01*
X79863Y14781D02*
Y25524D01*
X125263Y81486D02*
X125263Y68468D01*
X303398Y273022D02*
Y277098D01*
X303375Y272998D02*
X303398Y273022D01*
X295032Y277098D02*
X303398D01*
X180046Y137135D02*
X186546D01*
X82056Y4744D02*
Y8689D01*
X303375Y259715D02*
Y269432D01*
X294131Y250471D02*
X303375Y259715D01*
X194950Y231789D02*
X196308Y230431D01*
X191982Y231789D02*
X194950D01*
X200643D02*
X202149D01*
X209304Y231592D02*
X211362Y229535D01*
X209304Y231592D02*
Y231789D01*
Y239789D01*
X200643Y231789D02*
Y239789D01*
X213635Y231789D02*
Y239789D01*
X79863Y10882D02*
X82056Y8689D01*
X79863Y10882D02*
Y14781D01*
X60331Y5193D02*
Y8911D01*
X58095Y11147D02*
X60331Y8911D01*
X-11201Y97921D02*
Y101998D01*
X-11224Y97898D02*
X-11201Y97921D01*
X-11224Y97898D02*
X-8118D01*
X-7270Y98746D02*
X-2470D01*
X-8118Y97898D02*
X-7270Y98746D01*
D121*
X157399Y134457D02*
X160077Y137135D01*
X164298D01*
X134690Y119898D02*
X134690Y119898D01*
X95647Y207976D02*
Y211664D01*
X156473Y11782D02*
Y21701D01*
X213173Y219865D02*
Y221957D01*
X209304Y225825D02*
X213173Y221957D01*
X213635Y227122D02*
X215599Y225159D01*
X213635Y227122D02*
Y228482D01*
X188584Y228481D02*
X188585Y228482D01*
X200643Y225504D02*
Y228482D01*
Y225504D02*
X201431Y224716D01*
X188585Y228482D02*
X191982D01*
X209304Y225825D02*
Y228482D01*
D122*
X170726Y53313D02*
X170756Y53343D01*
X165854Y53313D02*
X170726D01*
X165432Y53734D02*
X165854Y53313D01*
X160500Y53734D02*
X165432D01*
X156971Y50205D02*
X160500Y53734D01*
X151325Y50205D02*
X156971D01*
X176576Y126204D02*
Y126400D01*
X176581Y126404D01*
X173132Y126228D02*
X176552D01*
X176896Y145286D02*
X176897Y145287D01*
X176896Y141411D02*
Y145286D01*
X163910Y36936D02*
X165082Y35765D01*
X168907D01*
X163910Y36936D02*
Y40992D01*
X168907Y35765D02*
X168913Y35759D01*
X165492Y42574D02*
X169051D01*
X163910Y40992D02*
X165492Y42574D01*
X176581Y129063D02*
X176940Y129422D01*
X176581Y126404D02*
Y129063D01*
X176940Y129422D02*
Y132815D01*
X176896Y132858D02*
X176940Y132815D01*
X180046Y132858D02*
X180094Y132810D01*
Y126252D02*
Y132810D01*
D124*
X46609Y73056D02*
D03*
X36609Y78056D02*
D03*
X46609Y83056D02*
D03*
X36609Y88056D02*
D03*
X46609Y93056D02*
D03*
X36609Y98056D02*
D03*
X46609Y103056D02*
D03*
X36609Y108056D02*
D03*
D125*
X-398Y59553D02*
D03*
Y121560D02*
D03*
D126*
X46609Y154362D02*
D03*
Y164362D02*
D03*
Y174362D02*
D03*
X56609Y159362D02*
D03*
Y169362D02*
D03*
D127*
Y179362D02*
D03*
D128*
X378257Y258696D02*
D03*
X388100D02*
D03*
X395974D02*
D03*
D129*
X405816D02*
D03*
D130*
X53347Y-8234D02*
D03*
X43347Y-27919D02*
D03*
D131*
X73347Y-8234D02*
D03*
X93347D02*
D03*
X113347D02*
D03*
X63347Y-27919D02*
D03*
X83347D02*
D03*
X103347D02*
D03*
X143347D02*
D03*
X153347Y-8234D02*
D03*
X123347Y-27919D02*
D03*
X133347Y-8234D02*
D03*
D132*
X309876Y257517D02*
D03*
X313892Y265510D02*
D03*
X317908Y257517D02*
D03*
X321924Y265510D02*
D03*
X325939Y257517D02*
D03*
X329955Y265510D02*
D03*
X262357Y257517D02*
D03*
X266372Y265510D02*
D03*
X270388Y257517D02*
D03*
X274404Y265510D02*
D03*
X278420Y257517D02*
D03*
X282435Y265510D02*
D03*
D133*
X243983Y-6543D02*
D03*
X255794D02*
D03*
X267605D02*
D03*
X279416D02*
D03*
X243983Y-18355D02*
D03*
X255794D02*
D03*
X267605D02*
D03*
D134*
X279416D02*
D03*
D135*
X404300Y205100D02*
D03*
X-500Y288000D02*
D03*
X0Y0D02*
D03*
X404400Y-900D02*
D03*
D136*
X349304Y-11580D02*
D03*
X326470D02*
D03*
X328045Y-25950D02*
D03*
X347730D02*
D03*
X368596Y-6265D02*
D03*
X307178D02*
D03*
D137*
X337887Y-47604D02*
D03*
D138*
X368596Y-39730D02*
D03*
X307178D02*
D03*
D139*
X247949Y116286D02*
D03*
X-3953Y214526D02*
D03*
D140*
X185800Y82200D02*
D03*
X193500Y90600D02*
D03*
X198500Y105500D02*
D03*
X195400Y92800D02*
D03*
X181100Y113500D02*
D03*
X184900Y109700D02*
D03*
X186600Y145500D02*
D03*
X233000Y160400D02*
D03*
X233200Y176800D02*
D03*
X143500Y153000D02*
D03*
X139500Y160000D02*
D03*
X67500Y187000D02*
D03*
X68009Y202916D02*
D03*
X120236Y170253D02*
D03*
X109500Y181939D02*
D03*
X45500Y201000D02*
D03*
X145609Y162589D02*
D03*
X205500Y115500D02*
D03*
X199569Y130584D02*
D03*
Y126484D02*
D03*
X197382Y107736D02*
D03*
X203704Y83761D02*
D03*
X191500Y114140D02*
D03*
X189400Y116543D02*
D03*
X187400Y122000D02*
D03*
X185500Y120000D02*
D03*
X182718Y125454D02*
D03*
X186500Y141000D02*
D03*
X72500Y108500D02*
D03*
X67500D02*
D03*
X72500Y121500D02*
D03*
X67500D02*
D03*
X87500Y148500D02*
D03*
X116795Y147125D02*
D03*
X142887Y141573D02*
D03*
X150000Y144000D02*
D03*
X152500Y148500D02*
D03*
X155000Y146500D02*
D03*
X79929Y139157D02*
D03*
X116440Y128418D02*
D03*
X157475Y127025D02*
D03*
X140000Y124000D02*
D03*
X143000Y122000D02*
D03*
X9000Y24500D02*
D03*
X67544Y22276D02*
D03*
X117500Y71500D02*
D03*
X68500Y37500D02*
D03*
X68570Y45828D02*
D03*
X69070Y68328D02*
D03*
X64570D02*
D03*
X60070D02*
D03*
X59518Y51117D02*
D03*
X180642Y46479D02*
D03*
X161334Y63258D02*
D03*
X180497Y59258D02*
D03*
X84626Y153031D02*
D03*
X84931Y164657D02*
D03*
X105695Y157923D02*
D03*
X148878Y160656D02*
D03*
X195637Y109582D02*
D03*
X193637Y111572D02*
D03*
X137290Y142177D02*
D03*
X136544Y134050D02*
D03*
X173132Y126228D02*
D03*
X176897Y145287D02*
D03*
X199546Y147025D02*
D03*
Y138761D02*
D03*
X199536Y155211D02*
D03*
X103041Y144004D02*
D03*
X193984Y235500D02*
D03*
X196312Y236338D02*
D03*
X-10852Y243001D02*
D03*
X-8017Y256951D02*
D03*
X12930Y243001D02*
D03*
X5888Y236004D02*
D03*
X22717Y257881D02*
D03*
X174227Y297466D02*
D03*
X178762Y285864D02*
D03*
X176223Y281127D02*
D03*
X233321Y304834D02*
D03*
X185472Y55193D02*
D03*
X209522Y117689D02*
D03*
X208106Y113629D02*
D03*
X128371Y99730D02*
D03*
X137412Y106133D02*
D03*
X125004Y121327D02*
D03*
X137883Y118659D02*
D03*
X209634Y155077D02*
D03*
X210109Y163984D02*
D03*
X157262Y168850D02*
D03*
X152502Y177362D02*
D03*
X217628Y205591D02*
D03*
X210292Y183225D02*
D03*
X186301Y222790D02*
D03*
X179758Y223624D02*
D03*
X181626Y225606D02*
D03*
X178138Y104393D02*
D03*
X144495Y217876D02*
D03*
X206737Y191763D02*
D03*
X209172Y198062D02*
D03*
X166077Y171054D02*
D03*
X184432Y203370D02*
D03*
X201232Y203393D02*
D03*
X263978Y150395D02*
D03*
X260683Y142595D02*
D03*
X263318Y131341D02*
D03*
X266885Y131141D02*
D03*
X268894Y134478D02*
D03*
X257285Y175186D02*
D03*
X252396Y170297D02*
D03*
X257285Y153364D02*
D03*
X170026Y164144D02*
D03*
X147877Y36380D02*
D03*
X156450Y41142D02*
D03*
X185054Y42076D02*
D03*
X116527Y200880D02*
D03*
X122789Y191533D02*
D03*
X125348Y189606D02*
D03*
X122135Y177324D02*
D03*
X155393Y156119D02*
D03*
X100444Y96756D02*
D03*
X100026Y108457D02*
D03*
X447759Y191222D02*
D03*
X122605Y206816D02*
D03*
X120035Y173819D02*
D03*
X145670Y232936D02*
D03*
X82056Y8689D02*
D03*
X60331Y8911D02*
D03*
X449064Y251954D02*
D03*
X107653Y201791D02*
D03*
X208763Y188375D02*
D03*
X234269Y40417D02*
D03*
X231809Y43484D02*
D03*
X222319Y31079D02*
D03*
X149181Y228196D02*
D03*
X149442Y195635D02*
D03*
X171781Y189973D02*
D03*
X168257Y187809D02*
D03*
X137061Y191091D02*
D03*
X166540Y174204D02*
D03*
X137405Y200914D02*
D03*
X163055Y160912D02*
D03*
X133574Y197061D02*
D03*
X153008Y195730D02*
D03*
X347618Y123397D02*
D03*
X100564Y181932D02*
D03*
X43512Y205801D02*
D03*
X40462Y209096D02*
D03*
X85991Y206780D02*
D03*
X95629Y198635D02*
D03*
X95647Y211664D02*
D03*
X193226Y69804D02*
D03*
X180320Y82307D02*
D03*
X190068Y66656D02*
D03*
X172111Y82304D02*
D03*
X275477Y229364D02*
D03*
X270850Y233981D02*
D03*
X408941Y241296D02*
D03*
X404455Y230685D02*
D03*
X404799Y236795D02*
D03*
X380979Y33921D02*
D03*
X381057Y39617D02*
D03*
X380930Y28619D02*
D03*
X380951Y23726D02*
D03*
X374972Y23817D02*
D03*
X187511Y175006D02*
D03*
X176372Y175330D02*
D03*
X180098Y175338D02*
D03*
X183999Y175074D02*
D03*
X403561Y244714D02*
D03*
X394677Y244436D02*
D03*
X156473Y11782D02*
D03*
X374951Y28710D02*
D03*
X375078Y39709D02*
D03*
X374999Y34012D02*
D03*
X369185Y23681D02*
D03*
X369236Y29177D02*
D03*
X369118Y34114D02*
D03*
X369146Y39748D02*
D03*
X290950Y13727D02*
D03*
X290900Y22260D02*
D03*
X282813Y22310D02*
D03*
X282714Y14024D02*
D03*
X282516Y5441D02*
D03*
X176135Y272805D02*
D03*
X176003Y267737D02*
D03*
X175893Y263064D02*
D03*
X176753Y152679D02*
D03*
X203785Y24756D02*
D03*
X196326Y32374D02*
D03*
X211002Y25291D02*
D03*
Y32814D02*
D03*
X214764Y29052D02*
D03*
X211502Y39227D02*
D03*
X253782Y37770D02*
D03*
X252511Y28413D02*
D03*
X245393Y28231D02*
D03*
X245336Y34865D02*
D03*
X249121Y42779D02*
D03*
X161334Y76274D02*
D03*
X135296Y80301D02*
D03*
X145934Y59302D02*
D03*
X150895Y59214D02*
D03*
X143628Y75664D02*
D03*
X139385Y75664D02*
D03*
X188262Y54181D02*
D03*
X238347Y45010D02*
D03*
Y35824D02*
D03*
X222481Y-2429D02*
D03*
X365766Y240249D02*
D03*
X365552Y245469D02*
D03*
X365734Y250528D02*
D03*
X336896Y211764D02*
D03*
X342163Y190600D02*
D03*
X332377Y189874D02*
D03*
X337299Y204351D02*
D03*
X347071Y175434D02*
D03*
X337285Y174708D02*
D03*
X394577Y235792D02*
D03*
X364232Y226962D02*
D03*
X367784Y222074D02*
D03*
X360482Y222106D02*
D03*
X367688Y231907D02*
D03*
X360642D02*
D03*
X399197Y240118D02*
D03*
X398609Y230976D02*
D03*
X389742Y239957D02*
D03*
Y231468D02*
D03*
X383451Y217460D02*
D03*
X324485Y144288D02*
D03*
X238297Y209455D02*
D03*
X242425Y213577D02*
D03*
X322996Y90505D02*
D03*
X323077Y72314D02*
D03*
X322955Y78300D02*
D03*
X322935Y84327D02*
D03*
X354430Y135453D02*
D03*
X360690Y135505D02*
D03*
X366334Y135582D02*
D03*
X354391Y130003D02*
D03*
X360516Y129983D02*
D03*
X366084Y129898D02*
D03*
X273720Y139456D02*
D03*
X347587Y204671D02*
D03*
X229844Y229496D02*
D03*
X233969Y233965D02*
D03*
X291180Y147581D02*
D03*
X310165Y105491D02*
D03*
X310091Y113137D02*
D03*
X310200Y97835D02*
D03*
X310265Y89927D02*
D03*
X302678Y105491D02*
D03*
X302604Y113137D02*
D03*
X302713Y97835D02*
D03*
X302779Y89927D02*
D03*
X295431Y105311D02*
D03*
X295357Y112958D02*
D03*
X295465Y97655D02*
D03*
X295531Y89747D02*
D03*
X288293Y89544D02*
D03*
X288227Y97452D02*
D03*
X288268Y120476D02*
D03*
X288118Y112755D02*
D03*
X288193Y105108D02*
D03*
X288059Y81042D02*
D03*
X297287Y139487D02*
D03*
X287285Y139665D02*
D03*
X283719Y139439D02*
D03*
X293722Y139568D02*
D03*
X313720Y139479D02*
D03*
X412912Y127810D02*
D03*
X413040Y135969D02*
D03*
X421242Y135884D02*
D03*
X446069Y128011D02*
D03*
Y136475D02*
D03*
X421455Y127726D02*
D03*
X430147Y127886D02*
D03*
X429614Y135938D02*
D03*
X438252Y128152D02*
D03*
X438184Y136316D02*
D03*
X334788Y51716D02*
D03*
X335227Y59588D02*
D03*
X354953Y48805D02*
D03*
X346385Y48765D02*
D03*
X338214Y49084D02*
D03*
X330801Y48765D02*
D03*
X338566Y55888D02*
D03*
X331092Y55985D02*
D03*
X338566Y62876D02*
D03*
X331168Y63159D02*
D03*
X230311Y67106D02*
D03*
X232835Y91248D02*
D03*
X105127Y213843D02*
D03*
X60290Y285078D02*
D03*
X131196Y280338D02*
D03*
X52751Y269860D02*
D03*
X48169Y274442D02*
D03*
X206366Y229892D02*
D03*
X317083Y204550D02*
D03*
X297687Y204688D02*
D03*
X276871Y204792D02*
D03*
X267279Y204711D02*
D03*
X286912Y204977D02*
D03*
X307599Y204804D02*
D03*
X327293Y204689D02*
D03*
X234241Y134823D02*
D03*
X196060Y174946D02*
D03*
X231001Y195987D02*
D03*
X102624Y246011D02*
D03*
X95254Y246259D02*
D03*
X88504Y246110D02*
D03*
X88095Y253417D02*
D03*
X95466Y253169D02*
D03*
X102216Y253317D02*
D03*
X102428Y260227D02*
D03*
X95678Y260078D02*
D03*
X88307Y260327D02*
D03*
X131220Y242417D02*
D03*
X148482Y270858D02*
D03*
Y275598D02*
D03*
X135048Y275598D02*
D03*
X138070Y270858D02*
D03*
X75953Y136592D02*
D03*
X104850Y117380D02*
D03*
X103763Y113623D02*
D03*
X72749Y202554D02*
D03*
X201928Y177078D02*
D03*
X205550Y175361D02*
D03*
X223069Y189809D02*
D03*
X222926Y216158D02*
D03*
X277285Y139153D02*
D03*
X307285Y140399D02*
D03*
X311178Y147595D02*
D03*
X281178Y147581D02*
D03*
X271178Y147595D02*
D03*
X263056Y76286D02*
D03*
X263069Y116286D02*
D03*
Y106077D02*
D03*
Y86077D02*
D03*
X263891Y101077D02*
D03*
Y91077D02*
D03*
X148500Y114794D02*
D03*
X156700Y114754D02*
D03*
X173100Y114769D02*
D03*
X164900Y114797D02*
D03*
X56060Y266828D02*
D03*
X229642Y126102D02*
D03*
X229705Y129671D02*
D03*
X236312Y108652D02*
D03*
X234446Y143008D02*
D03*
X211585Y77201D02*
D03*
X178023Y229241D02*
D03*
X173235Y241383D02*
D03*
X213173Y219865D02*
D03*
X215599Y225159D02*
D03*
X135992Y138847D02*
D03*
X183451Y164706D02*
D03*
X175274Y164697D02*
D03*
X196408Y85040D02*
D03*
X210339Y125813D02*
D03*
X209781Y122194D02*
D03*
X209759Y141713D02*
D03*
X209231Y138053D02*
D03*
X209824Y130310D02*
D03*
X210295Y151394D02*
D03*
X209688Y145489D02*
D03*
X210433Y133646D02*
D03*
X347806Y113779D02*
D03*
X85991Y210346D02*
D03*
X56002Y225343D02*
D03*
X55751Y237410D02*
D03*
X206701Y226810D02*
D03*
X201431Y224716D02*
D03*
X188584Y228481D02*
D03*
X3168Y217833D02*
D03*
X8926Y227833D02*
D03*
X93698Y18745D02*
D03*
X114086Y120360D02*
D03*
X112951Y105894D02*
D03*
X224068Y234614D02*
D03*
X169945Y302228D02*
D03*
X174341Y256718D02*
D03*
X239152Y299238D02*
D03*
X186952Y235033D02*
D03*
X50891Y237663D02*
D03*
X50944Y223272D02*
D03*
X173076Y105032D02*
D03*
X168976D02*
D03*
X164876D02*
D03*
X160776D02*
D03*
X156439Y103861D02*
D03*
X152502Y103753D02*
D03*
X149257Y104547D02*
D03*
X222096Y36634D02*
D03*
X221578Y71028D02*
D03*
X306004Y234059D02*
D03*
X306098Y228236D02*
D03*
X323942Y233620D02*
D03*
X317399Y233839D02*
D03*
X311326Y234027D02*
D03*
X323786Y228299D02*
D03*
X317305Y228173D02*
D03*
X311326Y228361D02*
D03*
X273583Y212596D02*
D03*
X267725Y212646D02*
D03*
X151325Y50205D02*
D03*
X195220Y37858D02*
D03*
X189758Y37792D02*
D03*
X179135Y42574D02*
D03*
X198604Y25552D02*
D03*
X200727Y28780D02*
D03*
X195835Y28389D02*
D03*
X182787Y38531D02*
D03*
X210595Y71305D02*
D03*
X199044Y59418D02*
D03*
X192050Y43717D02*
D03*
X191655Y48262D02*
D03*
X160943Y86244D02*
D03*
X198829Y54334D02*
D03*
X131208Y80808D02*
D03*
X147728Y80792D02*
D03*
X199092Y48736D02*
D03*
X209897Y48515D02*
D03*
X204659Y48377D02*
D03*
X209633Y54113D02*
D03*
X204395Y53975D02*
D03*
X204610Y59059D02*
D03*
X209848Y59197D02*
D03*
X305268Y291890D02*
D03*
X303459Y284421D02*
D03*
X301143Y296708D02*
D03*
X293688Y296708D02*
D03*
X141179Y261377D02*
D03*
Y251897D02*
D03*
Y256637D02*
D03*
X167447Y127508D02*
D03*
X170617Y129337D02*
D03*
X208535Y86031D02*
D03*
X215223Y89258D02*
D03*
X176792Y207249D02*
D03*
X230343Y183069D02*
D03*
Y186634D02*
D03*
X235955Y120988D02*
D03*
X177514Y196338D02*
D03*
X181080D02*
D03*
X222159Y228253D02*
D03*
X204896Y233076D02*
D03*
X204953Y235955D02*
D03*
X118314Y97113D02*
D03*
X121886Y97125D02*
D03*
X116807Y143553D02*
D03*
X116451Y124846D02*
D03*
X157519Y86084D02*
D03*
X230157Y147323D02*
D03*
X230146Y150895D02*
D03*
X93286Y4758D02*
D03*
X71518Y5193D02*
D03*
X65525Y51172D02*
D03*
X65070Y55828D02*
D03*
X59493Y55993D02*
D03*
X-7320Y41300D02*
D03*
X-13407Y41101D02*
D03*
X-7085Y47496D02*
D03*
X-13281Y47640D02*
D03*
X-9066Y80307D02*
D03*
X-9038Y87154D02*
D03*
X-14255Y87097D02*
D03*
X-14384Y80449D02*
D03*
D141*
X168913Y35759D02*
D03*
Y28279D02*
D03*
X178795D02*
D03*
Y32019D02*
D03*
Y35759D02*
D03*
D142*
X246773Y14239D02*
D03*
X273938D02*
D03*
X324549Y13423D02*
D03*
X351714D02*
D03*
D143*
X393987Y266710D02*
D03*
X389657D02*
D03*
D144*
X164298Y137135D02*
D03*
X180046D02*
D03*
D145*
X167447Y141411D02*
D03*
X170597D02*
D03*
X173747D02*
D03*
X176896D02*
D03*
X164298D02*
D03*
X180046D02*
D03*
X164298Y132858D02*
D03*
X167447D02*
D03*
X170597D02*
D03*
X173747D02*
D03*
X176896D02*
D03*
X180046D02*
D03*
D146*
X335478Y219874D02*
D03*
X270912D02*
D03*
D147*
X180173Y297466D02*
D03*
D148*
X233322Y299238D02*
D03*
D149*
X180171Y256718D02*
D03*
X224068Y239789D02*
D03*
D150*
X183911D02*
D03*
X196312D02*
D03*
X204974D02*
D03*
X213635D02*
D03*
X187651D02*
D03*
X200643D02*
D03*
X217966D02*
D03*
X209304D02*
D03*
X191982D02*
D03*
D151*
X180171Y281127D02*
D03*
X89312Y18521D02*
D03*
Y11041D02*
D03*
X79863Y14781D02*
D03*
X67544Y18884D02*
D03*
Y11404D02*
D03*
X58095Y15144D02*
D03*
D152*
X387836Y146319D02*
D03*
Y134508D02*
D03*
M02*
