M48
;Layer_Color=9474304
;FILE_FORMAT=2:5
INCH,TZ
;TYPE=PLATED
T1F00S00C0.00800
T3F00S00C0.03500
T4F00S00C0.03543
T5F00S00C0.03700
T6F00S00C0.03819
T7F00S00C0.04000
T9F00S00C0.04200
T10F00S00C0.05000
T11F00S00C0.06496
T12F00S00C0.08700
T13F00S00C0.09100
T14F00S00C0.09500
;TYPE=NON_PLATED
T15F00S00C0.04000
T16F00S00C0.04921
T17F00S00C0.06693
T18F00S00C0.06700
T19F00S00C0.09448
T20F00S00C0.12598
T21F00S00C0.13000
T22F00S00C0.13110
%
T01
X369185Y23681
X369236Y29177
X369118Y34114
X369146Y39748
X375078Y39709
X374999Y34012
X374951Y28710
X374972Y23817
X380951Y23726
X380930Y28619
X380979Y33921
X381057Y39617
X354953Y48805
X346385Y48765
X338214Y49084
X334788Y51716
X330801Y48765
X331092Y55985
X331168Y63159
X335227Y59588
X338566Y62876
Y55888
X290900Y22260
X282813Y22310
X282714Y14024
X290950Y13727
X282516Y5441
X252511Y28413
X245393Y28231
X245336Y34865
X238347Y35824
X234269Y40417
X231809Y43484
X238347Y45010
X249121Y42779
X253782Y37770
X222096Y36634
X222319Y31079
X214764Y29052
X211002Y25291
Y32814
X211502Y39227
X209897Y48515
X204659Y48377
X204395Y53975
X204610Y59059
X209848Y59197
X209633Y54113
X198829Y54334
X199044Y59418
X199092Y48736
X191655Y48262
X192050Y43717
X189758Y37792
X195220Y37858
X196326Y32374
X195835Y28389
X200727Y28780
X198604Y25552
X203785Y24756
X185054Y42076
X185472Y55193
X188262Y54181
X222481Y-2429
X156473Y11782
X156450Y41142
X147877Y36380
X151325Y50205
X150895Y59214
X145934Y59302
X161334Y63258
X180497Y59258
X180642Y46479
X179135Y42574
X182787Y38531
X93698Y18745
X93286Y4758
X82056Y8689
X71518Y5193
X60331Y8911
X67544Y22276
X68500Y37500
X68570Y45828
X65525Y51172
X65070Y55828
X59493Y55993
X59518Y51117
X-7085Y47496
X-13281Y47640
X-13407Y41101
X-7320Y41300
X9000Y24500
X-9066Y80307
X-14384Y80449
X-14255Y87097
X-9038Y87154
X3168Y217833
X40462Y209096
X43512Y205801
X45500Y201000
X68009Y202916
X72749Y202554
X85991Y206780
Y210346
X95647Y211664
X105127Y213843
X107653Y201791
X116527Y200880
X122605Y206816
X122789Y191533
X125348Y189606
X137061Y191091
X133574Y197061
X137405Y200914
X149442Y195635
X153008Y195730
X152502Y177362
X157262Y168850
X166077Y171054
X166540Y174204
X176372Y175330
X180098Y175338
X175274Y164697
X170026Y164144
X163055Y160912
X155393Y156119
X155000Y146500
X152500Y148500
X150000Y144000
X142887Y141573
X137290Y142177
X135992Y138847
X136544Y134050
X140000Y124000
X143000Y122000
X137883Y118659
X137412Y106133
X149257Y104547
X152502Y103753
X156439Y103861
X160776Y105032
X164876
X168976
X173076
X178138Y104393
X181100Y113500
X173100Y114769
X164900Y114797
X156700Y114754
X148500Y114794
X157475Y127025
X167447Y127508
X170617Y129337
X173132Y126228
X182718Y125454
X176897Y145287
X176753Y152679
X143500Y153000
X139500Y160000
X145609Y162589
X148878Y160656
X120236Y170253
X120035Y173819
X122135Y177324
X109500Y181939
X100564Y181932
X95629Y198635
X67500Y187000
X84931Y164657
X84626Y153031
X87500Y148500
X79929Y139157
X75953Y136592
X72500Y121500
X67500
Y108500
X72500
X100026Y108457
X103763Y113623
X104850Y117380
X114086Y120360
X116451Y124846
X116440Y128418
X116807Y143553
X116795Y147125
X103041Y144004
X105695Y157923
X125004Y121327
X128371Y99730
X121886Y97125
X118314Y97113
X112951Y105894
X100444Y96756
X117500Y71500
X131208Y80808
X135296Y80301
X139385Y75664
X143628Y75664
X147728Y80792
X157519Y86084
X160943Y86244
X161334Y76274
X172111Y82304
X180320Y82307
X181080Y196338
X177514
X176792Y207249
X171781Y189973
X168257Y187809
X144495Y217876
X69070Y68328
X64570
X60070
X190068Y66656
X193226Y69804
X196408Y85040
X193500Y90600
X195400Y92800
X198500Y105500
X197382Y107736
X195637Y109582
X193637Y111572
X191500Y114140
X189400Y116543
X185500Y120000
X187400Y122000
X184900Y109700
X205500Y115500
X208106Y113629
X209522Y117689
X209781Y122194
X210339Y125813
X209824Y130310
X210433Y133646
X209231Y138053
X209759Y141713
X209688Y145489
X210295Y151394
X209634Y155077
X210109Y163984
X205550Y175361
X201928Y177078
X196060Y174946
X187511Y175006
X183999Y175074
X183451Y164706
X186600Y145500
X186500Y141000
X199546Y138761
X199569Y130584
Y126484
X199546Y147025
X199536Y155211
X230146Y150895
X230157Y147323
X234446Y143008
X234241Y134823
X229705Y129671
X229642Y126102
X235955Y120988
X236312Y108652
X232835Y91248
X215223Y89258
X208535Y86031
X203704Y83761
X211585Y77201
X210595Y71305
X221578Y71028
X230311Y67106
X263056Y76286
X263069Y86077
X263891Y91077
Y101077
X263069Y106077
Y116286
X263318Y131341
X266885Y131141
X268894Y134478
X273720Y139456
X277285Y139153
X283719Y139439
X287285Y139665
X293722Y139568
X297287Y139487
X307285Y140399
X313720Y139479
X311178Y147595
X324485Y144288
X291180Y147581
X281178
X271178Y147595
X263978Y150395
X257285Y153364
X260683Y142595
X257285Y175186
X252396Y170297
X233200Y176800
X230343Y183069
Y186634
X231001Y195987
X223069Y189809
X208763Y188375
X206737Y191763
X209172Y198062
X201232Y203393
X184432Y203370
X217628Y205591
X222926Y216158
X213173Y219865
X238297Y209455
X242425Y213577
X267725Y212646
X273583Y212596
X276871Y204792
X267279Y204711
X286912Y204977
X297687Y204688
X307599Y204804
X317083Y204550
X327293Y204689
X337299Y204351
X336896Y211764
X332377Y189874
X337285Y174708
X310091Y113137
X302604
X295357Y112958
X288118Y112755
X288193Y105108
X295431Y105311
X302678Y105491
X310165
X310200Y97835
X302713
X295465Y97655
X288227Y97452
X288293Y89544
X295531Y89747
X302779Y89927
X310265
X322996Y90505
X322935Y84327
X322955Y78300
X323077Y72314
X288059Y81042
X288268Y120476
X233000Y160400
X210292Y183225
X185800Y82200
X347806Y113779
X347618Y123397
X354391Y130003
X354430Y135453
X360690Y135505
X360516Y129983
X366084Y129898
X366334Y135582
X413040Y135969
X412912Y127810
X421455Y127726
X421242Y135884
X429614Y135938
X430147Y127886
X438252Y128152
X446069Y128011
Y136475
X438184Y136316
X447759Y191222
X383451Y217460
X347587Y204671
X342163Y190600
X347071Y175434
X360482Y222106
X367784Y222074
X364232Y226962
X367688Y231907
X360642
X365766Y240249
X365552Y245469
X365734Y250528
X389742Y239957
Y231468
X394577Y235792
X394677Y244436
X399197Y240118
X404799Y236795
X404455Y230685
X398609Y230976
X403561Y244714
X408941Y241296
X449064Y251954
X323942Y233620
X323786Y228299
X317305Y228173
X317399Y233839
X311326Y234027
X306004Y234059
X306098Y228236
X311326Y228361
X275477Y229364
X270850Y233981
X233969Y233965
X229844Y229496
X222159Y228253
X224068Y234614
X215599Y225159
X206701Y226810
X206366Y229892
X204896Y233076
X204953Y235955
X196312Y236338
X193984Y235500
X186952Y235033
X188584Y228481
X186301Y222790
X201431Y224716
X233321Y304834
X239152Y299238
X293688Y296708
X301143Y296708
X305268Y291890
X303459Y284421
X178762Y285864
X176223Y281127
X176135Y272805
X176003Y267737
X175893Y263064
X174341Y256718
X173235Y241383
X178023Y229241
X181626Y225606
X179758Y223624
X149181Y228196
X145670Y232936
X141179Y251897
Y256637
Y261377
X138070Y270858
X135048Y275598
X131196Y280338
X148482Y275598
Y270858
X131220Y242417
X102624Y246011
X95254Y246259
X88504Y246110
X88095Y253417
X88307Y260327
X95678Y260078
X102428Y260227
X102216Y253317
X95466Y253169
X56060Y266828
X52751Y269860
X48169Y274442
X60290Y285078
X55751Y237410
X50891Y237663
X50944Y223272
X56002Y225343
X174227Y297466
X169945Y302228
X22717Y257881
X12930Y243001
X5888Y236004
X8926Y227833
X-10852Y243001
X-8017Y256951
T03
X46609Y154362
Y164362
Y174362
X56609Y169362
Y159362
Y179362
T04
X262357Y257517
X270388
X278420
X274404Y265510
X266372
X282435
X313892
X321924
X329955
X325939Y257517
X317908
X309876
T05
X378257Y258696
X388100
X395974
X405816
T06
X36609Y78056
Y88056
Y98056
Y108056
X46609Y103056
Y93056
Y83056
Y73056
T07
X-3953Y214526
X247949Y116286
Y106286
Y96286
Y86286
Y76286
X-3953Y224526
Y234526
T09
X243983Y-18355
Y-6543
X255794
Y-18355
X267605
Y-6543
X279416
Y-18355
T10
X43347Y-27919
X63347
X83347
X103347
X123347
X143347
X153347Y-8234
X133347
X113347
X93347
X73347
X53347
T11
X-398Y59553
Y121560
T12
X368596Y-39730
X307178
T13
X366171Y269366
X417903
T14
X235519Y-35362
X287881
T15
X316974Y219874
T16
X287644Y219874
T17
X198476Y-31793
Y-4234
T18
X347730Y-39730
X328045
T19
X404400Y-900
X0Y0
X404300Y205100
X-500Y288000
T20
X253656Y277517
X338656
T21
X21609Y146842
Y186842
T22
X11609Y68056
Y113056
M30
