G04*
G04 #@! TF.GenerationSoftware,Altium Limited,Altium Designer,21.4.1 (30)*
G04*
G04 Layer_Color=16711935*
%FSLAX25Y25*%
%MOIN*%
G70*
G04*
G04 #@! TF.SameCoordinates,04E9EE4E-D336-421F-817C-04C26E83230A*
G04*
G04*
G04 #@! TF.FilePolarity,Negative*
G04*
G01*
G75*
%ADD19R,0.02400X0.02400*%
%ADD52C,0.06000*%
%ADD53R,0.02800X0.02800*%
%ADD57R,0.03156X0.08200*%
%ADD58R,0.02800X0.02800*%
%ADD62R,0.03550X0.04337*%
%ADD70R,0.05128X0.07687*%
%ADD72R,0.03800X0.04300*%
%ADD89R,0.05100X0.07500*%
%ADD90R,0.04300X0.03800*%
%ADD91R,0.08200X0.03156*%
%ADD92R,0.13392X0.10243*%
%ADD93R,0.01581X0.01975*%
%ADD94C,0.06334*%
%ADD95C,0.10138*%
%ADD96C,0.00394*%
%ADD97C,0.00400*%
%ADD98C,0.05900*%
G04:AMPARAMS|DCode=99|XSize=59mil|YSize=59mil|CornerRadius=15.75mil|HoleSize=0mil|Usage=FLASHONLY|Rotation=270.000|XOffset=0mil|YOffset=0mil|HoleType=Round|Shape=RoundedRectangle|*
%AMROUNDEDRECTD99*
21,1,0.05900,0.02750,0,0,270.0*
21,1,0.02750,0.05900,0,0,270.0*
1,1,0.03150,-0.01375,-0.01375*
1,1,0.03150,-0.01375,0.01375*
1,1,0.03150,0.01375,0.01375*
1,1,0.03150,0.01375,-0.01375*
%
%ADD99ROUNDEDRECTD99*%
%ADD100C,0.11500*%
%ADD101C,0.06100*%
G04:AMPARAMS|DCode=102|XSize=61mil|YSize=61mil|CornerRadius=16.25mil|HoleSize=0mil|Usage=FLASHONLY|Rotation=180.000|XOffset=0mil|YOffset=0mil|HoleType=Round|Shape=RoundedRectangle|*
%AMROUNDEDRECTD102*
21,1,0.06100,0.02850,0,0,180.0*
21,1,0.02850,0.06100,0,0,180.0*
1,1,0.03250,-0.01425,0.01425*
1,1,0.03250,0.01425,0.01425*
1,1,0.03250,0.01425,-0.01425*
1,1,0.03250,-0.01425,-0.01425*
%
%ADD102ROUNDEDRECTD102*%
G04:AMPARAMS|DCode=103|XSize=84mil|YSize=84mil|CornerRadius=22mil|HoleSize=0mil|Usage=FLASHONLY|Rotation=0.000|XOffset=0mil|YOffset=0mil|HoleType=Round|Shape=RoundedRectangle|*
%AMROUNDEDRECTD103*
21,1,0.08400,0.04000,0,0,0.0*
21,1,0.04000,0.08400,0,0,0.0*
1,1,0.04400,0.02000,-0.02000*
1,1,0.04400,-0.02000,-0.02000*
1,1,0.04400,-0.02000,0.02000*
1,1,0.04400,0.02000,0.02000*
%
%ADD103ROUNDEDRECTD103*%
%ADD104C,0.08400*%
%ADD105C,0.05906*%
%ADD106C,0.11900*%
%ADD107C,0.06600*%
G04:AMPARAMS|DCode=108|XSize=66mil|YSize=66mil|CornerRadius=17.5mil|HoleSize=0mil|Usage=FLASHONLY|Rotation=0.000|XOffset=0mil|YOffset=0mil|HoleType=Round|Shape=RoundedRectangle|*
%AMROUNDEDRECTD108*
21,1,0.06600,0.03100,0,0,0.0*
21,1,0.03100,0.06600,0,0,0.0*
1,1,0.03500,0.01550,-0.01550*
1,1,0.03500,-0.01550,-0.01550*
1,1,0.03500,-0.01550,0.01550*
1,1,0.03500,0.01550,0.01550*
%
%ADD108ROUNDEDRECTD108*%
%ADD109C,0.09843*%
%ADD110O,0.04800X0.13100*%
%ADD111O,0.11100X0.06400*%
%ADD112C,0.11100*%
%ADD113C,0.06400*%
G04:AMPARAMS|DCode=114|XSize=64mil|YSize=64mil|CornerRadius=17mil|HoleSize=0mil|Usage=FLASHONLY|Rotation=270.000|XOffset=0mil|YOffset=0mil|HoleType=Round|Shape=RoundedRectangle|*
%AMROUNDEDRECTD114*
21,1,0.06400,0.03000,0,0,270.0*
21,1,0.03000,0.06400,0,0,270.0*
1,1,0.03400,-0.01500,-0.01500*
1,1,0.03400,-0.01500,0.01500*
1,1,0.03400,0.01500,0.01500*
1,1,0.03400,0.01500,-0.01500*
%
%ADD114ROUNDEDRECTD114*%
%ADD153R,0.05164X0.02723*%
%ADD154R,0.10243X0.13392*%
%ADD155R,0.04337X0.02762*%
%ADD156R,0.02762X0.04337*%
%ADD157R,0.18117X0.09455*%
%ADD158R,0.04337X0.11424*%
%ADD159R,0.05518X0.07880*%
%ADD160R,0.04337X0.05124*%
%ADD161R,0.03156X0.05124*%
%ADD162R,0.04337X0.03550*%
%ADD163R,0.07687X0.05128*%
G36*
X101537Y-202196D02*
X101691Y-202209D01*
X101874Y-202224D01*
X102057Y-202252D01*
X102268Y-202280D01*
X102717Y-202378D01*
X102943Y-202449D01*
X103167Y-202519D01*
X103392Y-202617D01*
X103603Y-202730D01*
X103800Y-202856D01*
X103983Y-202997D01*
X103997Y-203011D01*
X104025Y-203039D01*
X104067Y-203081D01*
X104123Y-203137D01*
X104194Y-203222D01*
X104278Y-203320D01*
X104362Y-203433D01*
X104461Y-203559D01*
X104545Y-203714D01*
X104630Y-203869D01*
X104714Y-204051D01*
X104784Y-204248D01*
X104855Y-204445D01*
X104911Y-204670D01*
X104953Y-204895D01*
X104967Y-205148D01*
X102999Y-205218D01*
Y-205204D01*
Y-205190D01*
X102971Y-205092D01*
X102943Y-204965D01*
X102886Y-204811D01*
X102816Y-204628D01*
X102717Y-204459D01*
X102591Y-204290D01*
X102450Y-204150D01*
X102436Y-204136D01*
X102380Y-204094D01*
X102282Y-204037D01*
X102141Y-203981D01*
X101972Y-203925D01*
X101761Y-203869D01*
X101508Y-203826D01*
X101213Y-203812D01*
X101073D01*
X100918Y-203826D01*
X100735Y-203854D01*
X100524Y-203897D01*
X100299Y-203967D01*
X100088Y-204051D01*
X99891Y-204178D01*
X99877Y-204192D01*
X99849Y-204220D01*
X99793Y-204262D01*
X99737Y-204333D01*
X99681Y-204417D01*
X99624Y-204529D01*
X99596Y-204642D01*
X99582Y-204783D01*
Y-204797D01*
Y-204839D01*
X99596Y-204909D01*
X99624Y-204979D01*
X99652Y-205078D01*
X99695Y-205176D01*
X99765Y-205275D01*
X99863Y-205373D01*
X99877Y-205387D01*
X99948Y-205429D01*
X99990Y-205457D01*
X100060Y-205486D01*
X100130Y-205528D01*
X100229Y-205570D01*
X100341Y-205612D01*
X100468Y-205668D01*
X100623Y-205725D01*
X100777Y-205781D01*
X100974Y-205837D01*
X101185Y-205893D01*
X101410Y-205949D01*
X101663Y-206020D01*
X101677D01*
X101733Y-206034D01*
X101804Y-206048D01*
X101902Y-206076D01*
X102015Y-206104D01*
X102155Y-206146D01*
X102310Y-206189D01*
X102464Y-206231D01*
X102802Y-206343D01*
X103153Y-206456D01*
X103491Y-206582D01*
X103631Y-206652D01*
X103772Y-206723D01*
X103786D01*
X103800Y-206737D01*
X103884Y-206793D01*
X104011Y-206877D01*
X104166Y-206990D01*
X104334Y-207131D01*
X104517Y-207299D01*
X104700Y-207496D01*
X104855Y-207721D01*
X104869Y-207749D01*
X104911Y-207834D01*
X104981Y-207960D01*
X105052Y-208143D01*
X105122Y-208368D01*
X105192Y-208635D01*
X105234Y-208930D01*
X105248Y-209268D01*
Y-209282D01*
Y-209310D01*
Y-209352D01*
Y-209408D01*
X105234Y-209478D01*
X105220Y-209577D01*
X105192Y-209774D01*
X105136Y-210027D01*
X105052Y-210294D01*
X104925Y-210561D01*
X104770Y-210842D01*
Y-210856D01*
X104742Y-210871D01*
X104686Y-210955D01*
X104573Y-211095D01*
X104433Y-211250D01*
X104250Y-211433D01*
X104011Y-211602D01*
X103758Y-211770D01*
X103449Y-211925D01*
X103435D01*
X103406Y-211939D01*
X103364Y-211953D01*
X103294Y-211981D01*
X103210Y-212009D01*
X103111Y-212037D01*
X102999Y-212066D01*
X102872Y-212094D01*
X102717Y-212136D01*
X102563Y-212164D01*
X102197Y-212220D01*
X101789Y-212262D01*
X101340Y-212277D01*
X101157D01*
X101030Y-212262D01*
X100876Y-212248D01*
X100707Y-212234D01*
X100510Y-212206D01*
X100299Y-212164D01*
X99835Y-212066D01*
X99596Y-211995D01*
X99371Y-211925D01*
X99132Y-211827D01*
X98907Y-211714D01*
X98696Y-211588D01*
X98500Y-211433D01*
X98485Y-211419D01*
X98457Y-211391D01*
X98401Y-211349D01*
X98345Y-211278D01*
X98260Y-211180D01*
X98176Y-211067D01*
X98078Y-210941D01*
X97979Y-210800D01*
X97881Y-210631D01*
X97782Y-210449D01*
X97684Y-210238D01*
X97586Y-210013D01*
X97515Y-209774D01*
X97431Y-209507D01*
X97375Y-209226D01*
X97333Y-208930D01*
X99245Y-208747D01*
Y-208762D01*
X99259Y-208790D01*
Y-208846D01*
X99273Y-208902D01*
X99329Y-209071D01*
X99399Y-209282D01*
X99484Y-209521D01*
X99610Y-209760D01*
X99751Y-209971D01*
X99934Y-210168D01*
X99962Y-210182D01*
X100032Y-210238D01*
X100145Y-210308D01*
X100313Y-210392D01*
X100524Y-210477D01*
X100763Y-210547D01*
X101044Y-210603D01*
X101368Y-210617D01*
X101522D01*
X101691Y-210589D01*
X101902Y-210561D01*
X102127Y-210519D01*
X102366Y-210449D01*
X102591Y-210350D01*
X102788Y-210224D01*
X102816Y-210210D01*
X102872Y-210153D01*
X102943Y-210069D01*
X103041Y-209957D01*
X103125Y-209816D01*
X103210Y-209647D01*
X103266Y-209478D01*
X103280Y-209282D01*
Y-209268D01*
Y-209226D01*
X103266Y-209155D01*
X103252Y-209071D01*
X103224Y-208986D01*
X103196Y-208888D01*
X103139Y-208790D01*
X103069Y-208691D01*
X103055Y-208677D01*
X103027Y-208649D01*
X102985Y-208607D01*
X102914Y-208551D01*
X102816Y-208480D01*
X102689Y-208410D01*
X102549Y-208340D01*
X102366Y-208269D01*
X102352D01*
X102296Y-208241D01*
X102197Y-208213D01*
X102127Y-208185D01*
X102043Y-208171D01*
X101944Y-208143D01*
X101832Y-208101D01*
X101705Y-208073D01*
X101565Y-208030D01*
X101396Y-207988D01*
X101213Y-207946D01*
X101016Y-207890D01*
X100791Y-207834D01*
X100777D01*
X100721Y-207820D01*
X100637Y-207791D01*
X100538Y-207763D01*
X100412Y-207721D01*
X100257Y-207679D01*
X100102Y-207623D01*
X99920Y-207566D01*
X99554Y-207426D01*
X99203Y-207257D01*
X99020Y-207173D01*
X98865Y-207074D01*
X98710Y-206976D01*
X98584Y-206877D01*
X98570Y-206863D01*
X98542Y-206835D01*
X98500Y-206793D01*
X98443Y-206737D01*
X98373Y-206652D01*
X98303Y-206554D01*
X98218Y-206456D01*
X98148Y-206329D01*
X97979Y-206034D01*
X97839Y-205696D01*
X97782Y-205514D01*
X97740Y-205331D01*
X97712Y-205120D01*
X97698Y-204909D01*
Y-204895D01*
Y-204881D01*
Y-204839D01*
Y-204783D01*
X97726Y-204642D01*
X97754Y-204459D01*
X97796Y-204248D01*
X97867Y-204009D01*
X97965Y-203756D01*
X98106Y-203517D01*
Y-203503D01*
X98120Y-203489D01*
X98190Y-203405D01*
X98274Y-203292D01*
X98415Y-203151D01*
X98584Y-202997D01*
X98795Y-202828D01*
X99034Y-202674D01*
X99315Y-202533D01*
X99329D01*
X99357Y-202519D01*
X99399Y-202505D01*
X99456Y-202477D01*
X99540Y-202449D01*
X99624Y-202420D01*
X99737Y-202392D01*
X99863Y-202350D01*
X100145Y-202294D01*
X100468Y-202238D01*
X100833Y-202196D01*
X101241Y-202181D01*
X101410D01*
X101537Y-202196D01*
D02*
G37*
G36*
X92074Y-212094D02*
X90260D01*
X90246Y-204445D01*
X88334Y-212094D01*
X86436D01*
X84524Y-204445D01*
Y-212094D01*
X82710D01*
Y-202364D01*
X85649D01*
X87392Y-209015D01*
X89122Y-202364D01*
X92074D01*
Y-212094D01*
D02*
G37*
G36*
X149200Y-202378D02*
X149355D01*
X149509Y-202392D01*
X149692D01*
X150057Y-202434D01*
X150437Y-202477D01*
X150789Y-202547D01*
X150943Y-202589D01*
X151084Y-202631D01*
X151098D01*
X151112Y-202645D01*
X151196Y-202688D01*
X151323Y-202758D01*
X151492Y-202842D01*
X151674Y-202983D01*
X151857Y-203137D01*
X152040Y-203334D01*
X152209Y-203573D01*
Y-203587D01*
X152223Y-203602D01*
X152251Y-203644D01*
X152279Y-203686D01*
X152349Y-203826D01*
X152434Y-204009D01*
X152504Y-204234D01*
X152574Y-204487D01*
X152630Y-204783D01*
X152645Y-205092D01*
Y-205106D01*
Y-205134D01*
Y-205204D01*
X152630Y-205275D01*
Y-205373D01*
X152617Y-205471D01*
X152560Y-205725D01*
X152490Y-206020D01*
X152377Y-206315D01*
X152209Y-206624D01*
X152110Y-206765D01*
X151998Y-206906D01*
X151984Y-206920D01*
X151970Y-206934D01*
X151927Y-206976D01*
X151871Y-207018D01*
X151815Y-207074D01*
X151731Y-207145D01*
X151632Y-207215D01*
X151520Y-207285D01*
X151393Y-207369D01*
X151239Y-207440D01*
X151084Y-207510D01*
X150915Y-207580D01*
X150718Y-207651D01*
X150522Y-207707D01*
X150311Y-207763D01*
X150072Y-207805D01*
X150086D01*
X150100Y-207820D01*
X150184Y-207876D01*
X150297Y-207946D01*
X150437Y-208044D01*
X150606Y-208171D01*
X150775Y-208297D01*
X150957Y-208452D01*
X151112Y-208621D01*
X151126Y-208635D01*
X151196Y-208705D01*
X151281Y-208818D01*
X151407Y-208986D01*
X151576Y-209197D01*
X151660Y-209338D01*
X151759Y-209478D01*
X151871Y-209633D01*
X151984Y-209802D01*
X152110Y-209999D01*
X152237Y-210196D01*
X153432Y-212094D01*
X151070D01*
X149664Y-209985D01*
X149650Y-209971D01*
X149636Y-209928D01*
X149594Y-209872D01*
X149537Y-209802D01*
X149481Y-209718D01*
X149411Y-209605D01*
X149256Y-209380D01*
X149073Y-209127D01*
X148905Y-208902D01*
X148750Y-208691D01*
X148680Y-208621D01*
X148623Y-208551D01*
X148609Y-208537D01*
X148581Y-208508D01*
X148525Y-208452D01*
X148455Y-208382D01*
X148356Y-208326D01*
X148258Y-208255D01*
X148145Y-208199D01*
X148033Y-208143D01*
X148019D01*
X147977Y-208129D01*
X147906Y-208101D01*
X147794Y-208087D01*
X147653Y-208059D01*
X147485Y-208044D01*
X147288Y-208030D01*
X146655D01*
Y-212094D01*
X144687D01*
Y-202364D01*
X149073D01*
X149200Y-202378D01*
D02*
G37*
G36*
X142831Y-204009D02*
X137586D01*
Y-206160D01*
X142465D01*
Y-207805D01*
X137586D01*
Y-210449D01*
X143014D01*
Y-212094D01*
X135618D01*
Y-202364D01*
X142831D01*
Y-204009D01*
D02*
G37*
G36*
X129797Y-202378D02*
X130064Y-202392D01*
X130359Y-202406D01*
X130669Y-202449D01*
X130964Y-202491D01*
X131231Y-202561D01*
X131245D01*
X131273Y-202575D01*
X131316Y-202589D01*
X131372Y-202603D01*
X131541Y-202674D01*
X131737Y-202772D01*
X131962Y-202899D01*
X132215Y-203053D01*
X132454Y-203236D01*
X132693Y-203461D01*
X132708D01*
X132722Y-203489D01*
X132792Y-203573D01*
X132904Y-203714D01*
X133031Y-203897D01*
X133186Y-204122D01*
X133340Y-204389D01*
X133495Y-204698D01*
X133621Y-205036D01*
Y-205050D01*
X133635Y-205078D01*
X133650Y-205134D01*
X133678Y-205204D01*
X133692Y-205289D01*
X133720Y-205401D01*
X133748Y-205528D01*
X133790Y-205668D01*
X133818Y-205823D01*
X133846Y-206006D01*
X133874Y-206189D01*
X133888Y-206399D01*
X133931Y-206835D01*
X133945Y-207327D01*
Y-207341D01*
Y-207384D01*
Y-207440D01*
Y-207524D01*
X133931Y-207637D01*
Y-207749D01*
X133917Y-207890D01*
X133903Y-208044D01*
X133874Y-208368D01*
X133818Y-208705D01*
X133734Y-209057D01*
X133635Y-209394D01*
Y-209408D01*
X133621Y-209436D01*
X133593Y-209493D01*
X133565Y-209577D01*
X133537Y-209661D01*
X133481Y-209760D01*
X133368Y-210013D01*
X133228Y-210280D01*
X133045Y-210575D01*
X132834Y-210856D01*
X132595Y-211124D01*
X132567Y-211152D01*
X132497Y-211208D01*
X132384Y-211292D01*
X132229Y-211405D01*
X132033Y-211531D01*
X131808Y-211658D01*
X131526Y-211784D01*
X131217Y-211897D01*
X131203D01*
X131189Y-211911D01*
X131147D01*
X131105Y-211925D01*
X130950Y-211953D01*
X130753Y-211995D01*
X130514Y-212037D01*
X130219Y-212066D01*
X129867Y-212080D01*
X129488Y-212094D01*
X125804D01*
Y-202364D01*
X129685D01*
X129797Y-202378D01*
D02*
G37*
G36*
X119505Y-210449D02*
X124398D01*
Y-212094D01*
X117537D01*
Y-202434D01*
X119505D01*
Y-210449D01*
D02*
G37*
G36*
X70886Y-204009D02*
X68017D01*
Y-212094D01*
X66049D01*
Y-204009D01*
X63167D01*
Y-202364D01*
X70886D01*
Y-204009D01*
D02*
G37*
G36*
X62576D02*
X59708D01*
Y-212094D01*
X57740D01*
Y-204009D01*
X54857D01*
Y-202364D01*
X62576D01*
Y-204009D01*
D02*
G37*
G36*
X39687Y-202378D02*
X39968Y-202392D01*
X40249Y-202406D01*
X40516Y-202434D01*
X40755Y-202463D01*
X40783D01*
X40854Y-202477D01*
X40952Y-202505D01*
X41093Y-202547D01*
X41247Y-202603D01*
X41416Y-202674D01*
X41599Y-202758D01*
X41767Y-202870D01*
X41781Y-202884D01*
X41838Y-202927D01*
X41922Y-202997D01*
X42035Y-203081D01*
X42147Y-203208D01*
X42274Y-203348D01*
X42400Y-203503D01*
X42513Y-203686D01*
X42527Y-203714D01*
X42555Y-203770D01*
X42611Y-203883D01*
X42667Y-204023D01*
X42724Y-204192D01*
X42780Y-204375D01*
X42808Y-204600D01*
X42822Y-204825D01*
Y-204839D01*
Y-204853D01*
Y-204937D01*
X42808Y-205064D01*
X42780Y-205232D01*
X42724Y-205429D01*
X42667Y-205640D01*
X42569Y-205851D01*
X42442Y-206076D01*
X42428Y-206104D01*
X42372Y-206174D01*
X42288Y-206273D01*
X42189Y-206399D01*
X42049Y-206526D01*
X41880Y-206681D01*
X41683Y-206807D01*
X41458Y-206934D01*
X41472D01*
X41500Y-206948D01*
X41543Y-206962D01*
X41599Y-206976D01*
X41767Y-207046D01*
X41964Y-207145D01*
X42175Y-207257D01*
X42414Y-207412D01*
X42625Y-207594D01*
X42822Y-207820D01*
X42836Y-207848D01*
X42892Y-207932D01*
X42977Y-208059D01*
X43061Y-208227D01*
X43145Y-208452D01*
X43230Y-208691D01*
X43286Y-208972D01*
X43300Y-209282D01*
Y-209296D01*
Y-209310D01*
Y-209394D01*
X43286Y-209521D01*
X43258Y-209689D01*
X43230Y-209886D01*
X43173Y-210111D01*
X43089Y-210336D01*
X42991Y-210575D01*
X42977Y-210603D01*
X42934Y-210674D01*
X42864Y-210786D01*
X42766Y-210927D01*
X42653Y-211095D01*
X42498Y-211250D01*
X42344Y-211419D01*
X42147Y-211574D01*
X42119Y-211588D01*
X42049Y-211630D01*
X41936Y-211700D01*
X41781Y-211770D01*
X41585Y-211855D01*
X41360Y-211925D01*
X41107Y-211995D01*
X40825Y-212037D01*
X40769D01*
X40713Y-212052D01*
X40572D01*
X40474Y-212066D01*
X40207D01*
X40038Y-212080D01*
X39616D01*
X39377Y-212094D01*
X35159D01*
Y-202364D01*
X39433D01*
X39687Y-202378D01*
D02*
G37*
G36*
X111421Y-202196D02*
X111561D01*
X111744Y-202224D01*
X111955Y-202252D01*
X112194Y-202294D01*
X112447Y-202350D01*
X112714Y-202420D01*
X112995Y-202505D01*
X113277Y-202617D01*
X113572Y-202744D01*
X113853Y-202899D01*
X114134Y-203081D01*
X114401Y-203292D01*
X114654Y-203531D01*
X114669Y-203545D01*
X114711Y-203587D01*
X114781Y-203672D01*
X114851Y-203770D01*
X114950Y-203911D01*
X115062Y-204080D01*
X115175Y-204276D01*
X115301Y-204501D01*
X115428Y-204740D01*
X115540Y-205022D01*
X115653Y-205331D01*
X115751Y-205654D01*
X115835Y-206020D01*
X115892Y-206399D01*
X115934Y-206807D01*
X115948Y-207243D01*
Y-207271D01*
Y-207341D01*
X115934Y-207468D01*
Y-207637D01*
X115906Y-207834D01*
X115878Y-208059D01*
X115835Y-208326D01*
X115793Y-208593D01*
X115723Y-208888D01*
X115639Y-209197D01*
X115526Y-209507D01*
X115400Y-209816D01*
X115259Y-210111D01*
X115076Y-210406D01*
X114879Y-210688D01*
X114654Y-210955D01*
X114640Y-210969D01*
X114598Y-211011D01*
X114528Y-211081D01*
X114415Y-211166D01*
X114289Y-211264D01*
X114134Y-211377D01*
X113951Y-211489D01*
X113755Y-211616D01*
X113516Y-211742D01*
X113262Y-211855D01*
X112981Y-211967D01*
X112672Y-212066D01*
X112349Y-212150D01*
X111997Y-212220D01*
X111632Y-212262D01*
X111238Y-212277D01*
X111140D01*
X111027Y-212262D01*
X110886Y-212248D01*
X110704Y-212234D01*
X110493Y-212206D01*
X110254Y-212164D01*
X110001Y-212108D01*
X109719Y-212037D01*
X109452Y-211953D01*
X109157Y-211841D01*
X108876Y-211714D01*
X108581Y-211574D01*
X108313Y-211391D01*
X108046Y-211194D01*
X107793Y-210955D01*
X107779Y-210941D01*
X107737Y-210899D01*
X107681Y-210814D01*
X107596Y-210716D01*
X107498Y-210575D01*
X107385Y-210406D01*
X107273Y-210224D01*
X107160Y-209999D01*
X107034Y-209760D01*
X106922Y-209478D01*
X106809Y-209183D01*
X106711Y-208860D01*
X106626Y-208508D01*
X106570Y-208129D01*
X106528Y-207721D01*
X106514Y-207299D01*
Y-207285D01*
Y-207229D01*
Y-207159D01*
X106528Y-207046D01*
Y-206920D01*
X106542Y-206779D01*
X106556Y-206610D01*
X106570Y-206428D01*
X106626Y-206034D01*
X106696Y-205612D01*
X106809Y-205190D01*
X106950Y-204797D01*
Y-204783D01*
X106964Y-204768D01*
X106992Y-204726D01*
X107006Y-204670D01*
X107090Y-204529D01*
X107189Y-204347D01*
X107315Y-204136D01*
X107470Y-203925D01*
X107653Y-203686D01*
X107849Y-203461D01*
X107863Y-203447D01*
X107878Y-203433D01*
X107948Y-203362D01*
X108074Y-203250D01*
X108229Y-203123D01*
X108412Y-202983D01*
X108623Y-202828D01*
X108862Y-202688D01*
X109115Y-202575D01*
X109129D01*
X109157Y-202561D01*
X109213Y-202533D01*
X109283Y-202519D01*
X109368Y-202477D01*
X109466Y-202449D01*
X109593Y-202420D01*
X109719Y-202378D01*
X110029Y-202308D01*
X110380Y-202238D01*
X110788Y-202196D01*
X111210Y-202181D01*
X111308D01*
X111421Y-202196D01*
D02*
G37*
G36*
X76664D02*
X76805D01*
X76988Y-202224D01*
X77199Y-202252D01*
X77438Y-202294D01*
X77691Y-202350D01*
X77958Y-202420D01*
X78239Y-202505D01*
X78520Y-202617D01*
X78816Y-202744D01*
X79097Y-202899D01*
X79378Y-203081D01*
X79645Y-203292D01*
X79898Y-203531D01*
X79912Y-203545D01*
X79954Y-203587D01*
X80025Y-203672D01*
X80095Y-203770D01*
X80193Y-203911D01*
X80306Y-204080D01*
X80418Y-204276D01*
X80545Y-204501D01*
X80671Y-204740D01*
X80784Y-205022D01*
X80896Y-205331D01*
X80995Y-205654D01*
X81079Y-206020D01*
X81135Y-206399D01*
X81178Y-206807D01*
X81192Y-207243D01*
Y-207271D01*
Y-207341D01*
X81178Y-207468D01*
Y-207637D01*
X81150Y-207834D01*
X81121Y-208059D01*
X81079Y-208326D01*
X81037Y-208593D01*
X80967Y-208888D01*
X80882Y-209197D01*
X80770Y-209507D01*
X80643Y-209816D01*
X80503Y-210111D01*
X80320Y-210406D01*
X80123Y-210688D01*
X79898Y-210955D01*
X79884Y-210969D01*
X79842Y-211011D01*
X79772Y-211081D01*
X79659Y-211166D01*
X79533Y-211264D01*
X79378Y-211377D01*
X79195Y-211489D01*
X78998Y-211616D01*
X78759Y-211742D01*
X78506Y-211855D01*
X78225Y-211967D01*
X77916Y-212066D01*
X77592Y-212150D01*
X77241Y-212220D01*
X76875Y-212262D01*
X76482Y-212277D01*
X76383D01*
X76271Y-212262D01*
X76130Y-212248D01*
X75947Y-212234D01*
X75736Y-212206D01*
X75497Y-212164D01*
X75244Y-212108D01*
X74963Y-212037D01*
X74696Y-211953D01*
X74401Y-211841D01*
X74120Y-211714D01*
X73824Y-211574D01*
X73557Y-211391D01*
X73290Y-211194D01*
X73037Y-210955D01*
X73023Y-210941D01*
X72981Y-210899D01*
X72924Y-210814D01*
X72840Y-210716D01*
X72742Y-210575D01*
X72629Y-210406D01*
X72517Y-210224D01*
X72404Y-209999D01*
X72278Y-209760D01*
X72165Y-209478D01*
X72053Y-209183D01*
X71954Y-208860D01*
X71870Y-208508D01*
X71814Y-208129D01*
X71772Y-207721D01*
X71757Y-207299D01*
Y-207285D01*
Y-207229D01*
Y-207159D01*
X71772Y-207046D01*
Y-206920D01*
X71785Y-206779D01*
X71800Y-206610D01*
X71814Y-206428D01*
X71870Y-206034D01*
X71940Y-205612D01*
X72053Y-205190D01*
X72193Y-204797D01*
Y-204783D01*
X72207Y-204768D01*
X72235Y-204726D01*
X72250Y-204670D01*
X72334Y-204529D01*
X72432Y-204347D01*
X72559Y-204136D01*
X72714Y-203925D01*
X72896Y-203686D01*
X73093Y-203461D01*
X73107Y-203447D01*
X73121Y-203433D01*
X73191Y-203362D01*
X73318Y-203250D01*
X73473Y-203123D01*
X73655Y-202983D01*
X73866Y-202828D01*
X74105Y-202688D01*
X74358Y-202575D01*
X74373D01*
X74401Y-202561D01*
X74457Y-202533D01*
X74527Y-202519D01*
X74612Y-202477D01*
X74710Y-202449D01*
X74836Y-202420D01*
X74963Y-202378D01*
X75272Y-202308D01*
X75624Y-202238D01*
X76032Y-202196D01*
X76453Y-202181D01*
X76552D01*
X76664Y-202196D01*
D02*
G37*
G36*
X49472D02*
X49613D01*
X49796Y-202224D01*
X50007Y-202252D01*
X50246Y-202294D01*
X50499Y-202350D01*
X50766Y-202420D01*
X51047Y-202505D01*
X51328Y-202617D01*
X51623Y-202744D01*
X51905Y-202899D01*
X52186Y-203081D01*
X52453Y-203292D01*
X52706Y-203531D01*
X52720Y-203545D01*
X52762Y-203587D01*
X52833Y-203672D01*
X52903Y-203770D01*
X53001Y-203911D01*
X53114Y-204080D01*
X53226Y-204276D01*
X53353Y-204501D01*
X53479Y-204740D01*
X53592Y-205022D01*
X53704Y-205331D01*
X53803Y-205654D01*
X53887Y-206020D01*
X53943Y-206399D01*
X53986Y-206807D01*
X54000Y-207243D01*
Y-207271D01*
Y-207341D01*
X53986Y-207468D01*
Y-207637D01*
X53957Y-207834D01*
X53929Y-208059D01*
X53887Y-208326D01*
X53845Y-208593D01*
X53775Y-208888D01*
X53690Y-209197D01*
X53578Y-209507D01*
X53451Y-209816D01*
X53311Y-210111D01*
X53128Y-210406D01*
X52931Y-210688D01*
X52706Y-210955D01*
X52692Y-210969D01*
X52650Y-211011D01*
X52579Y-211081D01*
X52467Y-211166D01*
X52341Y-211264D01*
X52186Y-211377D01*
X52003Y-211489D01*
X51806Y-211616D01*
X51567Y-211742D01*
X51314Y-211855D01*
X51033Y-211967D01*
X50724Y-212066D01*
X50400Y-212150D01*
X50049Y-212220D01*
X49683Y-212262D01*
X49290Y-212277D01*
X49191D01*
X49079Y-212262D01*
X48938Y-212248D01*
X48755Y-212234D01*
X48544Y-212206D01*
X48305Y-212164D01*
X48052Y-212108D01*
X47771Y-212037D01*
X47504Y-211953D01*
X47209Y-211841D01*
X46927Y-211714D01*
X46632Y-211574D01*
X46365Y-211391D01*
X46098Y-211194D01*
X45845Y-210955D01*
X45831Y-210941D01*
X45789Y-210899D01*
X45732Y-210814D01*
X45648Y-210716D01*
X45549Y-210575D01*
X45437Y-210406D01*
X45325Y-210224D01*
X45212Y-209999D01*
X45086Y-209760D01*
X44973Y-209478D01*
X44861Y-209183D01*
X44762Y-208860D01*
X44678Y-208508D01*
X44622Y-208129D01*
X44579Y-207721D01*
X44565Y-207299D01*
Y-207285D01*
Y-207229D01*
Y-207159D01*
X44579Y-207046D01*
Y-206920D01*
X44594Y-206779D01*
X44607Y-206610D01*
X44622Y-206428D01*
X44678Y-206034D01*
X44748Y-205612D01*
X44861Y-205190D01*
X45001Y-204797D01*
Y-204783D01*
X45015Y-204768D01*
X45043Y-204726D01*
X45057Y-204670D01*
X45142Y-204529D01*
X45240Y-204347D01*
X45367Y-204136D01*
X45521Y-203925D01*
X45704Y-203686D01*
X45901Y-203461D01*
X45915Y-203447D01*
X45929Y-203433D01*
X46000Y-203362D01*
X46126Y-203250D01*
X46281Y-203123D01*
X46464Y-202983D01*
X46674Y-202828D01*
X46913Y-202688D01*
X47166Y-202575D01*
X47181D01*
X47209Y-202561D01*
X47265Y-202533D01*
X47335Y-202519D01*
X47420Y-202477D01*
X47518Y-202449D01*
X47644Y-202420D01*
X47771Y-202378D01*
X48080Y-202308D01*
X48432Y-202238D01*
X48840Y-202196D01*
X49261Y-202181D01*
X49360D01*
X49472Y-202196D01*
D02*
G37*
%LPC*%
G36*
X148905Y-204009D02*
X146655D01*
Y-206484D01*
X148567D01*
X148848Y-206470D01*
X149144Y-206456D01*
X149439Y-206442D01*
X149565Y-206428D01*
X149678Y-206414D01*
X149790Y-206385D01*
X149861Y-206371D01*
X149875D01*
X149917Y-206343D01*
X149987Y-206315D01*
X150057Y-206273D01*
X150240Y-206146D01*
X150325Y-206062D01*
X150409Y-205963D01*
X150423Y-205949D01*
X150437Y-205907D01*
X150479Y-205851D01*
X150522Y-205767D01*
X150550Y-205654D01*
X150592Y-205528D01*
X150606Y-205387D01*
X150620Y-205232D01*
Y-205204D01*
Y-205148D01*
X150606Y-205064D01*
X150592Y-204951D01*
X150550Y-204825D01*
X150507Y-204698D01*
X150437Y-204557D01*
X150353Y-204445D01*
X150339Y-204431D01*
X150311Y-204389D01*
X150240Y-204347D01*
X150156Y-204276D01*
X150057Y-204206D01*
X149931Y-204150D01*
X149776Y-204094D01*
X149608Y-204051D01*
X149594D01*
X149551Y-204037D01*
X149467D01*
X149340Y-204023D01*
X149031D01*
X148905Y-204009D01*
D02*
G37*
G36*
X129052D02*
X127772D01*
Y-210449D01*
X129502D01*
X129685Y-210435D01*
X129881D01*
X130078Y-210406D01*
X130261Y-210392D01*
X130416Y-210364D01*
X130444D01*
X130500Y-210336D01*
X130584Y-210308D01*
X130697Y-210266D01*
X130824Y-210210D01*
X130950Y-210139D01*
X131077Y-210055D01*
X131203Y-209957D01*
X131217Y-209943D01*
X131259Y-209900D01*
X131316Y-209830D01*
X131386Y-209732D01*
X131456Y-209605D01*
X131555Y-209450D01*
X131625Y-209254D01*
X131709Y-209029D01*
Y-209015D01*
X131723Y-209000D01*
Y-208958D01*
X131737Y-208902D01*
X131765Y-208846D01*
X131780Y-208762D01*
X131822Y-208551D01*
X131850Y-208297D01*
X131892Y-208002D01*
X131906Y-207637D01*
X131920Y-207243D01*
Y-207229D01*
Y-207187D01*
Y-207131D01*
Y-207060D01*
Y-206962D01*
X131906Y-206849D01*
X131892Y-206610D01*
X131864Y-206329D01*
X131836Y-206034D01*
X131780Y-205767D01*
X131709Y-205514D01*
Y-205500D01*
X131695Y-205486D01*
X131667Y-205415D01*
X131625Y-205303D01*
X131569Y-205162D01*
X131484Y-205022D01*
X131386Y-204867D01*
X131273Y-204712D01*
X131147Y-204572D01*
X131133Y-204557D01*
X131091Y-204515D01*
X131006Y-204459D01*
X130908Y-204389D01*
X130767Y-204305D01*
X130613Y-204234D01*
X130444Y-204164D01*
X130247Y-204108D01*
X130233D01*
X130163Y-204094D01*
X130050Y-204080D01*
X129895Y-204051D01*
X129797D01*
X129671Y-204037D01*
X129544D01*
X129403Y-204023D01*
X129235D01*
X129052Y-204009D01*
D02*
G37*
G36*
X39082Y-203981D02*
X37128D01*
Y-206231D01*
X39012D01*
X39251Y-206217D01*
X39687D01*
X39771Y-206203D01*
X39855D01*
X39911Y-206189D01*
X39996Y-206174D01*
X40122Y-206132D01*
X40249Y-206090D01*
X40376Y-206034D01*
X40502Y-205963D01*
X40615Y-205865D01*
X40629Y-205851D01*
X40657Y-205809D01*
X40713Y-205753D01*
X40769Y-205654D01*
X40811Y-205542D01*
X40868Y-205415D01*
X40896Y-205261D01*
X40910Y-205092D01*
Y-205078D01*
Y-205022D01*
X40896Y-204937D01*
X40882Y-204825D01*
X40854Y-204712D01*
X40797Y-204600D01*
X40741Y-204473D01*
X40657Y-204361D01*
X40643Y-204347D01*
X40615Y-204318D01*
X40544Y-204262D01*
X40474Y-204206D01*
X40361Y-204150D01*
X40235Y-204094D01*
X40080Y-204051D01*
X39911Y-204023D01*
X39897D01*
X39841Y-204009D01*
X39687D01*
X39602Y-203995D01*
X39237D01*
X39082Y-203981D01*
D02*
G37*
G36*
X39166Y-207848D02*
X37128D01*
Y-210449D01*
X39293D01*
X39504Y-210435D01*
X39729D01*
X39954Y-210421D01*
X40137Y-210406D01*
X40221D01*
X40277Y-210392D01*
X40291D01*
X40347Y-210378D01*
X40432Y-210350D01*
X40530Y-210322D01*
X40643Y-210266D01*
X40769Y-210196D01*
X40882Y-210111D01*
X40994Y-210013D01*
X41008Y-209999D01*
X41036Y-209957D01*
X41078Y-209886D01*
X41135Y-209788D01*
X41191Y-209675D01*
X41233Y-209535D01*
X41261Y-209366D01*
X41275Y-209183D01*
Y-209169D01*
Y-209113D01*
X41261Y-209029D01*
X41247Y-208930D01*
X41219Y-208804D01*
X41177Y-208691D01*
X41121Y-208565D01*
X41050Y-208438D01*
X41036Y-208424D01*
X41008Y-208382D01*
X40966Y-208326D01*
X40896Y-208269D01*
X40811Y-208185D01*
X40699Y-208115D01*
X40572Y-208044D01*
X40432Y-207988D01*
X40418D01*
X40347Y-207960D01*
X40235Y-207946D01*
X40165Y-207932D01*
X40066Y-207918D01*
X39968Y-207904D01*
X39841Y-207890D01*
X39701Y-207876D01*
X39532D01*
X39363Y-207862D01*
X39166Y-207848D01*
D02*
G37*
G36*
X111238Y-203854D02*
X111125D01*
X111041Y-203869D01*
X110928Y-203883D01*
X110816Y-203897D01*
X110535Y-203953D01*
X110225Y-204065D01*
X110057Y-204122D01*
X109888Y-204206D01*
X109733Y-204305D01*
X109565Y-204417D01*
X109410Y-204543D01*
X109269Y-204698D01*
X109255Y-204712D01*
X109241Y-204740D01*
X109199Y-204783D01*
X109157Y-204853D01*
X109101Y-204951D01*
X109045Y-205050D01*
X108974Y-205176D01*
X108904Y-205331D01*
X108834Y-205500D01*
X108763Y-205682D01*
X108707Y-205893D01*
X108651Y-206118D01*
X108609Y-206371D01*
X108566Y-206638D01*
X108552Y-206920D01*
X108538Y-207229D01*
Y-207243D01*
Y-207299D01*
Y-207384D01*
X108552Y-207496D01*
X108566Y-207637D01*
X108581Y-207805D01*
X108609Y-207974D01*
X108637Y-208171D01*
X108721Y-208579D01*
X108862Y-208986D01*
X108946Y-209197D01*
X109045Y-209394D01*
X109171Y-209577D01*
X109298Y-209746D01*
X109312Y-209760D01*
X109340Y-209788D01*
X109382Y-209830D01*
X109438Y-209872D01*
X109509Y-209943D01*
X109607Y-210013D01*
X109705Y-210097D01*
X109832Y-210168D01*
X110099Y-210336D01*
X110436Y-210463D01*
X110619Y-210519D01*
X110816Y-210561D01*
X111027Y-210589D01*
X111238Y-210603D01*
X111350D01*
X111435Y-210589D01*
X111533Y-210575D01*
X111646Y-210561D01*
X111913Y-210491D01*
X112222Y-210392D01*
X112377Y-210322D01*
X112546Y-210252D01*
X112700Y-210153D01*
X112869Y-210041D01*
X113023Y-209914D01*
X113164Y-209760D01*
X113178Y-209746D01*
X113192Y-209718D01*
X113234Y-209675D01*
X113277Y-209605D01*
X113347Y-209507D01*
X113403Y-209394D01*
X113473Y-209268D01*
X113544Y-209113D01*
X113614Y-208944D01*
X113684Y-208762D01*
X113755Y-208551D01*
X113811Y-208312D01*
X113853Y-208073D01*
X113895Y-207805D01*
X113909Y-207510D01*
X113923Y-207201D01*
Y-207187D01*
Y-207131D01*
Y-207046D01*
X113909Y-206920D01*
X113895Y-206779D01*
X113881Y-206624D01*
X113867Y-206442D01*
X113825Y-206259D01*
X113741Y-205851D01*
X113614Y-205429D01*
X113530Y-205218D01*
X113431Y-205036D01*
X113305Y-204853D01*
X113178Y-204684D01*
X113164Y-204670D01*
X113150Y-204642D01*
X113108Y-204614D01*
X113052Y-204557D01*
X112967Y-204487D01*
X112883Y-204417D01*
X112785Y-204347D01*
X112658Y-204262D01*
X112531Y-204192D01*
X112377Y-204122D01*
X112053Y-203981D01*
X111871Y-203925D01*
X111674Y-203897D01*
X111463Y-203869D01*
X111238Y-203854D01*
D02*
G37*
G36*
X76482D02*
X76369D01*
X76285Y-203869D01*
X76172Y-203883D01*
X76060Y-203897D01*
X75779Y-203953D01*
X75469Y-204065D01*
X75301Y-204122D01*
X75132Y-204206D01*
X74977Y-204305D01*
X74808Y-204417D01*
X74654Y-204543D01*
X74513Y-204698D01*
X74499Y-204712D01*
X74485Y-204740D01*
X74443Y-204783D01*
X74401Y-204853D01*
X74344Y-204951D01*
X74288Y-205050D01*
X74218Y-205176D01*
X74148Y-205331D01*
X74077Y-205500D01*
X74007Y-205682D01*
X73951Y-205893D01*
X73895Y-206118D01*
X73852Y-206371D01*
X73810Y-206638D01*
X73796Y-206920D01*
X73782Y-207229D01*
Y-207243D01*
Y-207299D01*
Y-207384D01*
X73796Y-207496D01*
X73810Y-207637D01*
X73824Y-207805D01*
X73852Y-207974D01*
X73880Y-208171D01*
X73965Y-208579D01*
X74105Y-208986D01*
X74190Y-209197D01*
X74288Y-209394D01*
X74415Y-209577D01*
X74541Y-209746D01*
X74555Y-209760D01*
X74584Y-209788D01*
X74626Y-209830D01*
X74682Y-209872D01*
X74752Y-209943D01*
X74851Y-210013D01*
X74949Y-210097D01*
X75076Y-210168D01*
X75343Y-210336D01*
X75680Y-210463D01*
X75863Y-210519D01*
X76060Y-210561D01*
X76271Y-210589D01*
X76482Y-210603D01*
X76594D01*
X76678Y-210589D01*
X76777Y-210575D01*
X76889Y-210561D01*
X77156Y-210491D01*
X77466Y-210392D01*
X77620Y-210322D01*
X77789Y-210252D01*
X77944Y-210153D01*
X78113Y-210041D01*
X78267Y-209914D01*
X78408Y-209760D01*
X78422Y-209746D01*
X78436Y-209718D01*
X78478Y-209675D01*
X78520Y-209605D01*
X78591Y-209507D01*
X78647Y-209394D01*
X78717Y-209268D01*
X78787Y-209113D01*
X78858Y-208944D01*
X78928Y-208762D01*
X78998Y-208551D01*
X79054Y-208312D01*
X79097Y-208073D01*
X79139Y-207805D01*
X79153Y-207510D01*
X79167Y-207201D01*
Y-207187D01*
Y-207131D01*
Y-207046D01*
X79153Y-206920D01*
X79139Y-206779D01*
X79125Y-206624D01*
X79111Y-206442D01*
X79069Y-206259D01*
X78984Y-205851D01*
X78858Y-205429D01*
X78773Y-205218D01*
X78675Y-205036D01*
X78548Y-204853D01*
X78422Y-204684D01*
X78408Y-204670D01*
X78394Y-204642D01*
X78351Y-204614D01*
X78295Y-204557D01*
X78211Y-204487D01*
X78127Y-204417D01*
X78028Y-204347D01*
X77902Y-204262D01*
X77775Y-204192D01*
X77620Y-204122D01*
X77297Y-203981D01*
X77114Y-203925D01*
X76917Y-203897D01*
X76706Y-203869D01*
X76482Y-203854D01*
D02*
G37*
G36*
X49290D02*
X49177D01*
X49093Y-203869D01*
X48980Y-203883D01*
X48868Y-203897D01*
X48586Y-203953D01*
X48277Y-204065D01*
X48109Y-204122D01*
X47940Y-204206D01*
X47785Y-204305D01*
X47616Y-204417D01*
X47462Y-204543D01*
X47321Y-204698D01*
X47307Y-204712D01*
X47293Y-204740D01*
X47251Y-204783D01*
X47209Y-204853D01*
X47152Y-204951D01*
X47096Y-205050D01*
X47026Y-205176D01*
X46955Y-205331D01*
X46885Y-205500D01*
X46815Y-205682D01*
X46759Y-205893D01*
X46703Y-206118D01*
X46660Y-206371D01*
X46618Y-206638D01*
X46604Y-206920D01*
X46590Y-207229D01*
Y-207243D01*
Y-207299D01*
Y-207384D01*
X46604Y-207496D01*
X46618Y-207637D01*
X46632Y-207805D01*
X46660Y-207974D01*
X46688Y-208171D01*
X46773Y-208579D01*
X46913Y-208986D01*
X46998Y-209197D01*
X47096Y-209394D01*
X47223Y-209577D01*
X47349Y-209746D01*
X47363Y-209760D01*
X47391Y-209788D01*
X47434Y-209830D01*
X47490Y-209872D01*
X47560Y-209943D01*
X47659Y-210013D01*
X47757Y-210097D01*
X47883Y-210168D01*
X48151Y-210336D01*
X48488Y-210463D01*
X48671Y-210519D01*
X48868Y-210561D01*
X49079Y-210589D01*
X49290Y-210603D01*
X49402D01*
X49486Y-210589D01*
X49585Y-210575D01*
X49697Y-210561D01*
X49964Y-210491D01*
X50274Y-210392D01*
X50428Y-210322D01*
X50597Y-210252D01*
X50752Y-210153D01*
X50920Y-210041D01*
X51075Y-209914D01*
X51216Y-209760D01*
X51230Y-209746D01*
X51244Y-209718D01*
X51286Y-209675D01*
X51328Y-209605D01*
X51398Y-209507D01*
X51455Y-209394D01*
X51525Y-209268D01*
X51595Y-209113D01*
X51666Y-208944D01*
X51736Y-208762D01*
X51806Y-208551D01*
X51863Y-208312D01*
X51905Y-208073D01*
X51947Y-207805D01*
X51961Y-207510D01*
X51975Y-207201D01*
Y-207187D01*
Y-207131D01*
Y-207046D01*
X51961Y-206920D01*
X51947Y-206779D01*
X51933Y-206624D01*
X51919Y-206442D01*
X51876Y-206259D01*
X51792Y-205851D01*
X51666Y-205429D01*
X51581Y-205218D01*
X51483Y-205036D01*
X51356Y-204853D01*
X51230Y-204684D01*
X51216Y-204670D01*
X51202Y-204642D01*
X51160Y-204614D01*
X51103Y-204557D01*
X51019Y-204487D01*
X50934Y-204417D01*
X50836Y-204347D01*
X50710Y-204262D01*
X50583Y-204192D01*
X50428Y-204122D01*
X50105Y-203981D01*
X49922Y-203925D01*
X49725Y-203897D01*
X49514Y-203869D01*
X49290Y-203854D01*
D02*
G37*
%LPD*%
D19*
X393987Y266710D02*
D03*
X389657D02*
D03*
D52*
X447551Y291247D02*
D03*
X2306Y-39469D02*
D03*
D53*
X157399Y130892D02*
D03*
Y134457D02*
D03*
X179362Y171408D02*
D03*
Y167842D02*
D03*
X175274Y167831D02*
D03*
Y171397D02*
D03*
X60331Y5193D02*
D03*
Y1628D02*
D03*
X82056Y4744D02*
D03*
Y1178D02*
D03*
X192019Y28336D02*
D03*
Y31902D02*
D03*
X183451Y171420D02*
D03*
Y167854D02*
D03*
X218635Y228223D02*
D03*
Y231789D02*
D03*
X180843Y232807D02*
D03*
Y229241D02*
D03*
X187551Y171420D02*
D03*
Y167854D02*
D03*
X173076Y108273D02*
D03*
Y111839D02*
D03*
X168976Y108273D02*
D03*
Y111839D02*
D03*
X164876Y108273D02*
D03*
Y111839D02*
D03*
X139500Y156500D02*
D03*
Y152934D02*
D03*
X160776Y108273D02*
D03*
Y111839D02*
D03*
X156676Y108273D02*
D03*
Y111839D02*
D03*
X152576Y108273D02*
D03*
Y111839D02*
D03*
X148476Y108273D02*
D03*
Y111839D02*
D03*
X-11224Y97898D02*
D03*
Y94332D02*
D03*
X303398Y277098D02*
D03*
Y280664D02*
D03*
X-11201Y105564D02*
D03*
Y101998D02*
D03*
X89313Y1178D02*
D03*
Y4744D02*
D03*
X67545Y1628D02*
D03*
Y5193D02*
D03*
X180046Y152679D02*
D03*
Y149113D02*
D03*
X303375Y269432D02*
D03*
Y272998D02*
D03*
X186546Y133569D02*
D03*
Y137135D02*
D03*
X337297Y179758D02*
D03*
Y183324D02*
D03*
X347083Y180483D02*
D03*
Y184049D02*
D03*
D57*
X35023Y139663D02*
D03*
X40023D02*
D03*
X45023D02*
D03*
X50023D02*
D03*
Y120263D02*
D03*
X45023D02*
D03*
X40023D02*
D03*
X35023D02*
D03*
D58*
X46365Y148350D02*
D03*
X49931D02*
D03*
X55476Y148248D02*
D03*
X59042D02*
D03*
X170726Y57884D02*
D03*
X174291D02*
D03*
X170786Y53313D02*
D03*
X174352D02*
D03*
X170026Y160984D02*
D03*
X166460D02*
D03*
X180142Y126204D02*
D03*
X176576D02*
D03*
X204315Y34968D02*
D03*
X200749D02*
D03*
X95647Y207976D02*
D03*
X99213D02*
D03*
X206236Y155210D02*
D03*
X202671D02*
D03*
X139268Y132834D02*
D03*
X142834D02*
D03*
X202671Y151110D02*
D03*
X206236D02*
D03*
X202682Y147022D02*
D03*
X206248D02*
D03*
X202694Y142933D02*
D03*
X206260D02*
D03*
X202682Y138758D02*
D03*
X206248D02*
D03*
X206236Y159310D02*
D03*
X202671D02*
D03*
X131937Y103026D02*
D03*
X128371D02*
D03*
X148962Y156125D02*
D03*
X152528D02*
D03*
X202694Y134669D02*
D03*
X206260D02*
D03*
X202705Y130581D02*
D03*
X206271D02*
D03*
X202705Y126481D02*
D03*
X206271D02*
D03*
X202705Y122381D02*
D03*
X206271D02*
D03*
X131124Y119898D02*
D03*
X134690D02*
D03*
X139214Y137924D02*
D03*
X142780D02*
D03*
D62*
X152733Y31150D02*
D03*
X160213D02*
D03*
X156473Y21701D02*
D03*
D70*
X328783Y113779D02*
D03*
X340595D02*
D03*
D72*
X174947Y42574D02*
D03*
X169051D02*
D03*
X379032Y134108D02*
D03*
X373136D02*
D03*
X333035Y73293D02*
D03*
X338931D02*
D03*
D89*
X380985Y125487D02*
D03*
X371567D02*
D03*
X371720Y114252D02*
D03*
X381137D02*
D03*
X330771Y81911D02*
D03*
X340188D02*
D03*
D90*
X186233Y27142D02*
D03*
Y33038D02*
D03*
X257285Y170297D02*
D03*
Y164401D02*
D03*
D91*
X275632Y292098D02*
D03*
Y287098D02*
D03*
Y282098D02*
D03*
Y277098D02*
D03*
X295032D02*
D03*
Y282098D02*
D03*
Y287098D02*
D03*
Y292098D02*
D03*
X-2470Y83746D02*
D03*
Y88746D02*
D03*
Y93746D02*
D03*
Y98746D02*
D03*
X16930D02*
D03*
Y93746D02*
D03*
Y88746D02*
D03*
Y83746D02*
D03*
D92*
X352063Y61156D02*
D03*
Y33990D02*
D03*
D93*
X191982Y228482D02*
D03*
Y231789D02*
D03*
X200643Y228482D02*
D03*
Y231789D02*
D03*
X213635Y228482D02*
D03*
Y231789D02*
D03*
X209304Y228482D02*
D03*
Y231789D02*
D03*
D94*
X46609Y73056D02*
D03*
X36609Y78056D02*
D03*
X46609Y83056D02*
D03*
X36609Y88056D02*
D03*
X46609Y93056D02*
D03*
X36609Y98056D02*
D03*
X46609Y103056D02*
D03*
X36609Y108056D02*
D03*
D95*
X-398Y59553D02*
D03*
Y121560D02*
D03*
D96*
X11609Y113056D02*
D03*
Y68056D02*
D03*
X338656Y277517D02*
D03*
X253656D02*
D03*
D97*
X21609Y186842D02*
D03*
Y146842D02*
D03*
X347730Y-39730D02*
D03*
X328045D02*
D03*
X316974Y219874D02*
D03*
X287644D02*
D03*
X198476Y-4234D02*
D03*
Y-31793D02*
D03*
D98*
X46609Y154362D02*
D03*
Y164362D02*
D03*
Y174362D02*
D03*
X56609Y159362D02*
D03*
Y169362D02*
D03*
D99*
Y179362D02*
D03*
D100*
X417903Y269366D02*
D03*
X366171D02*
D03*
D101*
X378257Y258696D02*
D03*
X388100D02*
D03*
X395974D02*
D03*
D102*
X405816D02*
D03*
D103*
X53347Y-8234D02*
D03*
X43347Y-27919D02*
D03*
D104*
X73347Y-8234D02*
D03*
X93347D02*
D03*
X113347D02*
D03*
X63347Y-27919D02*
D03*
X83347D02*
D03*
X103347D02*
D03*
X143347D02*
D03*
X153347Y-8234D02*
D03*
X123347Y-27919D02*
D03*
X133347Y-8234D02*
D03*
D105*
X309876Y257517D02*
D03*
X313892Y265510D02*
D03*
X317908Y257517D02*
D03*
X321924Y265510D02*
D03*
X325939Y257517D02*
D03*
X329955Y265510D02*
D03*
X262357Y257517D02*
D03*
X266372Y265510D02*
D03*
X270388Y257517D02*
D03*
X274404Y265510D02*
D03*
X278420Y257517D02*
D03*
X282435Y265510D02*
D03*
D106*
X235519Y-35362D02*
D03*
X287881D02*
D03*
D107*
X243983Y-6543D02*
D03*
X255794D02*
D03*
X267605D02*
D03*
X279416D02*
D03*
X243983Y-18355D02*
D03*
X255794D02*
D03*
X267605D02*
D03*
D108*
X279416D02*
D03*
D109*
X404300Y205100D02*
D03*
X-500Y288000D02*
D03*
X0Y0D02*
D03*
X404400Y-900D02*
D03*
D110*
X349304Y-11580D02*
D03*
X326470D02*
D03*
X328045Y-25950D02*
D03*
X347730D02*
D03*
X368596Y-6265D02*
D03*
X307178D02*
D03*
D111*
X337887Y-47604D02*
D03*
D112*
X368596Y-39730D02*
D03*
X307178D02*
D03*
D113*
X247949Y76286D02*
D03*
Y86286D02*
D03*
Y96286D02*
D03*
Y106286D02*
D03*
X-3953Y234526D02*
D03*
Y224526D02*
D03*
D114*
X247949Y116286D02*
D03*
X-3953Y214526D02*
D03*
D153*
X168913Y35759D02*
D03*
Y28279D02*
D03*
X178795D02*
D03*
Y32019D02*
D03*
Y35759D02*
D03*
D154*
X246773Y14239D02*
D03*
X273938D02*
D03*
X324549Y13423D02*
D03*
X351714D02*
D03*
D155*
X164298Y137135D02*
D03*
X180046D02*
D03*
D156*
X167447Y141411D02*
D03*
X170597D02*
D03*
X173747D02*
D03*
X176896D02*
D03*
X164298D02*
D03*
X180046D02*
D03*
X164298Y132858D02*
D03*
X167447D02*
D03*
X170597D02*
D03*
X173747D02*
D03*
X176896D02*
D03*
X180046D02*
D03*
D157*
X335478Y219874D02*
D03*
X270912D02*
D03*
D158*
X180173Y297466D02*
D03*
D159*
X233322Y299238D02*
D03*
D160*
X180171Y256718D02*
D03*
X224068Y239789D02*
D03*
D161*
X183911D02*
D03*
X196312D02*
D03*
X204974D02*
D03*
X213635D02*
D03*
X187651D02*
D03*
X200643D02*
D03*
X217966D02*
D03*
X209304D02*
D03*
X191982D02*
D03*
D162*
X180171Y281127D02*
D03*
X89312Y18521D02*
D03*
Y11041D02*
D03*
X79863Y14781D02*
D03*
X67544Y18884D02*
D03*
Y11404D02*
D03*
X58095Y15144D02*
D03*
D163*
X387836Y146319D02*
D03*
Y134508D02*
D03*
M02*
