G04*
G04 #@! TF.GenerationSoftware,Altium Limited,Altium Designer,21.4.1 (30)*
G04*
G04 Layer_Color=255*
%FSLAX25Y25*%
%MOIN*%
G70*
G04*
G04 #@! TF.SameCoordinates,04E9EE4E-D336-421F-817C-04C26E83230A*
G04*
G04*
G04 #@! TF.FilePolarity,Positive*
G04*
G01*
G75*
%ADD15R,0.02400X0.02400*%
%ADD18R,0.02756X0.07800*%
%ADD19R,0.02400X0.02400*%
%ADD23R,0.03150X0.03937*%
%ADD31R,0.04528X0.07087*%
%ADD33R,0.03400X0.03900*%
%ADD47R,0.04700X0.07100*%
%ADD48R,0.03900X0.03400*%
%ADD49R,0.07800X0.02756*%
%ADD50R,0.12992X0.09843*%
%ADD51R,0.01181X0.01575*%
%ADD52C,0.06000*%
%ADD100C,0.11500*%
%ADD112C,0.11100*%
%ADD115C,0.04000*%
%ADD124C,0.05941*%
%ADD125C,0.09744*%
%ADD126C,0.05500*%
G04:AMPARAMS|DCode=127|XSize=55mil|YSize=55mil|CornerRadius=13.75mil|HoleSize=0mil|Usage=FLASHONLY|Rotation=270.000|XOffset=0mil|YOffset=0mil|HoleType=Round|Shape=RoundedRectangle|*
%AMROUNDEDRECTD127*
21,1,0.05500,0.02750,0,0,270.0*
21,1,0.02750,0.05500,0,0,270.0*
1,1,0.02750,-0.01375,-0.01375*
1,1,0.02750,-0.01375,0.01375*
1,1,0.02750,0.01375,0.01375*
1,1,0.02750,0.01375,-0.01375*
%
%ADD127ROUNDEDRECTD127*%
%ADD128C,0.05700*%
G04:AMPARAMS|DCode=129|XSize=57mil|YSize=57mil|CornerRadius=14.25mil|HoleSize=0mil|Usage=FLASHONLY|Rotation=180.000|XOffset=0mil|YOffset=0mil|HoleType=Round|Shape=RoundedRectangle|*
%AMROUNDEDRECTD129*
21,1,0.05700,0.02850,0,0,180.0*
21,1,0.02850,0.05700,0,0,180.0*
1,1,0.02850,-0.01425,0.01425*
1,1,0.02850,0.01425,0.01425*
1,1,0.02850,0.01425,-0.01425*
1,1,0.02850,-0.01425,-0.01425*
%
%ADD129ROUNDEDRECTD129*%
G04:AMPARAMS|DCode=130|XSize=80mil|YSize=80mil|CornerRadius=20mil|HoleSize=0mil|Usage=FLASHONLY|Rotation=0.000|XOffset=0mil|YOffset=0mil|HoleType=Round|Shape=RoundedRectangle|*
%AMROUNDEDRECTD130*
21,1,0.08000,0.04000,0,0,0.0*
21,1,0.04000,0.08000,0,0,0.0*
1,1,0.04000,0.02000,-0.02000*
1,1,0.04000,-0.02000,-0.02000*
1,1,0.04000,-0.02000,0.02000*
1,1,0.04000,0.02000,0.02000*
%
%ADD130ROUNDEDRECTD130*%
%ADD131C,0.08000*%
%ADD132C,0.05512*%
%ADD133C,0.06200*%
G04:AMPARAMS|DCode=134|XSize=62mil|YSize=62mil|CornerRadius=15.5mil|HoleSize=0mil|Usage=FLASHONLY|Rotation=0.000|XOffset=0mil|YOffset=0mil|HoleType=Round|Shape=RoundedRectangle|*
%AMROUNDEDRECTD134*
21,1,0.06200,0.03100,0,0,0.0*
21,1,0.03100,0.06200,0,0,0.0*
1,1,0.03100,0.01550,-0.01550*
1,1,0.03100,-0.01550,-0.01550*
1,1,0.03100,-0.01550,0.01550*
1,1,0.03100,0.01550,0.01550*
%
%ADD134ROUNDEDRECTD134*%
%ADD135C,0.09449*%
%ADD136O,0.04400X0.12700*%
%ADD137O,0.10700X0.06000*%
%ADD138C,0.10700*%
G04:AMPARAMS|DCode=139|XSize=60mil|YSize=60mil|CornerRadius=15mil|HoleSize=0mil|Usage=FLASHONLY|Rotation=270.000|XOffset=0mil|YOffset=0mil|HoleType=Round|Shape=RoundedRectangle|*
%AMROUNDEDRECTD139*
21,1,0.06000,0.03000,0,0,270.0*
21,1,0.03000,0.06000,0,0,270.0*
1,1,0.03000,-0.01500,-0.01500*
1,1,0.03000,-0.01500,0.01500*
1,1,0.03000,0.01500,0.01500*
1,1,0.03000,0.01500,-0.01500*
%
%ADD139ROUNDEDRECTD139*%
%ADD141R,0.04764X0.02323*%
%ADD142R,0.09843X0.12992*%
%ADD143R,0.02000X0.02000*%
%ADD144R,0.03937X0.02362*%
%ADD145R,0.02362X0.03937*%
%ADD146R,0.17717X0.09055*%
%ADD147R,0.03937X0.11024*%
%ADD148R,0.05118X0.07480*%
%ADD149R,0.03937X0.04724*%
%ADD150R,0.02756X0.04724*%
%ADD151R,0.03937X0.03150*%
%ADD152R,0.07087X0.04528*%
D15*
X157399Y130892D02*
D03*
Y134457D02*
D03*
X179362Y171408D02*
D03*
Y167842D02*
D03*
X175274Y167831D02*
D03*
Y171397D02*
D03*
X60331Y5193D02*
D03*
Y1628D02*
D03*
X82056Y4744D02*
D03*
Y1178D02*
D03*
X192019Y28336D02*
D03*
Y31902D02*
D03*
X183451Y171420D02*
D03*
Y167854D02*
D03*
X218635Y228223D02*
D03*
Y231789D02*
D03*
X180843Y232807D02*
D03*
Y229241D02*
D03*
X187551Y171420D02*
D03*
Y167854D02*
D03*
X173076Y108273D02*
D03*
Y111839D02*
D03*
X168976Y108273D02*
D03*
Y111839D02*
D03*
X164876Y108273D02*
D03*
Y111839D02*
D03*
X139500Y156500D02*
D03*
Y152934D02*
D03*
X160776Y108273D02*
D03*
Y111839D02*
D03*
X156676Y108273D02*
D03*
Y111839D02*
D03*
X152576Y108273D02*
D03*
Y111839D02*
D03*
X148476Y108273D02*
D03*
Y111839D02*
D03*
X-11224Y97898D02*
D03*
Y94332D02*
D03*
X303398Y277098D02*
D03*
Y280664D02*
D03*
X-11201Y105564D02*
D03*
Y101998D02*
D03*
X89313Y1178D02*
D03*
Y4744D02*
D03*
X67545Y1628D02*
D03*
Y5193D02*
D03*
X180046Y152679D02*
D03*
Y149113D02*
D03*
X303375Y269432D02*
D03*
Y272998D02*
D03*
X186546Y133569D02*
D03*
Y137135D02*
D03*
X337297Y179758D02*
D03*
Y183324D02*
D03*
X347083Y180483D02*
D03*
Y184049D02*
D03*
D18*
X35023Y139663D02*
D03*
X40023D02*
D03*
X45023D02*
D03*
X50023D02*
D03*
Y120263D02*
D03*
X45023D02*
D03*
X40023D02*
D03*
X35023D02*
D03*
D19*
X46365Y148350D02*
D03*
X49931D02*
D03*
X55476Y148248D02*
D03*
X59042D02*
D03*
X170726Y57884D02*
D03*
X174291D02*
D03*
X170786Y53313D02*
D03*
X174352D02*
D03*
X170026Y160984D02*
D03*
X166460D02*
D03*
X180142Y126204D02*
D03*
X176576D02*
D03*
X204315Y34968D02*
D03*
X200749D02*
D03*
X95647Y207976D02*
D03*
X99213D02*
D03*
X206236Y155210D02*
D03*
X202671D02*
D03*
X139268Y132834D02*
D03*
X142834D02*
D03*
X202671Y151110D02*
D03*
X206236D02*
D03*
X202682Y147022D02*
D03*
X206248D02*
D03*
X202694Y142933D02*
D03*
X206260D02*
D03*
X202682Y138758D02*
D03*
X206248D02*
D03*
X206236Y159310D02*
D03*
X202671D02*
D03*
X131937Y103026D02*
D03*
X128371D02*
D03*
X148962Y156125D02*
D03*
X152528D02*
D03*
X202694Y134669D02*
D03*
X206260D02*
D03*
X202705Y130581D02*
D03*
X206271D02*
D03*
X202705Y126481D02*
D03*
X206271D02*
D03*
X202705Y122381D02*
D03*
X206271D02*
D03*
X131124Y119898D02*
D03*
X134690D02*
D03*
X139214Y137924D02*
D03*
X142780D02*
D03*
D23*
X152733Y31150D02*
D03*
X160213D02*
D03*
X156473Y21701D02*
D03*
D31*
X328783Y113779D02*
D03*
X340595D02*
D03*
D33*
X174947Y42574D02*
D03*
X169051D02*
D03*
X379032Y134108D02*
D03*
X373136D02*
D03*
X333035Y73293D02*
D03*
X338931D02*
D03*
D47*
X380985Y125487D02*
D03*
X371567D02*
D03*
X371720Y114252D02*
D03*
X381137D02*
D03*
X330771Y81911D02*
D03*
X340188D02*
D03*
D48*
X186233Y27142D02*
D03*
Y33038D02*
D03*
X257285Y170297D02*
D03*
Y164401D02*
D03*
D49*
X275632Y292098D02*
D03*
Y287098D02*
D03*
Y282098D02*
D03*
Y277098D02*
D03*
X295032D02*
D03*
Y282098D02*
D03*
Y287098D02*
D03*
Y292098D02*
D03*
X-2470Y83746D02*
D03*
Y88746D02*
D03*
Y93746D02*
D03*
Y98746D02*
D03*
X16930D02*
D03*
Y93746D02*
D03*
Y88746D02*
D03*
Y83746D02*
D03*
D50*
X352063Y61156D02*
D03*
Y33990D02*
D03*
D51*
X191982Y228482D02*
D03*
Y231789D02*
D03*
X200643Y228482D02*
D03*
Y231789D02*
D03*
X213635Y228482D02*
D03*
Y231789D02*
D03*
X209304Y228482D02*
D03*
Y231789D02*
D03*
D52*
X247949Y76286D02*
D03*
Y86286D02*
D03*
Y96286D02*
D03*
Y106286D02*
D03*
X-3953Y234526D02*
D03*
Y224526D02*
D03*
D100*
X235519Y-35362D02*
D03*
X287881D02*
D03*
D112*
X417903Y269366D02*
D03*
X366171D02*
D03*
D115*
X447551Y291247D02*
D03*
X2306Y-39469D02*
D03*
D124*
X46609Y73056D02*
D03*
X36609Y78056D02*
D03*
X46609Y83056D02*
D03*
X36609Y88056D02*
D03*
X46609Y93056D02*
D03*
X36609Y98056D02*
D03*
X46609Y103056D02*
D03*
X36609Y108056D02*
D03*
D125*
X-398Y59553D02*
D03*
Y121560D02*
D03*
D126*
X46609Y154362D02*
D03*
Y164362D02*
D03*
Y174362D02*
D03*
X56609Y159362D02*
D03*
Y169362D02*
D03*
D127*
Y179362D02*
D03*
D128*
X378257Y258696D02*
D03*
X388100D02*
D03*
X395974D02*
D03*
D129*
X405816D02*
D03*
D130*
X53347Y-8234D02*
D03*
X43347Y-27919D02*
D03*
D131*
X73347Y-8234D02*
D03*
X93347D02*
D03*
X113347D02*
D03*
X63347Y-27919D02*
D03*
X83347D02*
D03*
X103347D02*
D03*
X143347D02*
D03*
X153347Y-8234D02*
D03*
X123347Y-27919D02*
D03*
X133347Y-8234D02*
D03*
D132*
X309876Y257517D02*
D03*
X313892Y265510D02*
D03*
X317908Y257517D02*
D03*
X321924Y265510D02*
D03*
X325939Y257517D02*
D03*
X329955Y265510D02*
D03*
X262357Y257517D02*
D03*
X266372Y265510D02*
D03*
X270388Y257517D02*
D03*
X274404Y265510D02*
D03*
X278420Y257517D02*
D03*
X282435Y265510D02*
D03*
D133*
X243983Y-6543D02*
D03*
X255794D02*
D03*
X267605D02*
D03*
X279416D02*
D03*
X243983Y-18355D02*
D03*
X255794D02*
D03*
X267605D02*
D03*
D134*
X279416D02*
D03*
D135*
X404300Y205100D02*
D03*
X-500Y288000D02*
D03*
X0Y0D02*
D03*
X404400Y-900D02*
D03*
D136*
X349304Y-11580D02*
D03*
X326470D02*
D03*
X328045Y-25950D02*
D03*
X347730D02*
D03*
X368596Y-6265D02*
D03*
X307178D02*
D03*
D137*
X337887Y-47604D02*
D03*
D138*
X368596Y-39730D02*
D03*
X307178D02*
D03*
D139*
X247949Y116286D02*
D03*
X-3953Y214526D02*
D03*
D141*
X168913Y35759D02*
D03*
Y28279D02*
D03*
X178795D02*
D03*
Y32019D02*
D03*
Y35759D02*
D03*
D142*
X246773Y14239D02*
D03*
X273938D02*
D03*
X324549Y13423D02*
D03*
X351714D02*
D03*
D143*
X393987Y266710D02*
D03*
X389657D02*
D03*
D144*
X164298Y137135D02*
D03*
X180046D02*
D03*
D145*
X167447Y141411D02*
D03*
X170597D02*
D03*
X173747D02*
D03*
X176896D02*
D03*
X164298D02*
D03*
X180046D02*
D03*
X164298Y132858D02*
D03*
X167447D02*
D03*
X170597D02*
D03*
X173747D02*
D03*
X176896D02*
D03*
X180046D02*
D03*
D146*
X335478Y219874D02*
D03*
X270912D02*
D03*
D147*
X180173Y297466D02*
D03*
D148*
X233322Y299238D02*
D03*
D149*
X180171Y256718D02*
D03*
X224068Y239789D02*
D03*
D150*
X183911D02*
D03*
X196312D02*
D03*
X204974D02*
D03*
X213635D02*
D03*
X187651D02*
D03*
X200643D02*
D03*
X217966D02*
D03*
X209304D02*
D03*
X191982D02*
D03*
D151*
X180171Y281127D02*
D03*
X89312Y18521D02*
D03*
Y11041D02*
D03*
X79863Y14781D02*
D03*
X67544Y18884D02*
D03*
Y11404D02*
D03*
X58095Y15144D02*
D03*
D152*
X387836Y146319D02*
D03*
Y134508D02*
D03*
M02*
