G04*
G04 #@! TF.GenerationSoftware,Altium Limited,Altium Designer,21.4.1 (30)*
G04*
G04 Layer_Color=128*
%FSLAX25Y25*%
%MOIN*%
G70*
G04*
G04 #@! TF.SameCoordinates,04E9EE4E-D336-421F-817C-04C26E83230A*
G04*
G04*
G04 #@! TF.FilePolarity,Positive*
G04*
G01*
G75*
%ADD15R,0.02400X0.02400*%
%ADD18R,0.02756X0.07800*%
%ADD19R,0.02400X0.02400*%
%ADD23R,0.03150X0.03937*%
%ADD31R,0.04528X0.07087*%
%ADD33R,0.03400X0.03900*%
%ADD47R,0.04700X0.07100*%
%ADD48R,0.03900X0.03400*%
%ADD49R,0.07800X0.02756*%
%ADD50R,0.12992X0.09843*%
%ADD51R,0.01181X0.01575*%
%ADD141R,0.04764X0.02323*%
%ADD142R,0.09843X0.12992*%
%ADD143R,0.02000X0.02000*%
%ADD144R,0.03937X0.02362*%
%ADD145R,0.02362X0.03937*%
%ADD147R,0.03937X0.11024*%
%ADD148R,0.05118X0.07480*%
%ADD149R,0.03937X0.04724*%
%ADD150R,0.02756X0.04724*%
%ADD151R,0.03937X0.03150*%
%ADD152R,0.07087X0.04528*%
G36*
X120419Y-202196D02*
X120574Y-202209D01*
X120756Y-202224D01*
X120939Y-202252D01*
X121150Y-202280D01*
X121600Y-202378D01*
X121825Y-202449D01*
X122050Y-202519D01*
X122275Y-202617D01*
X122486Y-202730D01*
X122683Y-202856D01*
X122865Y-202997D01*
X122880Y-203011D01*
X122908Y-203039D01*
X122950Y-203081D01*
X123006Y-203137D01*
X123076Y-203222D01*
X123161Y-203320D01*
X123245Y-203433D01*
X123344Y-203559D01*
X123428Y-203714D01*
X123512Y-203869D01*
X123597Y-204051D01*
X123667Y-204248D01*
X123737Y-204445D01*
X123793Y-204670D01*
X123836Y-204895D01*
X123850Y-205148D01*
X121881Y-205218D01*
Y-205204D01*
Y-205190D01*
X121853Y-205092D01*
X121825Y-204965D01*
X121769Y-204811D01*
X121698Y-204628D01*
X121600Y-204459D01*
X121474Y-204290D01*
X121333Y-204150D01*
X121319Y-204136D01*
X121263Y-204094D01*
X121164Y-204037D01*
X121024Y-203981D01*
X120855Y-203925D01*
X120644Y-203869D01*
X120391Y-203826D01*
X120096Y-203812D01*
X119955D01*
X119800Y-203826D01*
X119618Y-203854D01*
X119407Y-203897D01*
X119182Y-203967D01*
X118971Y-204051D01*
X118774Y-204178D01*
X118760Y-204192D01*
X118732Y-204220D01*
X118676Y-204262D01*
X118619Y-204333D01*
X118563Y-204417D01*
X118507Y-204529D01*
X118479Y-204642D01*
X118465Y-204783D01*
Y-204797D01*
Y-204839D01*
X118479Y-204909D01*
X118507Y-204979D01*
X118535Y-205078D01*
X118577Y-205176D01*
X118648Y-205275D01*
X118746Y-205373D01*
X118760Y-205387D01*
X118830Y-205429D01*
X118872Y-205457D01*
X118943Y-205486D01*
X119013Y-205528D01*
X119112Y-205570D01*
X119224Y-205612D01*
X119351Y-205668D01*
X119505Y-205725D01*
X119660Y-205781D01*
X119857Y-205837D01*
X120068Y-205893D01*
X120292Y-205949D01*
X120546Y-206020D01*
X120560D01*
X120616Y-206034D01*
X120686Y-206048D01*
X120785Y-206076D01*
X120897Y-206104D01*
X121038Y-206146D01*
X121192Y-206189D01*
X121347Y-206231D01*
X121684Y-206343D01*
X122036Y-206456D01*
X122373Y-206582D01*
X122514Y-206652D01*
X122655Y-206723D01*
X122669D01*
X122683Y-206737D01*
X122767Y-206793D01*
X122894Y-206877D01*
X123048Y-206990D01*
X123217Y-207131D01*
X123400Y-207299D01*
X123582Y-207496D01*
X123737Y-207721D01*
X123751Y-207749D01*
X123793Y-207834D01*
X123864Y-207960D01*
X123934Y-208143D01*
X124004Y-208368D01*
X124075Y-208635D01*
X124117Y-208930D01*
X124131Y-209268D01*
Y-209282D01*
Y-209310D01*
Y-209352D01*
Y-209408D01*
X124117Y-209478D01*
X124103Y-209577D01*
X124075Y-209774D01*
X124018Y-210027D01*
X123934Y-210294D01*
X123808Y-210561D01*
X123653Y-210842D01*
Y-210856D01*
X123625Y-210871D01*
X123568Y-210955D01*
X123456Y-211095D01*
X123315Y-211250D01*
X123133Y-211433D01*
X122894Y-211602D01*
X122641Y-211770D01*
X122331Y-211925D01*
X122317D01*
X122289Y-211939D01*
X122247Y-211953D01*
X122177Y-211981D01*
X122092Y-212009D01*
X121994Y-212037D01*
X121881Y-212066D01*
X121755Y-212094D01*
X121600Y-212136D01*
X121445Y-212164D01*
X121080Y-212220D01*
X120672Y-212262D01*
X120222Y-212277D01*
X120039D01*
X119913Y-212262D01*
X119758Y-212248D01*
X119589Y-212234D01*
X119393Y-212206D01*
X119182Y-212164D01*
X118718Y-212066D01*
X118479Y-211995D01*
X118254Y-211925D01*
X118015Y-211827D01*
X117790Y-211714D01*
X117579Y-211588D01*
X117382Y-211433D01*
X117368Y-211419D01*
X117340Y-211391D01*
X117284Y-211349D01*
X117227Y-211278D01*
X117143Y-211180D01*
X117059Y-211067D01*
X116960Y-210941D01*
X116862Y-210800D01*
X116763Y-210631D01*
X116665Y-210449D01*
X116567Y-210238D01*
X116468Y-210013D01*
X116398Y-209774D01*
X116314Y-209507D01*
X116257Y-209226D01*
X116215Y-208930D01*
X118127Y-208747D01*
Y-208762D01*
X118141Y-208790D01*
Y-208846D01*
X118155Y-208902D01*
X118212Y-209071D01*
X118282Y-209282D01*
X118366Y-209521D01*
X118493Y-209760D01*
X118633Y-209971D01*
X118816Y-210168D01*
X118844Y-210182D01*
X118915Y-210238D01*
X119027Y-210308D01*
X119196Y-210392D01*
X119407Y-210477D01*
X119646Y-210547D01*
X119927Y-210603D01*
X120250Y-210617D01*
X120405D01*
X120574Y-210589D01*
X120785Y-210561D01*
X121010Y-210519D01*
X121249Y-210449D01*
X121474Y-210350D01*
X121670Y-210224D01*
X121698Y-210210D01*
X121755Y-210153D01*
X121825Y-210069D01*
X121923Y-209957D01*
X122008Y-209816D01*
X122092Y-209647D01*
X122148Y-209478D01*
X122162Y-209282D01*
Y-209268D01*
Y-209226D01*
X122148Y-209155D01*
X122134Y-209071D01*
X122106Y-208986D01*
X122078Y-208888D01*
X122022Y-208790D01*
X121952Y-208691D01*
X121938Y-208677D01*
X121909Y-208649D01*
X121867Y-208607D01*
X121797Y-208551D01*
X121698Y-208480D01*
X121572Y-208410D01*
X121431Y-208340D01*
X121249Y-208269D01*
X121235D01*
X121178Y-208241D01*
X121080Y-208213D01*
X121010Y-208185D01*
X120925Y-208171D01*
X120827Y-208143D01*
X120714Y-208101D01*
X120588Y-208073D01*
X120447Y-208030D01*
X120278Y-207988D01*
X120096Y-207946D01*
X119899Y-207890D01*
X119674Y-207834D01*
X119660D01*
X119604Y-207820D01*
X119519Y-207791D01*
X119421Y-207763D01*
X119294Y-207721D01*
X119140Y-207679D01*
X118985Y-207623D01*
X118802Y-207566D01*
X118437Y-207426D01*
X118085Y-207257D01*
X117902Y-207173D01*
X117748Y-207074D01*
X117593Y-206976D01*
X117466Y-206877D01*
X117452Y-206863D01*
X117424Y-206835D01*
X117382Y-206793D01*
X117326Y-206737D01*
X117255Y-206652D01*
X117185Y-206554D01*
X117101Y-206456D01*
X117031Y-206329D01*
X116862Y-206034D01*
X116721Y-205696D01*
X116665Y-205514D01*
X116623Y-205331D01*
X116595Y-205120D01*
X116581Y-204909D01*
Y-204895D01*
Y-204881D01*
Y-204839D01*
Y-204783D01*
X116609Y-204642D01*
X116637Y-204459D01*
X116679Y-204248D01*
X116749Y-204009D01*
X116848Y-203756D01*
X116988Y-203517D01*
Y-203503D01*
X117002Y-203489D01*
X117073Y-203405D01*
X117157Y-203292D01*
X117298Y-203151D01*
X117466Y-202997D01*
X117677Y-202828D01*
X117916Y-202674D01*
X118198Y-202533D01*
X118212D01*
X118240Y-202519D01*
X118282Y-202505D01*
X118338Y-202477D01*
X118422Y-202449D01*
X118507Y-202420D01*
X118619Y-202392D01*
X118746Y-202350D01*
X119027Y-202294D01*
X119351Y-202238D01*
X119716Y-202196D01*
X120124Y-202181D01*
X120292D01*
X120419Y-202196D01*
D02*
G37*
G36*
X92074Y-212094D02*
X90260D01*
X90246Y-204445D01*
X88334Y-212094D01*
X86436D01*
X84524Y-204445D01*
Y-212094D01*
X82710D01*
Y-202364D01*
X85649D01*
X87392Y-209015D01*
X89122Y-202364D01*
X92074D01*
Y-212094D01*
D02*
G37*
G36*
X141326Y-204009D02*
X136082D01*
Y-206160D01*
X140961D01*
Y-207805D01*
X136082D01*
Y-210449D01*
X141509D01*
Y-212094D01*
X134114D01*
Y-202364D01*
X141326D01*
Y-204009D01*
D02*
G37*
G36*
X132834D02*
X129966D01*
Y-212094D01*
X127997D01*
Y-204009D01*
X125115D01*
Y-202364D01*
X132834D01*
Y-204009D01*
D02*
G37*
G36*
X115681Y-212094D02*
X113558D01*
X112714Y-209886D01*
X108806D01*
X108004Y-212094D01*
X105923D01*
X109691Y-202364D01*
X111772D01*
X115681Y-212094D01*
D02*
G37*
G36*
X101593Y-202378D02*
X101958D01*
X102352Y-202406D01*
X102746Y-202434D01*
X102914Y-202449D01*
X103083Y-202463D01*
X103224Y-202491D01*
X103336Y-202519D01*
X103350D01*
X103378Y-202533D01*
X103420Y-202547D01*
X103477Y-202561D01*
X103631Y-202631D01*
X103828Y-202716D01*
X104039Y-202842D01*
X104278Y-203011D01*
X104503Y-203222D01*
X104728Y-203475D01*
Y-203489D01*
X104756Y-203503D01*
X104784Y-203545D01*
X104812Y-203602D01*
X104869Y-203686D01*
X104911Y-203770D01*
X104967Y-203869D01*
X105023Y-203981D01*
X105122Y-204262D01*
X105220Y-204572D01*
X105276Y-204951D01*
X105305Y-205359D01*
Y-205373D01*
Y-205401D01*
Y-205443D01*
Y-205514D01*
X105290Y-205584D01*
Y-205682D01*
X105262Y-205879D01*
X105220Y-206118D01*
X105164Y-206385D01*
X105080Y-206638D01*
X104967Y-206877D01*
X104953Y-206906D01*
X104911Y-206976D01*
X104841Y-207088D01*
X104742Y-207229D01*
X104630Y-207369D01*
X104475Y-207538D01*
X104320Y-207693D01*
X104138Y-207834D01*
X104109Y-207848D01*
X104053Y-207890D01*
X103955Y-207946D01*
X103828Y-208016D01*
X103674Y-208101D01*
X103505Y-208171D01*
X103322Y-208241D01*
X103125Y-208297D01*
X103097D01*
X103055Y-208312D01*
X102999D01*
X102928Y-208326D01*
X102830Y-208340D01*
X102732Y-208354D01*
X102605D01*
X102479Y-208368D01*
X102324Y-208382D01*
X102155Y-208396D01*
X101972Y-208410D01*
X101776D01*
X101565Y-208424D01*
X99821D01*
Y-212094D01*
X97853D01*
Y-202364D01*
X101438D01*
X101593Y-202378D01*
D02*
G37*
G36*
X70886Y-204009D02*
X68017D01*
Y-212094D01*
X66049D01*
Y-204009D01*
X63167D01*
Y-202364D01*
X70886D01*
Y-204009D01*
D02*
G37*
G36*
X62576D02*
X59708D01*
Y-212094D01*
X57740D01*
Y-204009D01*
X54857D01*
Y-202364D01*
X62576D01*
Y-204009D01*
D02*
G37*
G36*
X39687Y-202378D02*
X39968Y-202392D01*
X40249Y-202406D01*
X40516Y-202434D01*
X40755Y-202463D01*
X40783D01*
X40854Y-202477D01*
X40952Y-202505D01*
X41093Y-202547D01*
X41247Y-202603D01*
X41416Y-202674D01*
X41599Y-202758D01*
X41767Y-202870D01*
X41781Y-202884D01*
X41838Y-202927D01*
X41922Y-202997D01*
X42035Y-203081D01*
X42147Y-203208D01*
X42274Y-203348D01*
X42400Y-203503D01*
X42513Y-203686D01*
X42527Y-203714D01*
X42555Y-203770D01*
X42611Y-203883D01*
X42667Y-204023D01*
X42724Y-204192D01*
X42780Y-204375D01*
X42808Y-204600D01*
X42822Y-204825D01*
Y-204839D01*
Y-204853D01*
Y-204937D01*
X42808Y-205064D01*
X42780Y-205232D01*
X42724Y-205429D01*
X42667Y-205640D01*
X42569Y-205851D01*
X42442Y-206076D01*
X42428Y-206104D01*
X42372Y-206174D01*
X42288Y-206273D01*
X42189Y-206399D01*
X42049Y-206526D01*
X41880Y-206681D01*
X41683Y-206807D01*
X41458Y-206934D01*
X41472D01*
X41500Y-206948D01*
X41543Y-206962D01*
X41599Y-206976D01*
X41767Y-207046D01*
X41964Y-207145D01*
X42175Y-207257D01*
X42414Y-207412D01*
X42625Y-207594D01*
X42822Y-207820D01*
X42836Y-207848D01*
X42892Y-207932D01*
X42977Y-208059D01*
X43061Y-208227D01*
X43145Y-208452D01*
X43230Y-208691D01*
X43286Y-208972D01*
X43300Y-209282D01*
Y-209296D01*
Y-209310D01*
Y-209394D01*
X43286Y-209521D01*
X43258Y-209689D01*
X43230Y-209886D01*
X43173Y-210111D01*
X43089Y-210336D01*
X42991Y-210575D01*
X42977Y-210603D01*
X42934Y-210674D01*
X42864Y-210786D01*
X42766Y-210927D01*
X42653Y-211095D01*
X42498Y-211250D01*
X42344Y-211419D01*
X42147Y-211574D01*
X42119Y-211588D01*
X42049Y-211630D01*
X41936Y-211700D01*
X41781Y-211770D01*
X41585Y-211855D01*
X41360Y-211925D01*
X41107Y-211995D01*
X40825Y-212037D01*
X40769D01*
X40713Y-212052D01*
X40572D01*
X40474Y-212066D01*
X40207D01*
X40038Y-212080D01*
X39616D01*
X39377Y-212094D01*
X35159D01*
Y-202364D01*
X39433D01*
X39687Y-202378D01*
D02*
G37*
G36*
X76664Y-202196D02*
X76805D01*
X76988Y-202224D01*
X77199Y-202252D01*
X77438Y-202294D01*
X77691Y-202350D01*
X77958Y-202420D01*
X78239Y-202505D01*
X78520Y-202617D01*
X78816Y-202744D01*
X79097Y-202899D01*
X79378Y-203081D01*
X79645Y-203292D01*
X79898Y-203531D01*
X79912Y-203545D01*
X79954Y-203587D01*
X80025Y-203672D01*
X80095Y-203770D01*
X80193Y-203911D01*
X80306Y-204080D01*
X80418Y-204276D01*
X80545Y-204501D01*
X80671Y-204740D01*
X80784Y-205022D01*
X80896Y-205331D01*
X80995Y-205654D01*
X81079Y-206020D01*
X81135Y-206399D01*
X81178Y-206807D01*
X81192Y-207243D01*
Y-207271D01*
Y-207341D01*
X81178Y-207468D01*
Y-207637D01*
X81150Y-207834D01*
X81121Y-208059D01*
X81079Y-208326D01*
X81037Y-208593D01*
X80967Y-208888D01*
X80882Y-209197D01*
X80770Y-209507D01*
X80643Y-209816D01*
X80503Y-210111D01*
X80320Y-210406D01*
X80123Y-210688D01*
X79898Y-210955D01*
X79884Y-210969D01*
X79842Y-211011D01*
X79772Y-211081D01*
X79659Y-211166D01*
X79533Y-211264D01*
X79378Y-211377D01*
X79195Y-211489D01*
X78998Y-211616D01*
X78759Y-211742D01*
X78506Y-211855D01*
X78225Y-211967D01*
X77916Y-212066D01*
X77592Y-212150D01*
X77241Y-212220D01*
X76875Y-212262D01*
X76482Y-212277D01*
X76383D01*
X76271Y-212262D01*
X76130Y-212248D01*
X75947Y-212234D01*
X75736Y-212206D01*
X75497Y-212164D01*
X75244Y-212108D01*
X74963Y-212037D01*
X74696Y-211953D01*
X74401Y-211841D01*
X74120Y-211714D01*
X73824Y-211574D01*
X73557Y-211391D01*
X73290Y-211194D01*
X73037Y-210955D01*
X73023Y-210941D01*
X72981Y-210899D01*
X72924Y-210814D01*
X72840Y-210716D01*
X72742Y-210575D01*
X72629Y-210406D01*
X72517Y-210224D01*
X72404Y-209999D01*
X72278Y-209760D01*
X72165Y-209478D01*
X72053Y-209183D01*
X71954Y-208860D01*
X71870Y-208508D01*
X71814Y-208129D01*
X71772Y-207721D01*
X71757Y-207299D01*
Y-207285D01*
Y-207229D01*
Y-207159D01*
X71772Y-207046D01*
Y-206920D01*
X71785Y-206779D01*
X71800Y-206610D01*
X71814Y-206428D01*
X71870Y-206034D01*
X71940Y-205612D01*
X72053Y-205190D01*
X72193Y-204797D01*
Y-204783D01*
X72207Y-204768D01*
X72235Y-204726D01*
X72250Y-204670D01*
X72334Y-204529D01*
X72432Y-204347D01*
X72559Y-204136D01*
X72714Y-203925D01*
X72896Y-203686D01*
X73093Y-203461D01*
X73107Y-203447D01*
X73121Y-203433D01*
X73191Y-203362D01*
X73318Y-203250D01*
X73473Y-203123D01*
X73655Y-202983D01*
X73866Y-202828D01*
X74105Y-202688D01*
X74358Y-202575D01*
X74373D01*
X74401Y-202561D01*
X74457Y-202533D01*
X74527Y-202519D01*
X74612Y-202477D01*
X74710Y-202449D01*
X74836Y-202420D01*
X74963Y-202378D01*
X75272Y-202308D01*
X75624Y-202238D01*
X76032Y-202196D01*
X76453Y-202181D01*
X76552D01*
X76664Y-202196D01*
D02*
G37*
G36*
X49472D02*
X49613D01*
X49796Y-202224D01*
X50007Y-202252D01*
X50246Y-202294D01*
X50499Y-202350D01*
X50766Y-202420D01*
X51047Y-202505D01*
X51328Y-202617D01*
X51623Y-202744D01*
X51905Y-202899D01*
X52186Y-203081D01*
X52453Y-203292D01*
X52706Y-203531D01*
X52720Y-203545D01*
X52762Y-203587D01*
X52833Y-203672D01*
X52903Y-203770D01*
X53001Y-203911D01*
X53114Y-204080D01*
X53226Y-204276D01*
X53353Y-204501D01*
X53479Y-204740D01*
X53592Y-205022D01*
X53704Y-205331D01*
X53803Y-205654D01*
X53887Y-206020D01*
X53943Y-206399D01*
X53986Y-206807D01*
X54000Y-207243D01*
Y-207271D01*
Y-207341D01*
X53986Y-207468D01*
Y-207637D01*
X53957Y-207834D01*
X53929Y-208059D01*
X53887Y-208326D01*
X53845Y-208593D01*
X53775Y-208888D01*
X53690Y-209197D01*
X53578Y-209507D01*
X53451Y-209816D01*
X53311Y-210111D01*
X53128Y-210406D01*
X52931Y-210688D01*
X52706Y-210955D01*
X52692Y-210969D01*
X52650Y-211011D01*
X52579Y-211081D01*
X52467Y-211166D01*
X52341Y-211264D01*
X52186Y-211377D01*
X52003Y-211489D01*
X51806Y-211616D01*
X51567Y-211742D01*
X51314Y-211855D01*
X51033Y-211967D01*
X50724Y-212066D01*
X50400Y-212150D01*
X50049Y-212220D01*
X49683Y-212262D01*
X49290Y-212277D01*
X49191D01*
X49079Y-212262D01*
X48938Y-212248D01*
X48755Y-212234D01*
X48544Y-212206D01*
X48305Y-212164D01*
X48052Y-212108D01*
X47771Y-212037D01*
X47504Y-211953D01*
X47209Y-211841D01*
X46927Y-211714D01*
X46632Y-211574D01*
X46365Y-211391D01*
X46098Y-211194D01*
X45845Y-210955D01*
X45831Y-210941D01*
X45789Y-210899D01*
X45732Y-210814D01*
X45648Y-210716D01*
X45549Y-210575D01*
X45437Y-210406D01*
X45325Y-210224D01*
X45212Y-209999D01*
X45086Y-209760D01*
X44973Y-209478D01*
X44861Y-209183D01*
X44762Y-208860D01*
X44678Y-208508D01*
X44622Y-208129D01*
X44579Y-207721D01*
X44565Y-207299D01*
Y-207285D01*
Y-207229D01*
Y-207159D01*
X44579Y-207046D01*
Y-206920D01*
X44594Y-206779D01*
X44607Y-206610D01*
X44622Y-206428D01*
X44678Y-206034D01*
X44748Y-205612D01*
X44861Y-205190D01*
X45001Y-204797D01*
Y-204783D01*
X45015Y-204768D01*
X45043Y-204726D01*
X45057Y-204670D01*
X45142Y-204529D01*
X45240Y-204347D01*
X45367Y-204136D01*
X45521Y-203925D01*
X45704Y-203686D01*
X45901Y-203461D01*
X45915Y-203447D01*
X45929Y-203433D01*
X46000Y-203362D01*
X46126Y-203250D01*
X46281Y-203123D01*
X46464Y-202983D01*
X46674Y-202828D01*
X46913Y-202688D01*
X47166Y-202575D01*
X47181D01*
X47209Y-202561D01*
X47265Y-202533D01*
X47335Y-202519D01*
X47420Y-202477D01*
X47518Y-202449D01*
X47644Y-202420D01*
X47771Y-202378D01*
X48080Y-202308D01*
X48432Y-202238D01*
X48840Y-202196D01*
X49261Y-202181D01*
X49360D01*
X49472Y-202196D01*
D02*
G37*
%LPC*%
G36*
X110718Y-204628D02*
X109396Y-208241D01*
X112082D01*
X110718Y-204628D01*
D02*
G37*
G36*
X101283Y-204009D02*
X99821D01*
Y-206779D01*
X101171D01*
X101269Y-206765D01*
X101522D01*
X101776Y-206751D01*
X102029Y-206723D01*
X102253Y-206681D01*
X102352Y-206667D01*
X102436Y-206638D01*
X102450Y-206624D01*
X102507Y-206610D01*
X102577Y-206568D01*
X102661Y-206526D01*
X102760Y-206456D01*
X102858Y-206371D01*
X102971Y-206273D01*
X103055Y-206160D01*
X103069Y-206146D01*
X103097Y-206104D01*
X103125Y-206034D01*
X103167Y-205935D01*
X103210Y-205823D01*
X103252Y-205696D01*
X103266Y-205556D01*
X103280Y-205401D01*
Y-205373D01*
Y-205317D01*
X103266Y-205218D01*
X103238Y-205092D01*
X103196Y-204951D01*
X103139Y-204797D01*
X103069Y-204656D01*
X102956Y-204515D01*
X102943Y-204501D01*
X102900Y-204459D01*
X102830Y-204403D01*
X102746Y-204333D01*
X102633Y-204248D01*
X102493Y-204178D01*
X102338Y-204122D01*
X102169Y-204080D01*
X102155D01*
X102099Y-204065D01*
X102000Y-204051D01*
X101860Y-204037D01*
X101677D01*
X101550Y-204023D01*
X101424D01*
X101283Y-204009D01*
D02*
G37*
G36*
X39082Y-203981D02*
X37128D01*
Y-206231D01*
X39012D01*
X39251Y-206217D01*
X39687D01*
X39771Y-206203D01*
X39855D01*
X39911Y-206189D01*
X39996Y-206174D01*
X40122Y-206132D01*
X40249Y-206090D01*
X40376Y-206034D01*
X40502Y-205963D01*
X40615Y-205865D01*
X40629Y-205851D01*
X40657Y-205809D01*
X40713Y-205753D01*
X40769Y-205654D01*
X40811Y-205542D01*
X40868Y-205415D01*
X40896Y-205261D01*
X40910Y-205092D01*
Y-205078D01*
Y-205022D01*
X40896Y-204937D01*
X40882Y-204825D01*
X40854Y-204712D01*
X40797Y-204600D01*
X40741Y-204473D01*
X40657Y-204361D01*
X40643Y-204347D01*
X40615Y-204318D01*
X40544Y-204262D01*
X40474Y-204206D01*
X40361Y-204150D01*
X40235Y-204094D01*
X40080Y-204051D01*
X39911Y-204023D01*
X39897D01*
X39841Y-204009D01*
X39687D01*
X39602Y-203995D01*
X39237D01*
X39082Y-203981D01*
D02*
G37*
G36*
X39166Y-207848D02*
X37128D01*
Y-210449D01*
X39293D01*
X39504Y-210435D01*
X39729D01*
X39954Y-210421D01*
X40137Y-210406D01*
X40221D01*
X40277Y-210392D01*
X40291D01*
X40347Y-210378D01*
X40432Y-210350D01*
X40530Y-210322D01*
X40643Y-210266D01*
X40769Y-210196D01*
X40882Y-210111D01*
X40994Y-210013D01*
X41008Y-209999D01*
X41036Y-209957D01*
X41078Y-209886D01*
X41135Y-209788D01*
X41191Y-209675D01*
X41233Y-209535D01*
X41261Y-209366D01*
X41275Y-209183D01*
Y-209169D01*
Y-209113D01*
X41261Y-209029D01*
X41247Y-208930D01*
X41219Y-208804D01*
X41177Y-208691D01*
X41121Y-208565D01*
X41050Y-208438D01*
X41036Y-208424D01*
X41008Y-208382D01*
X40966Y-208326D01*
X40896Y-208269D01*
X40811Y-208185D01*
X40699Y-208115D01*
X40572Y-208044D01*
X40432Y-207988D01*
X40418D01*
X40347Y-207960D01*
X40235Y-207946D01*
X40165Y-207932D01*
X40066Y-207918D01*
X39968Y-207904D01*
X39841Y-207890D01*
X39701Y-207876D01*
X39532D01*
X39363Y-207862D01*
X39166Y-207848D01*
D02*
G37*
G36*
X76482Y-203854D02*
X76369D01*
X76285Y-203869D01*
X76172Y-203883D01*
X76060Y-203897D01*
X75779Y-203953D01*
X75469Y-204065D01*
X75301Y-204122D01*
X75132Y-204206D01*
X74977Y-204305D01*
X74808Y-204417D01*
X74654Y-204543D01*
X74513Y-204698D01*
X74499Y-204712D01*
X74485Y-204740D01*
X74443Y-204783D01*
X74401Y-204853D01*
X74344Y-204951D01*
X74288Y-205050D01*
X74218Y-205176D01*
X74148Y-205331D01*
X74077Y-205500D01*
X74007Y-205682D01*
X73951Y-205893D01*
X73895Y-206118D01*
X73852Y-206371D01*
X73810Y-206638D01*
X73796Y-206920D01*
X73782Y-207229D01*
Y-207243D01*
Y-207299D01*
Y-207384D01*
X73796Y-207496D01*
X73810Y-207637D01*
X73824Y-207805D01*
X73852Y-207974D01*
X73880Y-208171D01*
X73965Y-208579D01*
X74105Y-208986D01*
X74190Y-209197D01*
X74288Y-209394D01*
X74415Y-209577D01*
X74541Y-209746D01*
X74555Y-209760D01*
X74584Y-209788D01*
X74626Y-209830D01*
X74682Y-209872D01*
X74752Y-209943D01*
X74851Y-210013D01*
X74949Y-210097D01*
X75076Y-210168D01*
X75343Y-210336D01*
X75680Y-210463D01*
X75863Y-210519D01*
X76060Y-210561D01*
X76271Y-210589D01*
X76482Y-210603D01*
X76594D01*
X76678Y-210589D01*
X76777Y-210575D01*
X76889Y-210561D01*
X77156Y-210491D01*
X77466Y-210392D01*
X77620Y-210322D01*
X77789Y-210252D01*
X77944Y-210153D01*
X78113Y-210041D01*
X78267Y-209914D01*
X78408Y-209760D01*
X78422Y-209746D01*
X78436Y-209718D01*
X78478Y-209675D01*
X78520Y-209605D01*
X78591Y-209507D01*
X78647Y-209394D01*
X78717Y-209268D01*
X78787Y-209113D01*
X78858Y-208944D01*
X78928Y-208762D01*
X78998Y-208551D01*
X79054Y-208312D01*
X79097Y-208073D01*
X79139Y-207805D01*
X79153Y-207510D01*
X79167Y-207201D01*
Y-207187D01*
Y-207131D01*
Y-207046D01*
X79153Y-206920D01*
X79139Y-206779D01*
X79125Y-206624D01*
X79111Y-206442D01*
X79069Y-206259D01*
X78984Y-205851D01*
X78858Y-205429D01*
X78773Y-205218D01*
X78675Y-205036D01*
X78548Y-204853D01*
X78422Y-204684D01*
X78408Y-204670D01*
X78394Y-204642D01*
X78351Y-204614D01*
X78295Y-204557D01*
X78211Y-204487D01*
X78127Y-204417D01*
X78028Y-204347D01*
X77902Y-204262D01*
X77775Y-204192D01*
X77620Y-204122D01*
X77297Y-203981D01*
X77114Y-203925D01*
X76917Y-203897D01*
X76706Y-203869D01*
X76482Y-203854D01*
D02*
G37*
G36*
X49290D02*
X49177D01*
X49093Y-203869D01*
X48980Y-203883D01*
X48868Y-203897D01*
X48586Y-203953D01*
X48277Y-204065D01*
X48109Y-204122D01*
X47940Y-204206D01*
X47785Y-204305D01*
X47616Y-204417D01*
X47462Y-204543D01*
X47321Y-204698D01*
X47307Y-204712D01*
X47293Y-204740D01*
X47251Y-204783D01*
X47209Y-204853D01*
X47152Y-204951D01*
X47096Y-205050D01*
X47026Y-205176D01*
X46955Y-205331D01*
X46885Y-205500D01*
X46815Y-205682D01*
X46759Y-205893D01*
X46703Y-206118D01*
X46660Y-206371D01*
X46618Y-206638D01*
X46604Y-206920D01*
X46590Y-207229D01*
Y-207243D01*
Y-207299D01*
Y-207384D01*
X46604Y-207496D01*
X46618Y-207637D01*
X46632Y-207805D01*
X46660Y-207974D01*
X46688Y-208171D01*
X46773Y-208579D01*
X46913Y-208986D01*
X46998Y-209197D01*
X47096Y-209394D01*
X47223Y-209577D01*
X47349Y-209746D01*
X47363Y-209760D01*
X47391Y-209788D01*
X47434Y-209830D01*
X47490Y-209872D01*
X47560Y-209943D01*
X47659Y-210013D01*
X47757Y-210097D01*
X47883Y-210168D01*
X48151Y-210336D01*
X48488Y-210463D01*
X48671Y-210519D01*
X48868Y-210561D01*
X49079Y-210589D01*
X49290Y-210603D01*
X49402D01*
X49486Y-210589D01*
X49585Y-210575D01*
X49697Y-210561D01*
X49964Y-210491D01*
X50274Y-210392D01*
X50428Y-210322D01*
X50597Y-210252D01*
X50752Y-210153D01*
X50920Y-210041D01*
X51075Y-209914D01*
X51216Y-209760D01*
X51230Y-209746D01*
X51244Y-209718D01*
X51286Y-209675D01*
X51328Y-209605D01*
X51398Y-209507D01*
X51455Y-209394D01*
X51525Y-209268D01*
X51595Y-209113D01*
X51666Y-208944D01*
X51736Y-208762D01*
X51806Y-208551D01*
X51863Y-208312D01*
X51905Y-208073D01*
X51947Y-207805D01*
X51961Y-207510D01*
X51975Y-207201D01*
Y-207187D01*
Y-207131D01*
Y-207046D01*
X51961Y-206920D01*
X51947Y-206779D01*
X51933Y-206624D01*
X51919Y-206442D01*
X51876Y-206259D01*
X51792Y-205851D01*
X51666Y-205429D01*
X51581Y-205218D01*
X51483Y-205036D01*
X51356Y-204853D01*
X51230Y-204684D01*
X51216Y-204670D01*
X51202Y-204642D01*
X51160Y-204614D01*
X51103Y-204557D01*
X51019Y-204487D01*
X50934Y-204417D01*
X50836Y-204347D01*
X50710Y-204262D01*
X50583Y-204192D01*
X50428Y-204122D01*
X50105Y-203981D01*
X49922Y-203925D01*
X49725Y-203897D01*
X49514Y-203869D01*
X49290Y-203854D01*
D02*
G37*
%LPD*%
D15*
X157399Y130892D02*
D03*
Y134457D02*
D03*
X179362Y171408D02*
D03*
Y167842D02*
D03*
X175274Y167831D02*
D03*
Y171397D02*
D03*
X60331Y5193D02*
D03*
Y1628D02*
D03*
X82056Y4744D02*
D03*
Y1178D02*
D03*
X192019Y28336D02*
D03*
Y31902D02*
D03*
X183451Y171420D02*
D03*
Y167854D02*
D03*
X218635Y228223D02*
D03*
Y231789D02*
D03*
X180843Y232807D02*
D03*
Y229241D02*
D03*
X187551Y171420D02*
D03*
Y167854D02*
D03*
X173076Y108273D02*
D03*
Y111839D02*
D03*
X168976Y108273D02*
D03*
Y111839D02*
D03*
X164876Y108273D02*
D03*
Y111839D02*
D03*
X139500Y156500D02*
D03*
Y152934D02*
D03*
X160776Y108273D02*
D03*
Y111839D02*
D03*
X156676Y108273D02*
D03*
Y111839D02*
D03*
X152576Y108273D02*
D03*
Y111839D02*
D03*
X148476Y108273D02*
D03*
Y111839D02*
D03*
X-11224Y97898D02*
D03*
Y94332D02*
D03*
X303398Y277098D02*
D03*
Y280664D02*
D03*
X-11201Y105564D02*
D03*
Y101998D02*
D03*
X89313Y1178D02*
D03*
Y4744D02*
D03*
X67545Y1628D02*
D03*
Y5193D02*
D03*
X180046Y152679D02*
D03*
Y149113D02*
D03*
X303375Y269432D02*
D03*
Y272998D02*
D03*
X186546Y133569D02*
D03*
Y137135D02*
D03*
X337297Y179758D02*
D03*
Y183324D02*
D03*
X347083Y180483D02*
D03*
Y184049D02*
D03*
D18*
X35023Y139663D02*
D03*
X40023D02*
D03*
X45023D02*
D03*
X50023D02*
D03*
Y120263D02*
D03*
X45023D02*
D03*
X40023D02*
D03*
X35023D02*
D03*
D19*
X46365Y148350D02*
D03*
X49931D02*
D03*
X55476Y148248D02*
D03*
X59042D02*
D03*
X170726Y57884D02*
D03*
X174291D02*
D03*
X170786Y53313D02*
D03*
X174352D02*
D03*
X170026Y160984D02*
D03*
X166460D02*
D03*
X180142Y126204D02*
D03*
X176576D02*
D03*
X204315Y34968D02*
D03*
X200749D02*
D03*
X95647Y207976D02*
D03*
X99213D02*
D03*
X206236Y155210D02*
D03*
X202671D02*
D03*
X139268Y132834D02*
D03*
X142834D02*
D03*
X202671Y151110D02*
D03*
X206236D02*
D03*
X202682Y147022D02*
D03*
X206248D02*
D03*
X202694Y142933D02*
D03*
X206260D02*
D03*
X202682Y138758D02*
D03*
X206248D02*
D03*
X206236Y159310D02*
D03*
X202671D02*
D03*
X131937Y103026D02*
D03*
X128371D02*
D03*
X148962Y156125D02*
D03*
X152528D02*
D03*
X202694Y134669D02*
D03*
X206260D02*
D03*
X202705Y130581D02*
D03*
X206271D02*
D03*
X202705Y126481D02*
D03*
X206271D02*
D03*
X202705Y122381D02*
D03*
X206271D02*
D03*
X131124Y119898D02*
D03*
X134690D02*
D03*
X139214Y137924D02*
D03*
X142780D02*
D03*
D23*
X152733Y31150D02*
D03*
X160213D02*
D03*
X156473Y21701D02*
D03*
D31*
X328783Y113779D02*
D03*
X340595D02*
D03*
D33*
X174947Y42574D02*
D03*
X169051D02*
D03*
X379032Y134108D02*
D03*
X373136D02*
D03*
X333035Y73293D02*
D03*
X338931D02*
D03*
D47*
X380985Y125487D02*
D03*
X371567D02*
D03*
X371720Y114252D02*
D03*
X381137D02*
D03*
X330771Y81911D02*
D03*
X340188D02*
D03*
D48*
X186233Y27142D02*
D03*
Y33038D02*
D03*
X257285Y170297D02*
D03*
Y164401D02*
D03*
D49*
X275632Y292098D02*
D03*
Y287098D02*
D03*
Y282098D02*
D03*
Y277098D02*
D03*
X295032D02*
D03*
Y282098D02*
D03*
Y287098D02*
D03*
Y292098D02*
D03*
X-2470Y83746D02*
D03*
Y88746D02*
D03*
Y93746D02*
D03*
Y98746D02*
D03*
X16930D02*
D03*
Y93746D02*
D03*
Y88746D02*
D03*
Y83746D02*
D03*
D50*
X352063Y61156D02*
D03*
Y33990D02*
D03*
D51*
X191982Y228482D02*
D03*
Y231789D02*
D03*
X200643Y228482D02*
D03*
Y231789D02*
D03*
X213635Y228482D02*
D03*
Y231789D02*
D03*
X209304Y228482D02*
D03*
Y231789D02*
D03*
D141*
X168913Y35759D02*
D03*
Y28279D02*
D03*
X178795D02*
D03*
Y32019D02*
D03*
Y35759D02*
D03*
D142*
X246773Y14239D02*
D03*
X273938D02*
D03*
X324549Y13423D02*
D03*
X351714D02*
D03*
D143*
X393987Y266710D02*
D03*
X389657D02*
D03*
D144*
X164298Y137135D02*
D03*
X180046D02*
D03*
D145*
X167447Y141411D02*
D03*
X170597D02*
D03*
X173747D02*
D03*
X176896D02*
D03*
X164298D02*
D03*
X180046D02*
D03*
X164298Y132858D02*
D03*
X167447D02*
D03*
X170597D02*
D03*
X173747D02*
D03*
X176896D02*
D03*
X180046D02*
D03*
D147*
X180173Y297466D02*
D03*
D148*
X233322Y299238D02*
D03*
D149*
X180171Y256718D02*
D03*
X224068Y239789D02*
D03*
D150*
X183911D02*
D03*
X196312D02*
D03*
X204974D02*
D03*
X213635D02*
D03*
X187651D02*
D03*
X200643D02*
D03*
X217966D02*
D03*
X209304D02*
D03*
X191982D02*
D03*
D151*
X180171Y281127D02*
D03*
X89312Y18521D02*
D03*
Y11041D02*
D03*
X79863Y14781D02*
D03*
X67544Y18884D02*
D03*
Y11404D02*
D03*
X58095Y15144D02*
D03*
D152*
X387836Y146319D02*
D03*
Y134508D02*
D03*
M02*
